g Baton_2_LOD0
v 0.00057248 0.1448312 0.1289023
v -0.09143558 0.120122 0.09301142
v 0.0002283696 0.1310764 0.112567
v 0.08787513 0.1135661 0.1374724
v 0.0002283696 0.1310764 0.112567
v 0.00057248 0.1467534 0.09750885
v 0.08787513 0.1135661 0.1374724
v -0.09143558 0.120122 0.09301142
v -0.09487616 0.1119026 -0.02015646
v 0.001949052 0.1281518 0.006076092
v 0.00057248 0.1462594 0.02240735
v 0.09346639 0.1203613 0.03932876
v 0.1017789 0.1112553 0.036623
v 0.001949052 0.1281518 0.006076092
v 0.09327508 0.1192798 0.02520259
v 0.1017789 0.1112553 0.036623
v 0.00057248 0.1441901 -0.01138889
v -0.09487616 0.1119026 -0.02015646
v 0.0005023897 0.1253501 -0.1031875
v 0.00057248 0.1360601 -0.09401486
v -0.04555605 0.123394 -0.1141488
v 0.0501591 0.1329509 -0.08157983
v 0.0485235 0.1185248 -0.09032425
v 0.09219668 0.113183 -0.08157987
v 0.0005023897 0.1253501 -0.1031875
v -0.04555605 0.123394 -0.1141488
v 0.000572479 0.1283069 -0.1163251
v 0.04741855 0.1253772 -0.1056111
v 0.0485235 0.1185248 -0.09032425
v 0.09219668 0.113183 -0.08157987
v 0.1322689 0.04708323 0.0639921
v 0.131127 0.04308649 0.1423914
v 0.08816999 0.1135399 0.1423914
v 0.08787513 0.1135661 0.1374724
v 0.00057248 0.1440043 0.1423914
v 0.00057248 0.1448312 0.1289023
v -0.09143558 0.120122 0.09301142
v -0.0872499 0.1171821 0.1423914
v -0.1299821 0.04308648 0.1423914
v -0.1311239 0.04708323 0.0639921
v -0.1058021 0.001965079 0.1423914
v -0.1033545 0.001965091 0.06399209
v -0.1078992 0.001965115 -0.08157985
v -0.1290038 0.03966211 -0.08157986
v -0.09160256 0.001965127 -0.1559127
v -0.1084023 0.03120205 -0.155903
v 0.09369596 0.1216592 0.06399211
v 0.1017789 0.1112553 0.036623
v 0.00057248 0.1467534 0.09750885
v 0.09346639 0.1203613 0.03932876
v 0.00057248 0.1488055 0.06399211
v -0.09143558 0.120122 0.09301142
v 0.00057248 0.1462594 0.02240735
v -0.09255104 0.1216592 0.06399211
v -0.1311239 0.04708323 0.0639921
v -0.09487616 0.1119026 -0.02015646
v -0.1290038 0.03966211 -0.08157986
v -0.08561437 0.02497885 -0.1872435
v -0.0599179 0.001965133 -0.1891809
v -0.03969285 0.0213991 -0.2185528
v -0.01751146 0.001965137 -0.2184883
v -0.03662978 0.04465264 -0.2185449
v -0.07778493 0.09241541 -0.1559205
v -0.09125128 0.1103244 -0.08157985
v -0.1290038 0.03966211 -0.08157986
v -0.09487616 0.1119026 -0.02015646
v 0.00057248 0.1441901 -0.01138889
v -0.05574078 0.07384281 -0.1872225
v -0.0324225 0.09033826 -0.1872078
v -0.01750572 0.06338864 -0.2184863
v -0.04111943 0.1111332 -0.1559329
v 0.0005724758 0.09501884 -0.187202
v 0.0005724728 0.06602468 -0.2184709
v 0.01865064 0.06338865 -0.2184863
v 0.0005724779 0.116976 -0.1559377
v 0.03356741 0.09033826 -0.1872078
v 0.0390503 0.04530104 -0.2185445
v 0.06152966 0.07715448 -0.1872222
v 0.04083779 0.0213991 -0.2185528
v 0.04226433 0.1111332 -0.1559329
v 0.000572479 0.1283069 -0.1163251
v -0.04555605 0.123394 -0.1141488
v 0.04741855 0.1253772 -0.1056111
v 0.00057248 0.1360601 -0.09401486
v 0.09219668 0.113183 -0.08157987
v 0.00057248 0.1398925 -0.08157983
v 0.0501591 0.1329509 -0.08157983
v 0.09327508 0.1192798 0.02520259
v 0.1017789 0.1112553 0.036623
v 0.1301487 0.03966212 -0.08157986
v 0.1322689 0.04708323 0.0639921
v 0.07761715 0.09449506 -0.1559207
v 0.1301487 0.03966212 -0.08157986
v 0.1095472 0.03120205 -0.155903
v 0.08675931 0.02497885 -0.1872435
v 0.06288816 0.001965132 -0.1872643
v 0.01865639 0.001965137 -0.2184883
v 0.09274752 0.001965127 -0.1559127
v 0.1090442 0.001965115 -0.08157985
v 0.1322689 0.04708323 0.0639921
v 0.1044994 0.001965091 0.06399209
v 0.131127 0.04308649 0.1423914
v 0.106947 0.001965079 0.1423914
v -0.1033545 0.001965091 0.06399209
v -0.1058021 0.001965079 0.1423914
v 0.106947 0.001965079 0.1423914
v 0.1044994 0.001965091 0.06399209
v 0.1090442 0.001965115 -0.08157985
v -0.1078992 0.001965115 -0.08157985
v 0.09274752 0.001965127 -0.1559127
v -0.09160256 0.001965127 -0.1559127
v -0.0599179 0.001965133 -0.1891809
v 0.06288816 0.001965132 -0.1872643
v -0.01751146 0.001965137 -0.2184883
v 0.01865639 0.001965137 -0.2184883
v -0.1299821 0.04308648 0.1423914
v -0.0872499 0.1171821 0.1423914
v -0.1058021 0.001965079 0.1423914
v 0.08816999 0.1135399 0.1423914
v 0.00057248 0.1440043 0.1423914
v 0.106947 0.001965079 0.1423914
v 0.131127 0.04308649 0.1423914
v 0.0005724677 0.02229541 -0.2303439
v -0.03662978 0.04465264 -0.2185449
v -0.03969285 0.0213991 -0.2185528
v -0.01750572 0.06338864 -0.2184863
v -0.01751146 0.001965137 -0.2184883
v 0.0005724728 0.06602468 -0.2184709
v 0.01865639 0.001965137 -0.2184883
v 0.01865064 0.06338865 -0.2184863
v 0.04083779 0.0213991 -0.2185528
v 0.0390503 0.04530104 -0.2185445
vt 0.7001953 0.3925781
vt 0.71875 0.4257813
vt 0.706543 0.392334
vt 0.7036133 0.3544922
vt 0.7124023 0.392334
vt 0.7192383 0.3916016
vt 0.7036133 0.3544922
vt 0.71875 0.4257813
vt 0.7636719 0.4250488
vt 0.7514648 0.3913574
vt 0.7446289 0.3925781
vt 0.7431641 0.3596191
vt 0.7456055 0.3552246
vt 0.7563477 0.3911133
vt 0.7504883 0.3598633
vt 0.7456055 0.3552246
vt 0.7626953 0.3911133
vt 0.7636719 0.4250488
vt 0.7905273 0.3913574
vt 0.7875977 0.3916016
vt 0.7954102 0.4060059
vt 0.7841797 0.376709
vt 0.7875977 0.3762207
vt 0.7866211 0.3625488
vt 0.793457 0.3913574
vt 0.7954102 0.4060059
vt 0.7963867 0.3913574
vt 0.7939453 0.3769531
vt 0.7900391 0.3764648
vt 0.7866211 0.3625488
vt 0.7368164 0.3427734
vt 0.7080078 0.3183594
vt 0.7016602 0.3540039
vt 0.7036133 0.3544922
vt 0.6943359 0.392334
vt 0.7001953 0.3925781
vt 0.71875 0.4257813
vt 0.6977539 0.4316406
vt 0.7045898 0.4697266
vt 0.7368164 0.4619141
vt 0.7084961 0.4899902
vt 0.7421875 0.4841309
vt 0.8012695 0.4660645
vt 0.793457 0.4501953
vt 0.8291016 0.4494629
vt 0.8193359 0.4401855
vt 0.734375 0.3579102
vt 0.7456055 0.3552246
vt 0.7192383 0.3916016
vt 0.7431641 0.3596191
vt 0.730957 0.3920898
vt 0.71875 0.4257813
vt 0.7446289 0.3925781
vt 0.7314453 0.4274902
vt 0.7333984 0.4433594
vt 0.7636719 0.4250488
vt 0.793457 0.4501953
vt 0.8320313 0.4335938
vt 0.8452148 0.4370117
vt 0.8496094 0.4196777
vt 0.8623047 0.421875
vt 0.8432617 0.411377
vt 0.8105469 0.4179688
vt 0.7856445 0.4221191
vt 0.7880859 0.4348145
vt 0.7636719 0.4250488
vt 0.7626953 0.3911133
vt 0.8242188 0.4133301
vt 0.8222656 0.4035645
vt 0.8398438 0.3999023
vt 0.809082 0.4050293
vt 0.8217773 0.3916016
vt 0.8393555 0.3918457
vt 0.8398438 0.3837891
vt 0.809082 0.3916016
vt 0.8222656 0.380127
vt 0.8432617 0.3720703
vt 0.8232422 0.3693848
vt 0.8496094 0.3640137
vt 0.8095703 0.378418
vt 0.7963867 0.3913574
vt 0.7954102 0.4060059
vt 0.7939453 0.3769531
vt 0.7875977 0.3916016
vt 0.7866211 0.3625488
vt 0.7836914 0.3916016
vt 0.7841797 0.376709
vt 0.7504883 0.3598633
vt 0.7456055 0.3552246
vt 0.7890625 0.3493652
vt 0.7397461 0.3249512
vt 0.8110352 0.3662109
vt 0.7939453 0.3344727
vt 0.8193359 0.3439941
vt 0.8320313 0.3500977
vt 0.8447266 0.3459473
vt 0.8623047 0.3613281
vt 0.8291016 0.3347168
vt 0.8012695 0.3188477
vt 0.7397461 0.3249512
vt 0.7436523 0.3034668
vt 0.7080078 0.3183594
vt 0.7109375 0.2988281
vt 0.6933594 0.5078125
vt 0.6655273 0.5068359
vt 0.6655273 0.5830078
vt 0.6933594 0.5820313
vt 0.7456055 0.5839844
vt 0.7456055 0.5063477
vt 0.7719727 0.578125
vt 0.7719727 0.512207
vt 0.7841797 0.5234375
vt 0.7832031 0.5673828
vt 0.7944336 0.5385742
vt 0.7944336 0.5517578
vt 0.2602539 0.265625
vt 0.2288818 0.2836914
vt 0.2775879 0.2758789
vt 0.2304688 0.357666
vt 0.2176514 0.3208008
vt 0.2775879 0.3654785
vt 0.2602539 0.3757324
vt 0.9716797 0.1412354
vt 0.9814453 0.119751
vt 0.9682617 0.1195679
vt 0.9926758 0.1291504
vt 0.9589844 0.1326904
vt 0.9956055 0.1390381
vt 0.9609375 0.1519775
vt 0.9946289 0.1491699
vt 0.9726563 0.1630859
vt 0.9858398 0.1612549
vn 0.2016602 0.7470703 -0.6333008
vn -0.1368408 0.9868164 0.08886719
vn 0.01617432 0.9970703 0.07147217
vn 0.1906738 0.9814453 0.01904297
vn 0.01617432 0.9970703 0.07147217
vn -0.15979 0.6855469 0.7099609
vn 0.1906738 0.9814453 0.01904297
vn -0.1368408 0.9868164 0.08886719
vn -0.1608887 0.9868164 -0.01730347
vn 0.02140808 0.9985352 -0.05020142
vn 0.2166748 0.6445313 -0.7329102
vn 0.3146973 0.6166992 -0.7216797
vn 0.2041016 0.96875 -0.1401367
vn 0.02140808 0.9985352 -0.05020142
vn -0.06298828 0.7563477 0.6513672
vn 0.2041016 0.96875 -0.1401367
vn -0.1984863 0.7241211 0.6601563
vn -0.1608887 0.9868164 -0.01730347
vn 0.1062012 0.9462891 -0.3046875
vn 0.2185059 0.5874023 -0.7792969
vn 0.02987671 0.9545898 -0.2958984
vn 0.2459717 0.5185547 -0.8188477
vn 0.1782227 0.9375 -0.2983398
vn 0.1846924 0.9125977 -0.3652344
vn 0.1062012 0.9462891 -0.3046875
vn 0.02987671 0.9545898 -0.2958984
vn -0.04153442 0.9619141 0.2697754
vn 0.02102661 0.9350586 0.3537598
vn 0.1782227 0.9375 -0.2983398
vn 0.1846924 0.9125977 -0.3652344
vn 0.9995117 -0.01368713 0.01986694
vn 1 -0.01180267 0.007141113
vn 0.6352539 0.7714844 0.03829956
vn 0.6391602 0.7666016 0.06622314
vn 0.02241516 0.9980469 0.06036377
vn -0.02189636 0.9975586 0.06304932
vn -0.6503906 0.7563477 0.06890869
vn -0.6235352 0.7783203 0.07513428
vn -0.9990234 -0.03765869 0.02301025
vn -1 -0.01094818 0.008644104
vn -0.4992676 -0.8662109 -0.01182556
vn -0.4863281 -0.8735352 -4.512072E-05
vn -0.5263672 -0.8486328 -0.05221558
vn -0.9902344 -0.01412201 -0.1386719
vn -0.4921875 -0.8354492 -0.2443848
vn -0.8974609 -0.04312134 -0.4387207
vn 0.6196289 0.7827148 0.05892944
vn 0.8676758 0.4970703 -0.004989624
vn 0.04602051 0.9951172 0.08972168
vn 0.5292969 0.847168 -0.05130005
vn 0.0005197525 1 0.005661011
vn -0.6503906 0.7563477 0.06890869
vn -0.05651855 0.9951172 -0.07800293
vn -0.6289063 0.777832 -0.0003576279
vn -1 -0.01094818 0.008644104
vn -0.6723633 0.7382813 -0.05725098
vn -0.9902344 -0.01412201 -0.1386719
vn -0.7099609 -0.1137085 -0.6948242
vn -0.3339844 -0.8603516 -0.3850098
vn -0.4733887 -0.1723633 -0.8637695
vn -0.1700439 -0.7993164 -0.5761719
vn -0.4240723 0.2805176 -0.8613281
vn -0.6411133 0.6162109 -0.4577637
vn -0.6469727 0.746582 -0.1564941
vn -0.9902344 -0.01412201 -0.1386719
vn -0.6723633 0.7382813 -0.05725098
vn 0.01340485 0.9990234 -0.03701782
vn -0.5336914 0.4882813 -0.6904297
vn -0.2731934 0.7045898 -0.6552734
vn -0.2137451 0.4880371 -0.8461914
vn -0.2797852 0.8496094 -0.4467773
vn 0 0.7797852 -0.6264648
vn 0 0.5356445 -0.8447266
vn 0.1846924 0.4921875 -0.8505859
vn 0.00118351 0.9033203 -0.4291992
vn 0.2388916 0.7207031 -0.6508789
vn 0.4086914 0.2697754 -0.8720703
vn 0.5283203 0.5039063 -0.6835938
vn 0.4692383 -0.1962891 -0.8608398
vn 0.255127 0.8632813 -0.4353027
vn 0.009147644 0.9594727 -0.2824707
vn -0.3054199 0.9277344 -0.2154541
vn 0.2988281 0.9091797 -0.2900391
vn -0.1177368 0.9775391 -0.1740723
vn 0.6762695 0.7197266 -0.1550293
vn -0.08117676 0.9887695 -0.1254883
vn 0.2543945 0.9663086 -0.043396
vn 0.7241211 0.6879883 -0.04605103
vn 0.8676758 0.4970703 -0.004989624
vn 0.9902344 -0.01731873 -0.1387939
vn 0.9995117 -0.01368713 0.01986694
vn 0.6240234 0.640625 -0.4477539
vn 0.9902344 -0.01731873 -0.1387939
vn 0.9042969 -0.04776001 -0.4243164
vn 0.7192383 -0.1318359 -0.6821289
vn 0.3347168 -0.8632813 -0.3779297
vn 0.1715088 -0.7993164 -0.5756836
vn 0.4934082 -0.8349609 -0.2440186
vn 0.5263672 -0.8486328 -0.05221558
vn 0.9995117 -0.01368713 0.01986694
vn 0.4863281 -0.8735352 -4.518032E-05
vn 1 -0.01180267 0.007141113
vn 0.4992676 -0.8662109 -0.01182556
vn -0.4863281 -0.8735352 -4.512072E-05
vn -0.4992676 -0.8662109 -0.01182556
vn 0.4992676 -0.8662109 -0.01182556
vn 0.4863281 -0.8735352 -4.518032E-05
vn 0.5263672 -0.8486328 -0.05221558
vn -0.5263672 -0.8486328 -0.05221558
vn 0.4934082 -0.8349609 -0.2440186
vn -0.4921875 -0.8354492 -0.2443848
vn -0.3339844 -0.8603516 -0.3850098
vn 0.3347168 -0.8632813 -0.3779297
vn -0.1700439 -0.7993164 -0.5761719
vn 0.1715088 -0.7993164 -0.5756836
vn -1.788139E-07 -2.384186E-07 1
vn 0 -2.384186E-07 1
vn 0 -1.788139E-07 1
vn 0 -2.384186E-07 1
vn 0 -3.576279E-07 1
vn 0 -1.788139E-07 1
vn 1.788139E-07 -2.980232E-07 1
vn -0.001348495 -0.1176147 -0.9931641
vn -0.4240723 0.2805176 -0.8613281
vn -0.4733887 -0.1723633 -0.8637695
vn -0.2137451 0.4880371 -0.8461914
vn -0.1700439 -0.7993164 -0.5761719
vn 0 0.5356445 -0.8447266
vn 0.1715088 -0.7993164 -0.5756836
vn 0.1846924 0.4921875 -0.8505859
vn 0.4692383 -0.1962891 -0.8608398
vn 0.4086914 0.2697754 -0.8720703
g Baton_2_LOD0_0
f 3/3/3 2/2/2 1/1/1
f 4/4/4 3/3/3 1/1/1
f 7/7/7 6/6/6 5/5/5
f 8/8/8 5/5/5 6/6/6
f 11/11/11 10/10/10 9/9/9
f 11/11/11 12/12/12 10/10/10
f 12/12/12 13/13/13 10/10/10
f 16/16/16 15/15/15 14/14/14
f 15/15/15 17/17/17 14/14/14
f 17/17/17 18/18/18 14/14/14
f 21/21/21 20/20/20 19/19/19
f 19/19/19 20/20/20 22/22/22
f 23/23/23 19/19/19 22/22/22
f 22/22/22 24/24/24 23/23/23
f 27/27/27 26/26/26 25/25/25
f 27/27/27 25/25/25 28/28/28
f 25/25/25 29/29/29 28/28/28
f 29/29/29 30/30/30 28/28/28
f 33/33/33 32/32/32 31/31/31
f 34/34/34 33/33/33 31/31/31
f 35/35/35 33/33/33 34/34/34
f 36/36/36 35/35/35 34/34/34
f 35/35/35 36/36/36 37/37/37
f 38/38/38 35/35/35 37/37/37
f 39/39/39 38/38/38 37/37/37
f 40/40/40 39/39/39 37/37/37
f 41/41/41 39/39/39 40/40/40
f 42/42/42 41/41/41 40/40/40
f 43/43/43 42/42/42 40/40/40
f 44/44/44 43/43/43 40/40/40
f 45/45/45 43/43/43 44/44/44
f 46/46/46 45/45/45 44/44/44
f 31/31/31 47/47/47 34/34/34
f 31/31/31 48/48/48 47/47/47
f 49/49/49 34/34/34 47/47/47
f 50/50/50 47/47/47 48/48/48
f 51/51/51 49/49/49 47/47/47
f 47/47/47 50/50/50 51/51/51
f 52/52/52 49/49/49 51/51/51
f 50/50/50 53/53/53 51/51/51
f 54/54/54 52/52/52 51/51/51
f 51/51/51 53/53/53 54/54/54
f 55/55/55 52/52/52 54/54/54
f 53/53/53 56/56/56 54/54/54
f 55/55/55 54/54/54 56/56/56
f 57/57/57 55/55/55 56/56/56
f 45/45/45 46/46/46 58/58/58
f 59/59/59 45/45/45 58/58/58
f 58/58/58 60/60/60 59/59/59
f 59/59/59 60/60/60 61/61/61
f 62/62/62 60/60/60 58/58/58
f 58/58/58 46/46/46 63/63/63
f 63/63/63 46/46/46 64/64/64
f 65/65/65 64/64/64 46/46/46
f 65/65/65 66/66/66 64/64/64
f 64/64/64 66/66/66 67/67/67
f 68/68/68 62/62/62 58/58/58
f 68/68/68 58/58/58 63/63/63
f 68/68/68 69/69/69 62/62/62
f 69/69/69 70/70/70 62/62/62
f 68/68/68 63/63/63 71/71/71
f 71/71/71 63/63/63 64/64/64
f 69/69/69 68/68/68 71/71/71
f 70/70/70 69/69/69 72/72/72
f 73/73/73 70/70/70 72/72/72
f 74/74/74 73/73/73 72/72/72
f 72/72/72 69/69/69 75/75/75
f 69/69/69 71/71/71 75/75/75
f 76/76/76 74/74/74 72/72/72
f 76/76/76 72/72/72 75/75/75
f 77/77/77 74/74/74 76/76/76
f 78/78/78 77/77/77 76/76/76
f 79/79/79 77/77/77 78/78/78
f 80/80/80 76/76/76 75/75/75
f 78/78/78 76/76/76 80/80/80
f 81/81/81 75/75/75 71/71/71
f 82/82/82 81/81/81 71/71/71
f 81/81/81 83/83/83 75/75/75
f 83/83/83 80/80/80 75/75/75
f 82/82/82 71/71/71 64/64/64
f 82/82/82 64/64/64 84/84/84
f 83/83/83 85/85/85 80/80/80
f 64/64/64 86/86/86 84/84/84
f 84/84/84 86/86/86 87/87/87
f 86/86/86 64/64/64 67/67/67
f 86/86/86 67/67/67 87/87/87
f 85/85/85 87/87/87 67/67/67
f 88/88/88 85/85/85 67/67/67
f 85/85/85 88/88/88 89/89/89
f 90/90/90 85/85/85 89/89/89
f 91/91/91 90/90/90 89/89/89
f 85/85/85 92/92/92 80/80/80
f 92/92/92 78/78/78 80/80/80
f 85/85/85 93/93/93 92/92/92
f 78/78/78 92/92/92 94/94/94
f 93/93/93 94/94/94 92/92/92
f 95/95/95 78/78/78 94/94/94
f 95/95/95 79/79/79 78/78/78
f 96/96/96 79/79/79 95/95/95
f 97/97/97 79/79/79 96/96/96
f 96/96/96 95/95/95 98/98/98
f 95/95/95 94/94/94 98/98/98
f 98/98/98 94/94/94 99/99/99
f 94/94/94 93/93/93 99/99/99
f 93/93/93 100/100/100 99/99/99
f 100/100/100 101/101/101 99/99/99
f 100/100/100 102/102/102 101/101/101
f 102/102/102 103/103/103 101/101/101
f 106/106/106 105/105/105 104/104/104
f 107/107/107 106/106/106 104/104/104
f 107/107/107 104/104/104 108/108/108
f 104/104/104 109/109/109 108/108/108
f 110/110/110 108/108/108 109/109/109
f 111/111/111 110/110/110 109/109/109
f 111/111/111 112/112/112 110/110/110
f 112/112/112 113/113/113 110/110/110
f 112/112/112 114/114/114 113/113/113
f 114/114/114 115/115/115 113/113/113
f 118/118/118 117/117/117 116/116/116
f 117/117/117 118/118/118 119/119/119
f 119/119/119 120/120/120 117/117/117
f 118/118/118 121/121/121 119/119/119
f 121/121/121 122/122/122 119/119/119
f 125/125/125 124/124/124 123/123/123
f 123/123/123 124/124/124 126/126/126
f 123/123/123 127/127/127 125/125/125
f 123/123/123 126/126/126 128/128/128
f 129/129/129 127/127/127 123/123/123
f 128/128/128 130/130/130 123/123/123
f 131/131/131 129/129/129 123/123/123
f 123/123/123 130/130/130 132/132/132
f 123/123/123 132/132/132 131/131/131
