g Baton_2
v 0.1043276 0.004560506 0.06947144
v 0.1067752 0.004560493 0.1478707
v 0.1309552 0.0456819 0.1478707
v 0.1320971 0.04967864 0.06947145
v 0.1158931 0.09090661 0.1478707
v 0.1220723 0.09418605 0.06947146
v 0.1088724 0.00456053 -0.07610048
v 0.08799819 0.1161353 0.1478707
v 0.1299769 0.04225753 -0.07610049
v 0.08770332 0.1161615 0.1429518
v 0.05036171 0.1396068 0.1478707
v 0.05037252 0.139724 0.1429422
v 0.0004006752 0.1465997 0.1478707
v 0.0004006752 0.1474266 0.1343816
v -0.04956912 0.1397011 0.1478707
v -0.04972939 0.1414391 0.117559
v -0.08462692 0.1227174 0.09849077
v -0.08742172 0.1197775 0.1478707
v -0.120216 0.08988174 0.1478707
v 0.1093754 0.03379746 -0.1504236
v 0.09257572 0.004560542 -0.1504333
v 0.0865875 0.02757426 -0.1817641
v 0.06271636 0.004560547 -0.181785
v 0.1010756 0.07219365 -0.1504288
v 0.04066598 0.02399452 -0.2130734
v 0.01848459 0.004560552 -0.213009
v 0.08003221 0.05994278 -0.1817579
v 0.03887849 0.04789644 -0.2130652
v 0.1201135 0.08619387 -0.07610048
v 0.07744535 0.09709047 -0.1504413
v 0.06135786 0.0797499 -0.1817429
v 0.03339561 0.09293367 -0.1817284
v 0.01847884 0.06598406 -0.2130069
v 0.04209253 0.1137286 -0.1504535
v 0.09202489 0.1157784 -0.0761005
v 0.1016071 0.1138507 0.04210236
v 0.0004006709 0.09761426 -0.1817226
v 0.0004006678 0.06862009 -0.2129916
v -0.01767752 0.06598406 -0.2130069
v 0.000400673 0.1195714 -0.1504584
v -0.0325943 0.09293367 -0.1817284
v -0.03680159 0.04724805 -0.2130655
v 0.09352415 0.1242546 0.06947146
v 0.05052409 0.1413677 0.1187397
v 0.09310327 0.1218752 0.03068195
v 0.09329457 0.1229567 0.04480812
v 0.05046869 0.1407669 0.01026346
v 0.04724674 0.1279726 -0.1001318
v 0.04998729 0.1355463 -0.07610048
v 0.000400674 0.1309023 -0.1108457
v 0.0004006752 0.1467855 -0.005909524
v 0.05079871 0.1443458 0.06947146
v 0.0004006752 0.1493488 0.1029882
v 0.05063742 0.1425966 0.04053408
v -0.04129123 0.1137286 -0.1504535
v -0.04572785 0.1259895 -0.1086694
v 0.0004006752 0.1424879 -0.07610048
v -0.05811009 0.1390632 -0.01791978
v 0.0004006748 0.1386555 -0.08853551
v 0.0004006752 0.1514009 0.06947146
v 0.0004006752 0.1488548 0.02788671
v -0.04987 0.142964 0.09322788
v -0.05827736 0.1408771 0.01208779
v -0.04918601 0.1355463 -0.07610048
v -0.09504796 0.114498 -0.0146771
v -0.04999742 0.1443458 0.06947146
v -0.09272284 0.1242546 0.06947146
v -0.121271 0.09418605 0.06947147
v -0.1301539 0.04568189 0.1478707
v -0.09142308 0.1129198 -0.07610048
v -0.1312957 0.04967864 0.06947145
v -0.1059739 0.004560493 0.1478707
v -0.1035263 0.004560506 0.06947144
v -0.108071 0.00456053 -0.07610048
v -0.1193121 0.08619384 -0.07610048
v -0.1291756 0.04225752 -0.07610049
v -0.09177437 0.004560542 -0.1504333
v -0.07795673 0.09501082 -0.1504411
v -0.1085741 0.03379746 -0.1504236
v -0.1002742 0.07219364 -0.1504288
v -0.0559126 0.07643823 -0.1817431
v -0.07923088 0.05994277 -0.1817579
v -0.08578617 0.02757426 -0.1817641
v -0.06008971 0.004560547 -0.1837015
v -0.03986465 0.02399452 -0.2130734
v -0.01768326 0.004560552 -0.213009
v 0.05046869 0.1407669 0.01026346
v 0.09310327 0.1218752 0.03068195
v 0.1016071 0.1138507 0.04210236
v 0.04999392 0.1244896 0.01946397
v 0.0004006752 0.1467855 -0.005909524
v 0.04954953 0.1239228 0.03176297
v 0.09329457 0.1229567 0.04480812
v 0.05063742 0.1425966 0.04053408
v 0.001221091 0.1305583 0.01850037
v 0.0004006752 0.1488548 0.02788671
v 0.002333404 0.1309363 0.004610531
v -0.05811009 0.1390632 -0.01791978
v -0.05927647 0.1233353 0.002308534
v -0.05827736 0.1408771 0.01208779
v -0.09504796 0.114498 -0.0146771
v -0.05798049 0.1231181 -0.009608415
v -0.1035263 0.004560506 0.06947144
v -0.1059739 0.004560493 0.1478707
v 0.1067752 0.004560493 0.1478707
v 0.1043276 0.004560506 0.06947144
v 0.1088724 0.00456053 -0.07610048
v -0.108071 0.00456053 -0.07610048
v 0.09257572 0.004560542 -0.1504333
v -0.09177437 0.004560542 -0.1504333
v -0.06008971 0.004560547 -0.1837015
v 0.06271636 0.004560547 -0.181785
v -0.01768326 0.004560552 -0.213009
v 0.01848459 0.004560552 -0.213009
v -0.1301539 0.04568189 0.1478707
v -0.120216 0.08988174 0.1478707
v -0.08742172 0.1197775 0.1478707
v -0.1059739 0.004560493 0.1478707
v 0.08799819 0.1161353 0.1478707
v 0.1067752 0.004560493 0.1478707
v 0.1309552 0.0456819 0.1478707
v 0.1158931 0.09090661 0.1478707
v 0.0004006752 0.1465997 0.1478707
v -0.04956912 0.1397011 0.1478707
v 0.05036171 0.1396068 0.1478707
v 0.000400663 0.02489082 -0.2248646
v -0.03680159 0.04724805 -0.2130655
v -0.03986465 0.02399452 -0.2130734
v -0.01767752 0.06598406 -0.2130069
v -0.01768326 0.004560552 -0.213009
v 0.0004006678 0.06862009 -0.2129916
v 0.01848459 0.004560552 -0.213009
v 0.01847884 0.06598406 -0.2130069
v 0.04066598 0.02399452 -0.2130734
v 0.03887849 0.04789644 -0.2130652
v 0.0004006752 0.1493488 0.1029882
v 0.05052409 0.1413677 0.1187397
v 0.04907821 0.1273602 0.1263707
v 0.08770332 0.1161615 0.1429518
v 0.0002345754 0.1335927 0.1103176
v -0.04987 0.142964 0.09322788
v 0.04804201 0.126644 0.1374968
v 0.05037252 0.139724 0.1429422
v -0.0001214458 0.133751 0.1257752
v 0.0004006752 0.1474266 0.1343816
v -0.0479486 0.1266561 0.1022242
v -0.08462692 0.1227174 0.09849077
v -0.04886604 0.1271942 0.110673
v -0.04972939 0.1414391 0.117559
v 0.04998729 0.1355463 -0.07610048
v 0.0004006748 0.1386555 -0.08853551
v 0.0003429088 0.1314996 -0.09356675
v -0.04572785 0.1259895 -0.1086694
v 0.0486566 0.1237304 -0.08081912
v 0.09202489 0.1157784 -0.0761005
v 0.04804682 0.1218519 -0.08887067
v 0.04724674 0.1279726 -0.1001318
v 0.0003182609 0.1277332 -0.1018494
v 0.000400674 0.1309023 -0.1108457
vt 0.7436523 0.3034668
vt 0.7109375 0.2988281
vt 0.7080078 0.3183594
vt 0.7397461 0.3249512
vt 0.7050781 0.3381348
vt 0.7368164 0.3427734
vt 0.8012695 0.3188477
vt 0.7016602 0.3540039
vt 0.7939453 0.3344727
vt 0.7036133 0.3544922
vt 0.6962891 0.3723145
vt 0.6982422 0.3725586
vt 0.6943359 0.392334
vt 0.7001953 0.3925781
vt 0.6948242 0.4133301
vt 0.7070313 0.4121094
vt 0.71875 0.4257813
vt 0.6977539 0.4316406
vt 0.7011719 0.4504395
vt 0.8193359 0.3439941
vt 0.8291016 0.3347168
vt 0.8320313 0.3500977
vt 0.8447266 0.3459473
vt 0.8134766 0.3554688
vt 0.8496094 0.3640137
vt 0.8623047 0.3613281
vt 0.8256836 0.3601074
vt 0.8432617 0.3720703
vt 0.7890625 0.3493652
vt 0.8110352 0.3662109
vt 0.8232422 0.3693848
vt 0.8222656 0.380127
vt 0.8398438 0.3837891
vt 0.8095703 0.378418
vt 0.7866211 0.3625488
vt 0.7456055 0.3552246
vt 0.8217773 0.3916016
vt 0.8393555 0.3918457
vt 0.8398438 0.3999023
vt 0.809082 0.3916016
vt 0.8222656 0.4035645
vt 0.8432617 0.411377
vt 0.734375 0.3579102
vt 0.7143555 0.3730469
vt 0.7504883 0.3598633
vt 0.7431641 0.3596191
vt 0.7583008 0.3752441
vt 0.7939453 0.3769531
vt 0.7841797 0.376709
vt 0.7963867 0.3913574
vt 0.7626953 0.3911133
vt 0.7319336 0.3747559
vt 0.7192383 0.3916016
vt 0.7412109 0.3759766
vt 0.809082 0.4050293
vt 0.7954102 0.4060059
vt 0.7836914 0.3916016
vt 0.7666016 0.4094238
vt 0.7875977 0.3916016
vt 0.730957 0.3920898
vt 0.7446289 0.3925781
vt 0.7226563 0.409668
vt 0.7504883 0.4116211
vt 0.784668 0.4067383
vt 0.7636719 0.4250488
vt 0.730957 0.409668
vt 0.7314453 0.4274902
vt 0.7333984 0.4433594
vt 0.7045898 0.4697266
vt 0.7856445 0.4221191
vt 0.7368164 0.4619141
vt 0.7084961 0.4899902
vt 0.7421875 0.4841309
vt 0.8012695 0.4660645
vt 0.7880859 0.4348145
vt 0.793457 0.4501953
vt 0.8291016 0.4494629
vt 0.8105469 0.4179688
vt 0.8193359 0.4401855
vt 0.8129883 0.4282227
vt 0.8242188 0.4133301
vt 0.8251953 0.423584
vt 0.8320313 0.4335938
vt 0.8452148 0.4370117
vt 0.8496094 0.4196777
vt 0.8623047 0.421875
vt 0.7583008 0.3752441
vt 0.7504883 0.3598633
vt 0.7456055 0.3552246
vt 0.7519531 0.375
vt 0.7626953 0.3911133
vt 0.7480469 0.3747559
vt 0.7431641 0.3596191
vt 0.7412109 0.3759766
vt 0.7514648 0.3913574
vt 0.7446289 0.3925781
vt 0.7563477 0.3911133
vt 0.7666016 0.4094238
vt 0.7568359 0.4116211
vt 0.7504883 0.4116211
vt 0.7636719 0.4250488
vt 0.7607422 0.4111328
vt 0.6933594 0.5078125
vt 0.6655273 0.5068359
vt 0.6655273 0.5830078
vt 0.6933594 0.5820313
vt 0.7456055 0.5839844
vt 0.7456055 0.5063477
vt 0.7719727 0.578125
vt 0.7719727 0.512207
vt 0.7841797 0.5234375
vt 0.7832031 0.5673828
vt 0.7944336 0.5385742
vt 0.7944336 0.5517578
vt 0.2602539 0.265625
vt 0.2415771 0.2697754
vt 0.2288818 0.2836914
vt 0.2775879 0.2758789
vt 0.2304688 0.357666
vt 0.2775879 0.3654785
vt 0.2602539 0.3757324
vt 0.2410889 0.3693848
vt 0.2176514 0.3208008
vt 0.2205811 0.2995605
vt 0.2205811 0.3417969
vt 0.9716797 0.1412354
vt 0.9814453 0.119751
vt 0.9682617 0.1195679
vt 0.9926758 0.1291504
vt 0.9589844 0.1326904
vt 0.9956055 0.1390381
vt 0.9609375 0.1519775
vt 0.9946289 0.1491699
vt 0.9726563 0.1630859
vt 0.9858398 0.1612549
vt 0.7192383 0.3916016
vt 0.7143555 0.3730469
vt 0.7084961 0.3728027
vt 0.7036133 0.3544922
vt 0.7124023 0.392334
vt 0.7226563 0.409668
vt 0.7041016 0.3725586
vt 0.6982422 0.3725586
vt 0.706543 0.392334
vt 0.7001953 0.3925781
vt 0.7158203 0.4106445
vt 0.71875 0.4257813
vt 0.7128906 0.4111328
vt 0.7070313 0.4121094
vt 0.7841797 0.376709
vt 0.7875977 0.3916016
vt 0.7905273 0.3913574
vt 0.7954102 0.4060059
vt 0.7875977 0.3762207
vt 0.7866211 0.3625488
vt 0.7900391 0.3764648
vt 0.7939453 0.3769531
vt 0.793457 0.3913574
vt 0.7963867 0.3913574
vn 0.4863281 -0.8735352 -4.512072E-05
vn 0.4992676 -0.8662109 -0.01182556
vn 0.9887695 -0.147583 0.01893616
vn 0.9912109 -0.1323242 0.008918762
vn 0.84375 0.5322266 0.06970215
vn 0.8710938 0.4904785 0.02563477
vn 0.5263672 -0.8486328 -0.05221558
vn 0.5991211 0.7998047 0.0380249
vn 0.9819336 -0.1425781 -0.1254883
vn 0.5961914 0.800293 0.06433105
vn 0.3447266 0.9384766 0.02432251
vn 0.3330078 0.9423828 0.02592468
vn 0.001989365 0.9985352 0.05511475
vn -0.01902771 0.9980469 0.05569458
vn -0.3129883 0.9487305 0.04779053
vn -0.3508301 0.9355469 0.04522705
vn -0.5717773 0.8154297 0.08911133
vn -0.5717773 0.8198242 0.03512573
vn -0.8608398 0.5078125 0.03114319
vn 0.8964844 -0.1595459 -0.4135742
vn 0.4934082 -0.8349609 -0.2440186
vn 0.7006836 -0.2148438 -0.6801758
vn 0.3347168 -0.8632813 -0.3779297
vn 0.7895508 0.4138184 -0.4528809
vn 0.4555664 -0.2280273 -0.8603516
vn 0.1715088 -0.7993164 -0.5756836
vn 0.6328125 0.3134766 -0.7080078
vn 0.3911133 0.2519531 -0.8852539
vn 0.8701172 0.4633789 -0.1672363
vn 0.5234375 0.7236328 -0.4499512
vn 0.442627 0.5864258 -0.6787109
vn 0.2388916 0.7207031 -0.6508789
vn 0.1846924 0.4921875 -0.8505859
vn 0.255127 0.8632813 -0.4353027
vn 0.5908203 0.7895508 -0.164917
vn 0.7246094 0.6875 -0.04705811
vn 0 0.7797852 -0.6264648
vn 0 0.5356445 -0.8447266
vn -0.2137451 0.4880371 -0.8461914
vn 0.00118351 0.9033203 -0.4291992
vn -0.2731934 0.7045898 -0.6552734
vn -0.4001465 0.2573242 -0.8793945
vn 0.59375 0.8037109 0.03356934
vn 0.3481445 0.9331055 0.08789063
vn 0.6328125 0.7729492 -0.05117798
vn 0.5927734 0.8037109 -0.05117798
vn 0.3168945 0.9467773 -0.05862427
vn 0.2988281 0.9091797 -0.2900391
vn 0.2756348 0.9580078 -0.07696533
vn 0.009147644 0.9594727 -0.2824707
vn 0.02705383 0.9975586 -0.06463623
vn 0.2954102 0.9555664 0.01207733
vn 0.02128601 0.9980469 0.06069946
vn 0.2705078 0.9609375 -0.05844116
vn -0.2802734 0.8491211 -0.4472656
vn -0.3029785 0.9067383 -0.2927246
vn 0.003044128 0.9838867 -0.1793213
vn -0.3327637 0.9394531 -0.08166504
vn -0.0266571 0.9550781 -0.2944336
vn 0.002439499 1 0.00258255
vn -0.01693726 0.9985352 -0.05453491
vn -0.2976074 0.9501953 0.0904541
vn -0.3757324 0.9257813 -0.04675293
vn -0.3041992 0.934082 -0.1868896
vn -0.625 0.7783203 -0.06097412
vn -0.2993164 0.9541016 0.0213623
vn -0.6103516 0.7895508 0.065979
vn -0.8696289 0.4931641 0.01306915
vn -0.9848633 -0.1719971 0.001932144
vn -0.5878906 0.7875977 -0.1843262
vn -0.9892578 -0.1452637 -3.927946E-05
vn -0.4992676 -0.8662109 -0.01182556
vn -0.4863281 -0.8735352 -4.512072E-05
vn -0.5263672 -0.8486328 -0.05221558
vn -0.8618164 0.4785156 -0.1677246
vn -0.9819336 -0.1425781 -0.1254883
vn -0.4921875 -0.8354492 -0.2443848
vn -0.5224609 0.7163086 -0.4628906
vn -0.8959961 -0.1600342 -0.4138184
vn -0.7734375 0.4335938 -0.4626465
vn -0.4313965 0.590332 -0.6821289
vn -0.6030273 0.3522949 -0.7158203
vn -0.7006836 -0.2106934 -0.6816406
vn -0.3339844 -0.8603516 -0.3850098
vn -0.4553223 -0.2172852 -0.8632813
vn -0.1700439 -0.7993164 -0.5761719
vn -0.1888428 0.543457 0.8178711
vn -0.1657715 0.6054688 0.7783203
vn 0.1567383 0.9658203 -0.2055664
vn -0.02636719 0.8686523 0.4946289
vn -0.2290039 0.4919434 0.8398438
vn 0.2565918 0.8291016 -0.496582
vn 0.2670898 0.4265137 -0.8642578
vn 0.2751465 0.423584 -0.862793
vn 0.1464844 0.8427734 -0.5180664
vn 0.2313232 0.4421387 -0.8666992
vn -0.1424561 0.84375 0.5180664
vn -0.2384033 0.4689941 0.8505859
vn 0.06103516 0.8364258 -0.5449219
vn 0.2076416 0.4614258 -0.8623047
vn -0.08868408 0.9931641 0.07519531
vn -0.239502 0.8320313 0.5004883
vn -0.4863281 -0.8735352 -4.512072E-05
vn -0.4992676 -0.8662109 -0.01182556
vn 0.4992676 -0.8662109 -0.01182556
vn 0.4863281 -0.8735352 -4.512072E-05
vn 0.5263672 -0.8486328 -0.05221558
vn -0.5263672 -0.8486328 -0.05221558
vn 0.4934082 -0.8349609 -0.2440186
vn -0.4921875 -0.8354492 -0.2443848
vn -0.3339844 -0.8603516 -0.3850098
vn 0.3347168 -0.8632813 -0.3779297
vn -0.1700439 -0.7993164 -0.5761719
vn 0.1715088 -0.7993164 -0.5756836
vn 0 0 1
vn 0 0 1
vn 0 0 1
vn 0 0 1
vn 0 -1.788139E-07 1
vn 0 0 1
vn 0 0 1
vn 0 0 1
vn 0 -2.384186E-07 1
vn 1.192093E-07 -1.251698E-06 1
vn -1.192093E-07 -2.026558E-06 1
vn -0.001348495 -0.1176147 -0.9931641
vn -0.4001465 0.2573242 -0.8793945
vn -0.4553223 -0.2172852 -0.8632813
vn -0.2137451 0.4880371 -0.8461914
vn -0.1700439 -0.7993164 -0.5761719
vn 0 0.5356445 -0.8447266
vn 0.1715088 -0.7993164 -0.5756836
vn 0.1846924 0.4921875 -0.8505859
vn 0.4555664 -0.2280273 -0.8603516
vn 0.3911133 0.2519531 -0.8852539
vn -0.2160645 0.4401855 0.871582
vn -0.2175293 0.4604492 0.8603516
vn -0.03469849 0.8354492 0.5483398
vn 0.1315918 0.9902344 -0.05026245
vn -0.1470947 0.824707 0.5463867
vn -0.1833496 0.447998 0.875
vn 0.2553711 0.8120117 -0.5249023
vn 0.2320557 0.3911133 -0.890625
vn 0.1520996 0.8339844 -0.5302734
vn 0.2313232 0.4509277 -0.8623047
vn -0.1748047 0.8525391 0.4924316
vn -0.002750397 0.9897461 0.1442871
vn 0.06726074 0.8417969 -0.5356445
vn 0.2247314 0.4606934 -0.8583984
vn 0.2208252 0.3903809 -0.8935547
vn 0.2406006 0.4819336 -0.8422852
vn 0.1981201 0.7348633 -0.6484375
vn 0.04101563 0.9550781 -0.2937012
vn 0.2342529 0.7182617 -0.6552734
vn 0.1512451 0.9169922 -0.3688965
vn 0.1038818 0.9902344 0.09161377
vn -0.01916504 0.8984375 0.4384766
vn 0.03179932 0.9995117 0.01525879
vn -0.05386353 0.9267578 0.3723145
g Baton_2_0
f 3/3/3 2/2/2 1/1/1
f 4/4/4 3/3/3 1/1/1
f 5/5/5 3/3/3 4/4/4
f 6/6/6 5/5/5 4/4/4
f 4/4/4 1/1/1 7/7/7
f 8/8/8 5/5/5 6/6/6
f 9/9/9 4/4/4 7/7/7
f 4/4/4 9/9/9 6/6/6
f 10/10/10 8/8/8 6/6/6
f 11/11/11 8/8/8 10/10/10
f 12/12/12 11/11/11 10/10/10
f 13/13/13 11/11/11 12/12/12
f 14/14/14 13/13/13 12/12/12
f 15/15/15 13/13/13 14/14/14
f 16/16/16 15/15/15 14/14/14
f 15/15/15 16/16/16 17/17/17
f 18/18/18 15/15/15 17/17/17
f 19/19/19 18/18/18 17/17/17
f 20/20/20 9/9/9 7/7/7
f 21/21/21 20/20/20 7/7/7
f 22/22/22 20/20/20 21/21/21
f 23/23/23 22/22/22 21/21/21
f 9/9/9 20/20/20 24/24/24
f 20/20/20 22/22/22 24/24/24
f 23/23/23 25/25/25 22/22/22
f 26/26/26 25/25/25 23/23/23
f 22/22/22 25/25/25 27/27/27
f 22/22/22 27/27/27 24/24/24
f 25/25/25 28/28/28 27/27/27
f 29/29/29 9/9/9 24/24/24
f 9/9/9 29/29/29 6/6/6
f 24/24/24 27/27/27 30/30/30
f 29/29/29 24/24/24 30/30/30
f 27/27/27 28/28/28 31/31/31
f 27/27/27 31/31/31 30/30/30
f 31/31/31 28/28/28 32/32/32
f 28/28/28 33/33/33 32/32/32
f 30/30/30 31/31/31 34/34/34
f 31/31/31 32/32/32 34/34/34
f 35/35/35 29/29/29 30/30/30
f 35/35/35 30/30/30 34/34/34
f 6/6/6 29/29/29 36/36/36
f 29/29/29 35/35/35 36/36/36
f 32/32/32 33/33/33 37/37/37
f 33/33/33 38/38/38 37/37/37
f 38/38/38 39/39/39 37/37/37
f 34/34/34 32/32/32 40/40/40
f 32/32/32 37/37/37 40/40/40
f 39/39/39 41/41/41 37/37/37
f 37/37/37 41/41/41 40/40/40
f 41/41/41 39/39/39 42/42/42
f 6/6/6 36/36/36 43/43/43
f 6/6/6 43/43/43 10/10/10
f 44/44/44 10/10/10 43/43/43
f 35/35/35 45/45/45 36/36/36
f 36/36/36 46/46/46 43/43/43
f 45/45/45 35/35/35 47/47/47
f 48/48/48 35/35/35 34/34/34
f 48/48/48 34/34/34 40/40/40
f 35/35/35 49/49/49 47/47/47
f 50/50/50 48/48/48 40/40/40
f 47/47/47 49/49/49 51/51/51
f 52/52/52 44/44/44 43/43/43
f 43/43/43 46/46/46 52/52/52
f 53/53/53 44/44/44 52/52/52
f 46/46/46 54/54/54 52/52/52
f 50/50/50 40/40/40 55/55/55
f 41/41/41 55/55/55 40/40/40
f 56/56/56 50/50/50 55/55/55
f 49/49/49 57/57/57 51/51/51
f 51/51/51 57/57/57 58/58/58
f 59/59/59 57/57/57 49/49/49
f 60/60/60 53/53/53 52/52/52
f 52/52/52 54/54/54 60/60/60
f 54/54/54 61/61/61 60/60/60
f 62/62/62 53/53/53 60/60/60
f 61/61/61 63/63/63 60/60/60
f 57/57/57 64/64/64 58/58/58
f 64/64/64 57/57/57 59/59/59
f 56/56/56 64/64/64 59/59/59
f 58/58/58 64/64/64 65/65/65
f 66/66/66 62/62/62 60/60/60
f 63/63/63 66/66/66 60/60/60
f 17/17/17 62/62/62 66/66/66
f 66/66/66 63/63/63 67/67/67
f 67/67/67 17/17/17 66/66/66
f 63/63/63 65/65/65 67/67/67
f 68/68/68 17/17/17 67/67/67
f 68/68/68 67/67/67 65/65/65
f 68/68/68 19/19/19 17/17/17
f 69/69/69 19/19/19 68/68/68
f 70/70/70 64/64/64 56/56/56
f 64/64/64 70/70/70 65/65/65
f 71/71/71 69/69/69 68/68/68
f 72/72/72 69/69/69 71/71/71
f 73/73/73 72/72/72 71/71/71
f 74/74/74 73/73/73 71/71/71
f 75/75/75 68/68/68 65/65/65
f 68/68/68 75/75/75 71/71/71
f 75/75/75 65/65/65 70/70/70
f 76/76/76 74/74/74 71/71/71
f 75/75/75 76/76/76 71/71/71
f 77/77/77 74/74/74 76/76/76
f 78/78/78 70/70/70 56/56/56
f 56/56/56 55/55/55 78/78/78
f 76/76/76 75/75/75 79/79/79
f 79/79/79 77/77/77 76/76/76
f 80/80/80 75/75/75 70/70/70
f 78/78/78 80/80/80 70/70/70
f 75/75/75 80/80/80 79/79/79
f 81/81/81 78/78/78 55/55/55
f 41/41/41 81/81/81 55/55/55
f 81/81/81 41/41/41 42/42/42
f 82/82/82 80/80/80 78/78/78
f 81/81/81 82/82/82 78/78/78
f 80/80/80 82/82/82 79/79/79
f 81/81/81 42/42/42 82/82/82
f 77/77/77 79/79/79 83/83/83
f 82/82/82 83/83/83 79/79/79
f 82/82/82 42/42/42 83/83/83
f 84/84/84 77/77/77 83/83/83
f 42/42/42 85/85/85 83/83/83
f 83/83/83 85/85/85 84/84/84
f 84/84/84 85/85/85 86/86/86
f 89/89/89 88/88/88 87/87/87
f 90/90/90 89/89/89 87/87/87
f 90/90/90 87/87/87 91/91/91
f 90/90/90 92/92/92 89/89/89
f 93/93/93 89/89/89 92/92/92
f 94/94/94 93/93/93 92/92/92
f 94/94/94 92/92/92 95/95/95
f 95/95/95 92/92/92 90/90/90
f 96/96/96 94/94/94 95/95/95
f 97/97/97 90/90/90 91/91/91
f 97/97/97 95/95/95 90/90/90
f 97/97/97 91/91/91 98/98/98
f 96/96/96 95/95/95 99/99/99
f 99/99/99 95/95/95 97/97/97
f 100/100/100 96/96/96 99/99/99
f 100/100/100 99/99/99 101/101/101
f 101/101/101 102/102/102 98/98/98
f 102/102/102 97/97/97 98/98/98
f 102/102/102 99/99/99 97/97/97
f 101/101/101 99/99/99 102/102/102
f 105/105/105 104/104/104 103/103/103
f 106/106/106 105/105/105 103/103/103
f 106/106/106 103/103/103 107/107/107
f 103/103/103 108/108/108 107/107/107
f 109/109/109 107/107/107 108/108/108
f 110/110/110 109/109/109 108/108/108
f 110/110/110 111/111/111 109/109/109
f 111/111/111 112/112/112 109/109/109
f 111/111/111 113/113/113 112/112/112
f 113/113/113 114/114/114 112/112/112
f 117/117/117 116/116/116 115/115/115
f 118/118/118 117/117/117 115/115/115
f 117/117/117 118/118/118 119/119/119
f 118/118/118 120/120/120 119/119/119
f 120/120/120 121/121/121 119/119/119
f 121/121/121 122/122/122 119/119/119
f 119/119/119 123/123/123 117/117/117
f 124/124/124 117/117/117 123/123/123
f 119/119/119 125/125/125 123/123/123
f 128/128/128 127/127/127 126/126/126
f 126/126/126 127/127/127 129/129/129
f 126/126/126 130/130/130 128/128/128
f 126/126/126 129/129/129 131/131/131
f 132/132/132 130/130/130 126/126/126
f 131/131/131 133/133/133 126/126/126
f 134/134/134 132/132/132 126/126/126
f 126/126/126 133/133/133 135/135/135
f 126/126/126 135/135/135 134/134/134
f 138/138/138 137/137/137 136/136/136
f 138/138/138 139/139/139 137/137/137
f 140/140/140 138/138/138 136/136/136
f 140/140/140 136/136/136 141/141/141
f 142/142/142 139/139/139 138/138/138
f 142/142/142 138/138/138 140/140/140
f 143/143/143 139/139/139 142/142/142
f 143/143/143 142/142/142 144/144/144
f 144/144/144 142/142/142 140/140/140
f 145/145/145 143/143/143 144/144/144
f 146/146/146 140/140/140 141/141/141
f 144/144/144 140/140/140 146/146/146
f 147/147/147 146/146/146 141/141/141
f 145/145/145 144/144/144 148/148/148
f 148/148/148 144/144/144 146/146/146
f 148/148/148 146/146/146 147/147/147
f 149/149/149 145/145/145 148/148/148
f 149/149/149 148/148/148 147/147/147
f 152/152/152 151/151/151 150/150/150
f 153/153/153 151/151/151 152/152/152
f 154/154/154 152/152/152 150/150/150
f 150/150/150 155/155/155 154/154/154
f 156/156/156 154/154/154 155/155/155
f 152/152/152 154/154/154 156/156/156
f 156/156/156 155/155/155 157/157/157
f 153/153/153 152/152/152 158/158/158
f 158/158/158 152/152/152 156/156/156
f 158/158/158 156/156/156 157/157/157
f 159/159/159 153/153/153 158/158/158
f 159/159/159 158/158/158 157/157/157
