g Bottle_1_LOD0
v 0.04300869 0.002046108 0.0430087
v 0.05633909 0.3050548 0.02333642
v 0.05619361 0.002046108 0.02327615
v 0.04312003 0.3050548 0.04312005
v 0.02327614 0.002046108 0.05619358
v 0.02191959 0.3482613 0.0146462
v 0.0233364 0.3050548 0.05633906
v -7.423028E-09 0.002046108 0.06082351
v 0.005143056 0.3482613 0.02585592
v 0.0185795 0.4631856 0.01241442
v 0.00435936 0.4631856 0.02191602
v -7.372089E-09 0.3050548 0.06098097
v -0.02327615 0.002046108 0.05619358
v 0.005143056 0.3482613 0.02585592
v -0.02333641 0.3050548 0.05633906
v -0.04300872 0.002046108 0.0430087
v -0.01464622 0.3482613 0.02191959
v 0.00435936 0.4631856 0.02191602
v -0.01241444 0.4631856 0.0185795
v -0.04312007 0.3050548 0.04312005
v -0.05619361 0.002046108 0.02327614
v -0.01464622 0.3482613 0.02191959
v -0.05633908 0.3050548 0.0233364
v -0.06082348 0.002046108 -7.718849E-09
v -0.02585593 0.3482613 0.005143053
v -0.01241444 0.4631856 0.0185795
v -0.02191603 0.4631856 0.004359358
v -0.06098096 0.3050548 -7.475871E-09
v -0.05619361 0.002046108 -0.02327616
v -0.02585593 0.3482613 0.005143053
v -0.05633908 0.3050548 -0.02333642
v -0.04300872 0.002046108 -0.04300871
v -0.02191961 0.3482613 -0.01464621
v -0.02191603 0.4631856 0.004359358
v -0.01857952 0.4631856 -0.01241444
v -0.04312007 0.3050548 -0.04312005
v -0.02327615 0.002046108 -0.05619359
v -0.02191961 0.3482613 -0.01464621
v -0.02333641 0.3050548 -0.05633907
v 1.074448E-08 0.002046108 -0.06082352
v -0.005143069 0.3482613 -0.02585594
v -0.01857952 0.4631856 -0.01241444
v -0.004359374 0.4631856 -0.02191603
v 1.835795E-09 0.3050548 -0.06098099
v 0.02327612 0.002046108 -0.05619363
v -0.005143069 0.3482613 -0.02585594
v 0.02333638 0.3050548 -0.05633912
v 0.04300869 0.002046108 -0.04300875
v 0.01464619 0.3482613 -0.02191962
v -0.004359374 0.4631856 -0.02191603
v 0.01241442 0.4631856 -0.01857953
v 0.04312003 0.3050548 -0.0431201
v 0.05619356 0.002046108 -0.02327617
v 0.01464619 0.3482613 -0.02191962
v 0.05633905 0.3050548 -0.02333642
v 0.0608235 0.002046108 4.114398E-11
v 0.02585591 0.3482613 -0.005143075
v 0.01241442 0.4631856 -0.01857953
v 0.02191601 0.4631856 -0.004359379
v 0.06098096 0.3050548 -1.086862E-08
v 0.05619361 0.002046108 0.02327615
v 0.05633909 0.3050548 0.02333642
v 0.02585591 0.3482613 -0.005143075
v 0.02191959 0.3482613 0.0146462
v 0.02191601 0.4631856 -0.004359379
v 0.0185795 0.4631856 0.01241442
v -0.004359374 0.4631856 -0.02191603
v -0.004745242 0.4647746 -0.02385592
v -0.02022408 0.4647746 -0.01351329
v -0.01857952 0.4631856 -0.01241444
v 0.00435936 0.4631856 0.02191602
v 0.004745228 0.4647746 0.0238559
v 0.02022406 0.4647746 0.01351328
v 0.0185795 0.4631856 0.01241442
v -0.01857952 0.4631856 -0.01241444
v -0.02022408 0.4647746 -0.01351329
v -0.02385592 0.4647746 0.004745225
v -0.02191603 0.4631856 0.004359358
v 0.0185795 0.4631856 0.01241442
v 0.02022406 0.4647746 0.01351328
v 0.02385589 0.4647746 -0.004745246
v 0.02191601 0.4631856 -0.004359379
v -0.02191603 0.4631856 0.004359358
v -0.02385592 0.4647746 0.004745225
v -0.0135133 0.4647746 0.02022406
v -0.01241444 0.4631856 0.0185795
v 0.02191601 0.4631856 -0.004359379
v 0.02385589 0.4647746 -0.004745246
v 0.01351327 0.4647746 -0.02022409
v 0.01241442 0.4631856 -0.01857953
v -0.01241444 0.4631856 0.0185795
v -0.0135133 0.4647746 0.02022406
v 0.004745228 0.4647746 0.0238559
v 0.00435936 0.4631856 0.02191602
v 0.01241442 0.4631856 -0.01857953
v 0.01351327 0.4647746 -0.02022409
v -0.004745242 0.4647746 -0.02385592
v -0.004359374 0.4631856 -0.02191603
v 0.02385589 0.4647746 -0.004745246
v 0.02385589 0.4888032 -0.004745246
v 0.01351327 0.4888032 -0.02022409
v 0.01351327 0.4647746 -0.02022409
v -0.0135133 0.4647746 0.02022406
v -0.0135133 0.4888032 0.02022406
v 0.004745228 0.4888032 0.0238559
v 0.004745228 0.4647746 0.0238559
v 0.01351327 0.4647746 -0.02022409
v 0.01351327 0.4888032 -0.02022409
v -0.004745242 0.4888032 -0.02385592
v -0.004745242 0.4647746 -0.02385592
v -0.004745242 0.4647746 -0.02385592
v -0.004745242 0.4888032 -0.02385592
v -0.02022408 0.4888032 -0.01351329
v -0.02022408 0.4647746 -0.01351329
v 0.004745228 0.4647746 0.0238559
v 0.004745228 0.4888032 0.0238559
v 0.02022406 0.4888032 0.01351328
v 0.02022406 0.4647746 0.01351328
v -0.02022408 0.4647746 -0.01351329
v -0.02022408 0.4888032 -0.01351329
v -0.02385592 0.4888032 0.004745225
v -0.02385592 0.4647746 0.004745225
v 0.02022406 0.4647746 0.01351328
v 0.02022406 0.4888032 0.01351328
v 0.02385589 0.4888032 -0.004745246
v 0.02385589 0.4647746 -0.004745246
v -0.02385592 0.4647746 0.004745225
v -0.02385592 0.4888032 0.004745225
v -0.0135133 0.4888032 0.02022406
v -0.0135133 0.4647746 0.02022406
v -0.02022408 0.4888032 -0.01351329
v -0.01418052 0.4910281 -0.009475125
v -0.01672706 0.4910281 0.003327208
v -0.02385592 0.4888032 0.004745225
v 0.02022406 0.4888032 0.01351328
v 0.01418051 0.4910281 0.009475109
v 0.01672704 0.4910281 -0.003327229
v 0.02385589 0.4888032 -0.004745246
v -0.02385592 0.4888032 0.004745225
v -0.01672706 0.4910281 0.003327208
v -0.009475125 0.4910281 0.0141805
v -0.0135133 0.4888032 0.02022406
v 0.02385589 0.4888032 -0.004745246
v 0.01672704 0.4910281 -0.003327229
v 0.009475103 0.4910281 -0.01418053
v 0.01351327 0.4888032 -0.02022409
v -0.0135133 0.4888032 0.02022406
v -0.009475125 0.4910281 0.0141805
v 0.00332721 0.4910281 0.01672705
v 0.004745228 0.4888032 0.0238559
v 0.01351327 0.4888032 -0.02022409
v 0.009475103 0.4910281 -0.01418053
v -0.003327225 0.4910281 -0.01672706
v -0.004745242 0.4888032 -0.02385592
v -0.004745242 0.4888032 -0.02385592
v -0.003327225 0.4910281 -0.01672706
v -0.01418052 0.4910281 -0.009475125
v -0.02022408 0.4888032 -0.01351329
v 0.004745228 0.4888032 0.0238559
v 0.00332721 0.4910281 0.01672705
v 0.01418051 0.4910281 0.009475109
v 0.02022406 0.4888032 0.01351328
v -0.003327225 0.4910281 -0.01672706
v -0.01302518 0.3884953 -0.008703152
v -0.01418052 0.4910281 -0.009475125
v -0.003056145 0.3884953 -0.01536425
v 0.009475103 0.4910281 -0.01418053
v -0.003327225 0.4910281 -0.01672706
v 0.008703129 0.3884953 -0.01302519
v 0.01672704 0.4910281 -0.003327229
v 0.009475103 0.4910281 -0.01418053
v 0.01536423 0.3884953 -0.003056148
v 0.01418051 0.4910281 0.009475109
v 0.01302517 0.3884953 0.008703136
v 0.01672704 0.4910281 -0.003327229
v -0.01418052 0.4910281 -0.009475125
v -0.01536425 0.3884953 0.003056127
v -0.01672706 0.4910281 0.003327208
v -0.01672706 0.4910281 0.003327208
v -0.008703152 0.3884953 0.01302516
v -0.009475125 0.4910281 0.0141805
v -0.009475125 0.4910281 0.0141805
v 0.003056129 0.3884953 0.01536423
v 0.00332721 0.4910281 0.01672705
v 0.00332721 0.4910281 0.01672705
v 0.01302517 0.3884953 0.008703136
v 0.01418051 0.4910281 0.009475109
v 1.326755E-09 0.002046108 -2.235174E-08
v -0.05619361 0.002046108 -0.02327616
v -0.06082348 0.002046108 -7.718849E-09
v -0.04300872 0.002046108 -0.04300871
v -0.05619361 0.002046108 0.02327614
v -0.02327615 0.002046108 -0.05619359
v -0.04300872 0.002046108 0.0430087
v 1.074448E-08 0.002046108 -0.06082352
v -0.02327615 0.002046108 0.05619358
v 0.02327612 0.002046108 -0.05619363
v -7.423028E-09 0.002046108 0.06082351
v 0.04300869 0.002046108 -0.04300875
v 0.02327614 0.002046108 0.05619358
v 0.05619356 0.002046108 -0.02327617
v 0.04300869 0.002046108 0.0430087
v 0.0608235 0.002046108 4.114398E-11
v 0.05619361 0.002046108 0.02327615
v -0.003056145 0.3884953 -0.01536425
v -7.25609E-09 0.3884953 -1.303852E-08
v -0.01302518 0.3884953 -0.008703152
v 0.008703129 0.3884953 -0.01302519
v -0.01536425 0.3884953 0.003056127
v 0.01536423 0.3884953 -0.003056148
v -0.008703152 0.3884953 0.01302516
v 0.01302517 0.3884953 0.008703136
v 0.003056129 0.3884953 0.01536423
vt 0.5302734 0.05386353
vt 0.5390625 0.2034912
vt 0.5390625 0.05386353
vt 0.5302734 0.2034912
vt 0.5209961 0.05386353
vt 0.5302734 0.2412109
vt 0.5209961 0.2034912
vt 0.512207 0.05386353
vt 0.5209961 0.2412109
vt 0.5302734 0.3381348
vt 0.5209961 0.3381348
vt 0.512207 0.2034912
vt 0.5029297 0.05386353
vt 0.512207 0.2412109
vt 0.5029297 0.2034912
vt 0.4938965 0.05386353
vt 0.5029297 0.2412109
vt 0.512207 0.3381348
vt 0.5029297 0.3381348
vt 0.4938965 0.2034912
vt 0.4846191 0.05386353
vt 0.4938965 0.2412109
vt 0.4846191 0.2034912
vt 0.4746094 0.05386353
vt 0.4846191 0.2412109
vt 0.4938965 0.3381348
vt 0.4846191 0.3381348
vt 0.4746094 0.2034912
vt 0.4665527 0.05386353
vt 0.4746094 0.2412109
vt 0.4665527 0.2034912
vt 0.4575195 0.05386353
vt 0.4665527 0.2412109
vt 0.4746094 0.3381348
vt 0.4665527 0.3381348
vt 0.4575195 0.2034912
vt 0.4484863 0.05386353
vt 0.4575195 0.2412109
vt 0.4484863 0.2034912
vt 0.439209 0.05386353
vt 0.4484863 0.2412109
vt 0.4575195 0.3381348
vt 0.4484863 0.3381348
vt 0.439209 0.2034912
vt 0.4301758 0.05386353
vt 0.439209 0.2412109
vt 0.4301758 0.2034912
vt 0.4208984 0.05386353
vt 0.4301758 0.2412109
vt 0.439209 0.3381348
vt 0.4301758 0.3381348
vt 0.4208984 0.2034912
vt 0.4116211 0.05386353
vt 0.4208984 0.2412109
vt 0.4116211 0.2034912
vt 0.402832 0.05386353
vt 0.4116211 0.2412109
vt 0.4208984 0.3381348
vt 0.4116211 0.3381348
vt 0.402832 0.2034912
vt 0.3937988 0.05386353
vt 0.3937988 0.2034912
vt 0.402832 0.2412109
vt 0.3937988 0.2412109
vt 0.402832 0.3381348
vt 0.3937988 0.3381348
vt 0.4484863 0.3381348
vt 0.4484863 0.3400879
vt 0.4575195 0.3400879
vt 0.4575195 0.3381348
vt 0.5209961 0.3381348
vt 0.5209961 0.3400879
vt 0.5302734 0.3400879
vt 0.5302734 0.3381348
vt 0.4665527 0.3381348
vt 0.4665527 0.3400879
vt 0.4746094 0.3400879
vt 0.4746094 0.3381348
vt 0.3937988 0.3381348
vt 0.3937988 0.3400879
vt 0.402832 0.3400879
vt 0.402832 0.3381348
vt 0.4846191 0.3381348
vt 0.4846191 0.3400879
vt 0.4938965 0.3400879
vt 0.4938965 0.3381348
vt 0.4116211 0.3381348
vt 0.4116211 0.3400879
vt 0.4208984 0.3400879
vt 0.4208984 0.3381348
vt 0.5029297 0.3381348
vt 0.5029297 0.3400879
vt 0.512207 0.3400879
vt 0.512207 0.3381348
vt 0.4301758 0.3381348
vt 0.4301758 0.3400879
vt 0.439209 0.3400879
vt 0.439209 0.3381348
vt 0.4116211 0.3400879
vt 0.4116211 0.3581543
vt 0.4208984 0.3581543
vt 0.4208984 0.3400879
vt 0.5029297 0.3400879
vt 0.5029297 0.3581543
vt 0.512207 0.3581543
vt 0.512207 0.3400879
vt 0.4301758 0.3400879
vt 0.4301758 0.3581543
vt 0.439209 0.3581543
vt 0.439209 0.3400879
vt 0.4484863 0.3400879
vt 0.4484863 0.3581543
vt 0.4575195 0.3581543
vt 0.4575195 0.3400879
vt 0.5209961 0.3400879
vt 0.5209961 0.3581543
vt 0.5302734 0.3581543
vt 0.5302734 0.3400879
vt 0.4665527 0.3400879
vt 0.4665527 0.3581543
vt 0.4746094 0.3581543
vt 0.4746094 0.3400879
vt 0.3937988 0.3400879
vt 0.3937988 0.3581543
vt 0.402832 0.3581543
vt 0.402832 0.3400879
vt 0.4846191 0.3400879
vt 0.4846191 0.3581543
vt 0.4938965 0.3581543
vt 0.4938965 0.3400879
vt 0.4665527 0.3581543
vt 0.4665527 0.3642578
vt 0.4746094 0.3642578
vt 0.4746094 0.3581543
vt 0.3937988 0.3581543
vt 0.3937988 0.3642578
vt 0.402832 0.3642578
vt 0.402832 0.3581543
vt 0.4846191 0.3581543
vt 0.4846191 0.3642578
vt 0.4938965 0.3642578
vt 0.4938965 0.3581543
vt 0.4116211 0.3581543
vt 0.4116211 0.3642578
vt 0.4208984 0.3642578
vt 0.4208984 0.3581543
vt 0.5029297 0.3581543
vt 0.5029297 0.3642578
vt 0.512207 0.3642578
vt 0.512207 0.3581543
vt 0.4301758 0.3581543
vt 0.4301758 0.3642578
vt 0.439209 0.3642578
vt 0.439209 0.3581543
vt 0.4484863 0.3581543
vt 0.4484863 0.3642578
vt 0.4575195 0.3642578
vt 0.4575195 0.3581543
vt 0.5209961 0.3581543
vt 0.5209961 0.3642578
vt 0.5302734 0.3642578
vt 0.5302734 0.3581543
vt 0.6176758 0.1323242
vt 0.6118164 0.07434082
vt 0.6137695 0.1323242
vt 0.6186523 0.07427979
vt 0.6254883 0.1320801
vt 0.621582 0.1322021
vt 0.6254883 0.07415771
vt 0.6328125 0.1318359
vt 0.6289063 0.1320801
vt 0.6323242 0.07391357
vt 0.640625 0.1314697
vt 0.6391602 0.07354736
vt 0.6367188 0.1317139
vt 0.6098633 0.1323242
vt 0.6049805 0.07427979
vt 0.605957 0.1323242
vt 0.6020508 0.1322021
vt 0.5981445 0.07415771
vt 0.5986328 0.1320801
vt 0.5947266 0.1320801
vt 0.5913086 0.07391357
vt 0.5908203 0.1318359
vt 0.5869141 0.1317139
vt 0.5849609 0.07354736
vt 0.5830078 0.1314697
vt 0.699707 0.08831787
vt 0.6821289 0.06185913
vt 0.6733398 0.07061768
vt 0.6938477 0.05709839
vt 0.668457 0.08209229
vt 0.7060547 0.05709839
vt 0.668457 0.09448242
vt 0.7177734 0.06185913
vt 0.6733398 0.105957
vt 0.7260742 0.07061768
vt 0.6821289 0.1147461
vt 0.730957 0.08209229
vt 0.6938477 0.1195068
vt 0.730957 0.09448242
vt 0.7060547 0.1195068
vt 0.7260742 0.105957
vt 0.7177734 0.1147461
vt 0.4790039 0.385498
vt 0.4824219 0.3935547
vt 0.4858398 0.385498
vt 0.4741211 0.3901367
vt 0.4904785 0.3901367
vt 0.4741211 0.3969727
vt 0.4904785 0.3969727
vt 0.4790039 0.4018555
vt 0.4858398 0.4018555
vn 0.7070313 -0.0005197525 0.7070313
vn 0.8759766 0.3222656 0.3583984
vn 0.9238281 -0.0005197525 0.3825684
vn 0.6665039 0.3222656 0.6723633
vn 0.3825684 -0.0005197525 0.9238281
vn 0.762207 0.3991699 0.5092773
vn 0.3659668 0.3222656 0.8730469
vn 0 -0.0005197525 1
vn 0.178833 0.3991699 0.8994141
vn 0.8310547 0.03494263 0.5551758
vn 0.1949463 0.03494263 0.9799805
vn -0.004066467 0.3222656 0.9467773
vn -0.3825684 -0.0005197525 0.9238281
vn 0.178833 0.3991699 0.8994141
vn -0.3583984 0.3222656 0.8759766
vn -0.7070313 -0.0005197525 0.7070313
vn -0.5092773 0.3991699 0.762207
vn 0.1949463 0.03494263 0.9799805
vn -0.5551758 0.03494263 0.8310547
vn -0.6723633 0.3222656 0.6665039
vn -0.9238281 -0.0005197525 0.3825684
vn -0.5092773 0.3991699 0.762207
vn -0.8730469 0.3222656 0.3659668
vn -1 -0.0005197525 0
vn -0.8994141 0.3991699 0.178833
vn -0.5551758 0.03494263 0.8310547
vn -0.9799805 0.03494263 0.1949463
vn -0.9467773 0.3222656 -0.004066467
vn -0.9238281 -0.0005197525 -0.3825684
vn -0.8994141 0.3991699 0.178833
vn -0.8759766 0.3222656 -0.3583984
vn -0.7070313 -0.0005197525 -0.7070313
vn -0.762207 0.3991699 -0.5092773
vn -0.9799805 0.03494263 0.1949463
vn -0.8310547 0.03494263 -0.5551758
vn -0.6665039 0.3222656 -0.6723633
vn -0.3825684 -0.0005197525 -0.9238281
vn -0.762207 0.3991699 -0.5092773
vn -0.3659668 0.3222656 -0.8730469
vn -7.748604E-07 -0.0005197525 -1
vn -0.178833 0.3991699 -0.8994141
vn -0.8310547 0.03494263 -0.5551758
vn -0.1949463 0.03494263 -0.9799805
vn 0.004066467 0.3222656 -0.9467773
vn 0.3825684 -0.0005197525 -0.9238281
vn -0.178833 0.3991699 -0.8994141
vn 0.3583984 0.3222656 -0.8759766
vn 0.7070313 -0.0005197525 -0.7070313
vn 0.5092773 0.3991699 -0.762207
vn -0.1949463 0.03494263 -0.9799805
vn 0.5551758 0.03494263 -0.8310547
vn 0.6723633 0.3222656 -0.6665039
vn 0.9238281 -0.0005197525 -0.3825684
vn 0.5092773 0.3991699 -0.762207
vn 0.8730469 0.3222656 -0.3659668
vn 1 -0.0005197525 -1.013279E-06
vn 0.8994141 0.3991699 -0.178833
vn 0.5551758 0.03494263 -0.8310547
vn 0.9799805 0.03494263 -0.1949463
vn 0.9467773 0.3222656 0.004066467
vn 0.9238281 -0.0005197525 0.3825684
vn 0.8759766 0.3222656 0.3583984
vn 0.8994141 0.3991699 -0.178833
vn 0.762207 0.3991699 0.5092773
vn 0.9799805 0.03494263 -0.1949463
vn 0.8310547 0.03494263 0.5551758
vn -0.1221924 -0.7797852 -0.6142578
vn -0.1221924 -0.7797852 -0.6142578
vn -0.5205078 -0.7797852 -0.3479004
vn -0.5205078 -0.7797852 -0.3479004
vn 0.1221924 -0.7797852 0.6142578
vn 0.1221924 -0.7797852 0.6142578
vn 0.5205078 -0.7797852 0.3479004
vn 0.5205078 -0.7797852 0.3479004
vn -0.5205078 -0.7797852 -0.3479004
vn -0.5205078 -0.7797852 -0.3479004
vn -0.6142578 -0.7797852 0.1221924
vn -0.6142578 -0.7797852 0.1221924
vn 0.5205078 -0.7797852 0.3479004
vn 0.5205078 -0.7797852 0.3479004
vn 0.6142578 -0.7797852 -0.1221924
vn 0.6142578 -0.7797852 -0.1221924
vn -0.6142578 -0.7797852 0.1221924
vn -0.6142578 -0.7797852 0.1221924
vn -0.3479004 -0.7797852 0.5205078
vn -0.3479004 -0.7797852 0.5205078
vn 0.6142578 -0.7797852 -0.1221924
vn 0.6142578 -0.7797852 -0.1221924
vn 0.3479004 -0.7797852 -0.5205078
vn 0.3479004 -0.7797852 -0.5205078
vn -0.3479004 -0.7797852 0.5205078
vn -0.3479004 -0.7797852 0.5205078
vn 0.1221924 -0.7797852 0.6142578
vn 0.1221924 -0.7797852 0.6142578
vn 0.3479004 -0.7797852 -0.5205078
vn 0.3479004 -0.7797852 -0.5205078
vn -0.1221924 -0.7797852 -0.6142578
vn -0.1221924 -0.7797852 -0.6142578
vn 0.980957 0 -0.1950684
vn 0.980957 0 -0.1950684
vn 0.5556641 0 -0.831543
vn 0.5556641 0 -0.831543
vn -0.5556641 0 0.831543
vn -0.5556641 0 0.831543
vn 0.1950684 0 0.980957
vn 0.1950684 0 0.980957
vn 0.5556641 0 -0.831543
vn 0.5556641 0 -0.831543
vn -0.1950684 0 -0.980957
vn -0.1950684 0 -0.980957
vn -0.1950684 0 -0.980957
vn -0.1950684 0 -0.980957
vn -0.831543 0 -0.5556641
vn -0.831543 0 -0.5556641
vn 0.1950684 0 0.980957
vn 0.1950684 0 0.980957
vn 0.831543 0 0.5556641
vn 0.831543 0 0.5556641
vn -0.831543 0 -0.5556641
vn -0.831543 0 -0.5556641
vn -0.980957 0 0.1950684
vn -0.980957 0 0.1950684
vn 0.831543 0 0.5556641
vn 0.831543 0 0.5556641
vn 0.980957 0 -0.1950684
vn 0.980957 0 -0.1950684
vn -0.980957 0 0.1950684
vn -0.980957 0 0.1950684
vn -0.5556641 0 0.831543
vn -0.5556641 0 0.831543
vn -0.2434082 0.9560547 -0.1625977
vn -0.2434082 0.9560547 -0.1625977
vn -0.2871094 0.9560547 0.05709839
vn -0.2871094 0.9560547 0.05709839
vn 0.2434082 0.9560547 0.1625977
vn 0.2434082 0.9560547 0.1625977
vn 0.2871094 0.9560547 -0.05709839
vn 0.2871094 0.9560547 -0.05709839
vn -0.2871094 0.9560547 0.05709839
vn -0.2871094 0.9560547 0.05709839
vn -0.1625977 0.9560547 0.2434082
vn -0.1625977 0.9560547 0.2434082
vn 0.2871094 0.9560547 -0.05709839
vn 0.2871094 0.9560547 -0.05709839
vn 0.1625977 0.9560547 -0.2434082
vn 0.1625977 0.9560547 -0.2434082
vn -0.1625977 0.9560547 0.2434082
vn -0.1625977 0.9560547 0.2434082
vn 0.05709839 0.9560547 0.2871094
vn 0.05709839 0.9560547 0.2871094
vn 0.1625977 0.9560547 -0.2434082
vn 0.1625977 0.9560547 -0.2434082
vn -0.05709839 0.9560547 -0.2871094
vn -0.05709839 0.9560547 -0.2871094
vn -0.05709839 0.9560547 -0.2871094
vn -0.05709839 0.9560547 -0.2871094
vn -0.2434082 0.9560547 -0.1625977
vn -0.2434082 0.9560547 -0.1625977
vn 0.05709839 0.9560547 0.2871094
vn 0.05709839 0.9560547 0.2871094
vn 0.2434082 0.9560547 0.1625977
vn 0.2434082 0.9560547 0.1625977
vn 0.1950684 0.0135498 0.9804688
vn 0.831543 0.0135498 0.5556641
vn 0.831543 0.0135498 0.5556641
vn 0.1950684 0.0135498 0.9804688
vn -0.5556641 0.0135498 0.831543
vn 0.1950684 0.0135498 0.9804688
vn -0.5556641 0.0135498 0.831543
vn -0.9804688 0.0135498 0.1950684
vn -0.5556641 0.0135498 0.831543
vn -0.9804688 0.0135498 0.1950684
vn -0.831543 0.0135498 -0.5556641
vn -0.831543 0.0135498 -0.5556641
vn -0.9804688 0.0135498 0.1950684
vn 0.831543 0.0135498 0.5556641
vn 0.9804688 0.0135498 -0.1950684
vn 0.9804688 0.0135498 -0.1950684
vn 0.9804688 0.0135498 -0.1950684
vn 0.5556641 0.0135498 -0.831543
vn 0.5556641 0.0135498 -0.831543
vn 0.5556641 0.0135498 -0.831543
vn -0.1950684 0.0135498 -0.9804688
vn -0.1950684 0.0135498 -0.9804688
vn -0.1950684 0.0135498 -0.9804688
vn -0.831543 0.0135498 -0.5556641
vn -0.831543 0.0135498 -0.5556641
vn 0 -1 0
vn 0 -1 0
vn 0 -1 0
vn 0 -1 0
vn 0 -1 0
vn 0 -1 0
vn 0 -1 0
vn 0 -1 0
vn 0 -1 0
vn 0 -1 0
vn 0 -1 0
vn 0 -1 0
vn 0 -1 0
vn 0 -1 0
vn 0 -1 0
vn 0 -1 0
vn 0 -1 0
vn 0 1 0
vn -3.576279E-07 1 0
vn 0 1 0
vn 6.556511E-07 1 0
vn 0 1 0
vn 0 1 0
vn -2.682209E-06 1 0
vn 6.556511E-07 1 0
vn -1.370907E-06 1 0
g Bottle_1_LOD0_0
f 3/3/3 2/2/2 1/1/1
f 2/2/2 4/4/4 1/1/1
f 1/1/1 4/4/4 5/5/5
f 2/2/2 6/6/6 4/4/4
f 4/4/4 7/7/7 5/5/5
f 4/4/4 6/6/6 7/7/7
f 5/5/5 7/7/7 8/8/8
f 6/6/6 9/9/9 7/7/7
f 6/6/6 10/10/10 9/9/9
f 10/10/10 11/11/11 9/9/9
f 7/7/7 12/12/12 8/8/8
f 8/8/8 12/12/12 13/13/13
f 7/7/7 14/14/14 12/12/12
f 12/12/12 15/15/15 13/13/13
f 12/12/12 14/14/14 15/15/15
f 13/13/13 15/15/15 16/16/16
f 14/14/14 17/17/17 15/15/15
f 14/14/14 18/18/18 17/17/17
f 18/18/18 19/19/19 17/17/17
f 15/15/15 20/20/20 16/16/16
f 16/16/16 20/20/20 21/21/21
f 15/15/15 22/22/22 20/20/20
f 20/20/20 23/23/23 21/21/21
f 20/20/20 22/22/22 23/23/23
f 21/21/21 23/23/23 24/24/24
f 22/22/22 25/25/25 23/23/23
f 22/22/22 26/26/26 25/25/25
f 26/26/26 27/27/27 25/25/25
f 23/23/23 28/28/28 24/24/24
f 24/24/24 28/28/28 29/29/29
f 23/23/23 30/30/30 28/28/28
f 28/28/28 31/31/31 29/29/29
f 28/28/28 30/30/30 31/31/31
f 29/29/29 31/31/31 32/32/32
f 30/30/30 33/33/33 31/31/31
f 30/30/30 34/34/34 33/33/33
f 34/34/34 35/35/35 33/33/33
f 31/31/31 36/36/36 32/32/32
f 32/32/32 36/36/36 37/37/37
f 31/31/31 38/38/38 36/36/36
f 36/36/36 39/39/39 37/37/37
f 36/36/36 38/38/38 39/39/39
f 37/37/37 39/39/39 40/40/40
f 38/38/38 41/41/41 39/39/39
f 38/38/38 42/42/42 41/41/41
f 42/42/42 43/43/43 41/41/41
f 39/39/39 44/44/44 40/40/40
f 40/40/40 44/44/44 45/45/45
f 46/46/46 44/44/44 39/39/39
f 44/44/44 47/47/47 45/45/45
f 44/44/44 46/46/46 47/47/47
f 45/45/45 47/47/47 48/48/48
f 46/46/46 49/49/49 47/47/47
f 46/46/46 50/50/50 49/49/49
f 50/50/50 51/51/51 49/49/49
f 47/47/47 52/52/52 48/48/48
f 48/48/48 52/52/52 53/53/53
f 47/47/47 54/54/54 52/52/52
f 52/52/52 55/55/55 53/53/53
f 52/52/52 54/54/54 55/55/55
f 53/53/53 55/55/55 56/56/56
f 54/54/54 57/57/57 55/55/55
f 54/54/54 58/58/58 57/57/57
f 58/58/58 59/59/59 57/57/57
f 55/55/55 60/60/60 56/56/56
f 56/56/56 60/60/60 61/61/61
f 60/60/60 62/62/62 61/61/61
f 55/55/55 63/63/63 60/60/60
f 60/60/60 63/63/63 62/62/62
f 63/63/63 64/64/64 62/62/62
f 63/63/63 65/65/65 64/64/64
f 65/65/65 66/66/66 64/64/64
f 69/69/69 68/68/68 67/67/67
f 70/70/70 69/69/69 67/67/67
f 73/73/73 72/72/72 71/71/71
f 74/74/74 73/73/73 71/71/71
f 77/77/77 76/76/76 75/75/75
f 78/78/78 77/77/77 75/75/75
f 81/81/81 80/80/80 79/79/79
f 82/82/82 81/81/81 79/79/79
f 85/85/85 84/84/84 83/83/83
f 86/86/86 85/85/85 83/83/83
f 89/89/89 88/88/88 87/87/87
f 90/90/90 89/89/89 87/87/87
f 93/93/93 92/92/92 91/91/91
f 94/94/94 93/93/93 91/91/91
f 97/97/97 96/96/96 95/95/95
f 98/98/98 97/97/97 95/95/95
f 101/101/101 100/100/100 99/99/99
f 102/102/102 101/101/101 99/99/99
f 105/105/105 104/104/104 103/103/103
f 106/106/106 105/105/105 103/103/103
f 109/109/109 108/108/108 107/107/107
f 110/110/110 109/109/109 107/107/107
f 113/113/113 112/112/112 111/111/111
f 114/114/114 113/113/113 111/111/111
f 117/117/117 116/116/116 115/115/115
f 118/118/118 117/117/117 115/115/115
f 121/121/121 120/120/120 119/119/119
f 122/122/122 121/121/121 119/119/119
f 125/125/125 124/124/124 123/123/123
f 126/126/126 125/125/125 123/123/123
f 129/129/129 128/128/128 127/127/127
f 130/130/130 129/129/129 127/127/127
f 133/133/133 132/132/132 131/131/131
f 134/134/134 133/133/133 131/131/131
f 137/137/137 136/136/136 135/135/135
f 138/138/138 137/137/137 135/135/135
f 141/141/141 140/140/140 139/139/139
f 142/142/142 141/141/141 139/139/139
f 145/145/145 144/144/144 143/143/143
f 146/146/146 145/145/145 143/143/143
f 149/149/149 148/148/148 147/147/147
f 150/150/150 149/149/149 147/147/147
f 153/153/153 152/152/152 151/151/151
f 154/154/154 153/153/153 151/151/151
f 157/157/157 156/156/156 155/155/155
f 158/158/158 157/157/157 155/155/155
f 161/161/161 160/160/160 159/159/159
f 162/162/162 161/161/161 159/159/159
f 165/165/165 164/164/164 163/163/163
f 164/164/164 166/166/166 163/163/163
f 168/168/168 166/166/166 167/167/167
f 166/166/166 169/169/169 167/167/167
f 171/171/171 169/169/169 170/170/170
f 169/169/169 172/172/172 170/170/170
f 172/172/172 174/174/174 173/173/173
f 175/175/175 172/172/172 173/173/173
f 177/177/177 164/164/164 176/176/176
f 178/178/178 177/177/177 176/176/176
f 180/180/180 177/177/177 179/179/179
f 181/181/181 180/180/180 179/179/179
f 183/183/183 180/180/180 182/182/182
f 184/184/184 183/183/183 182/182/182
f 186/186/186 183/183/183 185/185/185
f 187/187/187 186/186/186 185/185/185
f 190/190/190 189/189/189 188/188/188
f 188/188/188 189/189/189 191/191/191
f 190/190/190 188/188/188 192/192/192
f 193/193/193 188/188/188 191/191/191
f 192/192/192 188/188/188 194/194/194
f 195/195/195 188/188/188 193/193/193
f 194/194/194 188/188/188 196/196/196
f 197/197/197 188/188/188 195/195/195
f 198/198/198 196/196/196 188/188/188
f 199/199/199 188/188/188 197/197/197
f 188/188/188 200/200/200 198/198/198
f 201/201/201 188/188/188 199/199/199
f 200/200/200 188/188/188 202/202/202
f 203/203/203 188/188/188 201/201/201
f 188/188/188 204/204/204 202/202/202
f 203/203/203 204/204/204 188/188/188
f 207/207/207 206/206/206 205/205/205
f 206/206/206 208/208/208 205/205/205
f 209/209/209 206/206/206 207/207/207
f 206/206/206 210/210/210 208/208/208
f 206/206/206 209/209/209 211/211/211
f 210/210/210 206/206/206 212/212/212
f 213/213/213 206/206/206 211/211/211
f 212/212/212 206/206/206 213/213/213
