g Carrot_1
v 0.2251813 0.08451303 0.007099438
v 0.2227665 0.07522821 0.01978338
v 0.2174734 0.09022506 0.01978338
v 0.2197805 0.0922368 -0.01989752
v 0.227286 0.08533655 -0.007554698
v 0.2213485 0.1001283 -0.006057115
v 0.2227007 0.0699183 0.002964499
v 0.2210137 0.07859429 -0.01055029
v 0.2190955 0.06256536 -0.01095329
v 0.153242 0.02807894 0.04269475
v 0.1779859 0.0740426 0.04159882
v 0.1812008 0.04461347 0.02933636
v 0.1485719 0.07082938 0.06050793
v 0.174771 0.1034717 0.02933637
v 0.05321492 0.01735867 0.04047214
v 0.1439018 0.1135798 0.04269476
v 0.1734394 0.1156617 -0.0002678346
v 0.04856534 0.05990456 0.05820009
v 0.1419673 0.1312876 -0.0003099868
v 0.174771 0.1034717 -0.02987204
v -0.1003639 0.04363539 0.03887694
v -0.09725896 0.01522648 0.02703963
v -0.2409546 0.01372411 0.01368145
v 0.04391937 0.1024508 0.04047217
v 0.1439017 0.1135798 -0.04331475
v 0.1779859 0.0740426 -0.04213451
v -0.1034658 0.07204463 0.02703964
v -0.2425271 0.02810536 0.0196736
v 0.04199785 0.1200745 -0.002326941
v 0.1485718 0.07082937 -0.06112792
v 0.1812008 0.04461347 -0.02987206
v -0.1047481 0.08381269 -0.001538407
v 0.04392566 0.1024516 -0.04512617
v 0.1532419 0.02807894 -0.04331478
v 0.1825324 0.03242351 -0.0002678481
v -0.2509294 0.02718747 0.0117272
v -0.2499703 0.01841708 0.008072918
v -0.2537652 0.02687768 -0.0007499225
v -0.249571 0.01478398 -0.000749772
v -0.2499653 0.01841691 -0.009573183
v -0.2509225 0.02718824 -0.01322817
v -0.2518817 0.0359593 -0.009573174
v -0.252281 0.0395917 -0.000749768
v -0.2518865 0.03595807 0.008072926
v -0.2518865 0.03595807 0.008072926
v -0.2440966 0.04248691 0.01368146
v -0.252281 0.0395917 -0.000749768
v -0.2447437 0.04844495 -0.0007855191
v -0.2518817 0.0359593 -0.009573174
v -0.10346 0.07204562 -0.03011682
v -0.2440894 0.04248865 -0.01525346
v -0.2509225 0.02718824 -0.01322817
v -0.1003556 0.04363631 -0.04195451
v -0.2425166 0.0281065 -0.02124657
v -0.2499653 0.01841691 -0.009573183
v 0.04857426 0.05990555 -0.06285422
v -0.240947 0.01372398 -0.01525347
v -0.249571 0.01478398 -0.000749772
v -0.09725302 0.01522678 -0.03011683
v 0.05322123 0.01735929 -0.04512619
v -0.2403001 0.007766869 -0.0007855257
v -0.2499703 0.01841708 0.008072918
v -0.2409546 0.01372411 0.01368145
v -0.09725896 0.01522648 0.02703963
v -0.09597022 0.003459133 -0.001538421
v 0.05321492 0.01735867 0.04047214
v 0.05514375 -0.0002641901 -0.002326961
v 0.153242 0.02807894 0.04269475
v 0.1551764 0.0103711 -0.000310006
v 0.1812008 0.04461347 0.02933636
v 0.1936768 0.07575668 -0.0002678413
v 0.1812008 0.04461347 -0.02987206
v 0.1779859 0.0740426 0.04159882
v 0.1779859 0.0740426 -0.04213451
v 0.174771 0.1034717 0.02933637
v 0.174771 0.1034717 -0.02987204
v 0.1734394 0.1156617 -0.0002678346
v 0.1766805 0.06555218 0.009326251
v 0.227286 0.08533655 -0.007554698
v 0.2197805 0.0922368 -0.01989752
v 0.1687926 0.07280408 -0.003645595
v 0.1704405 0.08109768 0.01090015
v 0.2213485 0.1001283 -0.006057115
v 0.227286 0.08533655 -0.007554698
v 0.1766805 0.06555218 0.009326251
v 0.1687926 0.07280408 -0.003645595
v 0.2197805 0.0922368 -0.01989752
v 0.2213485 0.1001283 -0.006057115
v 0.1704405 0.08109768 0.01090015
v 0.1650765 0.06639908 -0.0006156841
v 0.2227665 0.07522821 0.01978338
v 0.2251813 0.08451303 0.007099438
v 0.1676313 0.07622182 -0.0140345
v 0.1594768 0.0822648 -0.0006156841
v 0.2174734 0.09022506 0.01978338
v 0.2227665 0.07522821 0.01978338
v 0.1650765 0.06639908 -0.0006156841
v 0.1676313 0.07622182 -0.0140345
v 0.2251813 0.08451303 0.007099438
v 0.2174734 0.09022506 0.01978338
v 0.1594768 0.0822648 -0.0006156841
v 0.1699674 0.0796627 -0.005768869
v 0.2210137 0.07859429 -0.01055029
v 0.2227007 0.0699183 0.002964499
v 0.1717251 0.0706232 0.008312194
v 0.1679689 0.06296216 -0.006188756
v 0.2190955 0.06256536 -0.01095329
v 0.2210137 0.07859429 -0.01055029
v 0.1699674 0.0796627 -0.005768869
v 0.1717251 0.0706232 0.008312194
v 0.2227007 0.0699183 0.002964499
v 0.2190955 0.06256536 -0.01095329
v 0.1679689 0.06296216 -0.006188756
vt 0.7016602 0.2976074
vt 0.7045898 0.3012695
vt 0.7060547 0.2971191
vt 0.699707 0.3095703
vt 0.7041016 0.3093262
vt 0.7016602 0.3054199
vt 0.6455078 0.03546143
vt 0.6484375 0.03173828
vt 0.6435547 0.03131104
vt 0.796875 0.4853516
vt 0.8115234 0.4785156
vt 0.8022461 0.4753418
vt 0.8095703 0.487793
vt 0.8212891 0.479248
vt 0.7963867 0.5146484
vt 0.8203125 0.4887695
vt 0.831543 0.479248
vt 0.809082 0.5131836
vt 0.8310547 0.4892578
vt 0.8417969 0.4787598
vt 0.8178711 0.5522461
vt 0.8100586 0.5551758
vt 0.8276367 0.5888672
vt 0.8208008 0.512207
vt 0.8417969 0.4892578
vt 0.8530273 0.4777832
vt 0.8261719 0.550293
vt 0.8310547 0.5864258
vt 0.8320313 0.5117188
vt 0.8530273 0.4890137
vt 0.8637695 0.4782715
vt 0.8339844 0.5493164
vt 0.8427734 0.5117188
vt 0.8647461 0.4885254
vt 0.8740234 0.4775391
vt 0.8325195 0.5888672
vt 0.8305664 0.5913086
vt 0.8339844 0.5927734
vt 0.8305664 0.5942383
vt 0.8325195 0.5961914
vt 0.8354492 0.5961914
vt 0.8374023 0.5942383
vt 0.8374023 0.5913086
vt 0.8354492 0.5893555
vt 0.8354492 0.5878906
vt 0.8344727 0.5849609
vt 0.8383789 0.5874023
vt 0.8378906 0.5839844
vt 0.8413086 0.5874023
vt 0.8422852 0.5488281
vt 0.8417969 0.5839844
vt 0.8447266 0.5878906
vt 0.8505859 0.5493164
vt 0.8452148 0.5844727
vt 0.8481445 0.5883789
vt 0.8530273 0.5117188
vt 0.8491211 0.5854492
vt 0.8510742 0.5898438
vt 0.8583984 0.5507813
vt 0.8642578 0.512207
vt 0.8525391 0.5869141
vt 0.8530273 0.5913086
vt 0.855957 0.5893555
vt 0.875 0.5561523
vt 0.8666992 0.5527344
vt 0.8901367 0.5146484
vt 0.8764648 0.5131836
vt 0.8886719 0.484375
vt 0.8759766 0.4873047
vt 0.8833008 0.4748535
vt 0.8754883 0.4650879
vt 0.8657227 0.4729004
vt 0.8881836 0.4663086
vt 0.862793 0.463623
vt 0.8852539 0.4570313
vt 0.8676758 0.4550781
vt 0.8769531 0.4523926
vt 0.7041016 0.3254395
vt 0.7041016 0.3093262
vt 0.699707 0.3095703
vt 0.6992188 0.3256836
vt 0.6948242 0.3254395
vt 0.6953125 0.3093262
vt 0.6904297 0.309082
vt 0.6899414 0.3251953
vt 0.6992188 0.3256836
vt 0.699707 0.3095703
vt 0.6953125 0.3093262
vt 0.6948242 0.3254395
vt 0.6967773 0.2802734
vt 0.6972656 0.2978516
vt 0.7016602 0.2976074
vt 0.7016602 0.2800293
vt 0.6923828 0.279541
vt 0.6928711 0.2971191
vt 0.6972656 0.2978516
vt 0.6967773 0.2802734
vt 0.7016602 0.2800293
vt 0.7016602 0.2976074
vt 0.7060547 0.2971191
vt 0.706543 0.279541
vt 0.6342773 0.01748657
vt 0.6347656 0.03201294
vt 0.6391602 0.03201294
vt 0.6386719 0.01747131
vt 0.6435547 0.01673889
vt 0.6435547 0.03131104
vt 0.6484375 0.03173828
vt 0.6484375 0.01719666
vt 0.6386719 0.01747131
vt 0.6391602 0.03201294
vt 0.6435547 0.03131104
vt 0.6435547 0.01673889
vn 0.8686523 0.3063965 0.3896484
vn 0.8686523 0.3063965 0.3896484
vn 0.8686523 0.3063965 0.3896484
vn 0.8691406 0.3808594 -0.3156738
vn 0.8691406 0.3808594 -0.3156738
vn 0.8691406 0.3808594 -0.3156738
vn 0.9746094 -0.1117554 -0.1934814
vn 0.9746094 -0.1117554 -0.1934814
vn 0.9746094 -0.1117554 -0.1934814
vn 0.328125 -0.6503906 0.6850586
vn 0.7358398 0.0803833 0.6723633
vn 0.7875977 -0.3920898 0.4755859
vn 0.2512207 0.0274353 0.9677734
vn 0.684082 0.5527344 0.4755859
vn 0.004829407 -0.7104492 0.7036133
vn 0.1799316 0.7060547 0.6850586
vn 0.6630859 0.7485352 0.0001878738
vn -0.07415771 -0.008102417 0.9970703
vn 0.1563721 0.987793 0.002593994
vn 0.6845703 0.5527344 -0.4750977
vn -0.1296387 -0.01416016 0.9916992
vn -0.05502319 -0.7109375 0.7011719
vn -0.3312988 -0.6865234 0.6469727
vn -0.1486816 0.6948242 0.7036133
vn 0.1940918 0.7075195 -0.6796875
vn 0.7363281 0.08044434 -0.671875
vn -0.2072754 0.6826172 0.7011719
vn -0.4006348 -0.04376221 0.9150391
vn -0.1749268 0.984375 -0.003084183
vn 0.2712402 0.02961731 -0.9619141
vn 0.7880859 -0.3918457 -0.4750977
vn -0.2423096 0.9702148 0.0001004338
vn -0.1378174 0.6933594 -0.7075195
vn 0.3422852 -0.6489258 -0.6796875
vn 0.809082 -0.5878906 0.0001877546
vn -0.831543 -0.09082031 0.5478516
vn -0.7895508 -0.4755859 0.3874512
vn -0.9941406 -0.1085815 -0.000254631
vn -0.7729492 -0.6347656 0.0002801418
vn -0.7905273 -0.4750977 -0.3862305
vn -0.8330078 -0.09100342 -0.5458984
vn -0.8745117 0.2932129 -0.3862305
vn -0.8916016 0.4528809 0.0002813339
vn -0.8740234 0.2939453 0.3874512
vn -0.8740234 0.2939453 0.3874512
vn -0.4719238 0.5991211 0.6469727
vn -0.8916016 0.4528809 0.0002813339
vn -0.5029297 0.8642578 0.0004992485
vn -0.8745117 0.2932129 -0.3862305
vn -0.2143555 0.6811523 -0.7001953
vn -0.4763184 0.5976563 -0.6450195
vn -0.8330078 -0.09100342 -0.5458984
vn -0.1397705 -0.01527405 -0.9902344
vn -0.4069824 -0.04446411 -0.9121094
vn -0.7905273 -0.4750977 -0.3862305
vn -0.0592041 -0.006469727 -0.9980469
vn -0.3359375 -0.6860352 -0.6450195
vn -0.7729492 -0.6347656 0.0002801418
vn -0.06228638 -0.7114258 -0.7001953
vn 0.0151062 -0.706543 -0.7075195
vn -0.3046875 -0.9526367 0.0004982948
vn -0.7895508 -0.4755859 0.3874512
vn -0.3312988 -0.6865234 0.6469727
vn -0.05502319 -0.7109375 0.7011719
vn -0.02714539 -0.9995117 0.0001001358
vn 0.004829407 -0.7104492 0.7036133
vn 0.04174805 -0.9990234 -0.003084183
vn 0.328125 -0.6503906 0.6850586
vn 0.3659668 -0.9306641 0.002593994
vn 0.7875977 -0.3920898 0.4755859
vn 0.9941406 0.1085815 0
vn 0.7880859 -0.3918457 -0.4750977
vn 0.7358398 0.0803833 0.6723633
vn 0.7363281 0.08044434 -0.671875
vn 0.684082 0.5527344 0.4755859
vn 0.6845703 0.5527344 -0.4750977
vn 0.6630859 0.7485352 0.0001878738
vn 0.1402588 -0.8251953 -0.546875
vn 0.1402588 -0.8251953 -0.546875
vn 0.1402588 -0.8251953 -0.546875
vn 0.1402588 -0.8251953 -0.546875
vn 0.3068848 0.02685547 0.9511719
vn 0.3068848 0.02685547 0.9511719
vn 0.3068848 0.02685547 0.9511719
vn 0.3068848 0.02685547 0.9511719
vn -0.435791 0.8022461 -0.407959
vn -0.435791 0.8022461 -0.407959
vn -0.435791 0.8022461 -0.407959
vn -0.435791 0.8022461 -0.407959
vn 0.3066406 -0.7949219 -0.5234375
vn 0.3066406 -0.7949219 -0.5234375
vn 0.3066406 -0.7949219 -0.5234375
vn 0.3066406 -0.7949219 -0.5234375
vn -0.3161621 -0.1115723 0.9423828
vn -0.3161621 -0.1115723 0.9423828
vn -0.3161621 -0.1115723 0.9423828
vn -0.3161621 -0.1115723 0.9423828
vn 0.01594543 0.9150391 -0.4025879
vn 0.01594543 0.9150391 -0.4025879
vn 0.01594543 0.9150391 -0.4025879
vn 0.01594543 0.9150391 -0.4025879
vn 0.06756592 0.8432617 0.5332031
vn 0.06756592 0.8432617 0.5332031
vn 0.06756592 0.8432617 0.5332031
vn 0.06756592 0.8432617 0.5332031
vn -0.09246826 0.03607178 -0.9951172
vn -0.09246826 0.03607178 -0.9951172
vn -0.09246826 0.03607178 -0.9951172
vn -0.09246826 0.03607178 -0.9951172
vn 0.03594971 -0.887207 0.4594727
vn 0.03594971 -0.887207 0.4594727
vn 0.03594971 -0.887207 0.4594727
vn 0.03594971 -0.887207 0.4594727
g Carrot_1_0
f 3/3/3 2/2/2 1/1/1
f 6/6/6 5/5/5 4/4/4
f 9/9/9 8/8/8 7/7/7
f 12/12/12 11/11/11 10/10/10
f 11/11/11 13/13/13 10/10/10
f 11/11/11 14/14/14 13/13/13
f 15/15/15 10/10/10 13/13/13
f 14/14/14 16/16/16 13/13/13
f 14/14/14 17/17/17 16/16/16
f 18/18/18 15/15/15 13/13/13
f 18/18/18 13/13/13 16/16/16
f 17/17/17 19/19/19 16/16/16
f 17/17/17 20/20/20 19/19/19
f 15/15/15 18/18/18 21/21/21
f 22/22/22 15/15/15 21/21/21
f 22/22/22 21/21/21 23/23/23
f 24/24/24 18/18/18 16/16/16
f 24/24/24 16/16/16 19/19/19
f 20/20/20 25/25/25 19/19/19
f 20/20/20 26/26/26 25/25/25
f 21/21/21 18/18/18 27/27/27
f 18/18/18 24/24/24 27/27/27
f 21/21/21 28/28/28 23/23/23
f 21/21/21 27/27/27 28/28/28
f 29/29/29 24/24/24 19/19/19
f 29/29/29 19/19/19 25/25/25
f 26/26/26 30/30/30 25/25/25
f 26/26/26 31/31/31 30/30/30
f 27/27/27 24/24/24 32/32/32
f 24/24/24 29/29/29 32/32/32
f 33/33/33 29/29/29 25/25/25
f 25/25/25 30/30/30 33/33/33
f 31/31/31 34/34/34 30/30/30
f 31/31/31 35/35/35 34/34/34
f 23/23/23 28/28/28 36/36/36
f 37/37/37 23/23/23 36/36/36
f 36/36/36 38/38/38 37/37/37
f 38/38/38 39/39/39 37/37/37
f 39/39/39 38/38/38 40/40/40
f 40/40/40 38/38/38 41/41/41
f 41/41/41 38/38/38 42/42/42
f 42/42/42 38/38/38 43/43/43
f 43/43/43 38/38/38 44/44/44
f 44/44/44 38/38/38 36/36/36
f 36/36/36 28/28/28 45/45/45
f 28/28/28 46/46/46 45/45/45
f 27/27/27 46/46/46 28/28/28
f 45/45/45 46/46/46 47/47/47
f 27/27/27 32/32/32 46/46/46
f 46/46/46 48/48/48 47/47/47
f 32/32/32 48/48/48 46/46/46
f 47/47/47 48/48/48 49/49/49
f 32/32/32 50/50/50 48/48/48
f 32/32/32 29/29/29 50/50/50
f 29/29/29 33/33/33 50/50/50
f 48/48/48 51/51/51 49/49/49
f 50/50/50 51/51/51 48/48/48
f 49/49/49 51/51/51 52/52/52
f 50/50/50 33/33/33 53/53/53
f 50/50/50 53/53/53 51/51/51
f 51/51/51 54/54/54 52/52/52
f 53/53/53 54/54/54 51/51/51
f 52/52/52 54/54/54 55/55/55
f 33/33/33 56/56/56 53/53/53
f 30/30/30 56/56/56 33/33/33
f 56/56/56 30/30/30 34/34/34
f 54/54/54 57/57/57 55/55/55
f 55/55/55 57/57/57 58/58/58
f 53/53/53 59/59/59 54/54/54
f 53/53/53 56/56/56 59/59/59
f 59/59/59 57/57/57 54/54/54
f 60/60/60 56/56/56 34/34/34
f 56/56/56 60/60/60 59/59/59
f 57/57/57 61/61/61 58/58/58
f 58/58/58 61/61/61 62/62/62
f 61/61/61 63/63/63 62/62/62
f 64/64/64 63/63/63 61/61/61
f 59/59/59 65/65/65 57/57/57
f 65/65/65 61/61/61 57/57/57
f 65/65/65 64/64/64 61/61/61
f 59/59/59 60/60/60 65/65/65
f 66/66/66 64/64/64 65/65/65
f 67/67/67 66/66/66 65/65/65
f 60/60/60 67/67/67 65/65/65
f 66/66/66 67/67/67 68/68/68
f 60/60/60 34/34/34 69/69/69
f 67/67/67 60/60/60 69/69/69
f 67/67/67 69/69/69 68/68/68
f 35/35/35 69/69/69 34/34/34
f 70/70/70 68/68/68 69/69/69
f 35/35/35 70/70/70 69/69/69
f 71/71/71 70/70/70 35/35/35
f 71/71/71 35/35/35 72/72/72
f 71/71/71 73/73/73 70/70/70
f 71/71/71 72/72/72 74/74/74
f 71/71/71 75/75/75 73/73/73
f 71/71/71 74/74/74 76/76/76
f 71/71/71 77/77/77 75/75/75
f 71/71/71 76/76/76 77/77/77
f 80/80/80 79/79/79 78/78/78
f 81/81/81 80/80/80 78/78/78
f 84/84/84 83/83/83 82/82/82
f 85/85/85 84/84/84 82/82/82
f 88/88/88 87/87/87 86/86/86
f 89/89/89 88/88/88 86/86/86
f 92/92/92 91/91/91 90/90/90
f 93/93/93 92/92/92 90/90/90
f 96/96/96 95/95/95 94/94/94
f 97/97/97 96/96/96 94/94/94
f 100/100/100 99/99/99 98/98/98
f 101/101/101 100/100/100 98/98/98
f 104/104/104 103/103/103 102/102/102
f 105/105/105 104/104/104 102/102/102
f 108/108/108 107/107/107 106/106/106
f 109/109/109 108/108/108 106/106/106
f 112/112/112 111/111/111 110/110/110
f 113/113/113 112/112/112 110/110/110
