g Commode_4
v -0.3912604 0.9627894 0.3930193
v -0.3912604 0.9627894 -0.3930194
v -0.3912604 1.004838 -0.3930194
v -0.3912604 1.004838 0.3930193
v 0.0109179 0.9627894 -0.3930194
v 0.413096 0.9627894 -0.3930194
v 0.413096 1.004838 -0.3930194
v 0.0109179 0.99593 -0.3930194
v -0.3912604 0.9627894 -0.3930194
v -0.3912604 1.004838 -0.3930194
v 0.413096 0.9627894 -0.3930194
v 0.413096 0.9627894 0.3930193
v 0.413096 1.004838 0.3930193
v 0.413096 1.004838 -0.3930194
v -0.3912604 1.004838 0.3930193
v -0.3912604 1.004838 -0.3930194
v 0.0109179 0.99593 -0.3930194
v 0.0109179 0.99593 0.3930193
v 0.413096 1.004838 0.3930193
v 0.413096 1.004838 -0.3930194
v -0.3701044 0.5062948 0.3731278
v -0.3787985 0.9527875 -0.3568992
v -0.3787985 0.9527875 0.3808413
v -0.3701044 0.5062948 -0.3568992
v -0.384351 0.005797341 0.3808413
v -0.384351 0.005797327 -0.3568992
v 0.3479878 0.5062948 0.3731278
v 0.4061867 0.005797341 0.3808413
v 0.360591 0.005797341 0.3808413
v 0.39194 0.5062948 0.3731278
v 0.355679 0.9154724 0.3808413
v 0.4006341 0.9527875 0.3808413
v 0.0109179 0.9477279 0.3808413
v -0.3787985 0.9527875 0.3808413
v -0.3912604 0.9627894 0.3930193
v 0.0109179 0.9577298 0.3930193
v 0.4006341 0.9527875 0.3808413
v 0.413096 0.9627894 0.3930193
v 0.4006341 0.9527875 -0.3568992
v 0.4006341 0.9527875 0.3808413
v 0.413096 0.9627894 0.3930193
v 0.413096 0.9627894 -0.3930194
v 0.0109179 0.9527875 -0.3568992
v 0.4006341 0.9527875 -0.3568992
v 0.413096 0.9627894 -0.3930194
v 0.0109179 0.9627894 -0.3930194
v -0.3787985 0.9527875 -0.3568992
v -0.3912604 0.9627894 -0.3930194
v -0.3787985 0.9527875 0.3808413
v -0.3787985 0.9527875 -0.3568992
v -0.3912604 0.9627894 -0.3930194
v -0.3912604 0.9627894 0.3930193
v 0.0109179 0.9104127 0.3808413
v 0.4006341 0.9527875 0.3808413
v 0.355679 0.9154724 0.3808413
v 0.0109179 0.9477279 0.3808413
v -0.333843 0.9154724 0.3808413
v -0.3787985 0.9527875 0.3808413
v -0.3261518 0.5062948 0.3731278
v -0.3787985 0.9527875 0.3808413
v -0.333843 0.9154724 0.3808413
v -0.3701044 0.5062948 0.3731278
v -0.384351 0.005797341 0.3808413
v -0.3387551 0.005797341 0.3808413
v 0.0109179 0.9043995 -0.3568992
v 0.355679 0.9154724 0.3808413
v 0.3526079 0.9094591 -0.3568992
v 0.0109179 0.9104127 0.3808413
v -0.3307719 0.9094591 -0.3568992
v -0.333843 0.9154724 0.3808413
v -0.3231492 0.5062948 -0.3568992
v -0.333843 0.9154724 0.3808413
v -0.3307719 0.9094591 -0.3568992
v -0.3261518 0.5062948 0.3731278
v -0.3356401 0.005797327 -0.3568992
v -0.3387551 0.005797341 0.3808413
v 0.3526079 0.9094591 -0.3568992
v 0.355679 0.9154724 0.3808413
v 0.3479878 0.5062948 0.3731278
v 0.3449852 0.5062948 -0.3568992
v 0.360591 0.005797341 0.3808413
v 0.3574761 0.005797327 -0.3568992
v 0.413096 0.9627894 0.3930193
v 0.0109179 0.99593 0.3930193
v 0.413096 1.004838 0.3930193
v 0.0109179 0.9577298 0.3930193
v -0.3912604 1.004838 0.3930193
v -0.3912604 0.9627894 0.3930193
v 0.39194 0.5062948 0.3731278
v 0.4061867 0.005797327 -0.3568992
v 0.4061867 0.005797341 0.3808413
v 0.39194 0.5062948 -0.3568992
v 0.4006341 0.9527875 0.3808413
v 0.4006341 0.9527875 -0.3568992
v 0.0109179 0.9527875 -0.3568992
v -0.3787985 0.9527875 -0.3568992
v -0.3307719 0.9094591 -0.3568992
v 0.0109179 0.9043995 -0.3568992
v 0.4006341 0.9527875 -0.3568992
v 0.3526079 0.9094591 -0.3568992
v 0.4061867 0.005797341 0.3808413
v 0.4061867 0.005797327 -0.3568992
v 0.3574761 0.005797327 -0.3568992
v 0.360591 0.005797341 0.3808413
v -0.384351 0.005797341 0.3808413
v -0.3387551 0.005797341 0.3808413
v -0.3356401 0.005797327 -0.3568992
v -0.384351 0.005797327 -0.3568992
v -0.3787985 0.9527875 -0.3568992
v -0.3231492 0.5062948 -0.3568992
v -0.3307719 0.9094591 -0.3568992
v -0.3701044 0.5062948 -0.3568992
v -0.3356401 0.005797327 -0.3568992
v -0.384351 0.005797327 -0.3568992
v 0.3449852 0.5062948 -0.3568992
v 0.3574761 0.005797327 -0.3568992
v 0.4061867 0.005797327 -0.3568992
v 0.39194 0.5062948 -0.3568992
v 0.3526079 0.9094591 -0.3568992
v 0.4006341 0.9527875 -0.3568992
v 0.01387215 0.5347832 0.3434222
v 0.371779 0.5466884 -0.3278131
v 0.371779 0.5435166 0.3434222
v 0.01387215 0.5367938 -0.3278131
v -0.3507113 0.5408665 0.3434222
v -0.3507113 0.5436859 -0.3278131
v -0.3507113 0.966486 -0.2960581
v 0.3851307 0.966486 -0.296058
v 0.3851307 0.1061321 -0.296058
v -0.3507113 0.1061321 -0.2960581
v -0.3507113 0.9281492 -0.3400103
v -0.3507113 0.09647602 -0.3400103
v 0.01325291 0.09123015 -0.3415229
v 0.01070646 0.9278162 -0.3415123
v 0.3717791 0.9281492 -0.3430129
v 0.3717791 0.09647602 -0.3430129
v 0.01387215 0.4946641 0.3434222
v 0.3851307 0.5020723 0.3434222
v 0.3851307 0.4997335 -0.3278131
v 0.01387215 0.4913402 -0.3278131
v -0.3507113 0.5020724 0.3434222
v -0.3507113 0.4997336 -0.3278131
v 0.01387215 0.5347832 0.3434222
v -0.3507113 0.5020724 0.3434222
v -0.3507113 0.5408665 0.3434222
v 0.01387215 0.4946641 0.3434222
v 0.371779 0.5435166 0.3434222
v 0.3851307 0.5020723 0.3434222
v 0.01387215 0.1276658 0.3434222
v 0.371779 0.1375604 -0.3278131
v 0.371779 0.1375604 0.3434222
v 0.01387215 0.1276658 -0.3278131
v -0.3507113 0.1345579 0.3434222
v -0.3507113 0.1345579 -0.3278131
v 0.01387215 0.07696634 0.3434222
v 0.3851307 0.08535969 0.3434222
v 0.3717791 0.09647602 -0.3430129
v 0.01325291 0.09123015 -0.3415229
v -0.3507113 0.08535975 0.3434222
v -0.3507113 0.09647602 -0.3400103
v 0.01387215 0.1276658 0.3434222
v -0.3507113 0.08535975 0.3434222
v -0.3507113 0.1345579 0.3434222
v 0.01387215 0.07696634 0.3434222
v 0.371779 0.1375604 0.3434222
v 0.3851307 0.08535969 0.3434222
vt 0.2958984 0.06835938
vt 0.5449219 0.06835938
vt 0.5449219 0.05502319
vt 0.2958984 0.05502319
vt 0.8969727 0.5561523
vt 0.8969727 0.6835938
vt 0.9106445 0.6835938
vt 0.9077148 0.5561523
vt 0.8969727 0.4287109
vt 0.9106445 0.4287109
vt 0.2958984 0.0430603
vt 0.5449219 0.0430603
vt 0.5449219 0.02973938
vt 0.2958984 0.02973938
vt 0.784668 0.4262695
vt 0.5356445 0.4262695
vt 0.5356445 0.5537109
vt 0.784668 0.5537109
vt 0.784668 0.6811523
vt 0.5356445 0.6811523
vt 0.9536133 0.8500977
vt 0.7226563 0.9916992
vt 0.9560547 0.9916992
vt 0.7226563 0.8500977
vt 0.9560547 0.6914063
vt 0.7226563 0.6914063
vt 0.4543457 0.09777832
vt 0.2958984 0.08032227
vt 0.2958984 0.09472656
vt 0.4543457 0.0838623
vt 0.5839844 0.09460449
vt 0.5957031 0.08032227
vt 0.8588867 0.5561523
vt 0.8598633 0.6796875
vt 0.8652344 0.6835938
vt 0.8637695 0.5561523
vt 0.8598633 0.4326172
vt 0.8652344 0.4287109
vt 0.3071289 0.04812622
vt 0.5410156 0.04812622
vt 0.5449219 0.0430603
vt 0.2958984 0.0430603
vt 0.8852539 0.5561523
vt 0.8852539 0.6796875
vt 0.8969727 0.6835938
vt 0.8969727 0.5561523
vt 0.8852539 0.4326172
vt 0.8969727 0.4287109
vt 0.2995605 0.07342529
vt 0.5332031 0.07342529
vt 0.5449219 0.06835938
vt 0.2958984 0.06835938
vt 0.847168 0.5561523
vt 0.8608398 0.4326172
vt 0.8486328 0.4467773
vt 0.8588867 0.5561523
vt 0.8481445 0.6650391
vt 0.8598633 0.6796875
vt 0.4372559 0.1221924
vt 0.2958984 0.1047363
vt 0.3076172 0.1190186
vt 0.4372559 0.1082764
vt 0.5957031 0.1047363
vt 0.5957031 0.1191406
vt 0.002887726 0.8876953
vt 0.2365723 0.7788086
vt 0.002901077 0.7788086
vt 0.2365723 0.8876953
vt 0.002901077 0.996582
vt 0.2365723 0.996582
vt 0.4807129 0.8354492
vt 0.7133789 0.706543
vt 0.4807129 0.706543
vt 0.7133789 0.8354492
vt 0.4807129 0.9936523
vt 0.7133789 0.9936523
vt 0.0032444 0.7734375
vt 0.2357178 0.7734375
vt 0.2357178 0.6445313
vt 0.003231049 0.6445313
vt 0.2357178 0.4858398
vt 0.003242493 0.4858398
vt 0.8652344 0.4287109
vt 0.8759766 0.5561523
vt 0.878418 0.4287109
vt 0.8637695 0.5561523
vt 0.878418 0.6835938
vt 0.8652344 0.6835938
vt 0.5219727 0.3842773
vt 0.2895508 0.5429688
vt 0.5219727 0.5429688
vt 0.2895508 0.3842773
vt 0.5219727 0.2427979
vt 0.2895508 0.2427979
vt 0.9350586 0.5585938
vt 0.9350586 0.4350586
vt 0.9213867 0.4501953
vt 0.9199219 0.5585938
vt 0.9350586 0.6821289
vt 0.9213867 0.6669922
vt 0.809082 0.6669922
vt 0.809082 0.4335938
vt 0.7939453 0.4335938
vt 0.7949219 0.6669922
vt 0.831543 0.4335938
vt 0.8168945 0.4335938
vt 0.815918 0.6669922
vt 0.831543 0.6669922
vt 0.5957031 0.1291504
vt 0.4543457 0.147583
vt 0.5820313 0.1444092
vt 0.4543457 0.1326904
vt 0.2958984 0.1445313
vt 0.2958984 0.1291504
vt 0.4370117 0.1729736
vt 0.5957031 0.1699219
vt 0.5957031 0.1544189
vt 0.4372559 0.1580811
vt 0.3093262 0.1697998
vt 0.2958984 0.1544189
vt 0.7568359 0.3010254
vt 0.9702148 0.1884766
vt 0.7578125 0.1876221
vt 0.9697266 0.3017578
vt 0.7573242 0.4165039
vt 0.9697266 0.4169922
vt 0.2773438 0.4782715
vt 0.2773438 0.2452393
vt 0.004741669 0.2452393
vt 0.004741669 0.4782715
vt 0.005455017 0.2376709
vt 0.2697754 0.2376709
vt 0.2697754 0.1223755
vt 0.005561829 0.1231689
vt 0.005455017 0.008789063
vt 0.2697754 0.008789063
vt 0.7441406 0.3010254
vt 0.7446289 0.1835938
vt 0.5317383 0.1833496
vt 0.5317383 0.3015137
vt 0.7451172 0.4165039
vt 0.5322266 0.4174805
vt 0.7568359 0.3010254
vt 0.7451172 0.4165039
vt 0.7573242 0.4165039
vt 0.7441406 0.3010254
vt 0.7578125 0.1876221
vt 0.7446289 0.1835938
vt 0.3571777 0.7626953
vt 0.2419434 0.5498047
vt 0.2419434 0.7626953
vt 0.3571777 0.5507813
vt 0.472168 0.7626953
vt 0.4726563 0.5512695
vt 0.3571777 0.7792969
vt 0.2419434 0.7792969
vt 0.2419434 0.996582
vt 0.3571777 0.996582
vt 0.4719238 0.7792969
vt 0.4726563 0.9956055
vt 0.3571777 0.7626953
vt 0.4719238 0.7792969
vt 0.472168 0.7626953
vt 0.3571777 0.7792969
vt 0.2419434 0.7626953
vt 0.2419434 0.7792969
vn -1 0 0
vn -1 0 0
vn -1 0 0
vn -1 0 0
vn 0 0 -1
vn 0 0 -1
vn 0 0 -1
vn 0 0 -1
vn 0 0 -1
vn 0 0 -1
vn 1 0 0
vn 1 0 0
vn 1 0 0
vn 1 0 0
vn 0.0221405 0.9995117 0
vn 0.0221405 0.9995117 0
vn 0 1 0
vn 0 1 0
vn -0.0221405 0.9995117 0
vn -0.0221405 0.9995117 0
vn -1 0.004478455 0
vn -1 -0.01947021 0
vn -1 -0.01947021 0
vn -1 0.004493713 0
vn -0.9995117 0.02845764 0
vn -0.9995117 0.02845764 0
vn 0.003822327 -0.001415253 1
vn 0 0.01541138 1
vn 0 0.01541138 1
vn 0.003803253 -0.00133419 1
vn 0.003667831 -0.008735657 1
vn 0.004257202 -0.01013947 1
vn 0 -0.7753906 0.6318359
vn -0.009902954 -0.7753906 0.6318359
vn -0.009902954 -0.7753906 0.6318359
vn 0 -0.7753906 0.6318359
vn 0.009902954 -0.7753906 0.6318359
vn 0.009902954 -0.7753906 0.6318359
vn 0.6259766 -0.7797852 0
vn 0.6259766 -0.7797852 0
vn 0.6259766 -0.7797852 0
vn 0.6259766 -0.7797852 0
vn 0 -0.9638672 -0.2668457
vn 0 -0.9638672 -0.2668457
vn 0 -0.9638672 -0.2668457
vn 0 -0.9638672 -0.2668457
vn 0 -0.9638672 -0.2668457
vn 0 -0.9638672 -0.2668457
vn -0.6259766 -0.7797852 0
vn -0.6259766 -0.7797852 0
vn -0.6259766 -0.7797852 0
vn -0.6259766 -0.7797852 0
vn 0 0 1
vn 0.004257202 -0.01013947 1
vn 0.003667831 -0.008735657 1
vn 0 0 1
vn -0.003667831 -0.008735657 1
vn -0.004257202 -0.01013947 1
vn -0.003822327 -0.001415253 1
vn -0.004257202 -0.01013947 1
vn -0.003667831 -0.008735657 1
vn -0.003803253 -0.00133419 1
vn 0 0.01541138 1
vn 0 0.01541138 1
vn 0 -1 0.008117676
vn 0.01473999 -1 0.008117676
vn 0.01473999 -1 0.008117676
vn 0 -1 0.008117676
vn -0.01473999 -1 0.008117676
vn -0.01473999 -1 0.008117676
vn 1 -0.003110886 0.004116058
vn 1 0.01881409 0.004058838
vn 1 0.01881409 0.004058838
vn 1 -0.00308609 0.004116058
vn 0.9995117 -0.02502441 0.004165649
vn 0.9995117 -0.02502441 0.004165649
vn -1 0.01881409 0.004058838
vn -1 0.01881409 0.004058838
vn -1 -0.00308609 0.004116058
vn -1 -0.003110886 0.004116058
vn -0.9995117 -0.02502441 0.004165649
vn -0.9995117 -0.02502441 0.004165649
vn 0 0 1
vn 0 0 1
vn 0 0 1
vn 0 0 1
vn 0 0 1
vn 0 0 1
vn 1 0.004478455 0
vn 0.9995117 0.02845764 0
vn 0.9995117 0.02845764 0
vn 1 0.004493713 0
vn 1 -0.01947021 0
vn 1 -0.01947021 0
vn 0 0 -1
vn 0 0 -1
vn 0 0 -1
vn 0 0 -1
vn 0 0 -1
vn 0 0 -1
vn 0 -1 0
vn 0 -1 0
vn 0 -1 0
vn 0 -1 0
vn 0 -1 0
vn 0 -1 0
vn 0 -1 0
vn 0 -1 0
vn 0 0 -1
vn 0 0 -1
vn 0 0 -1
vn 0 0 -1
vn 0 0 -1
vn 0 0 -1
vn 0 0 -1
vn 0 0 -1
vn 0 0 -1
vn 0 0 -1
vn 0 0 -1
vn 0 0 -1
vn -0.004112244 1 0.003728867
vn -0.02601624 0.9995117 0.003858566
vn -0.02601624 0.9995117 0.003858566
vn -0.004112244 1 0.003728867
vn 0.01779175 1 0.00359726
vn 0.01779175 1 0.00359726
vn 0 0 1
vn 0 0 1
vn 0 0 1
vn 0 0 1
vn -0.004154205 0 -1
vn -0.004154205 0 -1
vn -0.004154205 0 -1
vn -0.004154205 0 -1
vn -0.004154205 0 -1
vn -0.004154205 0 -1
vn -0.000194788 -1 0.004219055
vn 0.02127075 -1 0.00421524
vn 0.02127075 -1 0.00421524
vn -0.000194788 -1 0.004219055
vn -0.02166748 -1 0.00421524
vn -0.02166748 -1 0.00421524
vn 0 0 1
vn 0 0 1
vn 0 0 1
vn 0 0 1
vn 0 0 1
vn 0 0 1
vn -0.004367828 1 0
vn -0.02763367 0.9995117 0
vn -0.02763367 0.9995117 0
vn -0.004367828 1 0
vn 0.01890564 1 0
vn 0.01890564 1 0
vn -4.345179E-05 -1 -0.01861572
vn 0.01864624 -0.9995117 -0.01869202
vn 0.01864624 -0.9995117 -0.01869202
vn -1.549721E-05 -1 -0.01861572
vn -0.01875305 -0.9995117 -0.01853943
vn -0.01875305 -0.9995117 -0.01853943
vn 0 0 1
vn 0 0 1
vn 0 0 1
vn 0 0 1
vn 0 0 1
vn 0 0 1
g Commode_4_0
f 3/3/3 2/2/2 1/1/1
f 4/4/4 3/3/3 1/1/1
f 7/7/7 6/6/6 5/5/5
f 8/8/8 7/7/7 5/5/5
f 8/8/8 5/5/5 9/9/9
f 10/10/10 8/8/8 9/9/9
f 13/13/13 12/12/12 11/11/11
f 14/14/14 13/13/13 11/11/11
f 17/17/17 16/16/16 15/15/15
f 18/18/18 17/17/17 15/15/15
f 18/18/18 19/19/19 17/17/17
f 19/19/19 20/20/20 17/17/17
f 23/23/23 22/22/22 21/21/21
f 22/22/22 24/24/24 21/21/21
f 25/25/25 21/21/21 24/24/24
f 26/26/26 25/25/25 24/24/24
f 29/29/29 28/28/28 27/27/27
f 28/28/28 30/30/30 27/27/27
f 27/27/27 30/30/30 31/31/31
f 30/30/30 32/32/32 31/31/31
f 35/35/35 34/34/34 33/33/33
f 36/36/36 35/35/35 33/33/33
f 36/36/36 33/33/33 37/37/37
f 38/38/38 36/36/36 37/37/37
f 41/41/41 40/40/40 39/39/39
f 42/42/42 41/41/41 39/39/39
f 45/45/45 44/44/44 43/43/43
f 46/46/46 45/45/45 43/43/43
f 46/46/46 43/43/43 47/47/47
f 48/48/48 46/46/46 47/47/47
f 51/51/51 50/50/50 49/49/49
f 52/52/52 51/51/51 49/49/49
f 55/55/55 54/54/54 53/53/53
f 54/54/54 56/56/56 53/53/53
f 53/53/53 56/56/56 57/57/57
f 56/56/56 58/58/58 57/57/57
f 61/61/61 60/60/60 59/59/59
f 60/60/60 62/62/62 59/59/59
f 62/62/62 63/63/63 59/59/59
f 63/63/63 64/64/64 59/59/59
f 67/67/67 66/66/66 65/65/65
f 66/66/66 68/68/68 65/65/65
f 65/65/65 68/68/68 69/69/69
f 68/68/68 70/70/70 69/69/69
f 73/73/73 72/72/72 71/71/71
f 72/72/72 74/74/74 71/71/71
f 71/71/71 74/74/74 75/75/75
f 74/74/74 76/76/76 75/75/75
f 79/79/79 78/78/78 77/77/77
f 80/80/80 79/79/79 77/77/77
f 81/81/81 79/79/79 80/80/80
f 82/82/82 81/81/81 80/80/80
f 85/85/85 84/84/84 83/83/83
f 84/84/84 86/86/86 83/83/83
f 86/86/86 84/84/84 87/87/87
f 88/88/88 86/86/86 87/87/87
f 91/91/91 90/90/90 89/89/89
f 90/90/90 92/92/92 89/89/89
f 89/89/89 92/92/92 93/93/93
f 92/92/92 94/94/94 93/93/93
f 97/97/97 96/96/96 95/95/95
f 98/98/98 97/97/97 95/95/95
f 95/95/95 99/99/99 98/98/98
f 99/99/99 100/100/100 98/98/98
f 103/103/103 102/102/102 101/101/101
f 104/104/104 103/103/103 101/101/101
f 107/107/107 106/106/106 105/105/105
f 108/108/108 107/107/107 105/105/105
f 111/111/111 110/110/110 109/109/109
f 110/110/110 112/112/112 109/109/109
f 110/110/110 113/113/113 112/112/112
f 113/113/113 114/114/114 112/112/112
f 117/117/117 116/116/116 115/115/115
f 118/118/118 117/117/117 115/115/115
f 115/115/115 119/119/119 118/118/118
f 119/119/119 120/120/120 118/118/118
f 123/123/123 122/122/122 121/121/121
f 122/122/122 124/124/124 121/121/121
f 121/121/121 124/124/124 125/125/125
f 124/124/124 126/126/126 125/125/125
f 129/129/129 128/128/128 127/127/127
f 130/130/130 129/129/129 127/127/127
f 133/133/133 132/132/132 131/131/131
f 134/134/134 133/133/133 131/131/131
f 134/134/134 135/135/135 133/133/133
f 135/135/135 136/136/136 133/133/133
f 139/139/139 138/138/138 137/137/137
f 140/140/140 139/139/139 137/137/137
f 140/140/140 137/137/137 141/141/141
f 142/142/142 140/140/140 141/141/141
f 145/145/145 144/144/144 143/143/143
f 144/144/144 146/146/146 143/143/143
f 143/143/143 146/146/146 147/147/147
f 146/146/146 148/148/148 147/147/147
f 151/151/151 150/150/150 149/149/149
f 150/150/150 152/152/152 149/149/149
f 149/149/149 152/152/152 153/153/153
f 152/152/152 154/154/154 153/153/153
f 157/157/157 156/156/156 155/155/155
f 158/158/158 157/157/157 155/155/155
f 158/158/158 155/155/155 159/159/159
f 160/160/160 158/158/158 159/159/159
f 163/163/163 162/162/162 161/161/161
f 162/162/162 164/164/164 161/161/161
f 161/161/161 164/164/164 165/165/165
f 164/164/164 166/166/166 165/165/165
