g Hair clip
v 0.07663725 1.073904 0.03696123
v 0.07999413 1.074924 0.04110413
v 0.09036611 1.084713 0.03029086
v 0.08700924 1.083693 0.02614771
v 0.09091038 1.086053 0.02952
v 0.08755358 1.085032 0.02537693
v 0.09047004 1.087631 0.02948795
v 0.0871131 1.086611 0.02534518
v 0.08210488 1.100485 0.03309977
v 0.0787477 1.099464 0.02895702
v 0.08093749 1.101377 0.0338257
v 0.07758093 1.100357 0.02968259
v 0.07972679 1.101061 0.03488437
v 0.07637021 1.10004 0.03074127
v 0.06935524 1.091273 0.04569744
v 0.06599849 1.090252 0.04155439
v 0.04488378 1.093894 0.05776387
v 0.05774277 1.080314 0.05780408
v 0.05438596 1.079294 0.05366118
v 0.04824056 1.094915 0.06190694
v 0.04444344 1.095473 0.05773185
v 0.04779981 1.096492 0.06187553
v 0.04498804 1.096812 0.05696077
v 0.04834487 1.097832 0.06110383
v 0.05411858 1.105429 0.04744163
v 0.05747534 1.106449 0.05158483
v 0.05532931 1.105746 0.04638265
v 0.05868611 1.106766 0.05052586
v 0.05649686 1.104854 0.04565648
v 0.05985361 1.105873 0.04979999
v 0.06599849 1.090252 0.04155439
v 0.06935524 1.091273 0.04569744
v 0.06502471 1.062945 0.04906796
v 0.06838134 1.063966 0.05321109
v 0.07788315 1.049365 0.04910873
v 0.07452641 1.048345 0.04496541
v 0.07905065 1.048472 0.04838278
v 0.07569388 1.047452 0.04423947
v 0.08026144 1.048789 0.04732376
v 0.07690459 1.047769 0.04318057
v 0.08939199 1.057406 0.03780456
v 0.08603518 1.056386 0.03366157
v 0.0899366 1.058746 0.03703348
v 0.08658018 1.057726 0.03288985
v 0.08949634 1.060324 0.03700138
v 0.08613934 1.059304 0.03285836
v 0.07999413 1.074924 0.04110413
v 0.07663725 1.073904 0.03696123
v 0.05465317 1.053157 0.05988096
v 0.06838134 1.063966 0.05321109
v 0.06502471 1.062945 0.04906796
v 0.05800977 1.054178 0.06402407
v 0.05344256 1.052841 0.06093959
v 0.0567991 1.053861 0.06508268
v 0.05227502 1.053734 0.06166561
v 0.05563222 1.054754 0.06580833
v 0.04390986 1.066587 0.06527734
v 0.04726681 1.067608 0.06942016
v 0.04346964 1.068166 0.06524529
v 0.04682641 1.069186 0.06938842
v 0.04401376 1.069505 0.06447457
v 0.04737063 1.070526 0.06861777
v 0.05438596 1.079294 0.05366118
v 0.05774277 1.080314 0.05780408
v 0.09091038 1.086053 0.02952
v 0.08210488 1.100485 0.03309977
v 0.09047004 1.087631 0.02948795
v 0.08093749 1.101377 0.0338257
v 0.09036611 1.084713 0.03029086
v 0.07972679 1.101061 0.03488437
v 0.07999413 1.074924 0.04110413
v 0.06935524 1.091273 0.04569744
v 0.06838134 1.063966 0.05321109
v 0.08949634 1.060324 0.03700138
v 0.07788315 1.049365 0.04910873
v 0.0899366 1.058746 0.03703348
v 0.07905065 1.048472 0.04838278
v 0.08939199 1.057406 0.03780456
v 0.08026144 1.048789 0.04732376
v 0.05774277 1.080314 0.05780408
v 0.05800977 1.054178 0.06402407
v 0.04824056 1.094915 0.06190694
v 0.04737063 1.070526 0.06861777
v 0.05985361 1.105873 0.04979999
v 0.0567991 1.053861 0.06508268
v 0.04779981 1.096492 0.06187553
v 0.04682641 1.069186 0.06938842
v 0.05563222 1.054754 0.06580833
v 0.04726681 1.067608 0.06942016
v 0.05868611 1.106766 0.05052586
v 0.04834487 1.097832 0.06110383
v 0.05747534 1.106449 0.05158483
v 0.04444344 1.095473 0.05773185
v 0.05411858 1.105429 0.04744163
v 0.04498804 1.096812 0.05696077
v 0.05532931 1.105746 0.04638265
v 0.04488378 1.093894 0.05776387
v 0.05649686 1.104854 0.04565648
v 0.05438596 1.079294 0.05366118
v 0.06599849 1.090252 0.04155439
v 0.07663725 1.073904 0.03696123
v 0.08700924 1.083693 0.02614771
v 0.07637021 1.10004 0.03074127
v 0.08755358 1.085032 0.02537693
v 0.07758093 1.100357 0.02968259
v 0.0871131 1.086611 0.02534518
v 0.0787477 1.099464 0.02895702
v 0.06502471 1.062945 0.04906796
v 0.04401376 1.069505 0.06447457
v 0.07452641 1.048345 0.04496541
v 0.05465317 1.053157 0.05988096
v 0.08613934 1.059304 0.03285836
v 0.04346964 1.068166 0.06524529
v 0.07569388 1.047452 0.04423947
v 0.05344256 1.052841 0.06093959
v 0.04390986 1.066587 0.06527734
v 0.05227502 1.053734 0.06166561
v 0.08658018 1.057726 0.03288985
v 0.07690459 1.047769 0.04318057
v 0.08603518 1.056386 0.03366157
vt 0.7758789 0.7973633
vt 0.7758789 0.7973633
vt 0.7758789 0.8251953
vt 0.7758789 0.8251953
vt 0.7749023 0.8276367
vt 0.7749023 0.8276367
vt 0.7724609 0.8286133
vt 0.7724609 0.8286133
vt 0.7480469 0.8286133
vt 0.7480469 0.8286133
vt 0.7456055 0.8276367
vt 0.7456055 0.8276367
vt 0.7446289 0.8251953
vt 0.7446289 0.8251953
vt 0.7446289 0.7973633
vt 0.7446289 0.7973633
vt 0.7167969 0.7666016
vt 0.7446289 0.7666016
vt 0.7446289 0.7666016
vt 0.7167969 0.7666016
vt 0.7143555 0.7675781
vt 0.7143555 0.7675781
vt 0.7133789 0.7700195
vt 0.7133789 0.7700195
vt 0.7133789 0.7944336
vt 0.7133789 0.7944336
vt 0.715332 0.7958984
vt 0.715332 0.7958984
vt 0.7167969 0.7973633
vt 0.7167969 0.7973633
vt 0.7446289 0.7973633
vt 0.7446289 0.7973633
vt 0.7758789 0.7666016
vt 0.7758789 0.7666016
vt 0.8037109 0.7666016
vt 0.8037109 0.7666016
vt 0.8056641 0.7675781
vt 0.8056641 0.7675781
vt 0.8066406 0.7700195
vt 0.8066406 0.7700195
vt 0.8066406 0.7944336
vt 0.8066406 0.7944336
vt 0.8061523 0.7963867
vt 0.8061523 0.7963867
vt 0.8037109 0.7973633
vt 0.8037109 0.7973633
vt 0.7758789 0.7973633
vt 0.7758789 0.7973633
vt 0.7758789 0.7387695
vt 0.7758789 0.7666016
vt 0.7758789 0.7666016
vt 0.7758789 0.7387695
vt 0.7749023 0.7363281
vt 0.7749023 0.7363281
vt 0.7724609 0.7353516
vt 0.7724609 0.7353516
vt 0.7480469 0.7353516
vt 0.7480469 0.7353516
vt 0.7460938 0.7368164
vt 0.7460938 0.7368164
vt 0.7446289 0.7387695
vt 0.7446289 0.7387695
vt 0.7446289 0.7666016
vt 0.7446289 0.7666016
vt 0.7749023 0.8276367
vt 0.7480469 0.8286133
vt 0.7724609 0.8286133
vt 0.7456055 0.8276367
vt 0.7758789 0.8251953
vt 0.7446289 0.8251953
vt 0.7758789 0.7973633
vt 0.7446289 0.7973633
vt 0.7758789 0.7666016
vt 0.8037109 0.7973633
vt 0.8037109 0.7666016
vt 0.8061523 0.7963867
vt 0.8056641 0.7675781
vt 0.8066406 0.7944336
vt 0.8066406 0.7700195
vt 0.7446289 0.7666016
vt 0.7758789 0.7387695
vt 0.7167969 0.7666016
vt 0.7446289 0.7387695
vt 0.7167969 0.7973633
vt 0.7749023 0.7363281
vt 0.7143555 0.7675781
vt 0.7456055 0.7363281
vt 0.7724609 0.7353516
vt 0.7480469 0.7353516
vt 0.7143555 0.7963867
vt 0.7133789 0.7700195
vt 0.7133789 0.7944336
vt 0.7143555 0.7675781
vt 0.7133789 0.7944336
vt 0.7133789 0.7700195
vt 0.715332 0.7958984
vt 0.7167969 0.7666016
vt 0.7167969 0.7973633
vt 0.7446289 0.7666016
vt 0.7446289 0.7973633
vt 0.7758789 0.7973633
vt 0.7758789 0.8251953
vt 0.7446289 0.8251953
vt 0.7749023 0.8276367
vt 0.7456055 0.8276367
vt 0.7724609 0.8286133
vt 0.7480469 0.8286133
vt 0.7758789 0.7666016
vt 0.7446289 0.7387695
vt 0.8037109 0.7666016
vt 0.7758789 0.7387695
vt 0.8037109 0.7973633
vt 0.7460938 0.7368164
vt 0.8056641 0.7675781
vt 0.7749023 0.7363281
vt 0.7480469 0.7353516
vt 0.7724609 0.7353516
vt 0.8061523 0.7963867
vt 0.8066406 0.7700195
vt 0.8066406 0.7944336
vn 0.5309192 -0.815824 -0.2292512
vn 0.5309192 -0.8158239 -0.2292512
vn 0.6338009 -0.6934039 -0.3427646
vn 0.6337876 -0.6934236 -0.3427489
vn 0.7851707 -0.1901576 -0.5893615
vn 0.7851717 -0.1901291 -0.5893692
vn 0.6719065 0.3772228 -0.6373732
vn 0.6719174 0.3771985 -0.6373761
vn 0.4648545 0.6954164 -0.5480021
vn 0.4648369 0.6954357 -0.5479926
vn 0.03444676 0.9635526 -0.2652921
vn 0.03444557 0.9635528 -0.2652912
vn -0.4076886 0.9068389 0.1069265
vn -0.407708 0.9068279 0.106945
vn -0.5309395 0.8158201 0.229218
vn -0.5309395 0.8158201 0.2292179
vn -0.6719416 -0.3772989 0.6372912
vn -0.5794848 -0.5469241 0.6042114
vn -0.5794848 -0.5469241 0.6042114
vn -0.6719333 -0.3773173 0.637289
vn -0.7852175 0.1902146 0.5892808
vn -0.7852205 0.1901299 0.5893041
vn -0.6337393 0.6935062 0.3426714
vn -0.6337332 0.6935153 0.3426642
vn -0.4076784 0.906832 0.107023
vn -0.4076927 0.906824 0.1070365
vn 0.03440343 0.9636116 -0.2650834
vn 0.03441279 0.9636093 -0.2650904
vn 0.4648738 0.6955325 -0.5478384
vn 0.464898 0.6955061 -0.5478514
vn 0.5795457 0.5468996 -0.6041753
vn 0.5795457 0.5468995 -0.6041752
vn -0.579529 -0.5469075 0.6041839
vn -0.579529 -0.5469075 0.6041839
vn -0.4648895 -0.6955 0.5478663
vn -0.4649065 -0.6954815 0.5478753
vn -0.0344542 -0.9636016 0.2651128
vn -0.0344629 -0.9635995 0.2651194
vn 0.407658 -0.906841 -0.1070242
vn 0.4076655 -0.9068368 -0.1070312
vn 0.6337492 -0.6934977 -0.3426703
vn 0.6337396 -0.693512 -0.342659
vn 0.7852126 -0.1902196 -0.5892858
vn 0.7852154 -0.190142 -0.5893071
vn 0.6719375 0.3772759 -0.637309
vn 0.6719223 0.3773099 -0.637305
vn 0.579479 0.5469202 -0.6042206
vn 0.579479 0.5469201 -0.6042206
vn 0.4076657 -0.9068531 -0.1068927
vn 0.5309459 -0.8158168 -0.2292146
vn 0.5309459 -0.8158168 -0.2292146
vn 0.4076852 -0.9068422 -0.1069112
vn -0.03444538 -0.9635522 0.2652936
vn -0.03444633 -0.9635519 0.2652943
vn -0.464835 -0.6954424 0.5479857
vn -0.4648137 -0.6954657 0.5479741
vn -0.671917 -0.3772079 0.637371
vn -0.6719289 -0.3771816 0.6373741
vn -0.7851757 0.1901417 0.58936
vn -0.7851765 0.1901182 0.5893665
vn -0.6338161 0.6933877 0.3427687
vn -0.6338072 0.6934013 0.3427581
vn -0.5309268 0.8158214 0.2292425
vn -0.5309268 0.8158214 0.2292424
vn 0.6182643 0.1879247 0.7631734
vn 0.6182741 0.1879299 0.7631642
vn 0.6182741 0.1879299 0.7631642
vn 0.6182642 0.1879247 0.7631735
vn 0.6182704 0.1879305 0.7631671
vn 0.6182704 0.1879305 0.7631669
vn 0.6182795 0.1879361 0.7631583
vn 0.6182795 0.1879334 0.7631589
vn 0.618281 0.1879355 0.7631571
vn 0.6182688 0.1879547 0.7631624
vn 0.6182688 0.1879547 0.7631624
vn 0.6182655 0.1879574 0.7631643
vn 0.6182655 0.1879575 0.7631643
vn 0.6183265 0.18786 0.7631389
vn 0.6183266 0.18786 0.7631388
vn 0.6182812 0.1879328 0.7631578
vn 0.6182616 0.1879156 0.7631778
vn 0.6182774 0.1879354 0.7631602
vn 0.6182616 0.1879156 0.7631778
vn 0.6182774 0.1879353 0.7631602
vn 0.6182432 0.1878997 0.7631966
vn 0.6182729 0.1879428 0.7631618
vn 0.6182432 0.1878997 0.7631966
vn 0.6182824 0.1879422 0.7631544
vn 0.6182824 0.1879422 0.7631544
vn 0.618273 0.1879428 0.7631618
vn 0.6182721 0.1879446 0.7631621
vn 0.6182722 0.1879446 0.7631621
vn -0.6182777 -0.1879396 -0.7631588
vn -0.6183281 -0.187858 -0.7631381
vn -0.6183281 -0.187858 -0.7631381
vn -0.6182778 -0.1879396 -0.7631588
vn -0.6182753 -0.1879465 -0.7631591
vn -0.6182753 -0.1879465 -0.7631591
vn -0.6182791 -0.1879363 -0.7631585
vn -0.6182809 -0.1879369 -0.763157
vn -0.6182818 -0.1879336 -0.7631568
vn -0.6182622 -0.1879182 -0.7631767
vn -0.6182622 -0.1879182 -0.7631767
vn -0.6182511 -0.1879086 -0.7631881
vn -0.6182511 -0.1879086 -0.7631881
vn -0.6183168 -0.1879756 -0.7631183
vn -0.6183168 -0.1879755 -0.7631183
vn -0.6182801 -0.187933 -0.7631585
vn -0.618274 -0.187934 -0.7631631
vn -0.6182744 -0.1879445 -0.7631602
vn -0.618274 -0.187934 -0.7631631
vn -0.6182744 -0.1879445 -0.7631602
vn -0.618269 -0.1879309 -0.763168
vn -0.6182609 -0.1879651 -0.7631662
vn -0.618269 -0.1879309 -0.763168
vn -0.6182494 -0.1879116 -0.7631886
vn -0.6182495 -0.1879116 -0.7631886
vn -0.6182609 -0.1879651 -0.7631662
vn -0.6182554 -0.1879688 -0.7631698
vn -0.6182554 -0.1879688 -0.7631697
g Hair clip_0
f 3/3/3 2/2/2 1/1/1
f 4/4/4 3/3/3 1/1/1
f 5/5/5 3/3/3 4/4/4
f 6/6/6 5/5/5 4/4/4
f 7/7/7 5/5/5 6/6/6
f 8/8/8 7/7/7 6/6/6
f 9/9/9 7/7/7 8/8/8
f 10/10/10 9/9/9 8/8/8
f 9/9/9 10/10/10 11/11/11
f 10/10/10 12/12/12 11/11/11
f 11/11/11 12/12/12 13/13/13
f 12/12/12 14/14/14 13/13/13
f 15/15/15 13/13/13 14/14/14
f 16/16/16 15/15/15 14/14/14
f 19/19/19 18/18/18 17/17/17
f 18/18/18 20/20/20 17/17/17
f 17/17/17 20/20/20 21/21/21
f 20/20/20 22/22/22 21/21/21
f 21/21/21 22/22/22 23/23/23
f 22/22/22 24/24/24 23/23/23
f 23/23/23 24/24/24 25/25/25
f 24/24/24 26/26/26 25/25/25
f 25/25/25 26/26/26 27/27/27
f 26/26/26 28/28/28 27/27/27
f 27/27/27 28/28/28 29/29/29
f 28/28/28 30/30/30 29/29/29
f 29/29/29 30/30/30 31/31/31
f 30/30/30 32/32/32 31/31/31
f 35/35/35 34/34/34 33/33/33
f 36/36/36 35/35/35 33/33/33
f 37/37/37 35/35/35 36/36/36
f 38/38/38 37/37/37 36/36/36
f 39/39/39 37/37/37 38/38/38
f 40/40/40 39/39/39 38/38/38
f 41/41/41 39/39/39 40/40/40
f 42/42/42 41/41/41 40/40/40
f 41/41/41 42/42/42 43/43/43
f 42/42/42 44/44/44 43/43/43
f 43/43/43 44/44/44 45/45/45
f 44/44/44 46/46/46 45/45/45
f 47/47/47 45/45/45 46/46/46
f 48/48/48 47/47/47 46/46/46
f 51/51/51 50/50/50 49/49/49
f 50/50/50 52/52/52 49/49/49
f 49/49/49 52/52/52 53/53/53
f 52/52/52 54/54/54 53/53/53
f 53/53/53 54/54/54 55/55/55
f 54/54/54 56/56/56 55/55/55
f 55/55/55 56/56/56 57/57/57
f 56/56/56 58/58/58 57/57/57
f 57/57/57 58/58/58 59/59/59
f 58/58/58 60/60/60 59/59/59
f 59/59/59 60/60/60 61/61/61
f 60/60/60 62/62/62 61/61/61
f 61/61/61 62/62/62 63/63/63
f 62/62/62 64/64/64 63/63/63
f 67/67/67 66/66/66 65/65/65
f 66/66/66 68/68/68 65/65/65
f 65/65/65 68/68/68 69/69/69
f 68/68/68 70/70/70 69/69/69
f 71/71/71 69/69/69 70/70/70
f 72/72/72 71/71/71 70/70/70
f 73/73/73 71/71/71 72/72/72
f 71/71/71 73/73/73 74/74/74
f 73/73/73 75/75/75 74/74/74
f 74/74/74 75/75/75 76/76/76
f 75/75/75 77/77/77 76/76/76
f 78/78/78 76/76/76 77/77/77
f 79/79/79 78/78/78 77/77/77
f 80/80/80 73/73/73 72/72/72
f 73/73/73 80/80/80 81/81/81
f 80/80/80 72/72/72 82/82/82
f 80/80/80 83/83/83 81/81/81
f 72/72/72 84/84/84 82/82/82
f 81/81/81 83/83/83 85/85/85
f 82/82/82 84/84/84 86/86/86
f 83/83/83 87/87/87 85/85/85
f 88/88/88 85/85/85 87/87/87
f 89/89/89 88/88/88 87/87/87
f 84/84/84 90/90/90 86/86/86
f 91/91/91 86/86/86 90/90/90
f 92/92/92 91/91/91 90/90/90
f 95/95/95 94/94/94 93/93/93
f 94/94/94 96/96/96 93/93/93
f 97/97/97 93/93/93 96/96/96
f 98/98/98 97/97/97 96/96/96
f 99/99/99 97/97/97 98/98/98
f 100/100/100 99/99/99 98/98/98
f 99/99/99 100/100/100 101/101/101
f 101/101/101 100/100/100 102/102/102
f 100/100/100 103/103/103 102/102/102
f 102/102/102 103/103/103 104/104/104
f 103/103/103 105/105/105 104/104/104
f 106/106/106 104/104/104 105/105/105
f 107/107/107 106/106/106 105/105/105
f 108/108/108 99/99/99 101/101/101
f 99/99/99 108/108/108 109/109/109
f 108/108/108 101/101/101 110/110/110
f 108/108/108 111/111/111 109/109/109
f 101/101/101 112/112/112 110/110/110
f 109/109/109 111/111/111 113/113/113
f 110/110/110 112/112/112 114/114/114
f 111/111/111 115/115/115 113/113/113
f 116/116/116 113/113/113 115/115/115
f 117/117/117 116/116/116 115/115/115
f 112/112/112 118/118/118 114/114/114
f 119/119/119 114/114/114 118/118/118
f 120/120/120 119/119/119 118/118/118
