g Meat_1_LOD0
v -0.03729298 0.01577442 0.04714646
v -0.06583577 0.01577442 0.01106212
v -0.1268417 0.05748608 0.02131274
v -0.07185007 0.05748606 0.09083428
v 0.0130955 0.01577442 0.05561303
v -0.1340251 0.1271381 0.01885204
v -0.07981613 0.1271381 0.1009051
v -0.1156126 0.2491492 0.01625002
v -0.06885486 0.2491468 0.08697776
v -0.08068069 0.3626868 0.01130185
v -0.0480671 0.3626763 0.06049268
v -0.02015432 0.4651874 0.02458023
v -0.03540998 0.4652376 0.005890253
v -0.01728245 0.4797559 0.002703341
v -0.009789738 0.4797559 0.0104288
v 0.0252304 0.05748606 0.1071463
v 0.05581281 0.01577442 0.03150227
v -0.07981613 0.1271381 0.1009051
v 0.007094446 0.4651678 0.02826301
v 0.003437649 0.4797559 0.01172065
v -0.0480671 0.3626763 0.06049268
v 0.02802763 0.1271381 0.1190256
v -0.06885486 0.2491468 0.08697776
v 0.02417931 0.2491457 0.1025109
v 0.01688262 0.3626714 0.07105524
v 0.1075313 0.05748608 0.06069354
v 0.0658357 0.01577443 -0.01106213
v 0.02802763 0.1271381 0.1190256
v 0.03006639 0.4652203 0.01672041
v 0.01465129 0.4797559 0.00740157
v 0.01688262 0.3626714 0.07105524
v 0.1194532 0.1271381 0.06742263
v 0.02417931 0.2491457 0.1025109
v 0.1030442 0.2491486 0.0581498
v 0.07191633 0.3626842 0.04053682
v 0.1268418 0.05748609 -0.02131273
v 0.0372929 0.01577443 -0.04714648
v 0.1194532 0.1271381 0.06742263
v 0.03540992 0.4652376 -0.005890114
v 0.01728239 0.4797559 -0.002703196
v 0.07191633 0.3626842 0.04053682
v 0.1409047 0.1271381 -0.02367566
v 0.1030442 0.2491486 0.0581498
v 0.1215464 0.2491496 -0.02042039
v 0.08481882 0.3626886 -0.01423896
v 0.07185009 0.0574861 -0.09083429
v -0.01309558 0.01577443 -0.05561305
v 0.1409047 0.1271381 -0.02367566
v 0.02015425 0.4651874 -0.02458009
v 0.009789664 0.4797559 -0.01042866
v 0.08481882 0.3626886 -0.01423896
v 0.07981603 0.1271381 -0.1009051
v 0.1215464 0.2491496 -0.02042039
v 0.06885476 0.2491469 -0.08697772
v 0.04806701 0.3626763 -0.06049259
v -0.02523038 0.0574861 -0.1071463
v -0.05581288 0.01577443 -0.03150226
v 0.07981603 0.1271381 -0.1009051
v -0.007094523 0.4651678 -0.02826287
v -0.003437722 0.4797559 -0.01172051
v 0.04806701 0.3626763 -0.06049259
v -0.02802772 0.1271381 -0.1190256
v 0.06885476 0.2491469 -0.08697772
v -0.0241794 0.2491458 -0.1025108
v -0.0168827 0.3626714 -0.07105514
v -0.1075312 0.0574861 -0.06069351
v -0.06583577 0.01577442 0.01106212
v -0.02802772 0.1271381 -0.1190256
v -0.1268417 0.05748608 0.02131274
v -0.1194532 0.1271381 -0.06742256
v -0.1194532 0.1271381 -0.06742256
v -0.0241794 0.2491458 -0.1025108
v -0.1340251 0.1271381 0.01885204
v -0.1030443 0.2491486 -0.05814971
v -0.1030443 0.2491486 -0.05814971
v -0.1156126 0.2491492 0.01625002
v -0.0168827 0.3626714 -0.07105514
v -0.07191639 0.3626842 -0.0405367
v -0.07191639 0.3626842 -0.0405367
v -0.08068069 0.3626868 0.01130185
v -0.03006645 0.4652203 -0.01672026
v -0.03540998 0.4652376 0.005890253
v -0.01465136 0.4797559 -0.007401421
v -0.01728245 0.4797559 0.002703341
v -0.009789738 0.4797559 0.0104288
v -0.01728245 0.4797559 0.002703341
v -0.0181939 0.554059 0.002242794
v -0.01030603 0.554059 0.008658403
v -0.02962229 0.576838 0.01964209
v -0.0418657 0.5768584 9.011811E-08
v 0.003437649 0.4797559 0.01172065
v -0.0406668 0.5996279 9.372497E-08
v 0.003618947 0.554059 0.009703353
v 0.01465129 0.4797559 0.00740157
v 0.01542398 0.554059 0.006149401
v 0.01728239 0.4797559 -0.002703196
v -0.02870493 0.5996414 0.01903957
v -4.059197E-08 0.593536 0.0188511
v -0.03190145 0.605369 -0.001664769
v -0.02683532 0.6047989 0.01162129
v -0.000525044 0.6004566 0.01156736
v 0.01788938 0.6027857 0.01628136
v -4.08714E-08 0.5765858 0.02185718
v 0.02962222 0.576838 0.0196421
v 0.01819383 0.554059 -0.002242624
v 0.009789664 0.4797559 -0.01042866
v 0.02870487 0.5996414 0.01903957
v 0.04186563 0.5768584 8.856055E-08
v 0.04066673 0.5996279 9.223491E-08
v 0.03190139 0.605369 0.001664963
v 0.02683526 0.6047989 -0.01162111
v 0.01030596 0.554059 -0.008658236
v -0.003437722 0.4797559 -0.01172051
v 0.02962222 0.576838 -0.01964192
v 0.02870487 0.5996414 -0.01903939
v -0.003619021 0.554059 -0.009703184
v -0.01465136 0.4797559 -0.007401421
v -3.452437E-08 0.593536 -0.01885092
v 0.0005158589 0.6004578 -0.01156677
v -0.01542405 0.554059 -0.006149227
v -0.01728245 0.4797559 0.002703341
v -0.0181939 0.554059 0.002242794
v -0.0418657 0.5768584 9.011811E-08
v -3.456965E-08 0.5765858 -0.021857
v -0.02962229 0.576838 -0.01964192
v -0.02870493 0.5996414 -0.01903938
v -0.01788945 0.6027857 -0.01628117
v -0.0406668 0.5996279 9.372497E-08
v -0.03190145 0.605369 -0.001664769
v -3.668025E-08 0.5991969 9.180321E-08
v -0.02683532 0.6047989 0.01162129
v -0.03190145 0.605369 -0.001664769
v -0.01788945 0.6027857 -0.01628117
v -0.000525044 0.6004566 0.01156736
v 0.0005158589 0.6004578 -0.01156677
v 0.01788938 0.6027857 0.01628136
v 0.02683526 0.6047989 -0.01162111
v 0.03190139 0.605369 0.001664963
v -0.05581288 0.01577443 -0.03150226
v -3.384602E-08 0.0003311537 -1.203913E-08
v -0.01309558 0.01577443 -0.05561305
v -0.06583577 0.01577442 0.01106212
v 0.0372929 0.01577443 -0.04714648
v -0.03729298 0.01577442 0.04714646
v 0.0658357 0.01577443 -0.01106213
v 0.0130955 0.01577442 0.05561303
v 0.05581281 0.01577442 0.03150227
vt 0.2143555 0.2370605
vt 0.2236328 0.2086182
vt 0.1864014 0.1832275
vt 0.1795654 0.2286377
vt 0.2094727 0.2683105
vt 0.1450195 0.1972656
vt 0.1472168 0.2160645
vt 0.0904541 0.2141113
vt 0.0970459 0.229248
vt 0.04586792 0.2479248
vt 0.05337524 0.2565918
vt 0.02304077 0.2973633
vt 0.01245117 0.2912598
vt 0.01142883 0.3044434
vt 0.01678467 0.3071289
vt 0.1782227 0.2680664
vt 0.2121582 0.300293
vt 0.1490479 0.237793
vt 0.03089905 0.3066406
vt 0.021698 0.3125
vt 0.06115723 0.2683105
vt 0.1508789 0.2585449
vt 0.1033325 0.2475586
vt 0.1082764 0.2651367
vt 0.06744385 0.2802734
vt 0.1761475 0.3012695
vt 0.2158203 0.3312988
vt 0.1518555 0.277832
vt 0.03582764 0.315918
vt 0.02482605 0.3183594
vt 0.07232666 0.291748
vt 0.1517334 0.2949219
vt 0.1120605 0.2817383
vt 0.114624 0.2966309
vt 0.07592773 0.3027344
vt 0.1751709 0.3305664
vt 0.2121582 0.364502
vt 0.1520996 0.3095703
vt 0.03683472 0.3249512
vt 0.02507019 0.3242188
vt 0.07800293 0.3129883
vt 0.1514893 0.3234863
vt 0.1161499 0.3103027
vt 0.1165771 0.322998
vt 0.07867432 0.3227539
vt 0.1766357 0.3623047
vt 0.2081299 0.3972168
vt 0.1512451 0.3366699
vt 0.03390503 0.3342285
vt 0.02333069 0.3300781
vt 0.07794189 0.3325195
vt 0.1514893 0.3518066
vt 0.1159058 0.3356934
vt 0.1141968 0.3491211
vt 0.07574463 0.3427734
vt 0.1763916 0.3989258
vt 0.2121582 0.4274902
vt 0.1502686 0.3686523
vt 0.02754211 0.34375
vt 0.01948547 0.3361816
vt 0.07220459 0.3535156
vt 0.149292 0.3879395
vt 0.1113892 0.3640137
vt 0.1073608 0.3803711
vt 0.06713867 0.3649902
vt 0.1761475 0.4377441
vt 0.2236328 0.4536133
vt 0.1470947 0.407959
vt 0.1872559 0.4804688
vt 0.1442871 0.4289551
vt 0.1420898 0.4511719
vt 0.1022339 0.3977051
vt 0.1409912 0.4812012
vt 0.09576416 0.4155273
vt 0.08770752 0.434082
vt 0.07391357 0.4553223
vt 0.0607605 0.376709
vt 0.05300903 0.3881836
vt 0.04348755 0.3986816
vt 0.02876282 0.4082031
vt 0.0193634 0.3518066
vt 0.008148193 0.3552246
vt 0.01469421 0.3408203
vt 0.009010315 0.342041
vt 0.2697754 0.4069824
vt 0.2697754 0.4033203
vt 0.2421875 0.4013672
vt 0.241333 0.4050293
vt 0.2330322 0.3989258
vt 0.2358398 0.392334
vt 0.2695313 0.4118652
vt 0.2275391 0.390625
vt 0.2402344 0.4108887
vt 0.2692871 0.4162598
vt 0.2393799 0.4160156
vt 0.2692871 0.4199219
vt 0.2271729 0.3977051
vt 0.2259521 0.4057617
vt 0.2236328 0.3913574
vt 0.2244873 0.3964844
vt 0.2227783 0.4050293
vt 0.2225342 0.4111328
vt 0.2314453 0.4069824
vt 0.2293701 0.4140625
vt 0.2391357 0.4196777
vt 0.2692871 0.4238281
vt 0.2246094 0.4135742
vt 0.2286377 0.418457
vt 0.2244873 0.4182129
vt 0.2214355 0.4174805
vt 0.2216797 0.4226074
vt 0.239624 0.4240723
vt 0.2695313 0.4287109
vt 0.229126 0.4228516
vt 0.2243652 0.4230957
vt 0.2402344 0.4301758
vt 0.2697754 0.4331055
vt 0.2250977 0.4306641
vt 0.2218018 0.4306641
vt 0.2408447 0.4350586
vt 0.2697754 0.4367676
vt 0.2419434 0.4384766
vt 0.2330322 0.4450684
vt 0.2305908 0.4301758
vt 0.2312012 0.4384766
vt 0.2254639 0.4389648
vt 0.2230225 0.4367676
vt 0.2249756 0.4455566
vt 0.2220459 0.4431152
vt 0.009796143 0.3242188
vt 0.01568604 0.3137207
vt 0.0104599 0.3110352
vt 0.00390625 0.3164063
vt 0.01450348 0.3244629
vt 0.005084991 0.3239746
vt 0.01568604 0.3322754
vt 0.00390625 0.3349609
vt 0.009124756 0.3374023
vt 0.3779297 0.5161133
vt 0.3530273 0.5068359
vt 0.3623047 0.5288086
vt 0.3791504 0.4978027
vt 0.3410645 0.5288086
vt 0.3649902 0.4848633
vt 0.3269043 0.5161133
vt 0.34375 0.4848633
vt 0.328125 0.4978027
vn -0.2313232 -0.8818359 0.4111328
vn -0.4294434 -0.8974609 0.1013794
vn -0.8525391 -0.4858398 0.1925049
vn -0.4609375 -0.4782715 0.7475586
vn 0.07971191 -0.8754883 0.4763184
vn -0.9794922 0.002847672 0.2010498
vn -0.5400391 -0.003372192 0.8413086
vn -0.9545898 0.2203369 0.2012939
vn -0.5332031 0.2104492 0.8193359
vn -0.9155273 0.3518066 0.1951904
vn -0.5048828 0.3371582 0.7949219
vn -0.4140625 0.5732422 0.7070313
vn -0.7880859 0.5883789 0.1804199
vn -0.5913086 0.7915039 0.1558838
vn -0.2849121 0.762207 0.5810547
vn 0.1524658 -0.4816895 0.862793
vn 0.3562012 -0.890625 0.2824707
vn -0.5400391 -0.003372192 0.8413086
vn 0.135376 0.5625 0.8154297
vn 0.09625244 0.7456055 0.6591797
vn -0.5048828 0.3371582 0.7949219
vn 0.1744385 -0.01733398 0.984375
vn -0.5332031 0.2104492 0.8193359
vn 0.1694336 0.2019043 0.9648438
vn 0.1616211 0.3266602 0.9311523
vn 0.6918945 -0.503418 0.5175781
vn 0.4294434 -0.8974609 -0.1013794
vn 0.1744385 -0.01733398 0.984375
vn 0.6328125 0.5898438 0.5009766
vn 0.465332 0.7792969 0.4194336
vn 0.1616211 0.3266602 0.9311523
vn 0.8027344 -0.01928711 0.5961914
vn 0.1694336 0.2019043 0.9648438
vn 0.7797852 0.2219238 0.5854492
vn 0.7436523 0.3569336 0.5654297
vn 0.8383789 -0.5117188 -0.1861572
vn 0.2313232 -0.8818359 -0.4111328
vn 0.8027344 -0.01928711 0.5961914
vn 0.777832 0.6020508 -0.1809082
vn 0.5913086 0.7915039 -0.1558838
vn 0.7436523 0.3569336 0.5654297
vn 0.9765625 -0.02017212 -0.2148438
vn 0.7797852 0.2219238 0.5854492
vn 0.949707 0.2310791 -0.2111816
vn 0.90625 0.369873 -0.2037354
vn 0.4453125 -0.4907227 -0.7490234
vn -0.07971191 -0.8754883 -0.4763184
vn 0.9765625 -0.02017212 -0.2148438
vn 0.3996582 0.5742188 -0.7143555
vn 0.2849121 0.762207 -0.5810547
vn 0.90625 0.369873 -0.2037354
vn 0.5126953 -0.0181427 -0.8583984
vn 0.949707 0.2310791 -0.2111816
vn 0.4978027 0.2098389 -0.8413086
vn 0.4741211 0.3391113 -0.8125
vn -0.1524658 -0.4816895 -0.862793
vn -0.3562012 -0.890625 -0.2824707
vn 0.5126953 -0.0181427 -0.8583984
vn -0.135376 0.5625 -0.8154297
vn -0.09625244 0.7456055 -0.6591797
vn 0.4741211 0.3391113 -0.8125
vn -0.1744385 -0.01733398 -0.984375
vn 0.4978027 0.2098389 -0.8413086
vn -0.1694336 0.2019043 -0.9648438
vn -0.1616211 0.3266602 -0.9311523
vn -0.7021484 -0.494873 -0.512207
vn -0.4294434 -0.8974609 0.1013794
vn -0.1744385 -0.01733398 -0.984375
vn -0.8525391 -0.4858398 0.1925049
vn -0.8164063 -0.009117126 -0.5771484
vn -0.8164063 -0.009117126 -0.5771484
vn -0.1694336 0.2019043 -0.9648438
vn -0.9794922 0.002847672 0.2010498
vn -0.7978516 0.2224121 -0.5605469
vn -0.7978516 0.2224121 -0.5605469
vn -0.9545898 0.2203369 0.2012939
vn -0.1616211 0.3266602 -0.9311523
vn -0.7592773 0.3557129 -0.5449219
vn -0.7592773 0.3557129 -0.5449219
vn -0.9155273 0.3518066 0.1951904
vn -0.640625 0.5893555 -0.4919434
vn -0.7880859 0.5883789 0.1804199
vn -0.465332 0.7792969 -0.4194336
vn -0.5913086 0.7915039 0.1558838
vn -0.3996582 0.01582336 0.9165039
vn -0.9624023 -0.00280571 0.2712402
vn -0.8706055 -0.4521484 0.1940918
vn -0.3598633 -0.3125 0.8789063
vn -0.5 -0.2695313 0.8227539
vn -0.9453125 -0.326416 0.01844788
vn 0.1207275 0.02246094 0.9921875
vn -0.8862305 0.4628906 0.009597778
vn 0.08166504 -0.2568359 0.9628906
vn 0.7192383 0.005443573 0.6948242
vn 0.5927734 -0.3735352 0.7133789
vn 0.9624023 -0.00280571 -0.2712402
vn -0.3825684 0.4753418 0.7919922
vn -0.01229858 0.3706055 0.9287109
vn -0.2536621 0.9658203 -0.05593872
vn -0.1265869 0.9399414 0.3166504
vn 0.01389313 0.9467773 0.3210449
vn -0.08520508 0.8759766 0.4743652
vn 0.009490967 -0.2113037 0.9775391
vn 0.5185547 -0.2783203 0.8085938
vn 0.8706055 -0.4521484 -0.1940918
vn 0.3996582 0.01582336 -0.9165039
vn 0.4453125 0.4829102 0.7539063
vn 0.9453125 -0.326416 -0.01844788
vn 0.8862305 0.4628906 -0.009590149
vn 0.2536621 0.9658203 0.05593872
vn 0.1265869 0.9399414 -0.3166504
vn 0.3598633 -0.3125 -0.8789063
vn -0.1207275 0.02246094 -0.9921875
vn 0.5 -0.2695313 -0.8227539
vn 0.3825684 0.4753418 -0.7919922
vn -0.08166504 -0.2568359 -0.9628906
vn -0.7192383 0.005443573 -0.6948242
vn 0.01226807 0.3706055 -0.9287109
vn -0.01377106 0.9467773 -0.3210449
vn -0.5927734 -0.3735352 -0.7133789
vn -0.9624023 -0.00280571 0.2712402
vn -0.8706055 -0.4521484 0.1940918
vn -0.9453125 -0.326416 0.01844788
vn -0.009490967 -0.2113037 -0.9775391
vn -0.5185547 -0.2783203 -0.8085938
vn -0.4453125 0.4829102 -0.7539063
vn 0.08520508 0.8759766 -0.4743652
vn -0.8862305 0.4628906 0.009597778
vn -0.2536621 0.9658203 -0.05593872
vn -1.92523E-05 1 4.470348E-05
vn -0.1265869 0.9399414 0.3166504
vn -0.2536621 0.9658203 -0.05593872
vn 0.08520508 0.8759766 -0.4743652
vn 0.01389313 0.9467773 0.3210449
vn -0.01377106 0.9467773 -0.3210449
vn -0.08520508 0.8759766 0.4743652
vn 0.1265869 0.9399414 -0.3166504
vn 0.2536621 0.9658203 0.05593872
vn -0.3562012 -0.890625 -0.2824707
vn 0 -1 -1.788139E-07
vn -0.07971191 -0.8754883 -0.4763184
vn -0.4294434 -0.8974609 0.1013794
vn 0.2313232 -0.8818359 -0.4111328
vn -0.2313232 -0.8818359 0.4111328
vn 0.4294434 -0.8974609 -0.1013794
vn 0.07971191 -0.8754883 0.4763184
vn 0.3562012 -0.890625 0.2824707
g Meat_1_LOD0_0
f 3/3/3 2/2/2 1/1/1
f 4/4/4 3/3/3 1/1/1
f 4/4/4 1/1/1 5/5/5
f 6/6/6 3/3/3 4/4/4
f 7/7/7 6/6/6 4/4/4
f 8/8/8 6/6/6 7/7/7
f 9/9/9 8/8/8 7/7/7
f 10/10/10 8/8/8 9/9/9
f 11/11/11 10/10/10 9/9/9
f 11/11/11 12/12/12 10/10/10
f 12/12/12 13/13/13 10/10/10
f 14/14/14 13/13/13 12/12/12
f 15/15/15 14/14/14 12/12/12
f 16/16/16 4/4/4 5/5/5
f 16/16/16 5/5/5 17/17/17
f 18/18/18 4/4/4 16/16/16
f 15/15/15 12/12/12 19/19/19
f 20/20/20 15/15/15 19/19/19
f 19/19/19 12/12/12 21/21/21
f 22/22/22 18/18/18 16/16/16
f 23/23/23 18/18/18 22/22/22
f 24/24/24 23/23/23 22/22/22
f 21/21/21 23/23/23 24/24/24
f 25/25/25 21/21/21 24/24/24
f 25/25/25 19/19/19 21/21/21
f 26/26/26 16/16/16 17/17/17
f 26/26/26 17/17/17 27/27/27
f 28/28/28 16/16/16 26/26/26
f 20/20/20 19/19/19 29/29/29
f 30/30/30 20/20/20 29/29/29
f 29/29/29 19/19/19 31/31/31
f 32/32/32 28/28/28 26/26/26
f 33/33/33 28/28/28 32/32/32
f 34/34/34 33/33/33 32/32/32
f 31/31/31 33/33/33 34/34/34
f 35/35/35 31/31/31 34/34/34
f 35/35/35 29/29/29 31/31/31
f 36/36/36 26/26/26 27/27/27
f 36/36/36 27/27/27 37/37/37
f 38/38/38 26/26/26 36/36/36
f 30/30/30 29/29/29 39/39/39
f 40/40/40 30/30/30 39/39/39
f 39/39/39 29/29/29 41/41/41
f 42/42/42 38/38/38 36/36/36
f 43/43/43 38/38/38 42/42/42
f 44/44/44 43/43/43 42/42/42
f 41/41/41 43/43/43 44/44/44
f 45/45/45 41/41/41 44/44/44
f 45/45/45 39/39/39 41/41/41
f 46/46/46 36/36/36 37/37/37
f 46/46/46 37/37/37 47/47/47
f 48/48/48 36/36/36 46/46/46
f 40/40/40 39/39/39 49/49/49
f 50/50/50 40/40/40 49/49/49
f 49/49/49 39/39/39 51/51/51
f 52/52/52 48/48/48 46/46/46
f 53/53/53 48/48/48 52/52/52
f 54/54/54 53/53/53 52/52/52
f 51/51/51 53/53/53 54/54/54
f 55/55/55 51/51/51 54/54/54
f 55/55/55 49/49/49 51/51/51
f 56/56/56 46/46/46 47/47/47
f 56/56/56 47/47/47 57/57/57
f 58/58/58 46/46/46 56/56/56
f 50/50/50 49/49/49 59/59/59
f 60/60/60 50/50/50 59/59/59
f 59/59/59 49/49/49 61/61/61
f 62/62/62 58/58/58 56/56/56
f 63/63/63 58/58/58 62/62/62
f 64/64/64 63/63/63 62/62/62
f 61/61/61 63/63/63 64/64/64
f 65/65/65 61/61/61 64/64/64
f 65/65/65 59/59/59 61/61/61
f 66/66/66 56/56/56 57/57/57
f 66/66/66 57/57/57 67/67/67
f 68/68/68 56/56/56 66/66/66
f 69/69/69 66/66/66 67/67/67
f 70/70/70 68/68/68 66/66/66
f 71/71/71 66/66/66 69/69/69
f 72/72/72 68/68/68 70/70/70
f 73/73/73 71/71/71 69/69/69
f 74/74/74 72/72/72 70/70/70
f 75/75/75 71/71/71 73/73/73
f 76/76/76 75/75/75 73/73/73
f 77/77/77 72/72/72 74/74/74
f 78/78/78 77/77/77 74/74/74
f 79/79/79 75/75/75 76/76/76
f 80/80/80 79/79/79 76/76/76
f 78/78/78 81/81/81 77/77/77
f 80/80/80 82/82/82 79/79/79
f 82/82/82 81/81/81 79/79/79
f 81/81/81 59/59/59 77/77/77
f 60/60/60 59/59/59 81/81/81
f 83/83/83 60/60/60 81/81/81
f 83/83/83 81/81/81 82/82/82
f 84/84/84 83/83/83 82/82/82
f 87/87/87 86/86/86 85/85/85
f 88/88/88 87/87/87 85/85/85
f 88/88/88 89/89/89 87/87/87
f 89/89/89 90/90/90 87/87/87
f 88/88/88 85/85/85 91/91/91
f 90/90/90 89/89/89 92/92/92
f 93/93/93 88/88/88 91/91/91
f 88/88/88 93/93/93 89/89/89
f 93/93/93 91/91/91 94/94/94
f 95/95/95 93/93/93 94/94/94
f 95/95/95 94/94/94 96/96/96
f 89/89/89 97/97/97 92/92/92
f 98/98/98 97/97/97 89/89/89
f 99/99/99 92/92/92 97/97/97
f 100/100/100 99/99/99 97/97/97
f 97/97/97 98/98/98 100/100/100
f 98/98/98 101/101/101 100/100/100
f 101/101/101 98/98/98 102/102/102
f 93/93/93 103/103/103 89/89/89
f 93/93/93 95/95/95 103/103/103
f 103/103/103 98/98/98 89/89/89
f 98/98/98 103/103/103 104/104/104
f 95/95/95 104/104/104 103/103/103
f 105/105/105 95/95/95 96/96/96
f 105/105/105 96/96/96 106/106/106
f 98/98/98 107/107/107 102/102/102
f 107/107/107 98/98/98 104/104/104
f 108/108/108 104/104/104 95/95/95
f 107/107/107 104/104/104 108/108/108
f 105/105/105 108/108/108 95/95/95
f 107/107/107 109/109/109 102/102/102
f 109/109/109 107/107/107 108/108/108
f 109/109/109 110/110/110 102/102/102
f 110/110/110 109/109/109 111/111/111
f 112/112/112 105/105/105 106/106/106
f 112/112/112 106/106/106 113/113/113
f 114/114/114 108/108/108 105/105/105
f 112/112/112 114/114/114 105/105/105
f 115/115/115 109/109/109 108/108/108
f 109/109/109 115/115/115 111/111/111
f 114/114/114 115/115/115 108/108/108
f 116/116/116 112/112/112 113/113/113
f 112/112/112 116/116/116 114/114/114
f 116/116/116 113/113/113 117/117/117
f 115/115/115 118/118/118 111/111/111
f 118/118/118 115/115/115 114/114/114
f 118/118/118 119/119/119 111/111/111
f 120/120/120 116/116/116 117/117/117
f 120/120/120 117/117/117 121/121/121
f 122/122/122 120/120/120 121/121/121
f 120/120/120 122/122/122 123/123/123
f 116/116/116 124/124/124 114/114/114
f 124/124/124 118/118/118 114/114/114
f 120/120/120 125/125/125 116/116/116
f 125/125/125 124/124/124 116/116/116
f 125/125/125 120/120/120 123/123/123
f 118/118/118 124/124/124 125/125/125
f 118/118/118 126/126/126 119/119/119
f 126/126/126 118/118/118 125/125/125
f 126/126/126 125/125/125 123/123/123
f 126/126/126 127/127/127 119/119/119
f 128/128/128 126/126/126 123/123/123
f 127/127/127 126/126/126 129/129/129
f 126/126/126 128/128/128 129/129/129
f 132/132/132 131/131/131 130/130/130
f 133/133/133 132/132/132 130/130/130
f 131/131/131 134/134/134 130/130/130
f 135/135/135 133/133/133 130/130/130
f 134/134/134 136/136/136 130/130/130
f 137/137/137 135/135/135 130/130/130
f 136/136/136 138/138/138 130/130/130
f 138/138/138 137/137/137 130/130/130
f 141/141/141 140/140/140 139/139/139
f 139/139/139 140/140/140 142/142/142
f 143/143/143 140/140/140 141/141/141
f 142/142/142 140/140/140 144/144/144
f 145/145/145 140/140/140 143/143/143
f 144/144/144 140/140/140 146/146/146
f 147/147/147 140/140/140 145/145/145
f 146/146/146 140/140/140 147/147/147
