g Rack_3
v -1.537176 0.6549188 0.4677875
v -1.537176 0.7315378 -0.372463
v -1.537176 0.8115842 -0.3630396
v -1.537176 0.734965 0.4772109
v -1.537176 0.7315378 -0.372463
v 1.708663 0.7315378 -0.372463
v 1.708663 0.8115842 -0.3630396
v -1.537176 0.8115842 -0.3630396
v 1.708663 0.7315378 -0.372463
v 1.708663 0.6549188 0.4677875
v 1.708663 0.734965 0.4772109
v 1.708663 0.8115842 -0.3630396
v -1.537176 0.7315378 -0.372463
v -1.537176 0.6549188 0.4677875
v 1.708663 0.6549188 0.4677875
v 1.708663 0.7315378 -0.372463
v 1.708663 0.8115842 -0.3630396
v 1.708663 0.734965 0.4772109
v -1.537176 0.734965 0.4772109
v -1.537176 0.8115842 -0.3630396
v 1.634279 0.002743955 0.2277206
v 1.643944 0.01385233 0.2188741
v 1.574916 0.01385233 0.2188741
v 1.58458 0.002743955 0.2277206
v 1.58458 0.002743955 0.2900309
v 1.574916 0.01385233 0.2988774
v 1.643944 0.01385233 0.2988774
v 1.634279 0.002743955 0.2900309
v 1.634279 0.002743955 0.2900309
v 1.643944 0.01385233 0.2988774
v 1.643944 0.01385233 0.2188741
v 1.634279 0.002743955 0.2277206
v 1.58458 0.002743955 0.2277206
v 1.574916 0.01385233 0.2188741
v 1.574916 0.01385233 0.2988774
v 1.58458 0.002743955 0.2900309
v 1.643944 0.01385233 0.2188741
v 1.643944 0.01385233 0.2988774
v 1.642411 0.7107329 -0.06608126
v 1.642411 0.7107329 -0.1426755
v 1.574916 0.01385233 0.2988774
v 1.574916 0.01385233 0.2188741
v 1.576448 0.7107329 -0.1426755
v 1.576448 0.7107329 -0.06608126
v 1.574916 0.01385233 0.2188741
v 1.643944 0.01385233 0.2188741
v 1.642411 0.7107329 -0.1426755
v 1.576448 0.7107329 -0.1426755
v 1.643944 0.01385233 0.2988774
v 1.574916 0.01385233 0.2988774
v 1.576448 0.7107329 -0.06608126
v 1.642411 0.7107329 -0.06608126
v 1.737311 0.8034228 0.4710161
v 1.737311 0.8021429 0.4850531
v -1.565824 0.8021429 0.4850531
v -1.565824 0.8034228 0.4710161
v -1.55757 0.648739 0.4554587
v 1.729057 0.648739 0.4554587
v 1.737311 0.8034228 0.4710161
v -1.565824 0.8034228 0.4710161
v -1.565824 0.7583589 0.5123809
v -1.55757 0.6446444 0.5003637
v -1.55757 0.648739 0.4554587
v -1.565824 0.8034228 0.4710161
v -1.565824 0.8021429 0.4850531
v -1.55757 0.648739 0.4554587
v -1.55757 0.6446444 0.5003637
v 1.729057 0.6446444 0.5003637
v 1.729057 0.648739 0.4554587
v 1.729057 0.648739 0.4554587
v 1.729057 0.6446444 0.5003637
v 1.737311 0.7583589 0.5123809
v 1.737311 0.8034228 0.4710161
v 1.737311 0.8021429 0.4850531
v 1.737311 0.8021429 0.4850531
v 1.737311 0.7583589 0.5123809
v -1.565824 0.7583589 0.5123809
v -1.565824 0.8021429 0.4850531
v 1.729057 0.6446444 0.5003637
v -1.55757 0.6446444 0.5003637
v -1.565824 0.7583589 0.5123809
v 1.737311 0.7583589 0.5123809
v 1.662315 0.01385233 -0.1066936
v 1.593286 0.01385233 -0.1066936
v 1.594819 0.7107329 0.254856
v 1.660782 0.7107329 0.254856
v 1.662315 0.01385233 -0.1866968
v 1.662315 0.01385233 -0.1066936
v 1.660782 0.7107329 0.254856
v 1.660782 0.7107329 0.1782618
v 1.593286 0.01385233 -0.1866968
v 1.662315 0.01385233 -0.1866968
v 1.660782 0.7107329 0.1782618
v 1.594819 0.7107329 0.1782618
v 1.593286 0.01385233 -0.1066936
v 1.593286 0.01385233 -0.1866968
v 1.594819 0.7107329 0.1782618
v 1.594819 0.7107329 0.254856
v 1.602951 0.002743955 -0.1778503
v 1.593286 0.01385233 -0.1866968
v 1.593286 0.01385233 -0.1066936
v 1.602951 0.002743955 -0.1155401
v 1.65265 0.002743955 -0.1778503
v 1.662315 0.01385233 -0.1866968
v 1.593286 0.01385233 -0.1866968
v 1.602951 0.002743955 -0.1778503
v 1.65265 0.002743955 -0.1155401
v 1.662315 0.01385233 -0.1066936
v 1.662315 0.01385233 -0.1866968
v 1.65265 0.002743955 -0.1778503
v 1.602951 0.002743955 -0.1155401
v 1.593286 0.01385233 -0.1066936
v 1.662315 0.01385233 -0.1066936
v 1.65265 0.002743955 -0.1155401
v -1.438875 0.002743955 0.2277206
v -1.42921 0.01385233 0.2188741
v -1.498238 0.01385233 0.2188741
v -1.488574 0.002743955 0.2277206
v -1.488574 0.002743955 0.2900309
v -1.498238 0.01385233 0.2988774
v -1.42921 0.01385233 0.2988774
v -1.438875 0.002743955 0.2900309
v -1.438875 0.002743955 0.2900309
v -1.42921 0.01385233 0.2988774
v -1.42921 0.01385233 0.2188741
v -1.438875 0.002743955 0.2277206
v -1.488574 0.002743955 0.2277206
v -1.498238 0.01385233 0.2188741
v -1.498238 0.01385233 0.2988774
v -1.488574 0.002743955 0.2900309
v -1.42921 0.01385233 0.2188741
v -1.42921 0.01385233 0.2988774
v -1.430743 0.7107329 -0.06608126
v -1.430743 0.7107329 -0.1426755
v -1.498238 0.01385233 0.2988774
v -1.498238 0.01385233 0.2188741
v -1.496706 0.7107329 -0.1426755
v -1.496706 0.7107329 -0.06608126
v -1.498238 0.01385233 0.2188741
v -1.42921 0.01385233 0.2188741
v -1.430743 0.7107329 -0.1426755
v -1.496706 0.7107329 -0.1426755
v -1.42921 0.01385233 0.2988774
v -1.498238 0.01385233 0.2988774
v -1.496706 0.7107329 -0.06608126
v -1.430743 0.7107329 -0.06608126
v -1.41084 0.01385233 -0.1066936
v -1.479868 0.01385233 -0.1066936
v -1.478335 0.7107329 0.254856
v -1.412372 0.7107329 0.254856
v -1.41084 0.01385233 -0.1866968
v -1.41084 0.01385233 -0.1066936
v -1.412372 0.7107329 0.254856
v -1.412372 0.7107329 0.1782618
v -1.479868 0.01385233 -0.1866968
v -1.41084 0.01385233 -0.1866968
v -1.412372 0.7107329 0.1782618
v -1.478335 0.7107329 0.1782618
v -1.479868 0.01385233 -0.1066936
v -1.479868 0.01385233 -0.1866968
v -1.478335 0.7107329 0.1782618
v -1.478335 0.7107329 0.254856
v -1.470203 0.002743955 -0.1778503
v -1.479868 0.01385233 -0.1866968
v -1.479868 0.01385233 -0.1066936
v -1.470203 0.002743955 -0.1155401
v -1.420504 0.002743955 -0.1778503
v -1.41084 0.01385233 -0.1866968
v -1.479868 0.01385233 -0.1866968
v -1.470203 0.002743955 -0.1778503
v -1.420504 0.002743955 -0.1155401
v -1.41084 0.01385233 -0.1066936
v -1.41084 0.01385233 -0.1866968
v -1.420504 0.002743955 -0.1778503
v -1.470203 0.002743955 -0.1155401
v -1.479868 0.01385233 -0.1066936
v -1.41084 0.01385233 -0.1066936
v -1.420504 0.002743955 -0.1155401
v -1.470203 0.002743955 -0.1155401
v -1.420504 0.002743955 -0.1155401
v -1.420504 0.002743955 -0.1778503
v -1.470203 0.002743955 -0.1778503
v -1.488574 0.002743955 0.2900309
v -1.438875 0.002743955 0.2900309
v -1.438875 0.002743955 0.2277206
v -1.488574 0.002743955 0.2277206
v 1.58458 0.002743955 0.2900309
v 1.634279 0.002743955 0.2900309
v 1.634279 0.002743955 0.2277206
v 1.58458 0.002743955 0.2277206
v 1.602951 0.002743955 -0.1778503
v 1.602951 0.002743955 -0.1155401
v 1.65265 0.002743955 -0.1155401
v 1.65265 0.002743955 -0.1778503
vt 0.5175781 0.9677734
vt 0.2744141 0.9677734
vt 0.2749023 0.9912109
vt 0.5180664 0.9912109
vt 0.2744141 0.9677734
vt 0.2744141 0.03207397
vt 0.2509766 0.03207397
vt 0.2509766 0.9677734
vt 0.2744141 0.03207397
vt 0.5175781 0.03207397
vt 0.5180664 0.008827209
vt 0.2749023 0.008827209
vt 0.2744141 0.9677734
vt 0.5175781 0.9677734
vt 0.5175781 0.03207397
vt 0.2744141 0.03207397
vt 0.2509766 0.03207397
vt 0.007820129 0.03207397
vt 0.007820129 0.9677734
vt 0.2509766 0.9677734
vt 0.6523438 0.4570313
vt 0.6499023 0.4526367
vt 0.6401367 0.4699707
vt 0.6450195 0.4694824
vt 0.6552734 0.4841309
vt 0.6533203 0.4887695
vt 0.6728516 0.4851074
vt 0.6694336 0.4814453
vt 0.6699219 0.4587402
vt 0.6728516 0.454834
vt 0.6499023 0.4526367
vt 0.6523438 0.4570313
vt 0.6450195 0.4694824
vt 0.6401367 0.4699707
vt 0.6533203 0.4887695
vt 0.6552734 0.4841309
vt 0.7773438 0.7158203
vt 0.7568359 0.7050781
vt 0.7583008 0.9321289
vt 0.777832 0.9418945
vt 0.8178711 0.7050781
vt 0.7973633 0.7158203
vt 0.796875 0.9418945
vt 0.8164063 0.9321289
vt 0.7973633 0.7158203
vt 0.7773438 0.7158203
vt 0.777832 0.9418945
vt 0.796875 0.9418945
vt 0.8378906 0.7050781
vt 0.8178711 0.7050781
vt 0.8164063 0.9321289
vt 0.8354492 0.9321289
vt 0.5615234 0.8920898
vt 0.5771484 0.8920898
vt 0.5771484 0.008857727
vt 0.5615234 0.008979797
vt 0.5200195 0.01118469
vt 0.5200195 0.8901367
vt 0.5615234 0.8920898
vt 0.5615234 0.008979797
vt 0.6401367 0.5488281
vt 0.6401367 0.5820313
vt 0.6533203 0.5820313
vt 0.6533203 0.5371094
vt 0.6494141 0.5371094
vt 0.6381836 0.01098633
vt 0.6230469 0.0110321
vt 0.6230469 0.8896484
vt 0.6381836 0.8896484
vt 0.6533203 0.4904785
vt 0.6401367 0.4907227
vt 0.6401367 0.5234375
vt 0.6533203 0.5351563
vt 0.6494141 0.5356445
vt 0.5771484 0.8920898
vt 0.5922852 0.8920898
vt 0.5922852 0.008827209
vt 0.5771484 0.008857727
vt 0.6230469 0.8896484
vt 0.6230469 0.0110321
vt 0.5922852 0.008827209
vt 0.5922852 0.8920898
vt 0.7148438 0.7158203
vt 0.6948242 0.7158203
vt 0.6953125 0.9418945
vt 0.7143555 0.9418945
vt 0.7353516 0.7050781
vt 0.7148438 0.7158203
vt 0.7143555 0.9418945
vt 0.7338867 0.9321289
vt 0.7553711 0.7050781
vt 0.7353516 0.7050781
vt 0.7338867 0.9321289
vt 0.7529297 0.9321289
vt 0.6948242 0.7158203
vt 0.6743164 0.7050781
vt 0.6757813 0.9321289
vt 0.6953125 0.9418945
vt 0.6699219 0.3452148
vt 0.6728516 0.3410645
vt 0.6499023 0.3391113
vt 0.6523438 0.3435059
vt 0.6552734 0.3706055
vt 0.6533203 0.3752441
vt 0.6728516 0.371582
vt 0.6694336 0.3679199
vt 0.6450195 0.355957
vt 0.6401367 0.3564453
vt 0.6533203 0.3752441
vt 0.6552734 0.3706055
vt 0.6523438 0.3435059
vt 0.6499023 0.3391113
vt 0.6401367 0.3564453
vt 0.6450195 0.355957
vt 0.6523438 0.3813477
vt 0.6499023 0.3769531
vt 0.6401367 0.3942871
vt 0.6450195 0.3937988
vt 0.6552734 0.4084473
vt 0.6533203 0.4130859
vt 0.6728516 0.4094238
vt 0.6694336 0.4057617
vt 0.6699219 0.3830566
vt 0.6728516 0.3789063
vt 0.6499023 0.3769531
vt 0.6523438 0.3813477
vt 0.6450195 0.3937988
vt 0.6401367 0.3942871
vt 0.6533203 0.4130859
vt 0.6552734 0.4084473
vt 0.8046875 0.4658203
vt 0.7841797 0.4550781
vt 0.7856445 0.6821289
vt 0.8051758 0.6918945
vt 0.8452148 0.4550781
vt 0.824707 0.4658203
vt 0.8242188 0.6918945
vt 0.84375 0.6821289
vt 0.824707 0.4658203
vt 0.8046875 0.4658203
vt 0.8051758 0.6918945
vt 0.8242188 0.6918945
vt 0.8652344 0.4553223
vt 0.8452148 0.4550781
vt 0.84375 0.6821289
vt 0.862793 0.6821289
vt 0.7333984 0.4643555
vt 0.7133789 0.4643555
vt 0.7138672 0.690918
vt 0.7329102 0.690918
vt 0.7539063 0.4538574
vt 0.7333984 0.4643555
vt 0.7329102 0.690918
vt 0.7524414 0.6806641
vt 0.7734375 0.4538574
vt 0.7539063 0.4538574
vt 0.7524414 0.6806641
vt 0.7714844 0.6806641
vt 0.7133789 0.4643555
vt 0.6928711 0.4538574
vt 0.6943359 0.6806641
vt 0.7138672 0.690918
vt 0.6699219 0.4208984
vt 0.6728516 0.4169922
vt 0.6499023 0.4147949
vt 0.6523438 0.4191895
vt 0.6552734 0.4462891
vt 0.6533203 0.4509277
vt 0.6728516 0.4472656
vt 0.6694336 0.4436035
vt 0.6450195 0.4316406
vt 0.6401367 0.4321289
vt 0.6533203 0.4509277
vt 0.6552734 0.4462891
vt 0.6523438 0.4191895
vt 0.6499023 0.4147949
vt 0.6401367 0.4321289
vt 0.6450195 0.4316406
vt 0.7353516 0.3791504
vt 0.6982422 0.3791504
vt 0.6982422 0.4255371
vt 0.7353516 0.4255371
vt 0.7485352 0.3081055
vt 0.7485352 0.2678223
vt 0.6982422 0.2678223
vt 0.6982422 0.3081055
vt 0.7885742 0.3774414
vt 0.7514648 0.3774414
vt 0.7514648 0.4238281
vt 0.7885742 0.4238281
vt 0.6982422 0.3513184
vt 0.7485352 0.3513184
vt 0.7485352 0.3110352
vt 0.6982422 0.3110352
vn -1 0 0
vn -1 0 0
vn -1 0 0
vn -1 0 0
vn 0 0.1169434 -0.9931641
vn 0 0.1169434 -0.9931641
vn 0 0.1169434 -0.9931641
vn 0 0.1169434 -0.9931641
vn 1 0 -2.384186E-07
vn 1 0 -2.384186E-07
vn 1 0 -2.384186E-07
vn 1 0 -2.384186E-07
vn 0 -0.9960938 -0.09082031
vn 0 -0.9960938 -0.09082031
vn 0 -0.9960938 -0.09082031
vn 0 -0.9960938 -0.09082031
vn 0 0.9960938 0.09082031
vn 0 0.9960938 0.09082031
vn 0 0.9960938 0.09082031
vn 0 0.9960938 0.09082031
vn 0 -0.6230469 -0.7822266
vn 0 -0.6230469 -0.7822266
vn 0 -0.6230469 -0.7822266
vn 0 -0.6230469 -0.7822266
vn 0 -0.6230469 0.7822266
vn 0 -0.6230469 0.7822266
vn 0 -0.6230469 0.7822266
vn 0 -0.6230469 0.7822266
vn 0.7543945 -0.65625 0
vn 0.7543945 -0.65625 0
vn 0.7543945 -0.65625 0
vn 0.7543945 -0.65625 0
vn -0.7543945 -0.65625 0
vn -0.7543945 -0.65625 0
vn -0.7543945 -0.65625 0
vn -0.7543945 -0.65625 0
vn 1 0.002199173 0
vn 1 0.002199173 0
vn 1 0.002199173 0
vn 1 0.002199173 0
vn -1 0.002199173 0
vn -1 0.002199173 0
vn -1 0.002199173 0
vn -1 0.002199173 0
vn 0 -0.4604492 -0.8876953
vn 0 -0.4604492 -0.8876953
vn 0 -0.4604492 -0.8876953
vn 0 -0.4604492 -0.8876953
vn 0 0.4638672 0.8857422
vn 0 0.4638672 0.8857422
vn 0 0.4638672 0.8857422
vn 0 0.4638672 0.8857422
vn 0 0.9960938 0.09082031
vn 0 0.9960938 0.09082031
vn 0 0.9960938 0.09082031
vn 0 0.9960938 0.09082031
vn 0 0.1000977 -0.9951172
vn 0 0.1000977 -0.9951172
vn 0 0.1000977 -0.9951172
vn 0 0.1000977 -0.9951172
vn -0.9980469 -0.05535889 -0.03155518
vn -0.9980469 -0.05535889 -0.03155518
vn -0.9980469 -0.05535889 -0.03155518
vn -0.9980469 -0.05535889 -0.03155518
vn -0.9980469 -0.05535889 -0.03155518
vn 0 -0.9960938 -0.09082031
vn 0 -0.9960938 -0.09082031
vn 0 -0.9960938 -0.09082031
vn 0 -0.9960938 -0.09082031
vn 0.9980469 -0.05535889 -0.03155518
vn 0.9980469 -0.05535889 -0.03155518
vn 0.9980469 -0.05535889 -0.03155518
vn 0.9980469 -0.05535889 -0.03155518
vn 0.9980469 -0.05535889 -0.03155518
vn 0 0.5292969 0.8481445
vn 0 0.5292969 0.8481445
vn 0 0.5292969 0.8481445
vn 0 0.5292969 0.8481445
vn 0 -0.1051025 0.9946289
vn 0 -0.1051025 0.9946289
vn 0 -0.1051025 0.9946289
vn 0 -0.1051025 0.9946289
vn 0 -0.4604492 0.8876953
vn 0 -0.4604492 0.8876953
vn 0 -0.4604492 0.8876953
vn 0 -0.4604492 0.8876953
vn 1 0.002199173 0
vn 1 0.002199173 0
vn 1 0.002199173 0
vn 1 0.002199173 0
vn 0 0.4638672 -0.8857422
vn 0 0.4638672 -0.8857422
vn 0 0.4638672 -0.8857422
vn 0 0.4638672 -0.8857422
vn -1 0.002199173 0
vn -1 0.002199173 0
vn -1 0.002199173 0
vn -1 0.002199173 0
vn -0.7543945 -0.65625 0
vn -0.7543945 -0.65625 0
vn -0.7543945 -0.65625 0
vn -0.7543945 -0.65625 0
vn 0 -0.6230469 -0.7822266
vn 0 -0.6230469 -0.7822266
vn 0 -0.6230469 -0.7822266
vn 0 -0.6230469 -0.7822266
vn 0.7543945 -0.65625 0
vn 0.7543945 -0.65625 0
vn 0.7543945 -0.65625 0
vn 0.7543945 -0.65625 0
vn 0 -0.6230469 0.7822266
vn 0 -0.6230469 0.7822266
vn 0 -0.6230469 0.7822266
vn 0 -0.6230469 0.7822266
vn 0 -0.6230469 -0.7822266
vn 0 -0.6230469 -0.7822266
vn 0 -0.6230469 -0.7822266
vn 0 -0.6230469 -0.7822266
vn 0 -0.6230469 0.7822266
vn 0 -0.6230469 0.7822266
vn 0 -0.6230469 0.7822266
vn 0 -0.6230469 0.7822266
vn 0.7543945 -0.65625 0
vn 0.7543945 -0.65625 0
vn 0.7543945 -0.65625 0
vn 0.7543945 -0.65625 0
vn -0.7543945 -0.65625 0
vn -0.7543945 -0.65625 0
vn -0.7543945 -0.65625 0
vn -0.7543945 -0.65625 0
vn 1 0.002199173 0
vn 1 0.002199173 0
vn 1 0.002199173 0
vn 1 0.002199173 0
vn -1 0.002199173 0
vn -1 0.002199173 0
vn -1 0.002199173 0
vn -1 0.002199173 0
vn 0 -0.4604492 -0.8876953
vn 0 -0.4604492 -0.8876953
vn 0 -0.4604492 -0.8876953
vn 0 -0.4604492 -0.8876953
vn 0 0.4638672 0.8857422
vn 0 0.4638672 0.8857422
vn 0 0.4638672 0.8857422
vn 0 0.4638672 0.8857422
vn 0 -0.4604492 0.8876953
vn 0 -0.4604492 0.8876953
vn 0 -0.4604492 0.8876953
vn 0 -0.4604492 0.8876953
vn 1 0.002199173 0
vn 1 0.002199173 0
vn 1 0.002199173 0
vn 1 0.002199173 0
vn 0 0.4638672 -0.8857422
vn 0 0.4638672 -0.8857422
vn 0 0.4638672 -0.8857422
vn 0 0.4638672 -0.8857422
vn -1 0.002199173 0
vn -1 0.002199173 0
vn -1 0.002199173 0
vn -1 0.002199173 0
vn -0.7543945 -0.65625 0
vn -0.7543945 -0.65625 0
vn -0.7543945 -0.65625 0
vn -0.7543945 -0.65625 0
vn 0 -0.6230469 -0.7822266
vn 0 -0.6230469 -0.7822266
vn 0 -0.6230469 -0.7822266
vn 0 -0.6230469 -0.7822266
vn 0.7543945 -0.65625 0
vn 0.7543945 -0.65625 0
vn 0.7543945 -0.65625 0
vn 0.7543945 -0.65625 0
vn 0 -0.6230469 0.7822266
vn 0 -0.6230469 0.7822266
vn 0 -0.6230469 0.7822266
vn 0 -0.6230469 0.7822266
vn 0 -1 0
vn 0 -1 0
vn 0 -1 0
vn 0 -1 0
vn 0 -1 0
vn 0 -1 0
vn 0 -1 0
vn 0 -1 0
vn 0 -1 0
vn 0 -1 0
vn 0 -1 0
vn 0 -1 0
vn 0 -1 0
vn 0 -1 0
vn 0 -1 0
vn 0 -1 0
g Rack_3_0
f 3/3/3 2/2/2 1/1/1
f 4/4/4 3/3/3 1/1/1
f 7/7/7 6/6/6 5/5/5
f 8/8/8 7/7/7 5/5/5
f 11/11/11 10/10/10 9/9/9
f 12/12/12 11/11/11 9/9/9
f 15/15/15 14/14/14 13/13/13
f 16/16/16 15/15/15 13/13/13
f 19/19/19 18/18/18 17/17/17
f 20/20/20 19/19/19 17/17/17
f 23/23/23 22/22/22 21/21/21
f 24/24/24 23/23/23 21/21/21
f 27/27/27 26/26/26 25/25/25
f 28/28/28 27/27/27 25/25/25
f 31/31/31 30/30/30 29/29/29
f 32/32/32 31/31/31 29/29/29
f 35/35/35 34/34/34 33/33/33
f 36/36/36 35/35/35 33/33/33
f 39/39/39 38/38/38 37/37/37
f 40/40/40 39/39/39 37/37/37
f 43/43/43 42/42/42 41/41/41
f 44/44/44 43/43/43 41/41/41
f 47/47/47 46/46/46 45/45/45
f 48/48/48 47/47/47 45/45/45
f 51/51/51 50/50/50 49/49/49
f 52/52/52 51/51/51 49/49/49
f 55/55/55 54/54/54 53/53/53
f 56/56/56 55/55/55 53/53/53
f 59/59/59 58/58/58 57/57/57
f 60/60/60 59/59/59 57/57/57
f 63/63/63 62/62/62 61/61/61
f 61/61/61 64/64/64 63/63/63
f 61/61/61 65/65/65 64/64/64
f 68/68/68 67/67/67 66/66/66
f 69/69/69 68/68/68 66/66/66
f 72/72/72 71/71/71 70/70/70
f 70/70/70 73/73/73 72/72/72
f 73/73/73 74/74/74 72/72/72
f 77/77/77 76/76/76 75/75/75
f 78/78/78 77/77/77 75/75/75
f 81/81/81 80/80/80 79/79/79
f 82/82/82 81/81/81 79/79/79
f 85/85/85 84/84/84 83/83/83
f 86/86/86 85/85/85 83/83/83
f 89/89/89 88/88/88 87/87/87
f 90/90/90 89/89/89 87/87/87
f 93/93/93 92/92/92 91/91/91
f 94/94/94 93/93/93 91/91/91
f 97/97/97 96/96/96 95/95/95
f 98/98/98 97/97/97 95/95/95
f 101/101/101 100/100/100 99/99/99
f 102/102/102 101/101/101 99/99/99
f 105/105/105 104/104/104 103/103/103
f 106/106/106 105/105/105 103/103/103
f 109/109/109 108/108/108 107/107/107
f 110/110/110 109/109/109 107/107/107
f 113/113/113 112/112/112 111/111/111
f 114/114/114 113/113/113 111/111/111
f 117/117/117 116/116/116 115/115/115
f 118/118/118 117/117/117 115/115/115
f 121/121/121 120/120/120 119/119/119
f 122/122/122 121/121/121 119/119/119
f 125/125/125 124/124/124 123/123/123
f 126/126/126 125/125/125 123/123/123
f 129/129/129 128/128/128 127/127/127
f 130/130/130 129/129/129 127/127/127
f 133/133/133 132/132/132 131/131/131
f 134/134/134 133/133/133 131/131/131
f 137/137/137 136/136/136 135/135/135
f 138/138/138 137/137/137 135/135/135
f 141/141/141 140/140/140 139/139/139
f 142/142/142 141/141/141 139/139/139
f 145/145/145 144/144/144 143/143/143
f 146/146/146 145/145/145 143/143/143
f 149/149/149 148/148/148 147/147/147
f 150/150/150 149/149/149 147/147/147
f 153/153/153 152/152/152 151/151/151
f 154/154/154 153/153/153 151/151/151
f 157/157/157 156/156/156 155/155/155
f 158/158/158 157/157/157 155/155/155
f 161/161/161 160/160/160 159/159/159
f 162/162/162 161/161/161 159/159/159
f 165/165/165 164/164/164 163/163/163
f 166/166/166 165/165/165 163/163/163
f 169/169/169 168/168/168 167/167/167
f 170/170/170 169/169/169 167/167/167
f 173/173/173 172/172/172 171/171/171
f 174/174/174 173/173/173 171/171/171
f 177/177/177 176/176/176 175/175/175
f 178/178/178 177/177/177 175/175/175
f 181/181/181 180/180/180 179/179/179
f 182/182/182 181/181/181 179/179/179
f 185/185/185 184/184/184 183/183/183
f 186/186/186 185/185/185 183/183/183
f 189/189/189 188/188/188 187/187/187
f 190/190/190 189/189/189 187/187/187
f 193/193/193 192/192/192 191/191/191
f 194/194/194 193/193/193 191/191/191
