g Wooden_Railings_2
v -0.04185412 0.9238547 -0.02811371
v -0.02811372 0.9238547 -0.04185411
v -0.02811372 0.9375952 -0.02811371
v -0.02811371 0.9375952 0.02811372
v -0.02811371 0.9238547 0.04185412
v -0.04185411 0.9238547 0.02811372
v -0.02811372 0.9375952 -0.02811371
v -0.02811372 0.9238547 -0.04185411
v 0.02811371 0.9238547 -0.04185412
v 0.6550661 1.482574 -0.02891296
v 1.01992 1.791594 -0.02891298
v 0.9918825 1.819614 -0.02891299
v 0.6831039 1.454555 -0.02891296
v 1.026353 1.785166 -0.01981926
v 0.3195865 1.135443 -0.02226532
v 0.6895363 1.448127 -0.01981924
v 0.3476243 1.107424 -0.02226532
v -0.01856689 0.8084953 -0.02891291
v 0.3540567 1.100996 -0.0131716
v 0.009470951 0.7804762 -0.02891291
v 0.01590333 0.774048 -0.01981919
v -0.02843703 0.6056426 -0.04107527
v 0.02811371 0.9238547 -0.04185412
v -0.02811372 0.9238547 -0.04185411
v 0.02559582 0.6056426 -0.04107528
v 0.04185411 0.9238547 -0.02811372
v -0.02759709 0.282315 -0.03205626
v 0.03856079 0.6056426 -0.02811032
v 0.02424119 0.282315 -0.03205626
v -0.02482186 -0.005484007 -0.03623594
v 0.03643072 0.282315 -0.01986674
v 0.02482185 -0.005484007 -0.03623594
v 0.03623594 -0.005484007 -0.02482186
v 0.03856079 0.6056426 -0.02811032
v 0.04185412 0.9238547 0.02811371
v 0.04185411 0.9238547 -0.02811372
v 0.0385608 0.6056426 0.02592253
v 0.03643072 0.282315 -0.01986674
v 0.03643072 0.282315 0.03197154
v 0.03623594 -0.005484007 -0.02482186
v 0.03623594 -0.005484007 0.02482185
v 0.6486337 1.489002 0.01981914
v 0.9854502 1.826042 -0.01981927
v 0.9854502 1.826042 0.01981912
v 0.6486337 1.489002 -0.01981924
v 0.9918825 1.819614 -0.02891299
v 0.3131541 1.141871 0.02646678
v 0.6550661 1.482574 -0.02891296
v 0.3131541 1.141871 -0.01317159
v -0.02499926 0.8149235 0.01981919
v 0.3195865 1.135443 -0.02226532
v -0.02499926 0.8149235 -0.01981918
v -0.01856689 0.8084953 -0.02891291
v 0.6831039 1.454555 0.02891286
v 0.9918825 1.819614 0.02891284
v 1.01992 1.791594 0.02891283
v 0.6550661 1.482574 0.02891286
v 0.9854502 1.826042 0.01981912
v 0.3476243 1.107424 0.0355605
v 0.6486337 1.489002 0.01981914
v 0.3195865 1.135443 0.0355605
v 0.009470955 0.7804762 0.02891291
v 0.3131541 1.141871 0.02646678
v -0.01856688 0.8084953 0.02891291
v -0.02499926 0.8149235 0.01981919
v 0.6895363 1.448127 -0.01981924
v 1.026353 1.785166 0.01981911
v 1.026353 1.785166 -0.01981926
v 0.6895363 1.448127 0.01981914
v 1.01992 1.791594 0.02891283
v 0.3540567 1.100996 -0.0131716
v 0.6831039 1.454555 0.02891286
v 0.3540567 1.100996 0.02646678
v 0.01590333 0.774048 -0.01981919
v 0.3476243 1.107424 0.0355605
v 0.01590333 0.774048 0.01981919
v 0.009470955 0.7804762 0.02891291
v 0.6906891 1.123933 -0.01569059
v 1.026353 1.460972 0.01981911
v 1.026353 1.460972 -0.01981926
v 0.6906891 1.123933 0.02394779
v 0.3516319 0.7868934 -0.0237156
v 0.3516319 0.7868934 0.01592278
v 0.01590333 0.449854 -0.01981919
v 0.01590333 0.449854 0.01981919
v 0.02811371 0.9375952 -0.02811372
v 0.02811371 0.9238547 -0.04185412
v 0.04185411 0.9238547 -0.02811372
v 0.04185412 0.9238547 0.02811371
v 0.02811372 0.9375952 0.02811371
v 0.02811372 0.9375952 0.02811371
v 0.04185412 0.9238547 0.02811371
v 0.02811372 0.9238547 0.04185411
v -0.02811371 0.9238547 0.04185412
v -0.02811371 0.9375952 0.02811372
v -0.02811372 0.9375952 -0.02811371
v 0.02811371 0.9238547 -0.04185412
v 0.02811371 0.9375952 -0.02811372
v 0.02811372 0.9375952 0.02811371
v -0.02811371 0.9375952 0.02811372
v -0.04185412 0.9238547 -0.02811371
v -0.04185411 0.9238547 0.02811372
v 0.6497864 1.164808 -0.01569059
v 0.9918825 1.49542 -0.02891299
v 0.9854502 1.501848 -0.01981927
v 0.6562188 1.15838 -0.02478431
v 1.01992 1.4674 -0.02891298
v 0.3107293 0.8277689 -0.02371559
v 0.6842567 1.130361 -0.02478431
v 0.3171617 0.8213407 -0.03280932
v -0.02499926 0.4907294 -0.01981918
v 0.3451996 0.7933214 -0.03280932
v -0.0185669 0.4843014 -0.02891291
v 0.009470966 0.4562821 -0.02891291
v 0.3516319 0.7868934 -0.0237156
v 0.009470966 0.4562821 -0.02891291
v 0.01590333 0.449854 -0.01981919
v 0.3451996 0.7933214 -0.03280932
v 0.6906891 1.123933 -0.01569059
v 0.6842567 1.130361 -0.02478431
v 1.026353 1.460972 -0.01981926
v 1.01992 1.4674 -0.02891298
v -0.04185411 0.9238547 0.02811372
v -0.02811371 0.9238547 0.04185412
v -0.02843702 0.6056426 0.03888751
v -0.04140199 0.6056426 0.02592254
v -0.04185412 0.9238547 -0.02811371
v -0.02759708 0.282315 0.04416107
v -0.04140199 0.6056426 -0.02811031
v -0.02811372 0.9238547 -0.04185411
v -0.02843703 0.6056426 -0.04107527
v -0.0397866 0.282315 0.03197155
v -0.02482185 -0.005484007 0.03623594
v -0.03623594 -0.005484007 0.02482186
v -0.03978661 0.282315 -0.01986673
v -0.02759709 0.282315 -0.03205626
v -0.03623594 -0.005484007 -0.02482185
v -0.02482186 -0.005484007 -0.03623594
v -0.02482186 -0.005484007 -0.03623594
v -0.03623594 -0.005484007 -0.02482185
v -0.03623594 -0.005484007 0.02482186
v -0.02482185 -0.005484007 0.03623594
v 0.02482185 -0.005484007 -0.03623594
v 0.02482186 -0.005484007 0.03623594
v 0.03623594 -0.005484007 -0.02482186
v 0.03623594 -0.005484007 0.02482185
v 0.9918825 1.819614 0.02891284
v 0.9854502 1.826042 0.01981912
v 0.9854502 1.826042 -0.01981927
v 0.9918825 1.819614 -0.02891299
v 1.01992 1.791594 0.02891283
v 1.01992 1.791594 -0.02891298
v 1.026353 1.785166 0.01981911
v 1.026353 1.785166 -0.01981926
v 0.9918825 1.49542 0.02891284
v 0.9854502 1.501848 0.01981912
v 0.9854502 1.501848 -0.01981927
v 0.9918825 1.49542 -0.02891299
v 1.01992 1.4674 0.02891283
v 1.01992 1.4674 -0.02891298
v 1.026353 1.460972 0.01981911
v 1.026353 1.460972 -0.01981926
v 0.02811372 0.9238547 0.04185411
v 0.04185412 0.9238547 0.02811371
v 0.0385608 0.6056426 0.02592253
v 0.02559583 0.6056426 0.0388875
v -0.02811371 0.9238547 0.04185412
v 0.03643072 0.282315 0.03197154
v -0.02843702 0.6056426 0.03888751
v 0.0242412 0.282315 0.04416107
v 0.03623594 -0.005484007 0.02482185
v -0.02759708 0.282315 0.04416107
v 0.02482186 -0.005484007 0.03623594
v -0.02482185 -0.005484007 0.03623594
v 0.9854502 1.501848 0.01981912
v 0.9918825 1.49542 0.02891284
v 0.6562188 1.15838 0.03304151
v 0.6497864 1.164808 0.02394779
v 0.9854502 1.501848 -0.01981927
v 0.3171617 0.8213407 0.0250165
v 0.6497864 1.164808 -0.01569059
v 0.3107293 0.8277687 0.01592278
v -0.0185669 0.4843014 0.02891291
v 0.3107293 0.8277689 -0.02371559
v -0.02499926 0.4907294 0.01981919
v -0.02499926 0.4907294 -0.01981918
v 1.01992 1.4674 0.02891283
v 1.026353 1.460972 0.01981911
v 0.6906891 1.123933 0.02394779
v 0.6842567 1.130361 0.0330415
v 0.9918825 1.49542 0.02891284
v 0.3516319 0.7868934 0.01592278
v 0.6562188 1.15838 0.03304151
v 0.3451995 0.7933214 0.0250165
v 0.01590333 0.449854 0.01981919
v 0.3171617 0.8213407 0.0250165
v 0.00947097 0.4562821 0.02891291
v -0.0185669 0.4843014 0.02891291
vt 0.4138184 0.6704102
vt 0.4030762 0.6586914
vt 0.4001465 0.6723633
vt 0.3994141 0.7104492
vt 0.4016113 0.7236328
vt 0.4128418 0.7128906
vt 0.4001465 0.6723633
vt 0.4030762 0.6586914
vt 0.3601074 0.6586914
vt 0.1872559 0.6665039
vt 0.1595459 0.9985352
vt 0.1872559 0.9985352
vt 0.159668 0.6665039
vt 0.1506348 0.9985352
vt 0.1872559 0.329834
vt 0.1507568 0.6665039
vt 0.1595459 0.329834
vt 0.1872559 0.001350403
vt 0.1505127 0.329834
vt 0.159668 0.001814842
vt 0.1507568 0.002008438
vt 0.3581543 0.4301758
vt 0.3166504 0.6518555
vt 0.3557129 0.6518555
vt 0.3203125 0.4296875
vt 0.3029785 0.6513672
vt 0.3608398 0.2045898
vt 0.3076172 0.4294434
vt 0.324707 0.2039795
vt 0.3630371 0.003734589
vt 0.3127441 0.2037354
vt 0.3283691 0.003059387
vt 0.3168945 0.002962112
vt 0.5097656 0.4294434
vt 0.4748535 0.6523438
vt 0.5141602 0.6513672
vt 0.472168 0.4296875
vt 0.5043945 0.2037354
vt 0.4685059 0.2043457
vt 0.5009766 0.002962112
vt 0.4660645 0.004207611
vt 0.2237549 0.6665039
vt 0.196167 0.9985352
vt 0.223877 0.9985352
vt 0.196167 0.6665039
vt 0.1872559 0.9985352
vt 0.223877 0.329834
vt 0.1872559 0.6665039
vt 0.1962891 0.329834
vt 0.223877 0.001718521
vt 0.1872559 0.329834
vt 0.1962891 0.001331329
vt 0.1872559 0.001350403
vt 0.260498 0.6660156
vt 0.2327881 0.9985352
vt 0.260498 0.9985352
vt 0.2327881 0.6665039
vt 0.223877 0.9985352
vt 0.260498 0.329834
vt 0.2237549 0.6665039
vt 0.2329102 0.329834
vt 0.260498 0.002384186
vt 0.223877 0.329834
vt 0.2327881 0.001915932
vt 0.223877 0.001718521
vt 0.2971191 0.6665039
vt 0.2692871 0.9985352
vt 0.2971191 0.9985352
vt 0.2692871 0.6660156
vt 0.260498 0.9985352
vt 0.2971191 0.329834
vt 0.260498 0.6660156
vt 0.2695313 0.329834
vt 0.2971191 0.002016068
vt 0.260498 0.329834
vt 0.2695313 0.002403259
vt 0.260498 0.002384186
vt 0.001583099 0.3330078
vt 0.02909851 0.001675606
vt 0.001461029 0.00144577
vt 0.02919006 0.3330078
vt 0.001331329 0.6665039
vt 0.0289917 0.6665039
vt 0.001438141 0.9980469
vt 0.02908325 0.9985352
vt 0.3623047 0.671875
vt 0.3601074 0.6586914
vt 0.348877 0.6694336
vt 0.3479004 0.7119141
vt 0.3615723 0.7099609
vt 0.3615723 0.7099609
vt 0.3479004 0.7119141
vt 0.3586426 0.7236328
vt 0.4016113 0.7236328
vt 0.3994141 0.7104492
vt 0.4001465 0.6723633
vt 0.3601074 0.6586914
vt 0.3623047 0.671875
vt 0.3615723 0.7099609
vt 0.3994141 0.7104492
vt 0.4138184 0.6704102
vt 0.4128418 0.7128906
vt 0.1022339 0.3330078
vt 0.1112671 0.001331329
vt 0.1022949 0.001373291
vt 0.1112061 0.333252
vt 0.138916 0.001383781
vt 0.102356 0.6665039
vt 0.138916 0.3330078
vt 0.1113281 0.6665039
vt 0.1022339 0.9980469
vt 0.138916 0.6665039
vt 0.1112061 0.9980469
vt 0.138916 0.9980469
vt 0.1479492 0.6665039
vt 0.138916 0.9980469
vt 0.1478271 0.9980469
vt 0.138916 0.6665039
vt 0.1478271 0.3330078
vt 0.138916 0.3330078
vt 0.1479492 0.001451492
vt 0.138916 0.001383781
vt 0.4086914 0.6523438
vt 0.4221191 0.6523438
vt 0.4213867 0.4299316
vt 0.4084473 0.4299316
vt 0.3693848 0.6518555
vt 0.4206543 0.204834
vt 0.3708496 0.4301758
vt 0.3557129 0.6518555
vt 0.3581543 0.4301758
vt 0.4089355 0.2049561
vt 0.420166 0.004947662
vt 0.4086914 0.00484848
vt 0.3730469 0.204834
vt 0.3608398 0.2045898
vt 0.3742676 0.00403595
vt 0.3630371 0.003734589
vt 0.418457 0.699707
vt 0.4265137 0.7075195
vt 0.4611816 0.7075195
vt 0.4689941 0.699707
vt 0.418457 0.6650391
vt 0.4689941 0.6650391
vt 0.4265137 0.6567383
vt 0.4611816 0.6567383
vt 0.3103027 0.659668
vt 0.3039551 0.6660156
vt 0.3039551 0.6938477
vt 0.3103027 0.7001953
vt 0.3378906 0.659668
vt 0.3378906 0.7001953
vt 0.3442383 0.6660156
vt 0.3442383 0.6938477
vt 0.3103027 0.7026367
vt 0.3039551 0.7089844
vt 0.3039551 0.7368164
vt 0.3103027 0.7431641
vt 0.3378906 0.7026367
vt 0.3378906 0.7431641
vt 0.3442383 0.7089844
vt 0.3442383 0.7368164
vt 0.4614258 0.6523438
vt 0.4748535 0.6523438
vt 0.472168 0.4296875
vt 0.4592285 0.4296875
vt 0.4221191 0.6523438
vt 0.4685059 0.2043457
vt 0.4213867 0.4299316
vt 0.456543 0.2045898
vt 0.4660645 0.004207611
vt 0.4206543 0.204834
vt 0.454834 0.00453949
vt 0.420166 0.004947662
vt 0.07470703 0.001605034
vt 0.06573486 0.001669884
vt 0.06567383 0.3330078
vt 0.07458496 0.3330078
vt 0.1022949 0.001373291
vt 0.06567383 0.6665039
vt 0.1022339 0.3330078
vt 0.07470703 0.6665039
vt 0.06567383 0.9985352
vt 0.102356 0.6665039
vt 0.074646 0.9985352
vt 0.1022339 0.9980469
vt 0.03808594 0.001717567
vt 0.02909851 0.001675606
vt 0.02919006 0.3330078
vt 0.03811646 0.3330078
vt 0.06573486 0.001669884
vt 0.0289917 0.6665039
vt 0.06567383 0.3330078
vt 0.03799438 0.6665039
vt 0.02908325 0.9985352
vt 0.06567383 0.6665039
vt 0.0380249 0.9985352
vt 0.06567383 0.9985352
vn -0.8759766 0.3410645 -0.3415527
vn -0.3415527 0.3408203 -0.8759766
vn -0.3415527 0.8754883 -0.3415527
vn -0.3415527 0.8754883 0.3415527
vn -0.3415527 0.3376465 0.8769531
vn -0.8759766 0.3398438 0.3425293
vn -0.3415527 0.8754883 -0.3415527
vn -0.3415527 0.3408203 -0.8759766
vn 0.3427734 0.3391113 -0.8759766
vn -0.2783203 0.2646484 -0.9233398
vn 0.270752 -0.2705078 -0.9238281
vn -0.270752 0.2705078 -0.9238281
vn 0.2668457 -0.2712402 -0.9248047
vn 0.6533203 -0.652832 -0.3825684
vn -0.2687988 0.269043 -0.9248047
vn 0.65625 -0.6489258 -0.3847656
vn 0.2741699 -0.2736816 -0.921875
vn -0.2583008 0.2861328 -0.9228516
vn 0.6547852 -0.6542969 -0.378418
vn 0.2719727 -0.2624512 -0.9257813
vn 0.6450195 -0.6591797 -0.387207
vn -0.3818359 -0.01428223 -0.9243164
vn 0.3427734 0.3391113 -0.8759766
vn -0.3415527 0.3408203 -0.8759766
vn 0.3811035 -0.01628113 -0.9243164
vn 0.8774414 0.3371582 -0.3415527
vn -0.3852539 -0.00856781 -0.9228516
vn 0.9228516 -0.01274872 -0.385498
vn 0.3837891 -0.0066185 -0.9233398
vn -0.3793945 0.009780884 -0.925293
vn 0.9257813 -0.004928589 -0.378418
vn 0.3818359 0.01419067 -0.9243164
vn 0.9223633 0.006027222 -0.3862305
vn 0.9228516 -0.01274872 -0.385498
vn 0.8774414 0.3359375 0.3425293
vn 0.8774414 0.3371582 -0.3415527
vn 0.9248047 -0.005619049 0.380127
vn 0.9257813 -0.004928589 -0.378418
vn 0.921875 -0.00453949 0.3874512
vn 0.9223633 0.006027222 -0.3862305
vn 0.9257813 -0.01000214 0.3774414
vn -0.6577148 0.6499023 0.3806152
vn -0.6533203 0.652832 -0.3825684
vn -0.6533203 0.652832 0.3825684
vn -0.6606445 0.6455078 -0.3833008
vn -0.270752 0.2705078 -0.9238281
vn -0.6523438 0.6518555 0.3869629
vn -0.2783203 0.2646484 -0.9233398
vn -0.6538086 0.6538086 -0.3813477
vn -0.6474609 0.6616211 0.3781738
vn -0.2687988 0.269043 -0.9248047
vn -0.6376953 0.6674805 -0.3840332
vn -0.2583008 0.2861328 -0.9228516
vn 0.2766113 -0.2629395 0.9243164
vn -0.270752 0.2705078 0.9238281
vn 0.270752 -0.2705078 0.9238281
vn -0.2702637 0.2744141 0.9228516
vn -0.6533203 0.652832 0.3825684
vn 0.2722168 -0.2722168 0.9228516
vn -0.6577148 0.6499023 0.3806152
vn -0.267334 0.2670898 0.9257813
vn 0.255127 -0.2827148 0.9248047
vn -0.6523438 0.6518555 0.3869629
vn -0.2785645 0.2692871 0.921875
vn -0.6474609 0.6616211 0.3781738
vn 0.65625 -0.6489258 -0.3847656
vn 0.6533203 -0.652832 0.3825684
vn 0.6533203 -0.652832 -0.3825684
vn 0.6611328 -0.6459961 0.3818359
vn 0.270752 -0.2705078 0.9238281
vn 0.6547852 -0.6542969 -0.378418
vn 0.2766113 -0.2629395 0.9243164
vn 0.652832 -0.652832 0.3840332
vn 0.6450195 -0.6591797 -0.387207
vn 0.2722168 -0.2722168 0.9228516
vn 0.6386719 -0.668457 0.3811035
vn 0.255127 -0.2827148 0.9248047
vn 0.6547852 -0.6533203 -0.3798828
vn 0.6572266 -0.6499023 0.3811035
vn 0.6518555 -0.6538086 -0.3845215
vn 0.6513672 -0.6538086 0.3850098
vn 0.6533203 -0.6518555 -0.385498
vn 0.6523438 -0.6552734 0.3803711
vn 0.652832 -0.6547852 -0.3808594
vn 0.65625 -0.6494141 0.3842773
vn 0.3415527 0.8754883 -0.3415527
vn 0.3427734 0.3391113 -0.8759766
vn 0.8774414 0.3371582 -0.3415527
vn 0.8774414 0.3359375 0.3425293
vn 0.3415527 0.8754883 0.3415527
vn 0.3415527 0.8754883 0.3415527
vn 0.8774414 0.3359375 0.3425293
vn 0.3427734 0.3361816 0.8774414
vn -0.3415527 0.3376465 0.8769531
vn -0.3415527 0.8754883 0.3415527
vn -0.3415527 0.8754883 -0.3415527
vn 0.3427734 0.3391113 -0.8759766
vn 0.3415527 0.8754883 -0.3415527
vn 0.3415527 0.8754883 0.3415527
vn -0.3415527 0.8754883 0.3415527
vn -0.8759766 0.3410645 -0.3415527
vn -0.8759766 0.3398438 0.3425293
vn -0.652832 0.6552734 -0.380127
vn -0.2766113 0.2641602 -0.9238281
vn -0.65625 0.6489258 -0.3842773
vn -0.2683105 0.2736816 -0.9238281
vn 0.2646484 -0.2749023 -0.9243164
vn -0.6508789 0.6542969 -0.3850098
vn 0.2741699 -0.2692871 -0.9233398
vn -0.267334 0.2731934 -0.9243164
vn -0.6572266 0.6503906 -0.3811035
vn 0.2722168 -0.2668457 -0.9243164
vn -0.2766113 0.2648926 -0.9238281
vn 0.2666016 -0.276123 -0.9233398
vn 0.6533203 -0.6518555 -0.385498
vn 0.2666016 -0.276123 -0.9233398
vn 0.652832 -0.6547852 -0.3808594
vn 0.2722168 -0.2668457 -0.9243164
vn 0.6547852 -0.6533203 -0.3798828
vn 0.2741699 -0.2692871 -0.9233398
vn 0.6518555 -0.6538086 -0.3845215
vn 0.2646484 -0.2749023 -0.9243164
vn -0.8759766 0.3398438 0.3425293
vn -0.3415527 0.3376465 0.8769531
vn -0.3842773 0.002925873 0.9233398
vn -0.9248047 -0.0007433891 0.3798828
vn -0.8759766 0.3410645 -0.3415527
vn -0.3815918 -0.007476807 0.9243164
vn -0.9228516 -0.007888794 -0.3852539
vn -0.3415527 0.3408203 -0.8759766
vn -0.3818359 -0.01428223 -0.9243164
vn -0.921875 -0.009147644 0.3869629
vn -0.3828125 -0.02911377 0.9233398
vn -0.925293 -0.02081299 0.378418
vn -0.9257813 -0.009597778 -0.3779297
vn -0.3852539 -0.00856781 -0.9228516
vn -0.921875 -0.004707336 -0.387207
vn -0.3793945 0.009780884 -0.925293
vn 0 -1 0
vn 0 -1 0
vn 0 -1 0
vn 0 -1 0
vn 0 -1 0
vn 0 -1 0
vn 0 -1 0
vn 0 -1 0
vn 0.7070313 0.7075195 0
vn 0.7070313 0.7075195 0
vn 0.7070313 0.7075195 0
vn 0.7070313 0.7075195 0
vn 0.7070313 0.7075195 0
vn 0.7070313 0.7075195 0
vn 0.7070313 0.7075195 0
vn 0.7070313 0.7075195 0
vn 0.7070313 0.7075195 0
vn 0.7070313 0.7075195 0
vn 0.7070313 0.7075195 0
vn 0.7070313 0.7075195 0
vn 0.7070313 0.7075195 0
vn 0.7070313 0.7075195 0
vn 0.7070313 0.7075195 0
vn 0.7070313 0.7075195 0
vn 0.3427734 0.3361816 0.8774414
vn 0.8774414 0.3359375 0.3425293
vn 0.9248047 -0.005619049 0.380127
vn 0.3833008 0.0009040833 0.9233398
vn -0.3415527 0.3376465 0.8769531
vn 0.921875 -0.00453949 0.3874512
vn -0.3842773 0.002925873 0.9233398
vn 0.380127 -0.005580902 0.9248047
vn 0.9257813 -0.01000214 0.3774414
vn -0.3815918 -0.007476807 0.9243164
vn 0.385498 -0.02462769 0.9223633
vn -0.3828125 -0.02911377 0.9233398
vn -0.652832 0.6547852 0.3806152
vn -0.2663574 0.2766113 0.9233398
vn -0.2719727 0.2668457 0.9243164
vn -0.6533203 0.6518555 0.385498
vn -0.65625 0.6489258 -0.3842773
vn -0.2744141 0.269043 0.9233398
vn -0.652832 0.6552734 -0.380127
vn -0.6547852 0.6533203 0.3798828
vn -0.2651367 0.2746582 0.9243164
vn -0.6508789 0.6542969 -0.3850098
vn -0.6518555 0.6538086 0.3845215
vn -0.6572266 0.6503906 -0.3811035
vn 0.2770996 -0.2646484 0.9238281
vn 0.6572266 -0.6499023 0.3811035
vn 0.6513672 -0.6538086 0.3850098
vn 0.267334 -0.2729492 0.9243164
vn -0.2663574 0.2766113 0.9233398
vn 0.6523438 -0.6552734 0.3803711
vn -0.2719727 0.2668457 0.9243164
vn 0.2680664 -0.2739258 0.9238281
vn 0.65625 -0.6494141 0.3842773
vn -0.2744141 0.269043 0.9233398
vn 0.276123 -0.2644043 0.9238281
vn -0.2651367 0.2746582 0.9243164
g Wooden_Railings_2_0
f 3/3/3 2/2/2 1/1/1
f 6/6/6 5/5/5 4/4/4
f 9/9/9 8/8/8 7/7/7
f 12/12/12 11/11/11 10/10/10
f 11/11/11 13/13/13 10/10/10
f 13/13/13 11/11/11 14/14/14
f 10/10/10 13/13/13 15/15/15
f 16/16/16 13/13/13 14/14/14
f 13/13/13 17/17/17 15/15/15
f 17/17/17 13/13/13 16/16/16
f 15/15/15 17/17/17 18/18/18
f 19/19/19 17/17/17 16/16/16
f 17/17/17 20/20/20 18/18/18
f 20/20/20 17/17/17 19/19/19
f 21/21/21 20/20/20 19/19/19
f 24/24/24 23/23/23 22/22/22
f 23/23/23 25/25/25 22/22/22
f 25/25/25 23/23/23 26/26/26
f 22/22/22 25/25/25 27/27/27
f 28/28/28 25/25/25 26/26/26
f 25/25/25 29/29/29 27/27/27
f 29/29/29 25/25/25 28/28/28
f 27/27/27 29/29/29 30/30/30
f 31/31/31 29/29/29 28/28/28
f 29/29/29 32/32/32 30/30/30
f 32/32/32 29/29/29 31/31/31
f 33/33/33 32/32/32 31/31/31
f 36/36/36 35/35/35 34/34/34
f 35/35/35 37/37/37 34/34/34
f 34/34/34 37/37/37 38/38/38
f 37/37/37 39/39/39 38/38/38
f 38/38/38 39/39/39 40/40/40
f 39/39/39 41/41/41 40/40/40
f 44/44/44 43/43/43 42/42/42
f 43/43/43 45/45/45 42/42/42
f 43/43/43 46/46/46 45/45/45
f 42/42/42 45/45/45 47/47/47
f 46/46/46 48/48/48 45/45/45
f 45/45/45 49/49/49 47/47/47
f 45/45/45 48/48/48 49/49/49
f 47/47/47 49/49/49 50/50/50
f 48/48/48 51/51/51 49/49/49
f 49/49/49 52/52/52 50/50/50
f 49/49/49 51/51/51 52/52/52
f 51/51/51 53/53/53 52/52/52
f 56/56/56 55/55/55 54/54/54
f 55/55/55 57/57/57 54/54/54
f 57/57/57 55/55/55 58/58/58
f 54/54/54 57/57/57 59/59/59
f 60/60/60 57/57/57 58/58/58
f 57/57/57 61/61/61 59/59/59
f 61/61/61 57/57/57 60/60/60
f 59/59/59 61/61/61 62/62/62
f 63/63/63 61/61/61 60/60/60
f 61/61/61 64/64/64 62/62/62
f 64/64/64 61/61/61 63/63/63
f 65/65/65 64/64/64 63/63/63
f 68/68/68 67/67/67 66/66/66
f 67/67/67 69/69/69 66/66/66
f 69/69/69 67/67/67 70/70/70
f 66/66/66 69/69/69 71/71/71
f 72/72/72 69/69/69 70/70/70
f 69/69/69 73/73/73 71/71/71
f 73/73/73 69/69/69 72/72/72
f 71/71/71 73/73/73 74/74/74
f 75/75/75 73/73/73 72/72/72
f 73/73/73 76/76/76 74/74/74
f 76/76/76 73/73/73 75/75/75
f 77/77/77 76/76/76 75/75/75
f 80/80/80 79/79/79 78/78/78
f 79/79/79 81/81/81 78/78/78
f 78/78/78 81/81/81 82/82/82
f 81/81/81 83/83/83 82/82/82
f 82/82/82 83/83/83 84/84/84
f 83/83/83 85/85/85 84/84/84
f 88/88/88 87/87/87 86/86/86
f 89/89/89 88/88/88 86/86/86
f 90/90/90 89/89/89 86/86/86
f 93/93/93 92/92/92 91/91/91
f 94/94/94 93/93/93 91/91/91
f 95/95/95 94/94/94 91/91/91
f 98/98/98 97/97/97 96/96/96
f 98/98/98 96/96/96 99/99/99
f 96/96/96 100/100/100 99/99/99
f 96/96/96 101/101/101 100/100/100
f 101/101/101 102/102/102 100/100/100
f 105/105/105 104/104/104 103/103/103
f 104/104/104 106/106/106 103/103/103
f 104/104/104 107/107/107 106/106/106
f 103/103/103 106/106/106 108/108/108
f 107/107/107 109/109/109 106/106/106
f 106/106/106 110/110/110 108/108/108
f 106/106/106 109/109/109 110/110/110
f 108/108/108 110/110/110 111/111/111
f 109/109/109 112/112/112 110/110/110
f 110/110/110 113/113/113 111/111/111
f 110/110/110 112/112/112 113/113/113
f 112/112/112 114/114/114 113/113/113
f 117/117/117 116/116/116 115/115/115
f 116/116/116 118/118/118 115/115/115
f 115/115/115 118/118/118 119/119/119
f 118/118/118 120/120/120 119/119/119
f 119/119/119 120/120/120 121/121/121
f 120/120/120 122/122/122 121/121/121
f 125/125/125 124/124/124 123/123/123
f 126/126/126 125/125/125 123/123/123
f 123/123/123 127/127/127 126/126/126
f 128/128/128 125/125/125 126/126/126
f 127/127/127 129/129/129 126/126/126
f 127/127/127 130/130/130 129/129/129
f 130/130/130 131/131/131 129/129/129
f 132/132/132 128/128/128 126/126/126
f 126/126/126 129/129/129 132/132/132
f 133/133/133 128/128/128 132/132/132
f 134/134/134 133/133/133 132/132/132
f 129/129/129 131/131/131 135/135/135
f 129/129/129 135/135/135 132/132/132
f 132/132/132 135/135/135 134/134/134
f 131/131/131 136/136/136 135/135/135
f 135/135/135 137/137/137 134/134/134
f 135/135/135 136/136/136 137/137/137
f 136/136/136 138/138/138 137/137/137
f 141/141/141 140/140/140 139/139/139
f 142/142/142 141/141/141 139/139/139
f 142/142/142 139/139/139 143/143/143
f 144/144/144 142/142/142 143/143/143
f 143/143/143 145/145/145 144/144/144
f 145/145/145 146/146/146 144/144/144
f 149/149/149 148/148/148 147/147/147
f 150/150/150 149/149/149 147/147/147
f 150/150/150 147/147/147 151/151/151
f 152/152/152 150/150/150 151/151/151
f 151/151/151 153/153/153 152/152/152
f 153/153/153 154/154/154 152/152/152
f 157/157/157 156/156/156 155/155/155
f 158/158/158 157/157/157 155/155/155
f 158/158/158 155/155/155 159/159/159
f 160/160/160 158/158/158 159/159/159
f 159/159/159 161/161/161 160/160/160
f 161/161/161 162/162/162 160/160/160
f 165/165/165 164/164/164 163/163/163
f 166/166/166 165/165/165 163/163/163
f 163/163/163 167/167/167 166/166/166
f 168/168/168 165/165/165 166/166/166
f 167/167/167 169/169/169 166/166/166
f 170/170/170 168/168/168 166/166/166
f 166/166/166 169/169/169 170/170/170
f 171/171/171 168/168/168 170/170/170
f 169/169/169 172/172/172 170/170/170
f 173/173/173 171/171/171 170/170/170
f 170/170/170 172/172/172 173/173/173
f 172/172/172 174/174/174 173/173/173
f 177/177/177 176/176/176 175/175/175
f 178/178/178 177/177/177 175/175/175
f 175/175/175 179/179/179 178/178/178
f 180/180/180 177/177/177 178/178/178
f 179/179/179 181/181/181 178/178/178
f 182/182/182 180/180/180 178/178/178
f 178/178/178 181/181/181 182/182/182
f 183/183/183 180/180/180 182/182/182
f 181/181/181 184/184/184 182/182/182
f 185/185/185 183/183/183 182/182/182
f 182/182/182 184/184/184 185/185/185
f 184/184/184 186/186/186 185/185/185
f 189/189/189 188/188/188 187/187/187
f 190/190/190 189/189/189 187/187/187
f 187/187/187 191/191/191 190/190/190
f 192/192/192 189/189/189 190/190/190
f 191/191/191 193/193/193 190/190/190
f 194/194/194 192/192/192 190/190/190
f 190/190/190 193/193/193 194/194/194
f 195/195/195 192/192/192 194/194/194
f 193/193/193 196/196/196 194/194/194
f 197/197/197 195/195/195 194/194/194
f 194/194/194 196/196/196 197/197/197
f 196/196/196 198/198/198 197/197/197
