g Axe_LOD0
v 0.05219445 0.04552523 -0.1803817
v 0.06106885 0.0249129 -0.1802515
v 0.04632892 0.0249129 -0.1789317
v 0.0603144 0.04567781 -0.2984869
v 0.05470308 0.0249129 -0.3004062
v 0.06914188 0.0249129 -0.2975605
v 0.05219445 0.00430054 -0.1803817
v 0.04632892 0.0249129 -0.1789317
v 0.06106885 0.0249129 -0.1802515
v 0.0603144 0.004147952 -0.2984869
v 0.06914188 0.0249129 -0.2975605
v 0.05470308 0.0249129 -0.3004062
v -0.1168245 0.04982677 -0.1769713
v -0.1964662 0.0249129 -0.1693195
v -0.192621 0.0249129 -0.3274119
v -0.107416 0.05005858 -0.3196261
v -0.02859159 0.05792365 -0.1796224
v -0.01995282 0.05815182 -0.3088979
v 0.02735258 0.05787987 -0.1801261
v 0.0355076 0.05810729 -0.3017315
v 0.0355076 0.05810729 -0.3017315
v 0.0603144 0.04567781 -0.2984869
v 0.05219445 0.04552523 -0.1803817
v 0.02735258 0.05787987 -0.1801261
v 0.05530817 0.0249129 -0.1497642
v 0.03838258 0.04632086 -0.3247319
v 0.05070666 0.0249129 -0.3236299
v 0.04347105 0.04534138 -0.1497642
v 0.04480802 0.0249129 -0.1253242
v 0.02183462 0.05301169 -0.3262117
v 0.0329737 0.0453451 -0.1253242
v 0.03247822 0.0249129 -0.003733546
v 0.02772119 0.05169389 -0.1497642
v -0.02259414 0.05169389 -0.1497642
v -0.001923521 0.05301169 -0.3283365
v -0.01827829 0.04633221 -0.3297992
v 0.002547576 0.05169389 -0.1253242
v 0.020689 0.0453538 -0.003734589
v -7.064547E-05 0.05169389 -0.003735214
v 0.02093789 0.04535681 0.07939833
v 0.03271832 0.0249129 0.07939741
v 0.03930822 0.0249129 0.1836376
v 0.002554471 0.05169389 0.07939884
v 0.027536 0.04535699 0.1836376
v 0.03470352 0.0249129 0.2799661
v -0.03831951 0.04530803 -0.1497642
v 0.002547576 0.05169389 -0.1253242
v -0.05006992 0.0249129 -0.1497642
v -0.03056102 0.0249129 -0.3308979
v -0.03956978 0.0249129 -0.1253242
v -0.02782949 0.04531139 -0.1253242
v -7.064547E-05 0.05169389 -0.003735214
v -0.02078019 0.04531041 -0.003734648
v -0.03247714 0.0249129 -0.003733665
v -0.02746228 0.0249129 0.07939717
v -0.01577833 0.045304 0.07939824
v 0.009148389 0.04965848 0.1836376
v 0.009148389 0.04965848 0.1836376
v -0.009204525 0.0452916 0.1836376
v -0.02087237 0.0249129 0.1836376
v 0.004455273 0.04973787 0.2799659
v 0.02287867 0.04543636 0.2799665
v 0.004455273 0.04973787 0.2799659
v -0.01392707 0.04535213 0.2799647
v -0.02563135 0.0249129 0.2799638
v -0.0136582 0.05037263 0.360905
v -0.04513114 0.02491293 0.3621239
v -0.03442075 0.04236943 0.3617091
v 0.005863226 0.04251886 0.360149
v -0.0136582 0.05037263 0.360905
v 0.01676343 0.02491293 0.3597268
v -0.03442075 0.04236943 0.3617091
v -0.01411865 0.02491293 0.3609228
v -0.04513114 0.02491293 0.3621239
v -0.0136582 0.05037263 0.360905
v 0.005863226 0.04251886 0.360149
v 0.01676343 0.02491293 0.3597268
v 0.01048886 0.0249129 -0.3295606
v -0.01827829 0.04633221 -0.3297992
v -0.03056102 0.0249129 -0.3308979
v -0.001923521 0.05301169 -0.3283365
v 0.02183462 0.05301169 -0.3262117
v 0.03838258 0.04632086 -0.3247319
v 0.05070666 0.0249129 -0.3236299
v 0.02735258 0.05787987 -0.1801261
v 0.05219445 0.04552523 -0.1803817
v 0.04632892 0.0249129 -0.1789317
v 0.02707178 0.0249129 -0.1787966
v -0.02859159 0.05792365 -0.1796224
v -0.0286729 0.0249129 -0.1784057
v -0.1168245 0.04982677 -0.1769713
v -0.1168245 0.02245918 -0.1769713
v -0.1964662 0.0249129 -0.1693195
v 0.03542529 0.0249129 -0.3028592
v 0.05470308 0.0249129 -0.3004062
v 0.0603144 0.04567781 -0.2984869
v 0.0355076 0.05810729 -0.3017315
v -0.01988603 0.0249129 -0.3098973
v -0.01995282 0.05815182 -0.3088979
v -0.107416 0.05005858 -0.3196261
v -0.107416 0.0249129 -0.3196261
v -0.192621 0.0249129 -0.3274119
v 0.0603144 0.04567781 -0.2984869
v 0.06914188 0.0249129 -0.2975605
v 0.06106885 0.0249129 -0.1802515
v 0.05219445 0.04552523 -0.1803817
v -0.1168245 -9.783544E-07 -0.1769713
v -0.192621 0.0249129 -0.3274119
v -0.1964662 0.0249129 -0.1693195
v -0.107416 -0.0002328106 -0.3196261
v -0.02859159 -0.008097852 -0.1796224
v -0.01995282 -0.008326048 -0.3088979
v 0.02735258 -0.008054102 -0.1801261
v 0.0355076 -0.008281523 -0.3017315
v 0.0355076 -0.008281523 -0.3017315
v 0.02735258 -0.008054102 -0.1801261
v 0.05219445 0.00430054 -0.1803817
v 0.0603144 0.004147952 -0.2984869
v 0.05530817 0.0249129 -0.1497642
v 0.05070666 0.0249129 -0.3236299
v 0.03838258 0.003504907 -0.3247319
v 0.04347105 0.00448442 -0.1497642
v 0.04480802 0.0249129 -0.1253242
v 0.02183462 -0.003185923 -0.3262117
v 0.0329737 0.004480695 -0.1253242
v 0.03247822 0.0249129 -0.003733546
v 0.02772119 -0.001868094 -0.1497642
v -0.02259414 -0.001868094 -0.1497642
v -0.001923521 -0.003185923 -0.3283365
v -0.01827829 0.003493552 -0.3297992
v 0.002547576 -0.001868094 -0.1253242
v 0.020689 0.004471993 -0.003734585
v -7.064547E-05 -0.001868094 -0.003735214
v 0.02093789 0.004468983 0.07939833
v 0.03271832 0.0249129 0.07939741
v 0.03930822 0.0249129 0.1836376
v 0.002554471 -0.001868094 0.07939884
v 0.027536 0.004468834 0.1836376
v 0.03470352 0.0249129 0.2799661
v -0.03831951 0.004517739 -0.1497642
v 0.002547576 -0.001868094 -0.1253242
v -0.05006992 0.0249129 -0.1497642
v -0.03056102 0.0249129 -0.3308979
v -0.03956978 0.0249129 -0.1253242
v -0.02782949 0.004514401 -0.1253242
v -7.064547E-05 -0.001868094 -0.003735214
v -0.02078019 0.004515385 -0.003734648
v -0.03247714 0.0249129 -0.003733665
v -0.02746228 0.0249129 0.07939717
v -0.01577833 0.004521792 0.07939824
v 0.009148389 0.0001673154 0.1836376
v 0.009148389 0.0001673154 0.1836376
v -0.009204525 0.00453422 0.1836376
v -0.02087237 0.0249129 0.1836376
v 0.004455273 8.795178E-05 0.2799659
v 0.02287867 0.00438947 0.2799665
v 0.004455273 8.795178E-05 0.2799659
v -0.01392707 0.004473691 0.2799647
v -0.02563135 0.0249129 0.2799638
v -0.0136582 -0.0005468078 0.360905
v -0.04513114 0.02491293 0.3621239
v -0.03442075 0.007456397 0.3617091
v 0.005863226 0.007306968 0.360149
v -0.0136582 -0.0005468078 0.360905
v 0.01676343 0.02491293 0.3597268
v -0.03442075 0.007456397 0.3617091
v -0.04513114 0.02491293 0.3621239
v -0.01411865 0.02491293 0.3609228
v -0.0136582 -0.0005468078 0.360905
v 0.005863226 0.007306968 0.360149
v 0.01676343 0.02491293 0.3597268
v 0.01048886 0.0249129 -0.3295606
v -0.03056102 0.0249129 -0.3308979
v -0.01827829 0.003493552 -0.3297992
v -0.001923521 -0.003185923 -0.3283365
v 0.02183462 -0.003185923 -0.3262117
v 0.03838258 0.003504907 -0.3247319
v 0.05070666 0.0249129 -0.3236299
v 0.02735258 -0.008054102 -0.1801261
v 0.04632892 0.0249129 -0.1789317
v 0.05219445 0.00430054 -0.1803817
v 0.02707178 0.0249129 -0.1787966
v -0.02859159 -0.008097852 -0.1796224
v -0.0286729 0.0249129 -0.1784057
v -0.1168245 -9.783544E-07 -0.1769713
v -0.1168245 0.02736658 -0.1769713
v -0.1964662 0.0249129 -0.1693195
v 0.03542529 0.0249129 -0.3028592
v 0.0603144 0.004147952 -0.2984869
v 0.05470308 0.0249129 -0.3004062
v 0.0355076 -0.008281523 -0.3017315
v -0.01988603 0.0249129 -0.3098973
v -0.01995282 -0.008326048 -0.3088979
v -0.107416 -0.0002328106 -0.3196261
v -0.107416 0.0249129 -0.3196261
v -0.192621 0.0249129 -0.3274119
v 0.0603144 0.004147952 -0.2984869
v 0.05219445 0.00430054 -0.1803817
v 0.06106885 0.0249129 -0.1802515
v 0.06914188 0.0249129 -0.2975605
vt 0.7107852 0.2087569
vt 0.7184207 0.2106007
vt 0.7183425 0.2030737
vt 0.664963 0.2285931
vt 0.6726506 0.234179
vt 0.6726296 0.2266936
vt 0.7107852 0.2087569
vt 0.7183425 0.2030737
vt 0.7184207 0.2106007
vt 0.664963 0.2285931
vt 0.6726296 0.2266936
vt 0.6726506 0.234179
vt 0.09465185 0.1375173
vt 0.1041631 0.09596182
vt 0.02421044 0.08715967
vt 0.02217909 0.1324656
vt 0.08736157 0.182109
vt 0.02140913 0.1775603
vt 0.08334099 0.2104073
vt 0.02111004 0.206129
vt 0.8357365 0.7248476
vt 0.8250467 0.7256787
vt 0.8242087 0.7861159
vt 0.8348337 0.7873874
vt 0.56872 0.9161189
vt 0.5530477 0.9893858
vt 0.565528 0.9901319
vt 0.5564488 0.9163772
vt 0.5660569 0.9026689
vt 0.5452467 0.9901047
vt 0.5524899 0.9037549
vt 0.558449 0.8373819
vt 0.5483674 0.9161004
vt 0.5238679 0.9165178
vt 0.5345508 0.9910147
vt 0.5266861 0.9916202
vt 0.5436283 0.9036113
vt 0.5447357 0.8381525
vt 0.5356922 0.8385398
vt 0.5427262 0.7935827
vt 0.5564597 0.7930697
vt 0.5563937 0.7373853
vt 0.5323147 0.7941378
vt 0.542779 0.7378725
vt 0.5531489 0.6864235
vt 0.5158902 0.917078
vt 0.5283529 0.9039506
vt 0.5037472 0.9175355
vt 0.5143632 0.9940828
vt 0.5054922 0.9039552
vt 0.5193407 0.9042261
vt 0.5302162 0.8387519
vt 0.5212121 0.839047
vt 0.5075615 0.8391058
vt 0.5083895 0.79484
vt 0.521962 0.7946205
vt 0.5357469 0.7381484
vt 0.5294911 0.73838
vt 0.5224158 0.7386241
vt 0.5087197 0.7390536
vt 0.5262243 0.6870064
vt 0.5394685 0.6871756
vt 0.5324292 0.6871187
vt 0.5191625 0.6869262
vt 0.5054738 0.6876732
vt 0.5221883 0.6449239
vt 0.4994334 0.6440645
vt 0.5112525 0.6441631
vt 0.5326824 0.6450108
vt 0.5221883 0.6449239
vt 0.5446189 0.6431195
vt 0.3412201 0.1033067
vt 0.3498819 0.1125941
vt 0.3498819 0.09840763
vt 0.337562 0.1128038
vt 0.3411517 0.1217332
vt 0.3498819 0.1267192
vt 0.3646428 0.1024697
vt 0.3535906 0.1170544
vt 0.3646809 0.1233268
vt 0.3501931 0.1087025
vt 0.3501931 0.09656999
vt 0.3535964 0.08811948
vt 0.3646784 0.08182579
vt 0.7014227 0.1936684
vt 0.7049742 0.2036811
vt 0.7183425 0.2030737
vt 0.7182007 0.1932796
vt 0.7009938 0.165215
vt 0.7177935 0.1649279
vt 0.7045019 0.1202642
vt 0.7184207 0.1200716
vt 0.7166097 0.07939731
vt 0.6726499 0.2440636
vt 0.6726506 0.234179
vt 0.6591816 0.233847
vt 0.6557565 0.2439499
vt 0.6726506 0.272424
vt 0.6557362 0.2723937
vt 0.6598457 0.3172151
vt 0.6726358 0.3172192
vt 0.6726217 0.3607384
vt 0.8171381 0.7259064
vt 0.809218 0.7255291
vt 0.8084052 0.7857683
vt 0.8163911 0.7856293
vt 0.09465185 0.1375173
vt 0.02421044 0.08715967
vt 0.1041631 0.09596182
vt 0.02217909 0.1324656
vt 0.08736157 0.182109
vt 0.02140913 0.1775603
vt 0.08334099 0.2104073
vt 0.02111004 0.206129
vt 0.8357365 0.7248476
vt 0.8348337 0.7873874
vt 0.8242087 0.7861159
vt 0.8250467 0.7256787
vt 0.56872 0.9161189
vt 0.565528 0.9901319
vt 0.5530477 0.9893858
vt 0.5564488 0.9163772
vt 0.5660569 0.9026689
vt 0.5452467 0.9901047
vt 0.5524899 0.9037549
vt 0.558449 0.8373819
vt 0.5483674 0.9161004
vt 0.5238679 0.9165178
vt 0.5345508 0.9910147
vt 0.5266861 0.9916202
vt 0.5436283 0.9036113
vt 0.5447357 0.8381525
vt 0.5356922 0.8385398
vt 0.5427262 0.7935827
vt 0.5564597 0.7930697
vt 0.5563937 0.7373853
vt 0.5323147 0.7941378
vt 0.542779 0.7378725
vt 0.5531489 0.6864235
vt 0.5158902 0.917078
vt 0.5283529 0.9039506
vt 0.5037472 0.9175355
vt 0.5143632 0.9940828
vt 0.5054922 0.9039552
vt 0.5193407 0.9042261
vt 0.5302162 0.8387519
vt 0.5212121 0.839047
vt 0.5075615 0.8391058
vt 0.5083895 0.79484
vt 0.521962 0.7946205
vt 0.5357469 0.7381484
vt 0.5294911 0.73838
vt 0.5224158 0.7386241
vt 0.5087197 0.7390536
vt 0.5262243 0.6870064
vt 0.5394685 0.6871756
vt 0.5324292 0.6871187
vt 0.5191625 0.6869262
vt 0.5054738 0.6876732
vt 0.5221883 0.6449239
vt 0.4994334 0.6440645
vt 0.5112525 0.6441631
vt 0.5326824 0.6450108
vt 0.5221883 0.6449239
vt 0.5446189 0.6431195
vt 0.3412201 0.1033067
vt 0.3498819 0.09840763
vt 0.3498819 0.1125941
vt 0.337562 0.1128038
vt 0.3411517 0.1217332
vt 0.3498819 0.1267192
vt 0.3646428 0.1024697
vt 0.3646809 0.1233268
vt 0.3535906 0.1170544
vt 0.3501931 0.1087025
vt 0.3501931 0.09656999
vt 0.3535964 0.08811948
vt 0.3646784 0.08182579
vt 0.7014227 0.1936684
vt 0.7183425 0.2030737
vt 0.7049742 0.2036811
vt 0.7182007 0.1932796
vt 0.7009938 0.165215
vt 0.7177935 0.1649279
vt 0.7045019 0.1202642
vt 0.7184207 0.1200716
vt 0.7166097 0.07939731
vt 0.6726499 0.2440636
vt 0.6591816 0.233847
vt 0.6726506 0.234179
vt 0.6557565 0.2439499
vt 0.6726506 0.272424
vt 0.6557362 0.2723937
vt 0.6598457 0.3172151
vt 0.6726358 0.3172192
vt 0.6726217 0.3607384
vt 0.8171381 0.7259064
vt 0.8163911 0.7856293
vt 0.8084052 0.7857683
vt 0.809218 0.7255291
vn 0.04133498 0.04794331 0.9979944
vn 0.08918399 0 0.9960151
vn 0.05002597 0 0.9987479
vn 0.1544722 0.04039757 -0.9871709
vn 0.1618443 0 -0.9868163
vn 0.1933676 0 -0.9811264
vn 0.04133491 -0.04794324 0.9979944
vn 0.05002597 0 0.9987479
vn 0.08918399 0 0.9960151
vn 0.1544721 -0.04039751 -0.9871709
vn 0.1933676 0 -0.9811264
vn 0.1618443 0 -0.9868163
vn -0.1998582 0.9797873 -0.008573445
vn -0.2905408 0.9567865 -0.01206644
vn -0.2905408 0.9567865 -0.01206644
vn -0.1945997 0.9808471 -0.008370662
vn -0.04800193 0.9988462 -0.001437131
vn -0.04720625 0.9988843 -0.001383182
vn 0.2183834 0.9757236 0.01649731
vn 0.2202187 0.975309 0.01662032
vn 0.2202187 0.975309 0.01662032
vn 0.7197276 0.6924395 0.05019619
vn 0.718204 0.6940271 0.05009383
vn 0.2183834 0.9757236 0.01649731
vn 0.9842169 0 0.1769662
vn 0.6417058 0.7668144 -0.01446512
vn 0.999658 1.267447E-07 -0.02614963
vn 0.6556454 0.7416853 0.1415346
vn 0.9647463 0 0.2631817
vn 0.1762299 0.9843481 0.001408406
vn 0.5713463 0.8025555 0.1716624
vn 0.998762 0 0.04974294
vn 0.1964078 0.9778835 0.07188753
vn -0.2023319 0.9772463 0.06365182
vn -0.1882165 0.9820208 -0.01448381
vn -0.6513376 0.7557205 -0.06815928
vn 0.000937395 0.9985436 0.05394144
vn 0.6068203 0.794455 0.02470612
vn -0.005952876 0.9999552 0.00737272
vn 0.6185304 0.7855373 -0.01874779
vn 0.9994428 0 -0.0333793
vn 0.9999715 -2.008192E-07 -0.007553968
vn -0.004097532 0.999963 0.007559132
vn 0.6152972 0.7882887 -0.003203024
vn 0.9912106 -2.260773E-07 0.1322937
vn -0.6636379 0.7392246 0.1145933
vn 0.000937395 0.9985436 0.05394144
vn -0.9904366 2.680207E-07 0.1379689
vn -0.9942325 3.698124E-07 -0.1072459
vn -0.9700114 0 0.2430596
vn -0.5712831 0.8052023 0.1590119
vn -0.005952876 0.9999552 0.00737272
vn -0.6164239 0.7867367 0.03266396
vn -0.9982527 0 0.05908934
vn -0.9981024 0 0.06157636
vn -0.625121 0.7795138 0.03977563
vn 0.00727412 0.9999645 0.004268845
vn 0.00727412 0.9999645 0.004268845
vn -0.6005922 0.7995217 0.007345382
vn -0.9999756 -2.043176E-07 0.006991677
vn 0.01767934 0.9997938 0.009984579
vn 0.6151439 0.7833666 0.08907811
vn 0.01767934 0.9997938 0.009984579
vn -0.592827 0.8013197 -0.08026811
vn -0.9897743 -1.920446E-07 -0.1426419
vn -0.04729542 0.9988808 0.0004587118
vn -0.9738511 0 -0.2271871
vn -0.6573337 0.738993 -0.1476542
vn 0.5863811 0.7977843 0.1403473
vn -0.04729542 0.9988808 0.0004587118
vn 0.9746882 1.412189E-07 0.223569
vn 0.03869999 0 0.9992508
vn 0.03870012 0 0.9992508
vn 0.03869937 0 0.9992508
vn 0.03870055 6.154712E-07 0.9992508
vn 0.03870003 -4.208841E-07 0.9992508
vn 0.03869982 0 0.9992508
vn 0.08944071 0 -0.9959921
vn 0.04412396 0.04814515 -0.9978653
vn 0.03255992 0 -0.9994698
vn 0.07237834 0.07529895 -0.9945307
vn 0.1050479 0.07576338 -0.9915769
vn 0.1339167 0.04876738 -0.9897919
vn 0.1458873 0 -0.9893013
vn 0.01411509 0.04297846 0.9989762
vn 0.04133498 0.04794331 0.9979944
vn 0.05002597 0 0.9987479
vn 0.01529891 0 0.9998829
vn 0.01476339 0.02961099 0.9994524
vn 0.01506523 0 0.9998865
vn 0.05388792 0.01141455 0.9984818
vn 0.05880256 0.01007342 0.9982187
vn 0.09563752 0 0.9954162
vn 0.1333716 0 -0.991066
vn 0.1618443 0 -0.9868163
vn 0.1544722 0.04039757 -0.9871709
vn 0.1322794 0.03564394 -0.9905714
vn 0.1212612 0 -0.9926206
vn 0.1214138 0.02464958 -0.9922959
vn 0.1047236 0.009665052 -0.9944544
vn 0.1031705 0 -0.9946637
vn 0.09099808 0 -0.995851
vn 0.7197276 0.6924395 0.05019619
vn 0.9976236 3.2733E-07 0.06889931
vn 0.9976236 3.461994E-07 0.06889933
vn 0.718204 0.6940271 0.05009383
vn -0.1998583 -0.9797873 -0.008573304
vn -0.290541 -0.9567865 -0.01206636
vn -0.290541 -0.9567865 -0.01206636
vn -0.1945998 -0.9808471 -0.008370516
vn -0.048002 -0.9988462 -0.001436967
vn -0.04720633 -0.9988843 -0.00138302
vn 0.2183833 -0.9757236 0.01649737
vn 0.2202186 -0.975309 0.01662038
vn 0.2202186 -0.975309 0.01662038
vn 0.2183833 -0.9757236 0.01649737
vn 0.7182042 -0.6940269 0.05009381
vn 0.7197279 -0.6924394 0.05019618
vn 0.9842169 0 0.1769662
vn 0.999658 1.267447E-07 -0.02614963
vn 0.6417058 -0.7668144 -0.01446501
vn 0.6556454 -0.7416853 0.1415347
vn 0.9647463 0 0.2631817
vn 0.1762299 -0.9843481 0.001408573
vn 0.5713463 -0.8025554 0.1716625
vn 0.998762 0 0.04974294
vn 0.1964078 -0.9778835 0.07188761
vn -0.2023314 -0.9772463 0.06365196
vn -0.1882161 -0.9820208 -0.01448364
vn -0.6513376 -0.7557206 -0.06815922
vn 0.0009375087 -0.9985436 0.05394146
vn 0.6068203 -0.7944549 0.0247061
vn -0.005952877 -0.9999552 0.007372722
vn 0.6185304 -0.7855372 -0.01874774
vn 0.9994428 0 -0.0333793
vn 0.9999715 -2.008192E-07 -0.007553968
vn -0.004097558 -0.999963 0.007559204
vn 0.6152974 -0.7882886 -0.003202946
vn 0.9912106 -2.260773E-07 0.1322937
vn -0.6636378 -0.7392247 0.1145935
vn 0.0009375087 -0.9985436 0.05394146
vn -0.9904366 2.680207E-07 0.1379689
vn -0.9942325 3.698124E-07 -0.1072459
vn -0.9700114 0 0.2430596
vn -0.5712831 -0.8052024 0.1590121
vn -0.005952877 -0.9999552 0.007372722
vn -0.616424 -0.7867367 0.03266396
vn -0.9982527 0 0.05908934
vn -0.9981024 0 0.06157636
vn -0.6251211 -0.7795137 0.03977569
vn 0.007274195 -0.9999645 0.004269
vn 0.007274195 -0.9999645 0.004269
vn -0.6005924 -0.7995216 0.007345463
vn -0.9999756 -2.043176E-07 0.006991677
vn 0.01767935 -0.9997938 0.009984653
vn 0.6151439 -0.7833665 0.08907821
vn 0.01767935 -0.9997938 0.009984653
vn -0.5928271 -0.8013196 -0.08026803
vn -0.9897743 -1.920446E-07 -0.1426419
vn -0.04729552 -0.9988808 0.0004587093
vn -0.9738511 0 -0.2271871
vn -0.6573339 -0.7389929 -0.147654
vn 0.5863811 -0.7977841 0.1403474
vn -0.04729552 -0.9988808 0.0004587093
vn 0.9746882 1.412189E-07 0.223569
vn 0.03869998 0 0.9992508
vn 0.03869937 0 0.9992508
vn 0.03870012 0 0.9992508
vn 0.03870055 -6.154705E-07 0.9992508
vn 0.03870003 4.208815E-07 0.9992508
vn 0.03869982 0 0.9992508
vn 0.08944071 0 -0.9959921
vn 0.03255992 0 -0.9994698
vn 0.04412398 -0.0481451 -0.9978653
vn 0.07237836 -0.07529887 -0.9945307
vn 0.1050479 -0.07576331 -0.9915769
vn 0.1339167 -0.04876734 -0.989792
vn 0.1458873 0 -0.9893013
vn 0.01411508 -0.04297836 0.9989763
vn 0.05002597 0 0.9987479
vn 0.04133491 -0.04794324 0.9979944
vn 0.01529891 0 0.9998829
vn 0.01476339 -0.02961103 0.9994524
vn 0.01506523 0 0.9998865
vn 0.05388792 -0.01141469 0.9984818
vn 0.05880255 -0.01007354 0.9982187
vn 0.0956375 0 0.9954162
vn 0.1333716 0 -0.991066
vn 0.1544721 -0.04039751 -0.9871709
vn 0.1618443 0 -0.9868163
vn 0.1322794 -0.03564405 -0.9905714
vn 0.1212612 0 -0.9926206
vn 0.1214138 -0.02464968 -0.9922959
vn 0.1047236 -0.009665042 -0.9944544
vn 0.1031705 0 -0.9946637
vn 0.09099808 0 -0.995851
vn 0.7197279 -0.6924394 0.05019618
vn 0.7182042 -0.6940269 0.05009381
vn 0.9976236 3.461994E-07 0.06889933
vn 0.9976236 3.2733E-07 0.06889931
g Axe_LOD0_0
f 3/3/3 2/2/2 1/1/1
f 6/6/6 5/5/5 4/4/4
f 9/9/9 8/8/8 7/7/7
f 12/12/12 11/11/11 10/10/10
f 15/15/15 14/14/14 13/13/13
f 16/16/16 15/15/15 13/13/13
f 16/16/16 13/13/13 17/17/17
f 18/18/18 16/16/16 17/17/17
f 18/18/18 17/17/17 19/19/19
f 20/20/20 18/18/18 19/19/19
f 23/23/23 22/22/22 21/21/21
f 24/24/24 23/23/23 21/21/21
f 27/27/27 26/26/26 25/25/25
f 26/26/26 28/28/28 25/25/25
f 25/25/25 28/28/28 29/29/29
f 26/26/26 30/30/30 28/28/28
f 28/28/28 31/31/31 29/29/29
f 29/29/29 31/31/31 32/32/32
f 30/30/30 33/33/33 28/28/28
f 31/31/31 28/28/28 33/33/33
f 33/33/33 30/30/30 34/34/34
f 30/30/30 35/35/35 34/34/34
f 35/35/35 36/36/36 34/34/34
f 37/37/37 31/31/31 33/33/33
f 33/33/33 34/34/34 37/37/37
f 31/31/31 37/37/37 38/38/38
f 31/31/31 38/38/38 32/32/32
f 37/37/37 39/39/39 38/38/38
f 38/38/38 40/40/40 32/32/32
f 40/40/40 38/38/38 39/39/39
f 40/40/40 41/41/41 32/32/32
f 41/41/41 40/40/40 42/42/42
f 43/43/43 40/40/40 39/39/39
f 40/40/40 44/44/44 42/42/42
f 40/40/40 43/43/43 44/44/44
f 42/42/42 44/44/44 45/45/45
f 36/36/36 46/46/46 34/34/34
f 34/34/34 46/46/46 47/47/47
f 48/48/48 46/46/46 36/36/36
f 49/49/49 48/48/48 36/36/36
f 48/48/48 50/50/50 46/46/46
f 46/46/46 51/51/51 47/47/47
f 50/50/50 51/51/51 46/46/46
f 47/47/47 51/51/51 52/52/52
f 51/51/51 50/50/50 53/53/53
f 51/51/51 53/53/53 52/52/52
f 52/52/52 53/53/53 43/43/43
f 50/50/50 54/54/54 53/53/53
f 54/54/54 55/55/55 53/53/53
f 53/53/53 56/56/56 43/43/43
f 55/55/55 56/56/56 53/53/53
f 43/43/43 57/57/57 44/44/44
f 43/43/43 56/56/56 58/58/58
f 59/59/59 56/56/56 55/55/55
f 56/56/56 59/59/59 58/58/58
f 60/60/60 59/59/59 55/55/55
f 61/61/61 58/58/58 59/59/59
f 62/62/62 44/44/44 57/57/57
f 63/63/63 62/62/62 57/57/57
f 44/44/44 62/62/62 45/45/45
f 64/64/64 59/59/59 60/60/60
f 64/64/64 61/61/61 59/59/59
f 65/65/65 64/64/64 60/60/60
f 66/66/66 61/61/61 64/64/64
f 64/64/64 65/65/65 67/67/67
f 68/68/68 66/66/66 64/64/64
f 68/68/68 64/64/64 67/67/67
f 69/69/69 62/62/62 63/63/63
f 45/45/45 62/62/62 69/69/69
f 70/70/70 69/69/69 63/63/63
f 71/71/71 45/45/45 69/69/69
f 74/74/74 73/73/73 72/72/72
f 72/72/72 73/73/73 75/75/75
f 75/75/75 73/73/73 76/76/76
f 77/77/77 76/76/76 73/73/73
f 80/80/80 79/79/79 78/78/78
f 81/81/81 78/78/78 79/79/79
f 82/82/82 78/78/78 81/81/81
f 83/83/83 78/78/78 82/82/82
f 84/84/84 78/78/78 83/83/83
f 87/87/87 86/86/86 85/85/85
f 88/88/88 87/87/87 85/85/85
f 88/88/88 85/85/85 89/89/89
f 90/90/90 88/88/88 89/89/89
f 90/90/90 89/89/89 91/91/91
f 92/92/92 90/90/90 91/91/91
f 92/92/92 91/91/91 93/93/93
f 96/96/96 95/95/95 94/94/94
f 97/97/97 96/96/96 94/94/94
f 94/94/94 98/98/98 97/97/97
f 98/98/98 99/99/99 97/97/97
f 100/100/100 99/99/99 98/98/98
f 101/101/101 100/100/100 98/98/98
f 102/102/102 100/100/100 101/101/101
f 105/105/105 104/104/104 103/103/103
f 106/106/106 105/105/105 103/103/103
f 109/109/109 108/108/108 107/107/107
f 108/108/108 110/110/110 107/107/107
f 107/107/107 110/110/110 111/111/111
f 110/110/110 112/112/112 111/111/111
f 111/111/111 112/112/112 113/113/113
f 112/112/112 114/114/114 113/113/113
f 117/117/117 116/116/116 115/115/115
f 118/118/118 117/117/117 115/115/115
f 121/121/121 120/120/120 119/119/119
f 122/122/122 121/121/121 119/119/119
f 122/122/122 119/119/119 123/123/123
f 124/124/124 121/121/121 122/122/122
f 125/125/125 122/122/122 123/123/123
f 125/125/125 123/123/123 126/126/126
f 127/127/127 124/124/124 122/122/122
f 122/122/122 125/125/125 127/127/127
f 124/124/124 127/127/127 128/128/128
f 129/129/129 124/124/124 128/128/128
f 130/130/130 129/129/129 128/128/128
f 125/125/125 131/131/131 127/127/127
f 128/128/128 127/127/127 131/131/131
f 131/131/131 125/125/125 132/132/132
f 132/132/132 125/125/125 126/126/126
f 133/133/133 131/131/131 132/132/132
f 134/134/134 132/132/132 126/126/126
f 132/132/132 134/134/134 133/133/133
f 135/135/135 134/134/134 126/126/126
f 134/134/134 135/135/135 136/136/136
f 134/134/134 137/137/137 133/133/133
f 138/138/138 134/134/134 136/136/136
f 137/137/137 134/134/134 138/138/138
f 138/138/138 136/136/136 139/139/139
f 140/140/140 130/130/130 128/128/128
f 140/140/140 128/128/128 141/141/141
f 140/140/140 142/142/142 130/130/130
f 142/142/142 143/143/143 130/130/130
f 144/144/144 142/142/142 140/140/140
f 145/145/145 140/140/140 141/141/141
f 145/145/145 144/144/144 140/140/140
f 145/145/145 141/141/141 146/146/146
f 144/144/144 145/145/145 147/147/147
f 147/147/147 145/145/145 146/146/146
f 147/147/147 146/146/146 137/137/137
f 148/148/148 144/144/144 147/147/147
f 149/149/149 148/148/148 147/147/147
f 150/150/150 147/147/147 137/137/137
f 150/150/150 149/149/149 147/147/147
f 151/151/151 137/137/137 138/138/138
f 150/150/150 137/137/137 152/152/152
f 150/150/150 153/153/153 149/149/149
f 153/153/153 150/150/150 152/152/152
f 153/153/153 154/154/154 149/149/149
f 152/152/152 155/155/155 153/153/153
f 138/138/138 156/156/156 151/151/151
f 156/156/156 157/157/157 151/151/151
f 156/156/156 138/138/138 139/139/139
f 153/153/153 158/158/158 154/154/154
f 155/155/155 158/158/158 153/153/153
f 158/158/158 159/159/159 154/154/154
f 155/155/155 160/160/160 158/158/158
f 159/159/159 158/158/158 161/161/161
f 160/160/160 162/162/162 158/158/158
f 158/158/158 162/162/162 161/161/161
f 156/156/156 163/163/163 157/157/157
f 156/156/156 139/139/139 163/163/163
f 163/163/163 164/164/164 157/157/157
f 139/139/139 165/165/165 163/163/163
f 168/168/168 167/167/167 166/166/166
f 168/168/168 166/166/166 169/169/169
f 168/168/168 169/169/169 170/170/170
f 170/170/170 171/171/171 168/168/168
f 174/174/174 173/173/173 172/172/172
f 172/172/172 175/175/175 174/174/174
f 172/172/172 176/176/176 175/175/175
f 172/172/172 177/177/177 176/176/176
f 172/172/172 178/178/178 177/177/177
f 181/181/181 180/180/180 179/179/179
f 180/180/180 182/182/182 179/179/179
f 179/179/179 182/182/182 183/183/183
f 182/182/182 184/184/184 183/183/183
f 183/183/183 184/184/184 185/185/185
f 184/184/184 186/186/186 185/185/185
f 185/185/185 186/186/186 187/187/187
f 190/190/190 189/189/189 188/188/188
f 189/189/189 191/191/191 188/188/188
f 192/192/192 188/188/188 191/191/191
f 193/193/193 192/192/192 191/191/191
f 193/193/193 194/194/194 192/192/192
f 194/194/194 195/195/195 192/192/192
f 194/194/194 196/196/196 195/195/195
f 199/199/199 198/198/198 197/197/197
f 200/200/200 199/199/199 197/197/197
