g Cheese_1_LOD0
v 0.1629028 0.1765072 0.162903
v 0.1622587 0.0002084073 0.1622589
v 0.08781374 0.0002084073 0.2120014
v 0.08816233 0.1765072 0.212843
v -8.308427E-08 0.0002084073 0.2294686
v -9.023562E-08 0.1765072 0.2303795
v -0.08781389 0.0002084073 0.2120013
v -0.0881625 0.1765072 0.2128429
v -0.1622589 0.0002084073 0.1622588
v -0.162903 0.1765072 0.1629029
v -0.2120014 0.0002084073 0.08781383
v -0.212843 0.1765072 0.08816244
v -0.2294686 0.0002084073 1.875127E-09
v -0.2303796 0.1765072 1.695886E-09
v -0.2120014 0.0002084073 -0.08781386
v -0.212843 0.1765072 -0.08816247
v -0.1622589 0.0002084073 -0.1622589
v -0.162903 0.1765072 -0.162903
v -0.08781389 0.0002084073 -0.2120014
v -0.0881625 0.1765072 -0.212843
v -4.843548E-08 0.0002084073 -0.2294686
v -5.544939E-08 0.1765072 -0.2303795
v 0.08781367 0.0002084073 -0.2120014
v 0.08816227 0.1765072 -0.212843
v 0.1622587 0.0002084073 -0.1622589
v 0.1629028 0.1765072 -0.162903
v 0.2120013 0.0002084073 -0.08781386
v 0.2128429 0.1765072 -0.08816247
v 0.2294686 0.0002084073 -1.089165E-08
v 0.2303795 0.1765072 -1.112157E-08
v 0.2120013 0.0002084073 0.08781386
v 0.2128429 0.1765072 0.08816247
v 0.1622587 0.0002084073 0.1622589
v 0.1629028 0.1765072 0.162903
v 0.08781367 0.0002084073 -0.2120014
v -4.843548E-08 0.0002084073 -0.2294686
v -4.632573E-08 0.004074179 0
v 0.1622587 0.0002084073 -0.1622589
v -0.08781389 0.0002084073 -0.2120014
v 0.2120013 0.0002084073 -0.08781386
v -0.1622589 0.0002084073 -0.1622589
v 0.2294686 0.0002084073 -1.089165E-08
v -0.2120014 0.0002084073 -0.08781386
v 0.2120013 0.0002084073 0.08781386
v -0.2294686 0.0002084073 1.875127E-09
v 0.1622587 0.0002084073 0.1622589
v -0.2120014 0.0002084073 0.08781383
v 0.08781374 0.0002084073 0.2120014
v -0.1622589 0.0002084073 0.1622588
v -8.308427E-08 0.0002084073 0.2294686
v -0.08781389 0.0002084073 0.2120013
v -0.0881625 0.1765072 -0.212843
v -5.544939E-08 0.1765072 -0.2303795
v -1.043081E-07 0.1726415 -4.754284E-09
v -0.162903 0.1765072 -0.162903
v 0.08816227 0.1765072 -0.212843
v -0.212843 0.1765072 -0.08816247
v 0.1629028 0.1765072 -0.162903
v -0.2303796 0.1765072 1.695886E-09
v 0.2128429 0.1765072 -0.08816247
v -0.212843 0.1765072 0.08816244
v 0.2303795 0.1765072 -1.112157E-08
v -0.162903 0.1765072 0.1629029
v 0.2128429 0.1765072 0.08816247
v -0.0881625 0.1765072 0.2128429
v 0.1629028 0.1765072 0.162903
v -9.023562E-08 0.1765072 0.2303795
v 0.08816233 0.1765072 0.212843
vt 0.1121216 0.9931641
vt 0.194458 0.9931641
vt 0.194458 0.9624023
vt 0.1121216 0.9624023
vt 0.194458 0.9316406
vt 0.1121216 0.9316406
vt 0.194458 0.9003906
vt 0.1121216 0.9003906
vt 0.194458 0.8696289
vt 0.1121216 0.8696289
vt 0.194458 0.8388672
vt 0.1121216 0.8388672
vt 0.194458 0.8081055
vt 0.1121216 0.8081055
vt 0.194458 0.7773438
vt 0.1121216 0.7773438
vt 0.194458 0.746582
vt 0.1121216 0.746582
vt 0.194458 0.715332
vt 0.1121216 0.715332
vt 0.194458 0.6845703
vt 0.1121216 0.6845703
vt 0.194458 0.6538086
vt 0.1121216 0.6538086
vt 0.194458 0.6230469
vt 0.1121216 0.6230469
vt 0.194458 0.5922852
vt 0.1121216 0.5922852
vt 0.194458 0.5610352
vt 0.1121216 0.5610352
vt 0.194458 0.5302734
vt 0.1121216 0.5302734
vt 0.194458 0.4995117
vt 0.1121216 0.4995117
vt 0.3271484 0.5302734
vt 0.317627 0.5068359
vt 0.2636719 0.5429688
vt 0.3271484 0.5551758
vt 0.2998047 0.4890137
vt 0.317627 0.5786133
vt 0.2763672 0.479248
vt 0.2998047 0.5966797
vt 0.2512207 0.479248
vt 0.2763672 0.6064453
vt 0.2277832 0.4890137
vt 0.2512207 0.6064453
vt 0.2099609 0.5068359
vt 0.2277832 0.5966797
vt 0.2003174 0.5302734
vt 0.2099609 0.5786133
vt 0.2003174 0.5551758
vt 0.2003174 0.6572266
vt 0.2003174 0.6826172
vt 0.2636719 0.6699219
vt 0.2099609 0.6337891
vt 0.2099609 0.7055664
vt 0.2277832 0.6162109
vt 0.2277832 0.7236328
vt 0.2512207 0.6064453
vt 0.2512207 0.7333984
vt 0.2763672 0.6064453
vt 0.2763672 0.7333984
vt 0.2998047 0.6162109
vt 0.2998047 0.7236328
vt 0.317627 0.6337891
vt 0.317627 0.7055664
vt 0.3271484 0.6572266
vt 0.3271484 0.6826172
vn 0.7070313 -0.0051651 0.7070313
vn 0.7070313 -0.0051651 0.7070313
vn 0.3825684 -0.0051651 0.9238281
vn 0.3825684 -0.0051651 0.9238281
vn -2.980232E-07 -0.0051651 1
vn -3.576279E-07 -0.0051651 1
vn -0.3825684 -0.0051651 0.9238281
vn -0.3825684 -0.0051651 0.9238281
vn -0.7070313 -0.0051651 0.7070313
vn -0.7070313 -0.0051651 0.7070313
vn -0.9238281 -0.0051651 0.3825684
vn -0.9238281 -0.0051651 0.3825684
vn -1 -0.0051651 0
vn -1 -0.0051651 0
vn -0.9238281 -0.0051651 -0.3825684
vn -0.9238281 -0.0051651 -0.3825684
vn -0.7070313 -0.0051651 -0.7070313
vn -0.7070313 -0.0051651 -0.7070313
vn -0.3825684 -0.0051651 -0.9238281
vn -0.3825684 -0.0051651 -0.9238281
vn 1.192093E-07 -0.0051651 -1
vn 1.192093E-07 -0.0051651 -1
vn 0.3825684 -0.0051651 -0.9238281
vn 0.3825684 -0.0051651 -0.9238281
vn 0.7070313 -0.0051651 -0.7070313
vn 0.7070313 -0.0051651 -0.7070313
vn 0.9238281 -0.0051651 -0.3825684
vn 0.9238281 -0.0051651 -0.3825684
vn 1 -0.0051651 0
vn 1 -0.0051651 0
vn 0.9238281 -0.0051651 0.3825684
vn 0.9238281 -0.0051651 0.3825684
vn 0.7070313 -0.0051651 0.7070313
vn 0.7070313 -0.0051651 0.7070313
vn -0.006446838 -1 0.01556396
vn 0 -1 0.0168457
vn 0 -1 0
vn -0.01190948 -1 0.01190948
vn 0.006446838 -1 0.01556396
vn -0.01556396 -1 0.006446838
vn 0.01190948 -1 0.01190948
vn -0.0168457 -1 0
vn 0.01556396 -1 0.006446838
vn -0.01556396 -1 -0.006446838
vn 0.0168457 -1 0
vn -0.01190948 -1 -0.01190948
vn 0.01556396 -1 -0.006446838
vn -0.006446838 -1 -0.01556396
vn 0.01190948 -1 -0.01190948
vn 0 -1 -0.0168457
vn 0.006446838 -1 -0.01556396
vn 0.006420135 1 0.01550293
vn 0 1 0.01678467
vn 0 1 0
vn 0.01186371 1 0.01186371
vn -0.006420135 1 0.01550293
vn 0.01550293 1 0.006420135
vn -0.01186371 1 0.01186371
vn 0.01678467 1 0
vn -0.01550293 1 0.006420135
vn 0.01550293 1 -0.006420135
vn -0.01678467 1 0
vn 0.01186371 1 -0.01186371
vn -0.01550293 1 -0.006420135
vn 0.006420135 1 -0.01550293
vn -0.01186371 1 -0.01186371
vn 0 1 -0.01678467
vn -0.006420135 1 -0.01550293
g Cheese_1_LOD0_0
f 3/3/3 2/2/2 1/1/1
f 4/4/4 3/3/3 1/1/1
f 5/5/5 3/3/3 4/4/4
f 6/6/6 5/5/5 4/4/4
f 7/7/7 5/5/5 6/6/6
f 8/8/8 7/7/7 6/6/6
f 9/9/9 7/7/7 8/8/8
f 10/10/10 9/9/9 8/8/8
f 11/11/11 9/9/9 10/10/10
f 12/12/12 11/11/11 10/10/10
f 13/13/13 11/11/11 12/12/12
f 14/14/14 13/13/13 12/12/12
f 15/15/15 13/13/13 14/14/14
f 16/16/16 15/15/15 14/14/14
f 17/17/17 15/15/15 16/16/16
f 18/18/18 17/17/17 16/16/16
f 19/19/19 17/17/17 18/18/18
f 20/20/20 19/19/19 18/18/18
f 21/21/21 19/19/19 20/20/20
f 22/22/22 21/21/21 20/20/20
f 23/23/23 21/21/21 22/22/22
f 24/24/24 23/23/23 22/22/22
f 25/25/25 23/23/23 24/24/24
f 26/26/26 25/25/25 24/24/24
f 27/27/27 25/25/25 26/26/26
f 28/28/28 27/27/27 26/26/26
f 29/29/29 27/27/27 28/28/28
f 30/30/30 29/29/29 28/28/28
f 31/31/31 29/29/29 30/30/30
f 32/32/32 31/31/31 30/30/30
f 33/33/33 31/31/31 32/32/32
f 34/34/34 33/33/33 32/32/32
f 37/37/37 36/36/36 35/35/35
f 37/37/37 35/35/35 38/38/38
f 37/37/37 39/39/39 36/36/36
f 37/37/37 38/38/38 40/40/40
f 37/37/37 41/41/41 39/39/39
f 40/40/40 42/42/42 37/37/37
f 37/37/37 43/43/43 41/41/41
f 37/37/37 42/42/42 44/44/44
f 37/37/37 45/45/45 43/43/43
f 37/37/37 44/44/44 46/46/46
f 47/47/47 45/45/45 37/37/37
f 37/37/37 46/46/46 48/48/48
f 47/47/47 37/37/37 49/49/49
f 48/48/48 50/50/50 37/37/37
f 37/37/37 51/51/51 49/49/49
f 51/51/51 37/37/37 50/50/50
f 54/54/54 53/53/53 52/52/52
f 54/54/54 52/52/52 55/55/55
f 56/56/56 53/53/53 54/54/54
f 57/57/57 54/54/54 55/55/55
f 56/56/56 54/54/54 58/58/58
f 57/57/57 59/59/59 54/54/54
f 54/54/54 60/60/60 58/58/58
f 54/54/54 59/59/59 61/61/61
f 60/60/60 54/54/54 62/62/62
f 54/54/54 61/61/61 63/63/63
f 64/64/64 62/62/62 54/54/54
f 54/54/54 63/63/63 65/65/65
f 54/54/54 66/66/66 64/64/64
f 65/65/65 67/67/67 54/54/54
f 54/54/54 68/68/68 66/66/66
f 54/54/54 67/67/67 68/68/68
