g Fish
v -0.10239 0.3131677 -0.01025072
v -0.10239 0.3131677 0.005945107
v -0.1450796 0.3576083 -0.0007566161
v -0.123914 0.1914411 -0.0007566163
v -0.08647289 0.14875 0.005945107
v -0.08647289 0.14875 -0.01025072
v 0.07891022 0.4389924 0.003765245
v 0.07891022 0.4389924 -0.006547344
v 0.0988778 0.4652388 -0.002280067
v 0.1112681 0.3874074 -0.002280068
v 0.09479953 0.375157 -0.006547343
v 0.09479953 0.375157 0.003765245
v 0.09496305 0.1878061 0.003765211
v 0.09496305 0.1878061 -0.006547378
v 0.1237014 0.2039828 -0.002280102
v 0.1033526 0.1277083 -0.002280103
v 0.08423647 0.1229033 -0.006547377
v 0.08423647 0.1229033 0.003765211
v -0.130123 0.2727752 -0.0007566164
v -0.123914 0.1914411 -0.0007566163
v -0.08647289 0.14875 -0.01025072
v -0.09443143 0.2309589 -0.01025072
v -0.1450796 0.3576083 -0.0007566161
v -0.10239 0.3131677 -0.01025072
v -0.09443143 0.2309589 0.005945107
v -0.08647289 0.14875 0.005945107
v -0.123914 0.1914411 -0.0007566163
v -0.130123 0.2727752 -0.0007566164
v -0.10239 0.3131677 0.005945107
v -0.1450796 0.3576083 -0.0007566161
v 0.03815752 -0.0004316403 -0.01629307
v 0.05370631 -0.0004316403 -7.906908E-09
v 0.06219968 0.02072299 -7.942665E-09
v 0.04415324 0.02069369 -0.01889548
v 0.0006195009 0.01273007 -0.02304187
v 0.09042377 0.1084696 -8.051492E-09
v 0.0006194413 0.02066216 -0.02671564
v -0.03691855 -0.0004316403 -0.01629307
v 0.06412779 0.1085305 -0.02683544
v 0.1051124 0.1966422 -8.093584E-09
v -0.04291439 0.02069369 -0.01889548
v -0.05246735 -0.0004316403 -9.188873E-09
v 0.0745016 0.1965961 -0.02990031
v 0.1099073 0.286155 -8.114909E-09
v 0.0006192029 0.1085497 -0.03795196
v -0.06096083 0.02072299 -9.429733E-09
v -0.03691855 -0.0004316403 0.01629306
v -0.06288934 0.1085305 -0.02683544
v 0.0006191134 0.1965813 -0.04228467
v 0.0778967 0.2861741 -0.03145647
v -0.04291439 0.02069368 0.01889547
v 0.0006195009 0.01273007 0.02304186
v -0.08918532 0.1084696 -1.016278E-08
v 0.0749646 0.3564394 -0.03145647
v 0.1057583 0.3564601 -8.114909E-09
v 0.08243912 0.4444229 -8.027874E-09
v -0.07326338 0.1965961 -0.02990031
v 0.0006190836 0.2861755 -0.04448615
v 0.0006194413 0.02066216 0.02671562
v 0.03815752 -0.0004316403 0.01629306
v 0.05846479 0.4444519 -0.02510735
v 0.02812904 0.5577068 -7.799226E-09
v -0.06288934 0.1085305 0.02683542
v 0.0006190836 0.3564377 -0.04448615
v -0.1038742 0.1966422 -1.044631E-08
v -0.07665854 0.2861741 -0.03145647
v 0.04415324 0.02069369 0.01889548
v 0.05370631 -0.0004316403 -7.906908E-09
v 0.06219968 0.02072299 -7.942665E-09
v 0.02007172 0.5577068 -0.008442998
v 0.1215707 0.7034009 -7.799226E-09
v 0.08399927 0.6985412 -0.008442998
v 0.0006192625 0.4444831 -0.03550066
v 0.0006196797 0.5577068 -0.0119402
v 0.0006221235 0.6285614 -0.0119402
v 0.0006192029 0.1085497 0.03795195
v 0.06412779 0.1085305 0.02683543
v 0.09042377 0.1084696 -8.051492E-09
v -0.07372639 0.3564394 -0.03145647
v -0.05722624 0.4444519 -0.02510735
v -0.01883236 0.5577068 -0.008442998
v -0.08275503 0.6985412 -0.008442998
v -0.07326338 0.1965961 0.02990029
v -0.1086692 0.286155 -1.058995E-08
v -0.1045201 0.3564601 -1.058995E-08
v -0.02688965 0.5577068 -8.463535E-09
v -0.1203263 0.7034009 -8.463535E-09
v -0.08120057 0.4444229 -1.00037E-08
v 0.0006191134 0.1965813 0.04228466
v -0.07665854 0.2861741 0.03145645
v -0.07372639 0.3564394 0.03145645
v -0.05722624 0.4444519 0.02510734
v 0.0745016 0.1965961 0.02990031
v 0.1051124 0.1966422 -8.093584E-09
v 0.0006190836 0.2861755 0.04448613
v 0.0778967 0.2861741 0.03145647
v 0.1099073 0.286155 -8.114909E-09
v 0.0006190836 0.3564377 0.04448613
v 0.0749646 0.3564394 0.03145647
v 0.1057583 0.3564601 -8.114909E-09
v -0.01883236 0.5577068 0.008442983
v -0.1203263 0.7034009 -8.463535E-09
v -0.08275503 0.6985412 0.008442983
v 0.0006192625 0.4444831 0.03550065
v 0.05846479 0.4444519 0.02510735
v 0.08243912 0.4444229 -8.027874E-09
v 0.0006196797 0.5577068 0.01194018
v 0.0006221235 0.6285614 0.01194018
v 0.02007172 0.5577068 0.008442987
v 0.02812904 0.5577068 -7.799226E-09
v 0.08399927 0.6985412 0.008442987
v 0.1215707 0.7034009 -7.799226E-09
v -0.05246735 -0.0004316403 -9.188873E-09
v -0.03691855 -0.0004316403 0.01629306
v -0.03691855 -0.0004316403 -0.01629307
v 0.0006195009 0.01273007 -0.02304187
v 0.0006195009 0.01273007 0.02304186
v 0.03815752 -0.0004316403 -0.01629307
v 0.03815752 -0.0004316403 0.01629306
v 0.05370631 -0.0004316403 -7.906908E-09
v 0.1215707 0.7034009 -7.799226E-09
v 0.08399927 0.6985412 0.008442987
v 0.08399927 0.6985412 -0.008442998
v 0.0006221235 0.6285614 0.01194018
v 0.0006221235 0.6285614 -0.0119402
v -0.08275503 0.6985412 0.008442983
v -0.08275503 0.6985412 -0.008442998
v -0.1203263 0.7034009 -8.463535E-09
v 0.1024487 0.4289474 -0.002280067
v 0.1112681 0.3874074 -0.002280068
v 0.09479953 0.375157 0.003765245
v 0.08685488 0.4070747 0.003765245
v 0.0988778 0.4652388 -0.002280067
v 0.07891022 0.4389924 0.003765245
v 0.08685488 0.4070747 -0.006547343
v 0.09479953 0.375157 -0.006547343
v 0.1112681 0.3874074 -0.002280068
v 0.1024487 0.4289474 -0.002280067
v 0.07891022 0.4389924 -0.006547344
v 0.0988778 0.4652388 -0.002280067
v 0.1104654 0.1689072 -0.002280102
v 0.1033526 0.1277083 -0.002280103
v 0.08423647 0.1229033 0.003765211
v 0.08959976 0.1553547 0.003765211
v 0.1237014 0.2039828 -0.002280102
v 0.08959976 0.1553547 0.003765211
v 0.09496305 0.1878061 0.003765211
v 0.08959976 0.1553547 -0.006547377
v 0.08423647 0.1229033 -0.006547377
v 0.1033526 0.1277083 -0.002280103
v 0.1104654 0.1689072 -0.002280102
v 0.09496305 0.1878061 -0.006547378
v 0.1237014 0.2039828 -0.002280102
vt 0.7099609 0.8569336
vt 0.7026367 0.8574219
vt 0.7026367 0.8291016
vt 0.6674805 0.8173828
vt 0.6674805 0.84375
vt 0.6601563 0.8427734
vt 0.6708984 0.8208008
vt 0.6757813 0.8208008
vt 0.6738281 0.8359375
vt 0.6767578 0.8515625
vt 0.6679688 0.855957
vt 0.6669922 0.8515625
vt 0.6704102 0.7983398
vt 0.675293 0.7983398
vt 0.6733398 0.8134766
vt 0.6777344 0.8149414
vt 0.6777344 0.8056641
vt 0.6821289 0.8066406
vt 0.1248779 0.0657959
vt 0.1248779 0.03427124
vt 0.1380615 0.01722717
vt 0.1375732 0.04812622
vt 0.124939 0.09906006
vt 0.1383057 0.07989502
vt 0.1124268 0.04812622
vt 0.1119385 0.01722717
vt 0.1248779 0.03427124
vt 0.1248779 0.0657959
vt 0.1117554 0.07995605
vt 0.124939 0.09906006
vt 0.8115234 0.5908203
vt 0.8217773 0.5869141
vt 0.8286133 0.5957031
vt 0.8168945 0.6000977
vt 0.7954102 0.6020508
vt 0.8515625 0.6342773
vt 0.796875 0.605957
vt 0.7763672 0.6005859
vt 0.8344727 0.6386719
vt 0.8647461 0.6757813
vt 0.7773438 0.6108398
vt 0.765625 0.6025391
vt 0.8442383 0.6782227
vt 0.8686523 0.71875
vt 0.8061523 0.644043
vt 0.765625 0.6132813
vt 0.7548828 0.6005859
vt 0.7802734 0.6494141
vt 0.8120117 0.6806641
vt 0.847168 0.71875
vt 0.7543945 0.6108398
vt 0.7358398 0.6020508
vt 0.765625 0.6513672
vt 0.8442383 0.7504883
vt 0.8652344 0.753418
vt 0.8481445 0.7958984
vt 0.7822266 0.6835938
vt 0.8134766 0.7182617
vt 0.7348633 0.605957
vt 0.7197266 0.5908203
vt 0.8305664 0.7910156
vt 0.8081055 0.8530273
vt 0.7509766 0.6494141
vt 0.8110352 0.7475586
vt 0.765625 0.6850586
vt 0.7827148 0.7177734
vt 0.7148438 0.6000977
vt 0.7094727 0.5869141
vt 0.703125 0.5957031
vt 0.8007813 0.8530273
vt 0.8618164 0.9296875
vt 0.8408203 0.9287109
vt 0.8032227 0.7851563
vt 0.7880859 0.8525391
vt 0.796875 0.8959961
vt 0.7250977 0.644043
vt 0.6972656 0.6386719
vt 0.6796875 0.6342773
vt 0.7817383 0.7436523
vt 0.7792969 0.7788086
vt 0.7734375 0.8530273
vt 0.7783203 0.940918
vt 0.7495117 0.6835938
vt 0.7661133 0.7172852
vt 0.7661133 0.7421875
vt 0.7661133 0.8535156
vt 0.7666016 0.9506836
vt 0.7661133 0.7758789
vt 0.7197266 0.6811523
vt 0.7495117 0.7177734
vt 0.75 0.7436523
vt 0.7529297 0.7788086
vt 0.6870117 0.6782227
vt 0.6669922 0.6757813
vt 0.7182617 0.7182617
vt 0.684082 0.7192383
vt 0.6630859 0.7192383
vt 0.7207031 0.7475586
vt 0.6875 0.7509766
vt 0.6665039 0.7539063
vt 0.7587891 0.8530273
vt 0.7666016 0.9506836
vt 0.7548828 0.9414063
vt 0.7285156 0.7851563
vt 0.7011719 0.7915039
vt 0.6835938 0.7963867
vt 0.7441406 0.8530273
vt 0.7363281 0.8964844
vt 0.7314453 0.8530273
vt 0.7246094 0.8535156
vt 0.6918945 0.9291992
vt 0.6708984 0.9311523
vt 0.6767578 0.90625
vt 0.6694336 0.8989258
vt 0.6845703 0.8994141
vt 0.6879883 0.8813477
vt 0.6665039 0.8808594
vt 0.6850586 0.862793
vt 0.6699219 0.862793
vt 0.6777344 0.8554688
vt 0.4440918 0.7949219
vt 0.4411621 0.8081055
vt 0.4360352 0.8056641
vt 0.427002 0.8422852
vt 0.4194336 0.8388672
vt 0.4104004 0.8754883
vt 0.4050293 0.8730469
vt 0.4023438 0.8857422
vt 0.8032227 0.9243164
vt 0.8032227 0.9438477
vt 0.7944336 0.9477539
vt 0.7939453 0.9331055
vt 0.8032227 0.9072266
vt 0.7924805 0.9179688
vt 0.8125 0.9331055
vt 0.8120117 0.9477539
vt 0.8032227 0.9438477
vt 0.8032227 0.9243164
vt 0.8139648 0.9179688
vt 0.8032227 0.9072266
vt 0.6894531 0.8320313
vt 0.6894531 0.8515625
vt 0.6811523 0.8549805
vt 0.6811523 0.840332
vt 0.6894531 0.8144531
vt 0.6811523 0.840332
vt 0.6796875 0.8256836
vt 0.6982422 0.840332
vt 0.6977539 0.8549805
vt 0.6894531 0.8515625
vt 0.6894531 0.8320313
vt 0.6992188 0.8251953
vt 0.6894531 0.8144531
vn 0.7211914 0.6928711 0
vn 0.7211914 0.6928711 0
vn 0.7211914 0.6928711 0
vn -0.7519531 -0.6591797 0
vn -0.7519531 -0.6591797 0
vn -0.7519531 -0.6591797 0
vn -0.7958984 0.6054688 0
vn -0.7958984 0.6054688 0
vn -0.7958984 0.6054688 0
vn 0.5966797 -0.8022461 0
vn 0.5966797 -0.8022461 0
vn 0.5966797 -0.8022461 0
vn -0.4904785 0.871582 0
vn -0.4904785 0.871582 0
vn -0.4904785 0.871582 0
vn 0.2437744 -0.9697266 0
vn 0.2437744 -0.9697266 0
vn 0.2437744 -0.9697266 0
vn -0.2770996 -0.02400208 -0.9604492
vn -0.2770996 -0.02400208 -0.9604492
vn -0.2770996 -0.02400208 -0.9604492
vn -0.2770996 -0.02400208 -0.9604492
vn -0.2741699 -0.03762817 -0.9609375
vn -0.2741699 -0.03762817 -0.9609375
vn -0.199585 -0.01728821 0.9799805
vn -0.199585 -0.01728821 0.9799805
vn -0.199585 -0.01728821 0.9799805
vn -0.199585 -0.01728821 0.9799805
vn -0.1973877 -0.02706909 0.9799805
vn -0.1973877 -0.02706909 0.9799805
vn 0.4353027 -0.2712402 -0.8583984
vn 0.9282227 -0.3725586 0
vn 0.9428711 -0.333252 0
vn 0.4523926 -0.2246094 -0.8632813
vn 6.556511E-07 -0.237915 -0.9711914
vn 0.9746094 -0.2244873 0
vn 0 -0.1817627 -0.9833984
vn -0.4353027 -0.2712402 -0.8583984
vn 0.463623 -0.1348877 -0.8754883
vn 0.9946289 -0.1039429 -1.788139E-07
vn -0.4523926 -0.2246094 -0.8632813
vn -0.9282227 -0.3725586 0
vn 0.4604492 -0.05960083 -0.8857422
vn 1 -0.001897812 -1.192093E-07
vn -1.192093E-07 -0.08978271 -0.9960938
vn -0.9428711 -0.333252 0
vn -0.4353027 -0.2712402 0.8583984
vn -0.463623 -0.1348877 -0.8754883
vn 0 -0.0380249 -0.9995117
vn 0.4621582 -0.005817413 -0.8867188
vn -0.4523926 -0.2246094 0.8632813
vn 5.960464E-07 -0.237915 0.9711914
vn -0.9746094 -0.2244873 0
vn 0.4702148 0.08599854 -0.878418
vn 0.9892578 0.1463623 0
vn 0.9433594 0.3312988 0
vn -0.4604492 -0.05960083 -0.8857422
vn 0 -0.01026917 -1
vn -1.192093E-07 -0.1817627 0.9833984
vn 0.4353027 -0.2712402 0.8583984
vn 0.4643555 0.2144775 -0.859375
vn 0.9931641 0.1149902 -2.384186E-07
vn -0.463623 -0.1348877 0.8754883
vn -1.192093E-07 0.0531311 -0.9985352
vn -0.9946289 -0.1039429 0
vn -0.4621582 -0.005817413 -0.8867188
vn 0.4523926 -0.2246094 0.8632813
vn 0.9282227 -0.3725586 0
vn 0.9428711 -0.333252 0
vn 0.3120117 0.08758545 -0.9458008
vn 0.3586426 -0.1970215 -0.9125977
vn 0.3132324 -0.168335 -0.9345703
vn -1.192093E-07 0.152832 -0.9882813
vn 0 0.09014893 -0.9960938
vn 2.980232E-06 -0.02584839 -0.9995117
vn -1.788139E-07 -0.08978271 0.9960938
vn 0.463623 -0.1348877 0.8754883
vn 0.9746094 -0.2244873 0
vn -0.4702148 0.08605957 -0.878418
vn -0.4643555 0.2144775 -0.859375
vn -0.3120117 0.08758545 -0.9458008
vn -0.3132324 -0.168335 -0.9345703
vn -0.4604492 -0.05960083 0.8857422
vn -1 -0.001897812 0
vn -0.9892578 0.1463623 0
vn -0.9931641 0.1150513 -1.192093E-07
vn -0.3586426 -0.1970215 -0.9125977
vn -0.9433594 0.3312988 0
vn -1.192093E-07 -0.0380249 0.9995117
vn -0.4621582 -0.005817413 0.8867188
vn -0.4702148 0.08605957 0.878418
vn -0.4643555 0.2144775 0.859375
vn 0.4604492 -0.05960083 0.8857422
vn 0.9946289 -0.1039429 -1.788139E-07
vn -1.192093E-07 -0.01026917 1
vn 0.4621582 -0.005817413 0.8867188
vn 1 -0.001897812 -1.192093E-07
vn -2.384186E-07 0.0531311 0.9985352
vn 0.4702148 0.08599854 0.878418
vn 0.9892578 0.1463623 0
vn -0.3120117 0.08758545 0.9458008
vn -0.3586426 -0.1970215 0.9125977
vn -0.3132324 -0.168335 0.9345703
vn -1.788139E-07 0.152832 0.9882813
vn 0.4643555 0.2144775 0.859375
vn 0.9433594 0.3312988 0
vn 0 0.09014893 0.9960938
vn 2.920628E-06 -0.02584839 0.9995117
vn 0.3120117 0.08758545 0.9458008
vn 0.9931641 0.1149902 -2.384186E-07
vn 0.3132324 -0.168335 0.9345703
vn 0.3586426 -0.1970215 0.9125977
vn 0 -1 0
vn 0.2329102 -0.9726563 0
vn 0.2329102 -0.9726563 0
vn -1.192093E-07 -1 0
vn -1.192093E-07 -1 0
vn -0.2329102 -0.9726563 0
vn -0.2329102 -0.9726563 0
vn 0 -1 0
vn -0.1282959 0.9916992 0
vn -0.4245605 0.9052734 0
vn -0.4245605 0.9052734 0
vn 0 1 0
vn 0 1 0
vn 0.4245605 0.9052734 0
vn 0.4245605 0.9052734 0
vn 0.1282959 0.9916992 0
vn 0.2897949 0.06610107 0.9545898
vn 0.2897949 0.06610107 0.9545898
vn 0.2897949 0.06610107 0.9545898
vn 0.2897949 0.06610107 0.9545898
vn 0.2663574 0.04498291 0.9628906
vn 0.2663574 0.04498291 0.9628906
vn 0.2092285 0.04772949 -0.9765625
vn 0.2092285 0.04772949 -0.9765625
vn 0.2092285 0.04772949 -0.9765625
vn 0.2092285 0.04772949 -0.9765625
vn 0.1916504 0.03234863 -0.980957
vn 0.1916504 0.03234863 -0.980957
vn 0.3110352 -0.05270386 0.9487305
vn 0.3110352 -0.05270386 0.9487305
vn 0.3110352 -0.05270386 0.9487305
vn 0.3110352 -0.05270386 0.9487305
vn 0.2792969 -0.07696533 0.9570313
vn 0.2792969 -0.07696533 0.9570313
vn 0.2792969 -0.07696533 0.9570313
vn 0.2253418 -0.03817749 -0.9736328
vn 0.2253418 -0.03817749 -0.9736328
vn 0.2253418 -0.03817749 -0.9736328
vn 0.2253418 -0.03817749 -0.9736328
vn 0.2015381 -0.05551147 -0.9780273
vn 0.2015381 -0.05551147 -0.9780273
g Fish_0
f 3/3/3 2/2/2 1/1/1
f 6/6/6 5/5/5 4/4/4
f 9/9/9 8/8/8 7/7/7
f 12/12/12 11/11/11 10/10/10
f 15/15/15 14/14/14 13/13/13
f 18/18/18 17/17/17 16/16/16
f 21/21/21 20/20/20 19/19/19
f 22/22/22 21/21/21 19/19/19
f 22/22/22 19/19/19 23/23/23
f 24/24/24 22/22/22 23/23/23
f 27/27/27 26/26/26 25/25/25
f 28/28/28 27/27/27 25/25/25
f 28/28/28 25/25/25 29/29/29
f 30/30/30 28/28/28 29/29/29
f 33/33/33 32/32/32 31/31/31
f 34/34/34 33/33/33 31/31/31
f 34/34/34 31/31/31 35/35/35
f 33/33/33 34/34/34 36/36/36
f 37/37/37 34/34/34 35/35/35
f 37/37/37 35/35/35 38/38/38
f 34/34/34 39/39/39 36/36/36
f 34/34/34 37/37/37 39/39/39
f 40/40/40 36/36/36 39/39/39
f 41/41/41 37/37/37 38/38/38
f 41/41/41 38/38/38 42/42/42
f 43/43/43 40/40/40 39/39/39
f 40/40/40 43/43/43 44/44/44
f 37/37/37 45/45/45 39/39/39
f 37/37/37 41/41/41 45/45/45
f 43/43/43 39/39/39 45/45/45
f 46/46/46 41/41/41 42/42/42
f 46/46/46 42/42/42 47/47/47
f 41/41/41 48/48/48 45/45/45
f 41/41/41 46/46/46 48/48/48
f 49/49/49 43/43/43 45/45/45
f 49/49/49 45/45/45 48/48/48
f 43/43/43 50/50/50 44/44/44
f 43/43/43 49/49/49 50/50/50
f 51/51/51 46/46/46 47/47/47
f 51/51/51 47/47/47 52/52/52
f 46/46/46 53/53/53 48/48/48
f 46/46/46 51/51/51 53/53/53
f 50/50/50 54/54/54 44/44/44
f 54/54/54 55/55/55 44/44/44
f 55/55/55 54/54/54 56/56/56
f 57/57/57 49/49/49 48/48/48
f 57/57/57 48/48/48 53/53/53
f 49/49/49 58/58/58 50/50/50
f 54/54/54 50/50/50 58/58/58
f 49/49/49 57/57/57 58/58/58
f 59/59/59 51/51/51 52/52/52
f 59/59/59 52/52/52 60/60/60
f 54/54/54 61/61/61 56/56/56
f 62/62/62 56/56/56 61/61/61
f 51/51/51 63/63/63 53/53/53
f 51/51/51 59/59/59 63/63/63
f 64/64/64 54/54/54 58/58/58
f 54/54/54 64/64/64 61/61/61
f 65/65/65 57/57/57 53/53/53
f 65/65/65 53/53/53 63/63/63
f 57/57/57 66/66/66 58/58/58
f 64/64/64 58/58/58 66/66/66
f 57/57/57 65/65/65 66/66/66
f 67/67/67 59/59/59 60/60/60
f 67/67/67 60/60/60 68/68/68
f 69/69/69 67/67/67 68/68/68
f 70/70/70 62/62/62 61/61/61
f 71/71/71 62/62/62 70/70/70
f 72/72/72 71/71/71 70/70/70
f 64/64/64 73/73/73 61/61/61
f 70/70/70 61/61/61 73/73/73
f 72/72/72 70/70/70 74/74/74
f 74/74/74 70/70/70 73/73/73
f 75/75/75 72/72/72 74/74/74
f 59/59/59 67/67/67 76/76/76
f 59/59/59 76/76/76 63/63/63
f 67/67/67 69/69/69 77/77/77
f 67/67/67 77/77/77 76/76/76
f 69/69/69 78/78/78 77/77/77
f 64/64/64 79/79/79 73/73/73
f 79/79/79 64/64/64 66/66/66
f 74/74/74 73/73/73 80/80/80
f 79/79/79 80/80/80 73/73/73
f 75/75/75 74/74/74 81/81/81
f 81/81/81 74/74/74 80/80/80
f 82/82/82 75/75/75 81/81/81
f 83/83/83 63/63/63 76/76/76
f 83/83/83 65/65/65 63/63/63
f 65/65/65 84/84/84 66/66/66
f 79/79/79 66/66/66 84/84/84
f 65/65/65 83/83/83 84/84/84
f 79/79/79 85/85/85 80/80/80
f 85/85/85 79/79/79 84/84/84
f 82/82/82 81/81/81 86/86/86
f 87/87/87 82/82/82 86/86/86
f 81/81/81 80/80/80 88/88/88
f 85/85/85 88/88/88 80/80/80
f 86/86/86 81/81/81 88/88/88
f 89/89/89 83/83/83 76/76/76
f 89/89/89 76/76/76 77/77/77
f 83/83/83 90/90/90 84/84/84
f 85/85/85 84/84/84 90/90/90
f 83/83/83 89/89/89 90/90/90
f 85/85/85 91/91/91 88/88/88
f 91/91/91 85/85/85 90/90/90
f 86/86/86 88/88/88 92/92/92
f 91/91/91 92/92/92 88/88/88
f 93/93/93 89/89/89 77/77/77
f 93/93/93 77/77/77 78/78/78
f 94/94/94 93/93/93 78/78/78
f 89/89/89 95/95/95 90/90/90
f 91/91/91 90/90/90 95/95/95
f 89/89/89 93/93/93 95/95/95
f 93/93/93 94/94/94 96/96/96
f 93/93/93 96/96/96 95/95/95
f 94/94/94 97/97/97 96/96/96
f 98/98/98 91/91/91 95/95/95
f 98/98/98 95/95/95 96/96/96
f 91/91/91 98/98/98 92/92/92
f 99/99/99 96/96/96 97/97/97
f 99/99/99 98/98/98 96/96/96
f 100/100/100 99/99/99 97/97/97
f 101/101/101 86/86/86 92/92/92
f 102/102/102 86/86/86 101/101/101
f 103/103/103 102/102/102 101/101/101
f 98/98/98 104/104/104 92/92/92
f 98/98/98 99/99/99 104/104/104
f 101/101/101 92/92/92 104/104/104
f 99/99/99 100/100/100 105/105/105
f 99/99/99 105/105/105 104/104/104
f 100/100/100 106/106/106 105/105/105
f 103/103/103 101/101/101 107/107/107
f 107/107/107 101/101/101 104/104/104
f 107/107/107 104/104/104 105/105/105
f 108/108/108 103/103/103 107/107/107
f 109/109/109 105/105/105 106/106/106
f 109/109/109 107/107/107 105/105/105
f 108/108/108 107/107/107 109/109/109
f 110/110/110 109/109/109 106/106/106
f 111/111/111 108/108/108 109/109/109
f 111/111/111 109/109/109 110/110/110
f 112/112/112 111/111/111 110/110/110
f 115/115/115 114/114/114 113/113/113
f 115/115/115 116/116/116 114/114/114
f 116/116/116 117/117/117 114/114/114
f 117/117/117 116/116/116 118/118/118
f 119/119/119 117/117/117 118/118/118
f 119/119/119 118/118/118 120/120/120
f 123/123/123 122/122/122 121/121/121
f 124/124/124 122/122/122 123/123/123
f 125/125/125 124/124/124 123/123/123
f 124/124/124 125/125/125 126/126/126
f 125/125/125 127/127/127 126/126/126
f 126/126/126 127/127/127 128/128/128
f 131/131/131 130/130/130 129/129/129
f 132/132/132 131/131/131 129/129/129
f 132/132/132 129/129/129 133/133/133
f 134/134/134 132/132/132 133/133/133
f 137/137/137 136/136/136 135/135/135
f 138/138/138 137/137/137 135/135/135
f 138/138/138 135/135/135 139/139/139
f 140/140/140 138/138/138 139/139/139
f 143/143/143 142/142/142 141/141/141
f 144/144/144 143/143/143 141/141/141
f 146/146/146 141/141/141 145/145/145
f 147/147/147 146/146/146 145/145/145
f 150/150/150 149/149/149 148/148/148
f 151/151/151 150/150/150 148/148/148
f 151/151/151 148/148/148 152/152/152
f 153/153/153 151/151/151 152/152/152
