g Fish_LOD0
v -0.10239 0.3131677 -0.01025072
v -0.10239 0.3131677 0.005945107
v -0.1450796 0.3576083 -0.0007566161
v -0.123914 0.1914411 -0.0007566163
v -0.08647289 0.14875 0.005945107
v -0.08647289 0.14875 -0.01025072
v 0.07891022 0.4389924 0.003765245
v 0.07891022 0.4389924 -0.006547344
v 0.0988778 0.4652388 -0.002280067
v 0.1112681 0.3874074 -0.002280068
v 0.09479953 0.375157 -0.006547343
v 0.09479953 0.375157 0.003765245
v 0.09496305 0.1878061 0.003765211
v 0.09496305 0.1878061 -0.006547378
v 0.1237014 0.2039828 -0.002280102
v 0.1033526 0.1277083 -0.002280103
v 0.08423647 0.1229033 -0.006547377
v 0.08423647 0.1229033 0.003765211
v 0.07891022 0.4389924 -0.006547344
v 0.09479953 0.375157 -0.006547343
v 0.1112681 0.3874074 -0.002280068
v 0.0988778 0.4652388 -0.002280067
v -0.1450796 0.3576083 -0.0007566161
v -0.123914 0.1914411 -0.0007566163
v -0.08647289 0.14875 -0.01025072
v -0.10239 0.3131677 -0.01025072
v 0.05846479 0.4444519 0.02510735
v 0.0006192625 0.4444831 0.03550065
v 0.0006196797 0.5577068 0.01194018
v 0.0778967 0.2861741 0.03145647
v 0.1099073 0.286155 -8.114909E-09
v 0.08243912 0.4444229 -8.027874E-09
v 0.0006196797 0.5577068 0.01194018
v 0.02812904 0.5577068 -7.799226E-09
v 0.0006221235 0.6285614 0.01194018
v 0.1215707 0.7034009 -7.799226E-09
v 0.09042377 0.1084696 -8.051492E-09
v 0.06412779 0.1085305 0.02683543
v 0.05370631 -0.0004316403 -7.906908E-09
v 0.03815752 -0.0004316403 0.01629306
v 0.0006190836 0.2861755 0.04448613
v 0.0006192029 0.1085497 0.03795195
v 0.0006195009 0.01273007 0.02304186
v -0.05722624 0.4444519 0.02510734
v 0.0006196797 0.5577068 0.01194018
v -0.02688965 0.5577068 -8.463535E-09
v -0.08120057 0.4444229 -1.00037E-08
v -0.07665854 0.2861741 0.03145645
v -0.06288934 0.1085305 0.02683542
v -0.03691855 -0.0004316403 0.01629306
v -0.1086692 0.286155 -1.058995E-08
v -0.08918532 0.1084696 -1.016278E-08
v -0.05246735 -0.0004316403 -9.188873E-09
v -0.06288934 0.1085305 -0.02683544
v -0.03691855 -0.0004316403 -0.01629307
v -0.07665854 0.2861741 -0.03145647
v -0.05722624 0.4444519 -0.02510735
v 0.0006196797 0.5577068 -0.0119402
v -0.02688965 0.5577068 -8.463535E-09
v 0.0006221235 0.6285614 -0.0119402
v -0.1203263 0.7034009 -8.463535E-09
v 0.0006192029 0.1085497 -0.03795196
v 0.0006195009 0.01273007 -0.02304187
v 0.0006190836 0.2861755 -0.04448615
v 0.0006192625 0.4444831 -0.03550066
v 0.0006196797 0.5577068 -0.0119402
v 0.06412779 0.1085305 -0.02683544
v 0.03815752 -0.0004316403 -0.01629307
v 0.0778967 0.2861741 -0.03145647
v 0.05846479 0.4444519 -0.02510735
v 0.0006196797 0.5577068 -0.0119402
v 0.02812904 0.5577068 -7.799226E-09
v 0.08243912 0.4444229 -8.027874E-09
v 0.1099073 0.286155 -8.114909E-09
v 0.09042377 0.1084696 -8.051492E-09
v 0.05370631 -0.0004316403 -7.906908E-09
v 0.0006196797 0.5577068 0.01194018
v -0.02688965 0.5577068 -8.463535E-09
v -0.1203263 0.7034009 -8.463535E-09
v 0.0006196797 0.5577068 -0.0119402
v 0.02812904 0.5577068 -7.799226E-09
v 0.1215707 0.7034009 -7.799226E-09
v 0.0006221235 0.6285614 -0.0119402
v 0.1215707 0.7034009 -7.799226E-09
v 0.0006221235 0.6285614 0.01194018
v -0.1203263 0.7034009 -8.463535E-09
v -0.05246735 -0.0004316403 -9.188873E-09
v -0.03691855 -0.0004316403 0.01629306
v -0.03691855 -0.0004316403 -0.01629307
v 0.0006195009 0.01273007 -0.02304187
v 0.0006195009 0.01273007 0.02304186
v 0.03815752 -0.0004316403 -0.01629307
v 0.03815752 -0.0004316403 0.01629306
v 0.05370631 -0.0004316403 -7.906908E-09
v 0.09496305 0.1878061 -0.006547378
v 0.08423647 0.1229033 -0.006547377
v 0.1033526 0.1277083 -0.002280103
v 0.1237014 0.2039828 -0.002280102
v 0.0988778 0.4652388 -0.002280067
v 0.1112681 0.3874074 -0.002280068
v 0.09479953 0.375157 0.003765245
v 0.07891022 0.4389924 0.003765245
v 0.1237014 0.2039828 -0.002280102
v 0.1033526 0.1277083 -0.002280103
v 0.08423647 0.1229033 0.003765211
v 0.09496305 0.1878061 0.003765211
v -0.10239 0.3131677 0.005945107
v -0.08647289 0.14875 0.005945107
v -0.123914 0.1914411 -0.0007566163
v -0.1450796 0.3576083 -0.0007566161
vt 0.7099609 0.8569336
vt 0.7026367 0.8574219
vt 0.7026367 0.8291016
vt 0.6674805 0.8173828
vt 0.6674805 0.84375
vt 0.6601563 0.8427734
vt 0.6708984 0.8208008
vt 0.6757813 0.8208008
vt 0.6738281 0.8359375
vt 0.6767578 0.8515625
vt 0.6679688 0.855957
vt 0.6669922 0.8515625
vt 0.6704102 0.7983398
vt 0.675293 0.7983398
vt 0.6733398 0.8134766
vt 0.6777344 0.8149414
vt 0.6777344 0.8056641
vt 0.6821289 0.8066406
vt 0.8139648 0.9179688
vt 0.8120117 0.9477539
vt 0.8032227 0.9438477
vt 0.8032227 0.9072266
vt 0.124939 0.09906006
vt 0.1248779 0.03427124
vt 0.1380615 0.01722717
vt 0.1383057 0.07989502
vt 0.7011719 0.7915039
vt 0.7285156 0.7851563
vt 0.7441406 0.8530273
vt 0.684082 0.7192383
vt 0.6630859 0.7192383
vt 0.6835938 0.7963867
vt 0.7314453 0.8530273
vt 0.7246094 0.8535156
vt 0.7363281 0.8964844
vt 0.6708984 0.9311523
vt 0.6796875 0.6342773
vt 0.6972656 0.6386719
vt 0.7094727 0.5869141
vt 0.7197266 0.5908203
vt 0.7182617 0.7182617
vt 0.7250977 0.644043
vt 0.7358398 0.6020508
vt 0.7529297 0.7788086
vt 0.7587891 0.8530273
vt 0.7661133 0.8535156
vt 0.7661133 0.7758789
vt 0.7495117 0.7177734
vt 0.7509766 0.6494141
vt 0.7548828 0.6005859
vt 0.7661133 0.7172852
vt 0.765625 0.6513672
vt 0.765625 0.6025391
vt 0.7802734 0.6494141
vt 0.7763672 0.6005859
vt 0.7827148 0.7177734
vt 0.7792969 0.7788086
vt 0.7734375 0.8530273
vt 0.7661133 0.8535156
vt 0.796875 0.8959961
vt 0.7666016 0.9506836
vt 0.8061523 0.644043
vt 0.7954102 0.6020508
vt 0.8134766 0.7182617
vt 0.8032227 0.7851563
vt 0.7880859 0.8525391
vt 0.8344727 0.6386719
vt 0.8115234 0.5908203
vt 0.847168 0.71875
vt 0.8305664 0.7910156
vt 0.8007813 0.8530273
vt 0.8081055 0.8530273
vt 0.8481445 0.7958984
vt 0.8686523 0.71875
vt 0.8515625 0.6342773
vt 0.8217773 0.5869141
vt 0.7441406 0.8530273
vt 0.7661133 0.8535156
vt 0.7666016 0.9506836
vt 0.7880859 0.8525391
vt 0.8081055 0.8530273
vt 0.8618164 0.9296875
vt 0.4194336 0.8388672
vt 0.4440918 0.7949219
vt 0.427002 0.8422852
vt 0.4023438 0.8857422
vt 0.6767578 0.90625
vt 0.6694336 0.8989258
vt 0.6845703 0.8994141
vt 0.6879883 0.8813477
vt 0.6665039 0.8808594
vt 0.6850586 0.862793
vt 0.6699219 0.862793
vt 0.6777344 0.8554688
vt 0.6992188 0.8251953
vt 0.6977539 0.8549805
vt 0.6894531 0.8515625
vt 0.6894531 0.8144531
vt 0.8032227 0.9072266
vt 0.8032227 0.9438477
vt 0.7944336 0.9477539
vt 0.7924805 0.9179688
vt 0.6894531 0.8144531
vt 0.6894531 0.8515625
vt 0.6811523 0.8549805
vt 0.6796875 0.8256836
vt 0.1117554 0.07995605
vt 0.1119385 0.01722717
vt 0.1248779 0.03427124
vt 0.124939 0.09906006
vn 0.7211914 0.6928711 0
vn 0.7211914 0.6928711 0
vn 0.7211914 0.6928711 0
vn -0.7519531 -0.6591797 0
vn -0.7519531 -0.6591797 0
vn -0.7519531 -0.6591797 0
vn -0.7958984 0.6054688 0
vn -0.7958984 0.6054688 0
vn -0.7958984 0.6054688 0
vn 0.5966797 -0.8022461 0
vn 0.5966797 -0.8022461 0
vn 0.5966797 -0.8022461 0
vn -0.4904785 0.871582 0
vn -0.4904785 0.871582 0
vn -0.4904785 0.871582 0
vn 0.2437744 -0.9697266 0
vn 0.2437744 -0.9697266 0
vn 0.2437744 -0.9697266 0
vn 0.1898193 0.03787231 -0.980957
vn 0.1898193 0.03787231 -0.980957
vn 0.1898193 0.03787231 -0.980957
vn 0.1898193 0.03787231 -0.980957
vn -0.260498 -0.02922058 -0.9648438
vn -0.260498 -0.02922058 -0.9648438
vn -0.260498 -0.02922058 -0.9648438
vn -0.260498 -0.02922058 -0.9648438
vn 0.4335938 0.1835938 0.8823242
vn -2.384186E-07 0.1306152 0.9912109
vn -1.192093E-07 0.1156616 0.9931641
vn 0.4733887 0.01716614 0.8808594
vn 0.9995117 0.02865601 -1.192093E-07
vn 0.9526367 0.3039551 0
vn -1.192093E-07 0.1156616 0.9931641
vn 0.388916 0.1155396 0.9140625
vn 5.960464E-06 -0.08837891 0.9960938
vn 0.2005615 -0.08654785 0.9760742
vn 0.9790039 -0.2042236 -1.192093E-07
vn 0.4641113 -0.1286621 0.8764648
vn 0.9482422 -0.3173828 -1.192093E-07
vn 0.4511719 -0.1977539 0.8701172
vn -2.384186E-07 0.01042938 1
vn -1.788139E-07 -0.09008789 0.9960938
vn 2.384186E-07 -0.1428223 0.9897461
vn -0.4335938 0.1835938 0.8823242
vn -1.192093E-07 0.1156616 0.9931641
vn -0.388916 0.1155396 0.9140625
vn -0.9526367 0.3039551 0
vn -0.4733887 0.01716614 0.8808594
vn -0.4641113 -0.1286621 0.8764648
vn -0.4511719 -0.1977539 0.8701172
vn -0.9995117 0.02865601 0
vn -0.9790039 -0.2042236 0
vn -0.9482422 -0.3173828 0
vn -0.4641113 -0.1286621 -0.8764648
vn -0.4511719 -0.1977539 -0.8701172
vn -0.4733887 0.01716614 -0.8808594
vn -0.4335938 0.1835938 -0.8823242
vn -1.192093E-07 0.1156616 -0.9931641
vn -0.388916 0.1155396 -0.9140625
vn 5.960464E-06 -0.08837891 -0.9960938
vn -0.2005615 -0.08654785 -0.9760742
vn -1.192093E-07 -0.09008789 -0.9960938
vn 2.980232E-07 -0.1428223 -0.9897461
vn -1.192093E-07 0.01042938 -1
vn -1.192093E-07 0.1306152 -0.9912109
vn -1.192093E-07 0.1156616 -0.9931641
vn 0.4641113 -0.1286621 -0.8764648
vn 0.4511719 -0.1977539 -0.8701172
vn 0.4733887 0.01716614 -0.8808594
vn 0.4335938 0.1835938 -0.8823242
vn -1.192093E-07 0.1156616 -0.9931641
vn 0.388916 0.1155396 -0.9140625
vn 0.9526367 0.3039551 0
vn 0.9995117 0.02865601 -1.192093E-07
vn 0.9790039 -0.2042236 -1.192093E-07
vn 0.9482422 -0.3173828 -1.192093E-07
vn -1.192093E-07 0.1156616 0.9931641
vn -0.388916 0.1155396 0.9140625
vn -0.2005615 -0.08654785 0.9760742
vn -1.192093E-07 0.1156616 -0.9931641
vn 0.388916 0.1155396 -0.9140625
vn 0.2005615 -0.08654785 -0.9760742
vn 2.384186E-07 1 0
vn -0.5263672 0.8505859 0
vn 2.384186E-07 1 0
vn 0.5263672 0.8505859 0
vn 0 -1 0
vn 0.2329102 -0.9726563 0
vn 0.2329102 -0.9726563 0
vn -1.192093E-07 -1 0
vn -1.192093E-07 -1 0
vn -0.2329102 -0.9726563 0
vn -0.2329102 -0.9726563 0
vn 0 -1 0
vn 0.1934814 -0.04260254 -0.9799805
vn 0.1934814 -0.04260254 -0.9799805
vn 0.1934814 -0.04260254 -0.9799805
vn 0.1934814 -0.04260254 -0.9799805
vn 0.263916 0.05267334 0.9628906
vn 0.263916 0.05267334 0.9628906
vn 0.263916 0.05267334 0.9628906
vn 0.263916 0.05267334 0.9628906
vn 0.2687988 -0.05917358 0.9614258
vn 0.2687988 -0.05917358 0.9614258
vn 0.2687988 -0.05917358 0.9614258
vn 0.2687988 -0.05917358 0.9614258
vn -0.1871338 -0.02098083 0.9819336
vn -0.1871338 -0.02098083 0.9819336
vn -0.1871338 -0.02098083 0.9819336
vn -0.1871338 -0.02098083 0.9819336
g Fish_LOD0_0
f 3/3/3 2/2/2 1/1/1
f 6/6/6 5/5/5 4/4/4
f 9/9/9 8/8/8 7/7/7
f 12/12/12 11/11/11 10/10/10
f 15/15/15 14/14/14 13/13/13
f 18/18/18 17/17/17 16/16/16
f 21/21/21 20/20/20 19/19/19
f 22/22/22 21/21/21 19/19/19
f 25/25/25 24/24/24 23/23/23
f 26/26/26 25/25/25 23/23/23
f 29/29/29 28/28/28 27/27/27
f 30/30/30 27/27/27 28/28/28
f 30/30/30 31/31/31 27/27/27
f 31/31/31 32/32/32 27/27/27
f 33/33/33 27/27/27 32/32/32
f 34/34/34 33/33/33 32/32/32
f 35/35/35 33/33/33 34/34/34
f 36/36/36 35/35/35 34/34/34
f 37/37/37 31/31/31 30/30/30
f 38/38/38 37/37/37 30/30/30
f 39/39/39 37/37/37 38/38/38
f 40/40/40 39/39/39 38/38/38
f 41/41/41 30/30/30 28/28/28
f 38/38/38 30/30/30 41/41/41
f 40/40/40 38/38/38 42/42/42
f 42/42/42 38/38/38 41/41/41
f 43/43/43 40/40/40 42/42/42
f 41/41/41 28/28/28 44/44/44
f 45/45/45 44/44/44 28/28/28
f 45/45/45 46/46/46 44/44/44
f 46/46/46 47/47/47 44/44/44
f 48/48/48 41/41/41 44/44/44
f 41/41/41 48/48/48 42/42/42
f 48/48/48 44/44/44 47/47/47
f 43/43/43 42/42/42 49/49/49
f 48/48/48 49/49/49 42/42/42
f 50/50/50 43/43/43 49/49/49
f 49/49/49 48/48/48 51/51/51
f 51/51/51 48/48/48 47/47/47
f 50/50/50 49/49/49 52/52/52
f 52/52/52 49/49/49 51/51/51
f 53/53/53 50/50/50 52/52/52
f 53/53/53 52/52/52 54/54/54
f 55/55/55 53/53/53 54/54/54
f 52/52/52 51/51/51 56/56/56
f 54/54/54 52/52/52 56/56/56
f 51/51/51 47/47/47 57/57/57
f 56/56/56 51/51/51 57/57/57
f 58/58/58 57/57/57 47/47/47
f 59/59/59 58/58/58 47/47/47
f 60/60/60 58/58/58 59/59/59
f 61/61/61 60/60/60 59/59/59
f 55/55/55 54/54/54 62/62/62
f 63/63/63 55/55/55 62/62/62
f 54/54/54 56/56/56 64/64/64
f 62/62/62 54/54/54 64/64/64
f 56/56/56 57/57/57 65/65/65
f 64/64/64 56/56/56 65/65/65
f 66/66/66 65/65/65 57/57/57
f 63/63/63 62/62/62 67/67/67
f 68/68/68 63/63/63 67/67/67
f 62/62/62 64/64/64 69/69/69
f 67/67/67 62/62/62 69/69/69
f 64/64/64 65/65/65 70/70/70
f 69/69/69 64/64/64 70/70/70
f 71/71/71 70/70/70 65/65/65
f 71/71/71 72/72/72 70/70/70
f 72/72/72 73/73/73 70/70/70
f 69/69/69 70/70/70 73/73/73
f 74/74/74 69/69/69 73/73/73
f 67/67/67 69/69/69 74/74/74
f 75/75/75 67/67/67 74/74/74
f 68/68/68 67/67/67 75/75/75
f 76/76/76 68/68/68 75/75/75
f 78/78/78 77/77/77 35/35/35
f 79/79/79 78/78/78 35/35/35
f 81/81/81 80/80/80 60/60/60
f 82/82/82 81/81/81 60/60/60
f 85/85/85 84/84/84 83/83/83
f 85/85/85 83/83/83 86/86/86
f 89/89/89 88/88/88 87/87/87
f 89/89/89 90/90/90 88/88/88
f 90/90/90 91/91/91 88/88/88
f 91/91/91 90/90/90 92/92/92
f 93/93/93 91/91/91 92/92/92
f 93/93/93 92/92/92 94/94/94
f 97/97/97 96/96/96 95/95/95
f 98/98/98 97/97/97 95/95/95
f 101/101/101 100/100/100 99/99/99
f 102/102/102 101/101/101 99/99/99
f 105/105/105 104/104/104 103/103/103
f 106/106/106 105/105/105 103/103/103
f 109/109/109 108/108/108 107/107/107
f 110/110/110 109/109/109 107/107/107
