g Maul
v 0.01611429 0.08046216 0.3191731
v 0.01611437 0.06068382 0.3191873
v 0.01053482 0.05580431 0.3191671
v 0.0102747 0.08598166 0.319165
v -0.009825618 0.05580431 0.3191671
v -0.01157728 0.08598166 0.319165
v -0.0168127 0.06323451 0.3191766
v -0.01681269 0.08110102 0.3191746
v -0.02176272 0.08331868 0.3142157
v -0.01681269 0.08110102 0.3191746
v -0.0168127 0.06323451 0.3191766
v -0.02176272 0.0617747 0.3142157
v -0.009825618 0.05580431 0.3191671
v -0.02248325 0.06194216 0.06426157
v -0.02248325 0.08691555 0.06426163
v -0.01160482 0.05087214 0.3142549
v 0.01053482 0.05580431 0.3191671
v -0.03136575 0.05757504 -0.3213695
v -0.03136575 0.08863425 -0.3213695
v -0.02432024 0.08553043 -0.3286144
v -0.02432025 0.05963078 -0.3286173
v -0.01951162 0.04555207 -0.3214086
v -0.01706389 0.05266073 -0.3285855
v -0.01203247 0.05105752 0.06426163
v 0.02057555 0.04555207 -0.3214085
v 0.01736367 0.05266073 -0.3285855
v 0.0128713 0.05087214 0.314255
v 0.01611437 0.06068382 0.3191873
v 0.01861801 0.05105752 0.06426163
v 0.03077041 0.05392104 -0.3213693
v 0.02362195 0.05592805 -0.328633
v 0.02117305 0.05924013 0.3142158
v 0.01611429 0.08046216 0.3191731
v 0.02739963 0.05900412 0.06426163
v 0.03077041 0.08775324 -0.3213693
v 0.02362183 0.08460274 -0.3286121
v 0.02117305 0.08270755 0.3142158
v 0.0102747 0.08598166 0.319165
v 0.02739963 0.08620715 0.06426157
v 0.02183012 0.09629741 -0.3214084
v 0.01921691 0.08912519 -0.3285825
v 0.01223218 0.09098085 0.3142551
v -0.01157728 0.08598166 0.319165
v 0.01890976 0.09419194 0.06426163
v -0.02314719 0.09629741 -0.3214085
v -0.02046495 0.08912519 -0.3285824
v -0.01354356 0.09098085 0.314255
v -0.01681269 0.08110102 0.3191746
v -0.02176272 0.08331868 0.3142157
v -0.02248325 0.08691555 0.06426163
v -0.01467871 0.09419194 0.06426163
v -0.03136575 0.08863425 -0.3213695
v -0.02432024 0.08553043 -0.3286144
v 0.01736367 0.05266073 -0.3285855
v 0.02362195 0.05592805 -0.328633
v 0.02362183 0.08460274 -0.3286121
v 0.01921691 0.08912519 -0.3285825
v -0.02046495 0.08912519 -0.3285824
v -0.01706389 0.05266073 -0.3285855
v -0.02432025 0.05963078 -0.3286173
v -0.02432024 0.08553043 -0.3286144
v -4.06598E-06 0.008308679 -0.1584731
v -0.1352478 -0.003195554 -0.1697783
v -0.135432 0.007020175 -0.1595642
v 0.0001763433 -0.001701206 -0.1684814
v 0.1353752 0.007020175 -0.1546828
v 0.1355593 -0.003195554 -0.1648969
v 0.137606 -0.003195554 -0.2784451
v 0.002181843 -0.001701206 -0.2797419
v -0.1332011 -0.003195554 -0.2833264
v -0.133017 0.007020146 -0.2935405
v 0.002362253 0.008308679 -0.2897502
v 0.1377901 0.007020146 -0.2886591
v -0.133017 0.1349373 -0.2935405
v 0.002362253 0.1336488 -0.2897502
v 0.1377901 0.1349373 -0.2886591
v -0.1332011 0.145153 -0.2833264
v 0.002181843 0.1436586 -0.2797419
v 0.137606 0.145153 -0.278445
v 0.1355593 0.145153 -0.1648969
v 0.0001763433 0.1436586 -0.1684814
v -0.1352478 0.145153 -0.1697783
v -0.135432 0.1349373 -0.1595643
v -4.06598E-06 0.1336488 -0.1584731
v -0.135432 0.007020175 -0.1595642
v 0.1353752 0.1349373 -0.1546829
v -4.06598E-06 0.008308679 -0.1584731
v 0.1353752 0.007020175 -0.1546828
v -0.135432 0.1349373 -0.1595643
v -0.1454619 0.1349373 -0.1699624
v -0.1352478 0.145153 -0.1697783
v -0.135432 0.007020175 -0.1595642
v -0.1434152 0.1349373 -0.2835106
v -0.1332011 0.145153 -0.2833264
v -0.133017 0.1349373 -0.2935405
v -0.1434152 0.007020146 -0.2835106
v -0.133017 0.007020146 -0.2935405
v -0.1332011 -0.003195554 -0.2833264
v -0.1454619 0.007020175 -0.1699624
v -0.1352478 -0.003195554 -0.1697783
v 0.1353752 0.1349373 -0.1546829
v 0.1355593 0.145153 -0.1648969
v 0.1457733 0.1349373 -0.1647128
v 0.137606 0.145153 -0.278445
v 0.1457733 0.007020175 -0.1647128
v 0.1353752 0.007020175 -0.1546828
v 0.1355593 -0.003195554 -0.1648969
v 0.1478201 0.1349373 -0.2782609
v 0.1377901 0.1349373 -0.2886591
v 0.1377901 0.007020146 -0.2886591
v 0.1478201 0.007020146 -0.2782609
v 0.137606 -0.003195554 -0.2784451
vt 0.4316406 0.05844116
vt 0.440918 0.05844116
vt 0.4431152 0.05581665
vt 0.4289551 0.05569458
vt 0.4431152 0.04626465
vt 0.4289551 0.04544067
vt 0.4396973 0.04299927
vt 0.4311523 0.04299927
vt 0.138916 0.9882813
vt 0.138916 0.9916992
vt 0.1514893 0.9916992
vt 0.1514893 0.9882813
vt 0.1585693 0.9916992
vt 0.1514893 0.8745117
vt 0.138916 0.8745117
vt 0.1585693 0.9882813
vt 0.1741943 0.9916992
vt 0.1514893 0.6992188
vt 0.138916 0.6992188
vt 0.138916 0.6948242
vt 0.1514893 0.6948242
vt 0.1585693 0.6992188
vt 0.1585693 0.6948242
vt 0.1585693 0.8745117
vt 0.1741943 0.6992188
vt 0.1741943 0.6948242
vt 0.1741943 0.9882813
vt 0.1795654 0.9916992
vt 0.1741943 0.8745117
vt 0.1795654 0.6992188
vt 0.1795654 0.6948242
vt 0.1795654 0.9882813
vt 0.1933594 0.9916992
vt 0.1795654 0.8745117
vt 0.1933594 0.6992188
vt 0.1933594 0.6948242
vt 0.1933594 0.9882813
vt 0.1986084 0.9916992
vt 0.1933594 0.8745117
vt 0.1986084 0.6992188
vt 0.1986084 0.6948242
vt 0.1986084 0.9882813
vt 0.2159424 0.9916992
vt 0.1986084 0.8745117
vt 0.2159424 0.6992188
vt 0.2159424 0.6948242
vt 0.2159424 0.9882813
vt 0.2207031 0.9916992
vt 0.2207031 0.9882813
vt 0.2207031 0.8745117
vt 0.2159424 0.8745117
vt 0.2207031 0.6992188
vt 0.2207031 0.6948242
vt 0.5424805 0.2998047
vt 0.5439453 0.3027344
vt 0.5571289 0.3027344
vt 0.5595703 0.3007813
vt 0.5595703 0.2822266
vt 0.5424805 0.2836914
vt 0.5454102 0.2802734
vt 0.5576172 0.2802734
vt 0.2888184 0.7382813
vt 0.3525391 0.7451172
vt 0.3525391 0.7382813
vt 0.2888184 0.7451172
vt 0.2248535 0.7382813
vt 0.2248535 0.7451172
vt 0.2248535 0.7978516
vt 0.2888184 0.7978516
vt 0.3525391 0.7978516
vt 0.3525391 0.8046875
vt 0.2888184 0.8046875
vt 0.2248535 0.8046875
vt 0.3525391 0.8642578
vt 0.2888184 0.8642578
vt 0.2248535 0.8642578
vt 0.3525391 0.8710938
vt 0.2888184 0.8710938
vt 0.2248535 0.8710938
vt 0.2248535 0.9238281
vt 0.2888184 0.9238281
vt 0.3525391 0.9238281
vt 0.3525391 0.9306641
vt 0.2888184 0.9306641
vt 0.3525391 0.9902344
vt 0.2248535 0.9306641
vt 0.2888184 0.9902344
vt 0.2248535 0.9902344
vt 0.07952881 0.3571777
vt 0.08673096 0.3586426
vt 0.08544922 0.3515625
vt 0.07952881 0.4189453
vt 0.1392822 0.3605957
vt 0.1407471 0.3532715
vt 0.1462402 0.3591309
vt 0.1390381 0.4194336
vt 0.1462402 0.4208984
vt 0.1402588 0.4265137
vt 0.08648682 0.4174805
vt 0.08502197 0.4248047
vt 0.2271729 0.361084
vt 0.2216797 0.3552246
vt 0.2202148 0.3625488
vt 0.1663818 0.3535156
vt 0.2199707 0.4213867
vt 0.2271729 0.4228516
vt 0.2213135 0.4284668
vt 0.1677246 0.3605957
vt 0.1604004 0.3591309
vt 0.1604004 0.4208984
vt 0.1674805 0.4194336
vt 0.1660156 0.4267578
vn 0.3977051 0.1715088 0.9013672
vn 0.4018555 -0.1846924 0.8969727
vn 0.1573486 -0.4047852 0.9008789
vn 0.1588135 0.4016113 0.9018555
vn -0.1848145 -0.4060059 0.8950195
vn -0.1591797 0.4023438 0.9013672
vn -0.4111328 -0.1711426 0.8955078
vn -0.4018555 0.1727295 0.8994141
vn -0.8510742 0.3684082 0.3735352
vn -0.4018555 0.1727295 0.8994141
vn -0.4111328 -0.1711426 0.8955078
vn -0.8671875 -0.3395996 0.3637695
vn -0.1848145 -0.4060059 0.8950195
vn -0.9277344 -0.3728027 0.01383972
vn -0.9160156 0.4006348 0.01568604
vn -0.3664551 -0.8564453 0.3635254
vn 0.1573486 -0.4047852 0.9008789
vn -0.8701172 -0.3505859 -0.3457031
vn -0.8579102 0.3725586 -0.3535156
vn -0.4082031 0.1763916 -0.8955078
vn -0.4157715 -0.1845703 -0.890625
vn -0.361084 -0.8642578 -0.3498535
vn -0.1779785 -0.4121094 -0.8935547
vn -0.3908691 -0.9204102 0.01056671
vn 0.3156738 -0.8813477 -0.3513184
vn 0.121521 -0.4094238 -0.9042969
vn 0.3469238 -0.8618164 0.3693848
vn 0.4018555 -0.1846924 0.8969727
vn 0.3620605 -0.9321289 0.012146
vn 0.847168 -0.3933105 -0.357666
vn 0.4020996 -0.2362061 -0.8847656
vn 0.8525391 -0.357666 0.3815918
vn 0.3977051 0.1715088 0.9013672
vn 0.9150391 -0.4030762 0.01780701
vn 0.8574219 0.3666992 -0.361084
vn 0.4057617 0.168335 -0.8984375
vn 0.8461914 0.3676758 0.385498
vn 0.1588135 0.4016113 0.9018555
vn 0.9174805 0.3969727 0.01904297
vn 0.3464355 0.8642578 -0.3642578
vn 0.1707764 0.4074707 -0.8969727
vn 0.3359375 0.8603516 0.3830566
vn -0.1591797 0.4023438 0.9013672
vn 0.3701172 0.9287109 0.01474762
vn -0.3435059 0.8671875 -0.361084
vn -0.1630859 0.407959 -0.8984375
vn -0.3395996 0.8613281 0.378418
vn -0.4018555 0.1727295 0.8994141
vn -0.8510742 0.3684082 0.3735352
vn -0.9160156 0.4006348 0.01568604
vn -0.3642578 0.9311523 0.01332855
vn -0.8579102 0.3725586 -0.3535156
vn -0.4082031 0.1763916 -0.8955078
vn 0.121521 -0.4094238 -0.9042969
vn 0.4020996 -0.2362061 -0.8847656
vn 0.4057617 0.168335 -0.8984375
vn 0.1707764 0.4074707 -0.8969727
vn -0.1630859 0.407959 -0.8984375
vn -0.1779785 -0.4121094 -0.8935547
vn -0.4157715 -0.1845703 -0.890625
vn -0.4082031 0.1763916 -0.8955078
vn -0.0166626 -0.3815918 0.9243164
vn -0.3415527 -0.8774414 0.3366699
vn -0.3513184 -0.3430176 0.8710938
vn -0.006881714 -0.9243164 0.3818359
vn 0.3198242 -0.3430176 0.8833008
vn 0.3291016 -0.8774414 0.348877
vn 0.3415527 -0.8774414 -0.3366699
vn 0.006881714 -0.9243164 -0.3818359
vn -0.3291016 -0.8774414 -0.348877
vn -0.3198242 -0.3430176 -0.8833008
vn 0.0166626 -0.3815918 -0.9243164
vn 0.3513184 -0.3430176 -0.8710938
vn -0.3198242 0.3430176 -0.8833008
vn 0.0166626 0.3815918 -0.9243164
vn 0.3513184 0.3430176 -0.8710938
vn -0.3291016 0.8774414 -0.348877
vn 0.006881714 0.9243164 -0.3818359
vn 0.3415527 0.8774414 -0.3366699
vn 0.3291016 0.8774414 0.348877
vn -0.006881714 0.9243164 0.3818359
vn -0.3415527 0.8774414 0.3366699
vn -0.3513184 0.3430176 0.8710938
vn -0.0166626 0.3815918 0.9243164
vn -0.3513184 -0.3430176 0.8710938
vn 0.3198242 0.3430176 0.8833008
vn -0.0166626 -0.3815918 0.9243164
vn 0.3198242 -0.3430176 0.8833008
vn -0.3513184 0.3430176 0.8710938
vn -0.8818359 0.3415527 0.3256836
vn -0.3415527 0.8774414 0.3366699
vn -0.3513184 -0.3430176 0.8710938
vn -0.8691406 0.3415527 -0.3574219
vn -0.3291016 0.8774414 -0.348877
vn -0.3198242 0.3430176 -0.8833008
vn -0.8691406 -0.3415527 -0.3574219
vn -0.3198242 -0.3430176 -0.8833008
vn -0.3291016 -0.8774414 -0.348877
vn -0.8818359 -0.3415527 0.3256836
vn -0.3415527 -0.8774414 0.3366699
vn 0.3198242 0.3430176 0.8833008
vn 0.3291016 0.8774414 0.348877
vn 0.8691406 0.3415527 0.3574219
vn 0.3415527 0.8774414 -0.3366699
vn 0.8691406 -0.3415527 0.3574219
vn 0.3198242 -0.3430176 0.8833008
vn 0.3291016 -0.8774414 0.348877
vn 0.8818359 0.3415527 -0.3256836
vn 0.3513184 0.3430176 -0.8710938
vn 0.3513184 -0.3430176 -0.8710938
vn 0.8818359 -0.3415527 -0.3256836
vn 0.3415527 -0.8774414 -0.3366699
g Maul_0
f 3/3/3 2/2/2 1/1/1
f 1/1/1 4/4/4 3/3/3
f 4/4/4 5/5/5 3/3/3
f 4/4/4 6/6/6 5/5/5
f 6/6/6 7/7/7 5/5/5
f 6/6/6 8/8/8 7/7/7
f 11/11/11 10/10/10 9/9/9
f 12/12/12 11/11/11 9/9/9
f 13/13/13 11/11/11 12/12/12
f 14/14/14 12/12/12 9/9/9
f 15/15/15 14/14/14 9/9/9
f 16/16/16 13/13/13 12/12/12
f 17/17/17 13/13/13 16/16/16
f 18/18/18 14/14/14 15/15/15
f 19/19/19 18/18/18 15/15/15
f 19/19/19 20/20/20 18/18/18
f 20/20/20 21/21/21 18/18/18
f 18/18/18 21/21/21 22/22/22
f 14/14/14 18/18/18 22/22/22
f 21/21/21 23/23/23 22/22/22
f 12/12/12 14/14/14 24/24/24
f 24/24/24 14/14/14 22/22/22
f 16/16/16 12/12/12 24/24/24
f 22/22/22 23/23/23 25/25/25
f 22/22/22 25/25/25 24/24/24
f 23/23/23 26/26/26 25/25/25
f 27/27/27 17/17/17 16/16/16
f 28/28/28 17/17/17 27/27/27
f 24/24/24 29/29/29 16/16/16
f 25/25/25 29/29/29 24/24/24
f 29/29/29 27/27/27 16/16/16
f 25/25/25 26/26/26 30/30/30
f 29/29/29 25/25/25 30/30/30
f 26/26/26 31/31/31 30/30/30
f 32/32/32 28/28/28 27/27/27
f 33/33/33 28/28/28 32/32/32
f 27/27/27 29/29/29 34/34/34
f 34/34/34 29/29/29 30/30/30
f 32/32/32 27/27/27 34/34/34
f 30/30/30 31/31/31 35/35/35
f 30/30/30 35/35/35 34/34/34
f 31/31/31 36/36/36 35/35/35
f 37/37/37 33/33/33 32/32/32
f 38/38/38 33/33/33 37/37/37
f 34/34/34 39/39/39 32/32/32
f 35/35/35 39/39/39 34/34/34
f 39/39/39 37/37/37 32/32/32
f 35/35/35 36/36/36 40/40/40
f 39/39/39 35/35/35 40/40/40
f 36/36/36 41/41/41 40/40/40
f 42/42/42 38/38/38 37/37/37
f 43/43/43 38/38/38 42/42/42
f 37/37/37 39/39/39 44/44/44
f 44/44/44 39/39/39 40/40/40
f 42/42/42 37/37/37 44/44/44
f 40/40/40 41/41/41 45/45/45
f 40/40/40 45/45/45 44/44/44
f 41/41/41 46/46/46 45/45/45
f 47/47/47 43/43/43 42/42/42
f 48/48/48 43/43/43 47/47/47
f 49/49/49 48/48/48 47/47/47
f 50/50/50 49/49/49 47/47/47
f 44/44/44 51/51/51 42/42/42
f 51/51/51 47/47/47 42/42/42
f 51/51/51 50/50/50 47/47/47
f 45/45/45 51/51/51 44/44/44
f 52/52/52 50/50/50 51/51/51
f 45/45/45 52/52/52 51/51/51
f 45/45/45 46/46/46 52/52/52
f 46/46/46 53/53/53 52/52/52
f 56/56/56 55/55/55 54/54/54
f 54/54/54 57/57/57 56/56/56
f 54/54/54 58/58/58 57/57/57
f 54/54/54 59/59/59 58/58/58
f 59/59/59 60/60/60 58/58/58
f 60/60/60 61/61/61 58/58/58
f 64/64/64 63/63/63 62/62/62
f 63/63/63 65/65/65 62/62/62
f 62/62/62 65/65/65 66/66/66
f 65/65/65 67/67/67 66/66/66
f 68/68/68 67/67/67 65/65/65
f 69/69/69 65/65/65 63/63/63
f 69/69/69 68/68/68 65/65/65
f 70/70/70 69/69/69 63/63/63
f 69/69/69 70/70/70 71/71/71
f 68/68/68 69/69/69 72/72/72
f 72/72/72 69/69/69 71/71/71
f 73/73/73 68/68/68 72/72/72
f 71/71/71 74/74/74 72/72/72
f 72/72/72 75/75/75 73/73/73
f 74/74/74 75/75/75 72/72/72
f 75/75/75 76/76/76 73/73/73
f 74/74/74 77/77/77 75/75/75
f 75/75/75 78/78/78 76/76/76
f 77/77/77 78/78/78 75/75/75
f 78/78/78 79/79/79 76/76/76
f 79/79/79 78/78/78 80/80/80
f 78/78/78 77/77/77 81/81/81
f 78/78/78 81/81/81 80/80/80
f 77/77/77 82/82/82 81/81/81
f 81/81/81 82/82/82 83/83/83
f 80/80/80 81/81/81 84/84/84
f 84/84/84 81/81/81 83/83/83
f 84/84/84 83/83/83 85/85/85
f 86/86/86 80/80/80 84/84/84
f 87/87/87 84/84/84 85/85/85
f 86/86/86 84/84/84 87/87/87
f 88/88/88 86/86/86 87/87/87
f 91/91/91 90/90/90 89/89/89
f 89/89/89 90/90/90 92/92/92
f 93/93/93 90/90/90 91/91/91
f 94/94/94 93/93/93 91/91/91
f 95/95/95 93/93/93 94/94/94
f 96/96/96 93/93/93 95/95/95
f 93/93/93 96/96/96 90/90/90
f 97/97/97 96/96/96 95/95/95
f 98/98/98 96/96/96 97/97/97
f 90/90/90 99/99/99 92/92/92
f 96/96/96 99/99/99 90/90/90
f 99/99/99 96/96/96 98/98/98
f 99/99/99 100/100/100 92/92/92
f 100/100/100 99/99/99 98/98/98
f 103/103/103 102/102/102 101/101/101
f 102/102/102 103/103/103 104/104/104
f 105/105/105 103/103/103 101/101/101
f 106/106/106 105/105/105 101/101/101
f 107/107/107 105/105/105 106/106/106
f 103/103/103 108/108/108 104/104/104
f 108/108/108 103/103/103 105/105/105
f 104/104/104 108/108/108 109/109/109
f 109/109/109 108/108/108 110/110/110
f 105/105/105 107/107/107 111/111/111
f 111/111/111 108/108/108 105/105/105
f 108/108/108 111/111/111 110/110/110
f 107/107/107 112/112/112 111/111/111
f 111/111/111 112/112/112 110/110/110
