g Shovel_LOD0
v 0.001207113 0.06056523 -0.3775739
v 0.0009858608 0.03163457 -0.4007209
v -0.01961803 0.0520916 -0.3954599
v 0.001207113 0.06056523 -0.3775739
v 0.02168655 0.0520916 -0.3958546
v 0.0009858608 0.03163457 -0.4007209
v -0.001752377 0.02426386 -0.6872177
v -0.01973009 0.01117754 -0.4071785
v 0.0009222031 0.002703905 -0.4073759
v -0.009582758 0.02742624 -0.6871428
v -0.02820325 0.03163457 -0.4070976
v -0.01274514 0.03506112 -0.6871126
v -0.01961803 0.0520916 -0.3954599
v -0.009582758 0.04269588 -0.6871428
v -0.01751781 0.03112543 0.6502386
v -0.01589918 0.04697573 -0.4469785
v -0.009330511 0.05089235 0.6501604
v -0.02246451 0.03112543 -0.4469158
v -0.009330511 0.01135862 0.6501604
v -0.01589918 0.01527512 -0.4469785
v 0.01102757 0.003170967 0.6499656
v 0.0005424023 0.008709788 -0.4471357
v -0.01973009 0.01117754 -0.4071785
v 0.0009858608 0.03163457 -0.4007209
v 0.0009222031 0.002703905 -0.4073759
v -0.02820325 0.03163457 -0.4070976
v -0.01961803 0.0520916 -0.3954599
v -0.003932238 0.0325458 -0.9153137
v -0.003932238 0.03812909 -0.9153137
v -0.08297944 0.02923954 -0.8732505
v -0.08297944 0.02365625 -0.8732505
v -0.1452701 0.02440643 -0.8247941
v -0.1452701 0.02998972 -0.8247941
v -0.1868365 0.03470123 -0.7532914
v -0.1868365 0.02668262 -0.7532914
v -0.1856878 0.01813412 -0.6331083
v -0.1856878 0.03127515 -0.6331173
v -0.1845476 0.02207994 -0.5138028
v -0.1845476 0.03650069 -0.5138028
v -0.009582758 0.04269588 -0.6871428
v -0.001752377 0.04585826 -0.6872177
v 0.001207113 0.06056523 -0.3775739
v -0.01961803 0.0520916 -0.3954599
v -0.1845476 0.02207994 -0.5138028
v -0.1845476 0.03650069 -0.5138028
v -0.1358523 0.03164709 -0.5144806
v -0.1358523 0.01722634 -0.5144806
v -0.07317591 0.01601291 -0.5146332
v -0.07317591 0.03043365 -0.5146332
v -5.245209E-05 0.04355085 -0.5093718
v -5.245209E-05 0.0291301 -0.5093718
v -0.001994371 0.02327883 -0.7125599
v -0.003932238 0.0325458 -0.9153137
v -0.08297944 0.02365625 -0.8732505
v -0.08046961 0.01102316 -0.6943024
v -5.245209E-05 0.0291301 -0.5093718
v -0.1452701 0.02440643 -0.8247941
v -0.07317591 0.01601291 -0.5146332
v -0.1430037 0.01267219 -0.6700766
v -0.1868365 0.02668262 -0.7532914
v -0.1358523 0.01722634 -0.5144806
v -0.1856878 0.01813412 -0.6331083
v -0.1845476 0.02207994 -0.5138028
v -0.001994133 0.03666174 -0.7125363
v -5.245209E-05 0.04355085 -0.5093718
v -0.07317591 0.03043365 -0.5146332
v -0.08046961 0.02426887 -0.6943121
v -0.003932238 0.03812909 -0.9153137
v -0.1358523 0.03164709 -0.5144806
v -0.08297944 0.02923954 -0.8732505
v -0.1430037 0.0257293 -0.6701065
v -0.1845476 0.03650069 -0.5138028
v -0.1452701 0.02998972 -0.8247941
v -0.1856878 0.03127515 -0.6331173
v -0.1868365 0.03470123 -0.7532914
v -0.009330511 0.05089235 0.6501604
v -0.01589918 0.04697573 -0.4469785
v 0.0005424023 0.05354118 -0.4471357
v 0.01102757 0.05908 0.6499656
v -0.009330511 0.05089235 0.6501604
v 0.01102757 0.05908 0.6499656
v 0.01102757 0.003170967 0.6499656
v -0.009330511 0.01135862 0.6501604
v -0.01751781 0.03112543 0.6502386
v -0.009582758 0.02742624 -0.6871428
v -0.001752377 0.02426386 -0.6872177
v -0.001752377 0.04585826 -0.6872177
v -0.009582758 0.04269588 -0.6871428
v -0.01274514 0.03506112 -0.6871126
v -0.001752377 0.02426386 -0.6872177
v 0.0009222031 0.002703905 -0.4073759
v 0.0215745 0.01117754 -0.4075733
v 0.006078243 0.02742624 -0.6872925
v 0.03004742 0.03163457 -0.4076543
v 0.009240389 0.03506112 -0.6873227
v 0.02168655 0.0520916 -0.3958546
v 0.006078243 0.04269588 -0.6872925
v 0.03957295 0.03112543 0.6496929
v 0.03138566 0.05089235 0.6497711
v 0.01698399 0.04697573 -0.4472928
v 0.02354932 0.03112543 -0.4473555
v 0.03138566 0.01135862 0.6497711
v 0.01698399 0.01527512 -0.4472928
v 0.01102757 0.003170967 0.6499656
v 0.0005424023 0.008709788 -0.4471357
v 0.0215745 0.01117754 -0.4075733
v 0.0009222031 0.002703905 -0.4073759
v 0.0009858608 0.03163457 -0.4007209
v 0.03004742 0.03163457 -0.4076543
v 0.02168655 0.0520916 -0.3958546
v -0.003932238 0.0325458 -0.9153137
v 0.07590461 0.02923954 -0.874769
v -0.003932238 0.03812909 -0.9153137
v 0.07590461 0.02365625 -0.874769
v 0.1391098 0.02440643 -0.827512
v 0.1391098 0.02998972 -0.827512
v 0.1820352 0.03470123 -0.7568167
v 0.1820352 0.02668262 -0.7568167
v 0.1831839 0.01813412 -0.6366337
v 0.1831839 0.03127515 -0.6366428
v 0.184324 0.02207994 -0.5173281
v 0.184324 0.03650069 -0.5173281
v 0.006078243 0.04269588 -0.6872925
v 0.02168655 0.0520916 -0.3958546
v 0.001207113 0.06056523 -0.3775739
v -0.001752377 0.04585826 -0.6872177
v 0.184324 0.02207994 -0.5173281
v 0.1356246 0.03164709 -0.5170752
v 0.184324 0.03650069 -0.5173281
v 0.1356249 0.01722634 -0.5170752
v 0.07295704 0.01601291 -0.5160299
v 0.07295704 0.03043365 -0.5160299
v -5.245209E-05 0.04355085 -0.5093718
v -5.245209E-05 0.0291301 -0.5093718
v -0.001994371 0.02327883 -0.7125599
v 0.07590461 0.02365625 -0.874769
v -0.003932238 0.0325458 -0.9153137
v 0.07681513 0.01102316 -0.6958057
v -5.245209E-05 0.0291301 -0.5093718
v 0.1391098 0.02440643 -0.827512
v 0.07295704 0.01601291 -0.5160299
v 0.1398008 0.01267219 -0.6727794
v 0.1820352 0.02668262 -0.7568167
v 0.1356249 0.01722634 -0.5170752
v 0.1831839 0.01813412 -0.6366337
v 0.184324 0.02207994 -0.5173281
v -0.001994133 0.03666174 -0.7125363
v 0.07295704 0.03043365 -0.5160299
v -5.245209E-05 0.04355085 -0.5093718
v 0.07681513 0.02426887 -0.6958153
v -0.003932238 0.03812909 -0.9153137
v 0.1356246 0.03164709 -0.5170752
v 0.07590461 0.02923954 -0.874769
v 0.1398003 0.0257293 -0.6728094
v 0.184324 0.03650069 -0.5173281
v 0.1391098 0.02998972 -0.827512
v 0.1831839 0.03127515 -0.6366428
v 0.1820352 0.03470123 -0.7568167
v 0.03138566 0.05089235 0.6497711
v 0.01102757 0.05908 0.6499656
v 0.0005424023 0.05354118 -0.4471357
v 0.01698399 0.04697573 -0.4472928
v 0.03138566 0.05089235 0.6497711
v 0.03957295 0.03112543 0.6496929
v 0.03138566 0.01135862 0.6497711
v 0.01102757 0.05908 0.6499656
v 0.01102757 0.003170967 0.6499656
v 0.006078243 0.02742624 -0.6872925
v 0.009240389 0.03506112 -0.6873227
v 0.006078243 0.04269588 -0.6872925
v -0.001752377 0.02426386 -0.6872177
v -0.001752377 0.04585826 -0.6872177
vt 0.7338867 0.5258789
vt 0.7524414 0.5307617
vt 0.7456055 0.5175781
vt 0.7338867 0.5258789
vt 0.7456055 0.5175781
vt 0.7524414 0.5307617
vt 0.9223633 0.4086914
vt 0.9228516 0.2692871
vt 0.9116211 0.265625
vt 0.9272461 0.407959
vt 0.9335938 0.2687988
vt 0.9316406 0.407959
vt 0.9453125 0.2600098
vt 0.9365234 0.4086914
vt 0.0824585 0.9882813
vt 0.07348633 0.4401855
vt 0.07348633 0.9882813
vt 0.0824585 0.4401855
vt 0.09136963 0.9882813
vt 0.09136963 0.4401855
vt 0.1004028 0.9882813
vt 0.1004028 0.4401855
vt 0.9228516 0.2692871
vt 0.9267578 0.253418
vt 0.9116211 0.265625
vt 0.9335938 0.2687988
vt 0.9453125 0.2600098
vt 0.5727539 0.6162109
vt 0.5756836 0.6162109
vt 0.5708008 0.5708008
vt 0.5678711 0.5708008
vt 0.5678711 0.5307617
vt 0.5708008 0.5307617
vt 0.5727539 0.4885254
vt 0.5688477 0.4885254
vt 0.5639648 0.4274902
vt 0.5708008 0.4274902
vt 0.5654297 0.3666992
vt 0.5727539 0.3666992
vt 0.7490234 0.3686523
vt 0.7451172 0.3684082
vt 0.7338867 0.5258789
vt 0.7456055 0.5175781
vt 0.5654297 0.3666992
vt 0.5727539 0.3666992
vt 0.5703125 0.3417969
vt 0.5625 0.342041
vt 0.5620117 0.3100586
vt 0.5693359 0.3100586
vt 0.5756836 0.2729492
vt 0.5683594 0.2729492
vt 0.8286133 0.1485596
vt 0.8286133 0.04504395
vt 0.7880859 0.06628418
vt 0.7880859 0.1575928
vt 0.8286133 0.2524414
vt 0.7558594 0.09051514
vt 0.7910156 0.2490234
vt 0.7563477 0.1694336
vt 0.7338867 0.1264648
vt 0.7587891 0.2486572
vt 0.734375 0.1879883
vt 0.7338867 0.2487793
vt 0.8959961 0.6508789
vt 0.8959961 0.546875
vt 0.8583984 0.550293
vt 0.8554688 0.6416016
vt 0.8959961 0.7539063
vt 0.8261719 0.5507813
vt 0.8554688 0.7329102
vt 0.8237305 0.6298828
vt 0.8012695 0.550293
vt 0.8232422 0.7084961
vt 0.8017578 0.6113281
vt 0.8012695 0.6723633
vt 0.006904602 0.07287598
vt 0.006904602 0.6293945
vt 0.01785278 0.6293945
vt 0.01785278 0.07287598
vt 0.5273438 0.2839355
vt 0.5375977 0.2883301
vt 0.5375977 0.2597656
vt 0.5273438 0.263916
vt 0.5234375 0.2739258
vt 0.7524414 0.3615723
vt 0.7495117 0.3586426
vt 0.7451172 0.3684082
vt 0.7490234 0.3686523
vt 0.7519531 0.3659668
vt 0.9223633 0.4086914
vt 0.9116211 0.265625
vt 0.9228516 0.2692871
vt 0.9272461 0.407959
vt 0.9335938 0.2687988
vt 0.9316406 0.407959
vt 0.9453125 0.2600098
vt 0.9365234 0.4086914
vt 0.0824585 0.9882813
vt 0.07348633 0.9882813
vt 0.07348633 0.4401855
vt 0.0824585 0.4401855
vt 0.09136963 0.9882813
vt 0.09136963 0.4401855
vt 0.1004028 0.9882813
vt 0.1004028 0.4401855
vt 0.9228516 0.2692871
vt 0.9116211 0.265625
vt 0.9267578 0.253418
vt 0.9335938 0.2687988
vt 0.9453125 0.2600098
vt 0.5727539 0.6162109
vt 0.5708008 0.5708008
vt 0.5756836 0.6162109
vt 0.5678711 0.5708008
vt 0.5678711 0.5307617
vt 0.5708008 0.5307617
vt 0.5727539 0.4885254
vt 0.5688477 0.4885254
vt 0.5639648 0.4274902
vt 0.5708008 0.4274902
vt 0.5654297 0.3666992
vt 0.5727539 0.3666992
vt 0.7490234 0.3686523
vt 0.7456055 0.5175781
vt 0.7338867 0.5258789
vt 0.7451172 0.3684082
vt 0.5654297 0.3666992
vt 0.5703125 0.3417969
vt 0.5727539 0.3666992
vt 0.5625 0.342041
vt 0.5620117 0.3100586
vt 0.5693359 0.3100586
vt 0.5756836 0.2729492
vt 0.5683594 0.2729492
vt 0.8286133 0.1485596
vt 0.7880859 0.06628418
vt 0.8286133 0.04504395
vt 0.7880859 0.1575928
vt 0.8286133 0.2524414
vt 0.7558594 0.09051514
vt 0.7910156 0.2490234
vt 0.7563477 0.1694336
vt 0.7338867 0.1264648
vt 0.7587891 0.2486572
vt 0.734375 0.1879883
vt 0.7338867 0.2487793
vt 0.8959961 0.6508789
vt 0.8583984 0.550293
vt 0.8959961 0.546875
vt 0.8554688 0.6416016
vt 0.8959961 0.7539063
vt 0.8261719 0.5507813
vt 0.8554688 0.7329102
vt 0.8237305 0.6298828
vt 0.8012695 0.550293
vt 0.8232422 0.7084961
vt 0.8017578 0.6113281
vt 0.8012695 0.6723633
vt 0.006904602 0.07287598
vt 0.01785278 0.07287598
vt 0.01785278 0.6293945
vt 0.006904602 0.6293945
vt 0.5273438 0.2839355
vt 0.5234375 0.2739258
vt 0.5273438 0.263916
vt 0.5375977 0.2883301
vt 0.5375977 0.2597656
vt 0.7524414 0.3615723
vt 0.7519531 0.3659668
vt 0.7490234 0.3686523
vt 0.7495117 0.3586426
vt 0.7451172 0.3684082
vn 0.007461548 -0.6245117 0.7807617
vn 0.008918762 -0.3591309 0.9331055
vn -0.3017578 -0.5107422 0.8046875
vn 0.007461548 -0.6245117 0.7807617
vn 0.3171387 -0.5107422 0.7988281
vn 0.008918762 -0.3591309 0.9331055
vn -0.0007343292 -0.9970703 -0.07666016
vn -0.7026367 -0.7084961 -0.06665039
vn -0.0007343292 -0.9970703 -0.07666016
vn -0.7055664 -0.7055664 -0.06658936
vn -0.996582 0.06549072 -0.05383301
vn -0.9985352 0.0134964 -0.05462646
vn -0.5751953 0.8164063 -0.0458374
vn -0.6865234 0.7255859 -0.04696655
vn -1 -5.960464E-07 0.004508972
vn -0.703125 0.7109375 0.00165844
vn -0.703125 0.7109375 0.00165844
vn -1 -5.960464E-07 0.004508972
vn -0.703125 -0.7109375 0.00165844
vn -0.703125 -0.7109375 0.00165844
vn -4.851818E-05 -1 -0.005023956
vn -4.780293E-05 -1 -0.005023956
vn -0.1484375 -0.1578369 0.9760742
vn 0.008918762 -0.3591309 0.9331055
vn 0.009315491 -0.2242432 0.9746094
vn -0.2062988 -0.2563477 0.9443359
vn -0.3017578 -0.5107422 0.8046875
vn -0.4697266 0 -0.8828125
vn -0.4697266 0 -0.8828125
vn -0.5419922 0 -0.840332
vn -0.5458984 0 -0.8378906
vn -0.7514648 0 -0.659668
vn -0.7558594 0 -0.6547852
vn -0.9672852 2.145767E-06 -0.2531738
vn -0.9677734 2.145767E-06 -0.2519531
vn -1 3.635883E-06 0.009559631
vn -1 3.635883E-06 0.009559631
vn -1 3.159046E-06 0.009552002
vn -1 3.159046E-06 0.009552002
vn -0.6865234 0.7255859 -0.04696655
vn -0.0004611015 0.9990234 -0.0480957
vn -0.0004608631 0.9990234 -0.0480957
vn -0.5751953 0.8164063 -0.0458374
vn 0.01391602 0 1
vn 0.01391602 0 1
vn 0.008392334 0 1
vn 0.007957458 0 1
vn -0.03271484 0 0.9995117
vn -0.03643799 0 0.9995117
vn 0.009559631 0 1
vn 0.009559631 0 1
vn -0.0002081394 -1 -0.02177429
vn -0.0005497932 -0.9985352 -0.05749512
vn 0.05758667 -0.996582 -0.06268311
vn 0.04873657 -0.9985352 -0.02224731
vn 0.0002467632 -0.9995117 0.02583313
vn -0.08483887 -0.9936523 -0.07159424
vn 0.07965088 -0.996582 0.02651978
vn -0.09643555 -0.9951172 -0.02558899
vn -0.1804199 -0.980957 -0.07012939
vn -0.05688477 -0.9980469 0.03143311
vn -0.121521 -0.9926758 0.004718781
vn -0.09838867 -0.9946289 0.03372192
vn -3.665686E-05 1 -0.003847122
vn -0.0003018379 0.9995117 -0.03158569
vn -0.08178711 0.9960938 -0.03305054
vn -0.06158447 0.9980469 -0.003236771
vn 0.0001637936 1 0.01713562
vn 0.05392456 0.9975586 -0.03985596
vn -0.07727051 0.996582 0.02105713
vn 0.07995605 0.996582 -0.002731323
vn 0.09539795 0.9946289 -0.04318237
vn 0.05731201 0.9980469 0.02690125
vn 0.1115723 0.9936523 -0.02407837
vn 0.1534424 0.987793 0.02572632
vn -0.703125 0.7109375 0.00165844
vn -0.703125 0.7109375 0.00165844
vn -4.792213E-05 1 -0.005023956
vn -4.857779E-05 1 -0.005023956
vn 0.009559631 -4.172325E-07 1
vn 0.009559631 1.788139E-07 1
vn 0.009559631 1.788139E-07 1
vn 0.009559631 -4.172325E-07 1
vn 0.009559631 -4.172325E-07 1
vn -0.009559631 0 -1
vn -0.009559631 0 -1
vn -0.009559631 0 -1
vn -0.009559631 0 -1
vn -0.009559631 0 -1
vn -0.0007343292 -0.9970703 -0.07666016
vn -0.0007343292 -0.9970703 -0.07666016
vn 0.7011719 -0.7084961 -0.08007813
vn 0.7041016 -0.7055664 -0.08007813
vn 0.9951172 0.06549072 -0.07287598
vn 0.9970703 0.0134964 -0.07366943
vn 0.5742188 0.8164063 -0.05682373
vn 0.6855469 0.7255859 -0.06005859
vn 1 -5.960464E-07 -0.01460266
vn 0.703125 0.7109375 -0.01177979
vn 0.703125 0.7109375 -0.01177979
vn 1 -5.960464E-07 -0.01460266
vn 0.703125 -0.7109375 -0.01177979
vn 0.703125 -0.7109375 -0.01177979
vn -4.851818E-05 -1 -0.005023956
vn -4.780293E-05 -1 -0.005023956
vn 0.1669922 -0.1578369 0.9731445
vn 0.009315491 -0.2242432 0.9746094
vn 0.008918762 -0.3591309 0.9331055
vn 0.2243652 -0.2563477 0.9404297
vn 0.3171387 -0.5107422 0.7988281
vn 0.4528809 0 -0.8916016
vn 0.5258789 0 -0.8505859
vn 0.4528809 0 -0.8916016
vn 0.5297852 0 -0.8481445
vn 0.7387695 0 -0.6738281
vn 0.7431641 0 -0.6694336
vn 0.9624023 -2.145767E-06 -0.2717285
vn 0.9628906 -2.145767E-06 -0.2705078
vn 1 -3.635883E-06 -0.009559631
vn 1 -3.635883E-06 -0.009559631
vn 1 -3.159046E-06 -0.009552002
vn 1 -3.159046E-06 -0.009552002
vn 0.6855469 0.7255859 -0.06005859
vn 0.5742188 0.8164063 -0.05682373
vn -0.0004608631 0.9990234 -0.0480957
vn -0.0004611015 0.9990234 -0.0480957
vn 0.005195618 -4.768372E-07 1
vn 0.01072693 -2.384186E-07 1
vn 0.005195618 -4.768372E-07 1
vn 0.0111618 -2.384186E-07 1
vn 0.05178833 0 0.9985352
vn 0.05554199 0 0.9985352
vn 0.009559631 0 1
vn 0.009559631 0 1
vn -0.0002081394 -1 -0.02177429
vn -0.05877686 -0.996582 -0.06155396
vn -0.0005497932 -0.9985352 -0.05749512
vn -0.04916382 -0.9985352 -0.02131653
vn 0.0002467632 -0.9995117 0.02583313
vn 0.08343506 -0.9936523 -0.07318115
vn -0.07910156 -0.996582 0.02804565
vn 0.09588623 -0.9951172 -0.0274353
vn 0.1790771 -0.980957 -0.0736084
vn 0.05749512 -0.9980469 0.03033447
vn 0.121582 -0.9926758 0.00239563
vn 0.09899902 -0.9946289 0.03182983
vn -3.665686E-05 1 -0.003847122
vn 0.08111572 0.9960938 -0.03460693
vn -0.0003018379 0.9995117 -0.03158569
vn 0.06152344 0.9980469 -0.004413605
vn 0.0001637936 1 0.01713562
vn -0.0546875 0.9975586 -0.03881836
vn 0.07769775 0.996582 0.01957703
vn -0.08001709 0.996582 -0.001202583
vn -0.09619141 0.9946289 -0.04135132
vn -0.05679321 0.9980469 0.02799988
vn -0.1119995 0.9936523 -0.02194214
vn -0.152832 0.987793 0.02864075
vn 0.703125 0.7109375 -0.01177979
vn -4.857779E-05 1 -0.005023956
vn -4.792213E-05 1 -0.005023956
vn 0.703125 0.7109375 -0.01177979
vn 0.009552002 8.34465E-07 1
vn 0.009552002 8.34465E-07 1
vn 0.009552002 8.34465E-07 1
vn 0.009559631 1.788139E-07 1
vn 0.009559631 1.788139E-07 1
vn -0.009552002 0 -1
vn -0.009552002 0 -1
vn -0.009552002 0 -1
vn -0.009559631 0 -1
vn -0.009559631 0 -1
g Shovel_LOD0_0
f 3/3/3 2/2/2 1/1/1
f 6/6/6 5/5/5 4/4/4
f 9/9/9 8/8/8 7/7/7
f 8/8/8 10/10/10 7/7/7
f 8/8/8 11/11/11 10/10/10
f 11/11/11 12/12/12 10/10/10
f 11/11/11 13/13/13 12/12/12
f 13/13/13 14/14/14 12/12/12
f 17/17/17 16/16/16 15/15/15
f 16/16/16 18/18/18 15/15/15
f 15/15/15 18/18/18 19/19/19
f 18/18/18 20/20/20 19/19/19
f 19/19/19 20/20/20 21/21/21
f 20/20/20 22/22/22 21/21/21
f 25/25/25 24/24/24 23/23/23
f 23/23/23 24/24/24 26/26/26
f 26/26/26 24/24/24 27/27/27
f 30/30/30 29/29/29 28/28/28
f 31/31/31 30/30/30 28/28/28
f 30/30/30 31/31/31 32/32/32
f 33/33/33 30/30/30 32/32/32
f 34/34/34 33/33/33 32/32/32
f 35/35/35 34/34/34 32/32/32
f 34/34/34 35/35/35 36/36/36
f 37/37/37 34/34/34 36/36/36
f 36/36/36 38/38/38 37/37/37
f 38/38/38 39/39/39 37/37/37
f 42/42/42 41/41/41 40/40/40
f 43/43/43 42/42/42 40/40/40
f 46/46/46 45/45/45 44/44/44
f 47/47/47 46/46/46 44/44/44
f 46/46/46 47/47/47 48/48/48
f 49/49/49 46/46/46 48/48/48
f 50/50/50 49/49/49 48/48/48
f 51/51/51 50/50/50 48/48/48
f 54/54/54 53/53/53 52/52/52
f 55/55/55 54/54/54 52/52/52
f 52/52/52 56/56/56 55/55/55
f 57/57/57 54/54/54 55/55/55
f 56/56/56 58/58/58 55/55/55
f 59/59/59 57/57/57 55/55/55
f 55/55/55 58/58/58 59/59/59
f 60/60/60 57/57/57 59/59/59
f 58/58/58 61/61/61 59/59/59
f 62/62/62 60/60/60 59/59/59
f 59/59/59 61/61/61 62/62/62
f 61/61/61 63/63/63 62/62/62
f 66/66/66 65/65/65 64/64/64
f 67/67/67 66/66/66 64/64/64
f 64/64/64 68/68/68 67/67/67
f 69/69/69 66/66/66 67/67/67
f 68/68/68 70/70/70 67/67/67
f 71/71/71 69/69/69 67/67/67
f 67/67/67 70/70/70 71/71/71
f 72/72/72 69/69/69 71/71/71
f 70/70/70 73/73/73 71/71/71
f 74/74/74 72/72/72 71/71/71
f 73/73/73 75/75/75 71/71/71
f 75/75/75 74/74/74 71/71/71
f 78/78/78 77/77/77 76/76/76
f 79/79/79 78/78/78 76/76/76
f 82/82/82 81/81/81 80/80/80
f 80/80/80 83/83/83 82/82/82
f 80/80/80 84/84/84 83/83/83
f 87/87/87 86/86/86 85/85/85
f 85/85/85 88/88/88 87/87/87
f 85/85/85 89/89/89 88/88/88
f 92/92/92 91/91/91 90/90/90
f 93/93/93 92/92/92 90/90/90
f 94/94/94 92/92/92 93/93/93
f 95/95/95 94/94/94 93/93/93
f 96/96/96 94/94/94 95/95/95
f 97/97/97 96/96/96 95/95/95
f 100/100/100 99/99/99 98/98/98
f 101/101/101 100/100/100 98/98/98
f 101/101/101 98/98/98 102/102/102
f 103/103/103 101/101/101 102/102/102
f 103/103/103 102/102/102 104/104/104
f 105/105/105 103/103/103 104/104/104
f 108/108/108 107/107/107 106/106/106
f 108/108/108 106/106/106 109/109/109
f 108/108/108 109/109/109 110/110/110
f 113/113/113 112/112/112 111/111/111
f 112/112/112 114/114/114 111/111/111
f 114/114/114 112/112/112 115/115/115
f 112/112/112 116/116/116 115/115/115
f 116/116/116 117/117/117 115/115/115
f 117/117/117 118/118/118 115/115/115
f 118/118/118 117/117/117 119/119/119
f 117/117/117 120/120/120 119/119/119
f 121/121/121 119/119/119 120/120/120
f 122/122/122 121/121/121 120/120/120
f 125/125/125 124/124/124 123/123/123
f 126/126/126 125/125/125 123/123/123
f 129/129/129 128/128/128 127/127/127
f 128/128/128 130/130/130 127/127/127
f 130/130/130 128/128/128 131/131/131
f 128/128/128 132/132/132 131/131/131
f 132/132/132 133/133/133 131/131/131
f 133/133/133 134/134/134 131/131/131
f 137/137/137 136/136/136 135/135/135
f 136/136/136 138/138/138 135/135/135
f 139/139/139 135/135/135 138/138/138
f 136/136/136 140/140/140 138/138/138
f 141/141/141 139/139/139 138/138/138
f 140/140/140 142/142/142 138/138/138
f 141/141/141 138/138/138 142/142/142
f 140/140/140 143/143/143 142/142/142
f 144/144/144 141/141/141 142/142/142
f 143/143/143 145/145/145 142/142/142
f 144/144/144 142/142/142 145/145/145
f 146/146/146 144/144/144 145/145/145
f 149/149/149 148/148/148 147/147/147
f 148/148/148 150/150/150 147/147/147
f 151/151/151 147/147/147 150/150/150
f 148/148/148 152/152/152 150/150/150
f 153/153/153 151/151/151 150/150/150
f 152/152/152 154/154/154 150/150/150
f 153/153/153 150/150/150 154/154/154
f 152/152/152 155/155/155 154/154/154
f 156/156/156 153/153/153 154/154/154
f 155/155/155 157/157/157 154/154/154
f 158/158/158 156/156/156 154/154/154
f 157/157/157 158/158/158 154/154/154
f 161/161/161 160/160/160 159/159/159
f 162/162/162 161/161/161 159/159/159
f 165/165/165 164/164/164 163/163/163
f 163/163/163 166/166/166 165/165/165
f 166/166/166 167/167/167 165/165/165
f 170/170/170 169/169/169 168/168/168
f 168/168/168 171/171/171 170/170/170
f 171/171/171 172/172/172 170/170/170
