g Wooden_Railings_3
v -0.04185412 0.9238547 -0.02811371
v -0.02811372 0.9238547 -0.04185411
v -0.02811372 0.9375952 -0.02811371
v -0.02811372 0.9375952 -0.02811371
v -0.02811372 0.9238547 -0.04185411
v 0.02811371 0.9238547 -0.04185412
v -0.03836323 0.6264185 0.02502557
v -0.04185412 0.9238547 -0.02811371
v -0.04185411 0.9238547 0.02811372
v -0.03836324 0.6264185 -0.02900729
v -0.02811372 0.9238547 -0.04185411
v -0.03866939 0.2976017 0.02216151
v -0.02539827 0.6264185 -0.04197225
v -0.03866939 0.2976017 -0.02967677
v -0.03623594 -0.005484007 0.02482186
v -0.02647987 0.2976017 -0.04186629
v -0.03623594 -0.005484007 -0.02482186
v -0.02482186 -0.005484007 -0.03623594
v 0.02863459 0.6264185 0.03799053
v -0.02811371 0.9238547 0.04185412
v 0.02811372 0.9238547 0.04185411
v -0.02539827 0.6264185 0.03799053
v -0.04185411 0.9238547 0.02811372
v 0.02535842 0.2976017 0.03435103
v -0.03836323 0.6264185 0.02502557
v -0.02647986 0.2976017 0.03435104
v 0.02482186 -0.005484007 0.03623594
v -0.03866939 0.2976017 0.02216151
v -0.02482186 -0.005484007 0.03623594
v -0.03623594 -0.005484007 0.02482186
v -0.02539827 0.6264185 -0.04197225
v 0.02811371 0.9238547 -0.04185412
v -0.02811372 0.9238547 -0.04185411
v 0.02863458 0.6264185 -0.04197225
v 0.04185411 0.9238547 -0.02811372
v -0.02647987 0.2976017 -0.04186629
v 0.04159954 0.6264185 -0.02900729
v 0.02535842 0.2976017 -0.0418663
v -0.02482186 -0.005484007 -0.03623594
v 0.03754794 0.2976017 -0.02967677
v 0.02482186 -0.005484007 -0.03623594
v 0.03623594 -0.005484007 -0.02482186
v 0.04159954 0.6264185 -0.02900729
v 0.04185412 0.9238547 0.02811371
v 0.04185411 0.9238547 -0.02811372
v 0.04159955 0.6264185 0.02502556
v 0.02811372 0.9238547 0.04185411
v 0.03754794 0.2976017 -0.02967677
v 0.02863459 0.6264185 0.03799053
v 0.03754794 0.2976017 0.02216151
v 0.03623594 -0.005484007 -0.02482186
v 0.02535842 0.2976017 0.03435103
v 0.03623594 -0.005484007 0.02482186
v 0.02482186 -0.005484007 0.03623594
v 0.02811371 0.9375952 -0.02811372
v 0.02811371 0.9238547 -0.04185412
v 0.04185411 0.9238547 -0.02811372
v 0.04185412 0.9238547 0.02811371
v 0.02811372 0.9375952 0.02811371
v 0.02811372 0.9238547 0.04185411
v -0.02811371 0.9375952 0.02811372
v -0.02811371 0.9238547 0.04185412
v -0.04185411 0.9238547 0.02811372
v 0.02811372 0.9375952 0.02811371
v 0.02811372 0.9238547 0.04185411
v -0.02811372 0.9375952 -0.02811371
v 0.02811371 0.9238547 -0.04185412
v 0.02811371 0.9375952 -0.02811372
v 0.02811372 0.9375952 0.02811371
v -0.02811371 0.9375952 0.02811372
v -0.04185412 0.9238547 -0.02811371
v -0.04185411 0.9238547 0.02811372
v -0.02482186 -0.005484007 -0.03623594
v -0.03623594 -0.005484007 -0.02482186
v -0.03623594 -0.005484007 0.02482186
v -0.02482186 -0.005484007 0.03623594
v 0.02482186 -0.005484007 -0.03623594
v 0.02482186 -0.005484007 0.03623594
v 0.03623594 -0.005484007 -0.02482186
v 0.03623594 -0.005484007 0.02482186
vt 0.4135742 0.01963806
vt 0.3969727 0.002632141
vt 0.3933105 0.0229187
vt 0.3933105 0.0229187
vt 0.3969727 0.002632141
vt 0.3317871 0.0007157326
vt 0.166748 0.6787109
vt 0.1063232 0.9975586
vt 0.166626 0.9980469
vt 0.1087036 0.6782227
vt 0.08557129 0.9970703
vt 0.166748 0.3254395
vt 0.08892822 0.6777344
vt 0.111145 0.3254395
vt 0.1669922 0.0005545616
vt 0.09277344 0.3254395
vt 0.1137695 0.0009675026
vt 0.09643555 0.0009260178
vt 0.2445068 0.6782227
vt 0.1873779 0.9980469
vt 0.2476807 0.9970703
vt 0.1865234 0.6787109
vt 0.166626 0.9980469
vt 0.2408447 0.3251953
vt 0.166748 0.6787109
vt 0.1851807 0.3254395
vt 0.2374268 -8.493662E-05
vt 0.166748 0.3254395
vt 0.1842041 0.0003652573
vt 0.1669922 0.0005545616
vt 0.08892822 0.6777344
vt 0.02529907 0.9956055
vt 0.08557129 0.9970703
vt 0.03096008 0.6772461
vt 0.004482269 0.9956055
vt 0.09277344 0.3254395
vt 0.01129913 0.6767578
vt 0.03729248 0.324707
vt 0.09643555 0.0009260178
vt 0.01881409 0.3244629
vt 0.04327393 3.612041E-05
vt 0.02597046 -0.0004897118
vt 0.3220215 0.6767578
vt 0.2685547 0.9970703
vt 0.3286133 0.9956055
vt 0.2641602 0.6782227
vt 0.2476807 0.9970703
vt 0.3151855 0.3242188
vt 0.2445068 0.6782227
vt 0.2595215 0.3251953
vt 0.3078613 -0.0004897118
vt 0.2408447 0.3251953
vt 0.2546387 -0.0001708269
vt 0.2374268 -8.493662E-05
vt 0.3349609 0.0222168
vt 0.3317871 0.0007157326
vt 0.3139648 0.0184021
vt 0.3139648 0.08551025
vt 0.3349609 0.08166504
vt 0.3317871 0.1032104
vt 0.3933105 0.08099365
vt 0.3969727 0.1012573
vt 0.4135742 0.08428955
vt 0.3349609 0.08166504
vt 0.3317871 0.1032104
vt 0.3933105 0.0229187
vt 0.3317871 0.0007157326
vt 0.3349609 0.0222168
vt 0.3349609 0.08166504
vt 0.3933105 0.08099365
vt 0.4135742 0.01963806
vt 0.4135742 0.08428955
vt 0.4199219 0.06866455
vt 0.4321289 0.08093262
vt 0.4853516 0.08093262
vt 0.4978027 0.06866455
vt 0.4199219 0.01541901
vt 0.4978027 0.01541901
vt 0.4321289 0.003177643
vt 0.4853516 0.003175735
vn -0.8774414 0.3371582 -0.3413086
vn -0.3427734 0.3400879 -0.8754883
vn -0.3415527 0.8754883 -0.3415527
vn -0.3415527 0.8754883 -0.3415527
vn -0.3427734 0.3400879 -0.8754883
vn 0.3413086 0.342041 -0.8754883
vn -0.9238281 -0.008659363 0.3830566
vn -0.8774414 0.3371582 -0.3413086
vn -0.8774414 0.3347168 0.3430176
vn -0.9238281 -0.004024506 -0.3833008
vn -0.3427734 0.3400879 -0.8754883
vn -0.9248047 -0.003271103 0.3803711
vn -0.3813477 -0.001075745 -0.9243164
vn -0.9233398 -0.005958557 -0.3842773
vn -0.9228516 -0.00402832 0.3852539
vn -0.3828125 -0.009124756 -0.9238281
vn -0.9248047 -0.01351166 -0.3798828
vn -0.3830566 -0.01925659 -0.9233398
vn 0.3840332 -0.01268005 0.9233398
vn -0.3430176 0.3344727 0.8779297
vn 0.3413086 0.3361816 0.8779297
vn -0.3813477 -0.01224518 0.9243164
vn -0.8774414 0.3347168 0.3430176
vn 0.3825684 -0.004493713 0.9238281
vn -0.9238281 -0.008659363 0.3830566
vn -0.3842773 -0.002662659 0.9233398
vn 0.3818359 0.005073547 0.9243164
vn -0.9248047 -0.003271103 0.3803711
vn -0.3811035 0.003665924 0.9248047
vn -0.9228516 -0.00402832 0.3852539
vn -0.3813477 -0.001075745 -0.9243164
vn 0.3413086 0.342041 -0.8754883
vn -0.3427734 0.3400879 -0.8754883
vn 0.3837891 -0.001545906 -0.9233398
vn 0.8754883 0.3417969 -0.3410645
vn -0.3828125 -0.009124756 -0.9238281
vn 0.9238281 -0.005119324 -0.3823242
vn 0.3811035 -0.01094818 -0.9243164
vn -0.3830566 -0.01925659 -0.9233398
vn 0.9228516 -0.01038361 -0.3847656
vn 0.3837891 -0.01783752 -0.9233398
vn 0.925293 -0.01008606 -0.3796387
vn 0.9238281 -0.005119324 -0.3823242
vn 0.8759766 0.3393555 0.3430176
vn 0.8754883 0.3417969 -0.3410645
vn 0.9243164 -0.009719849 0.3820801
vn 0.3413086 0.3361816 0.8779297
vn 0.9228516 -0.01038361 -0.3847656
vn 0.3840332 -0.01268005 0.9233398
vn 0.9243164 -0.007701874 0.3811035
vn 0.925293 -0.01008606 -0.3796387
vn 0.3825684 -0.004493713 0.9238281
vn 0.9228516 -0.0006170273 0.3847656
vn 0.3818359 0.005073547 0.9243164
vn 0.3415527 0.8754883 -0.3415527
vn 0.3413086 0.342041 -0.8754883
vn 0.8754883 0.3417969 -0.3410645
vn 0.8759766 0.3393555 0.3430176
vn 0.3415527 0.8754883 0.3415527
vn 0.3413086 0.3361816 0.8779297
vn -0.3415527 0.8754883 0.3415527
vn -0.3430176 0.3344727 0.8779297
vn -0.8774414 0.3347168 0.3430176
vn 0.3415527 0.8754883 0.3415527
vn 0.3413086 0.3361816 0.8779297
vn -0.3415527 0.8754883 -0.3415527
vn 0.3413086 0.342041 -0.8754883
vn 0.3415527 0.8754883 -0.3415527
vn 0.3415527 0.8754883 0.3415527
vn -0.3415527 0.8754883 0.3415527
vn -0.8774414 0.3371582 -0.3413086
vn -0.8774414 0.3347168 0.3430176
vn 0 -1 0
vn 0 -1 0
vn 0 -1 0
vn 0 -1 0
vn 0 -1 0
vn 0 -1 0
vn 0 -1 0
vn 0 -1 0
g Wooden_Railings_3_0
f 3/3/3 2/2/2 1/1/1
f 6/6/6 5/5/5 4/4/4
f 9/9/9 8/8/8 7/7/7
f 8/8/8 10/10/10 7/7/7
f 8/8/8 11/11/11 10/10/10
f 7/7/7 10/10/10 12/12/12
f 11/11/11 13/13/13 10/10/10
f 10/10/10 14/14/14 12/12/12
f 10/10/10 13/13/13 14/14/14
f 12/12/12 14/14/14 15/15/15
f 13/13/13 16/16/16 14/14/14
f 14/14/14 17/17/17 15/15/15
f 14/14/14 16/16/16 17/17/17
f 16/16/16 18/18/18 17/17/17
f 21/21/21 20/20/20 19/19/19
f 20/20/20 22/22/22 19/19/19
f 22/22/22 20/20/20 23/23/23
f 19/19/19 22/22/22 24/24/24
f 25/25/25 22/22/22 23/23/23
f 22/22/22 26/26/26 24/24/24
f 26/26/26 22/22/22 25/25/25
f 24/24/24 26/26/26 27/27/27
f 28/28/28 26/26/26 25/25/25
f 26/26/26 29/29/29 27/27/27
f 29/29/29 26/26/26 28/28/28
f 30/30/30 29/29/29 28/28/28
f 33/33/33 32/32/32 31/31/31
f 32/32/32 34/34/34 31/31/31
f 34/34/34 32/32/32 35/35/35
f 31/31/31 34/34/34 36/36/36
f 37/37/37 34/34/34 35/35/35
f 34/34/34 38/38/38 36/36/36
f 38/38/38 34/34/34 37/37/37
f 36/36/36 38/38/38 39/39/39
f 40/40/40 38/38/38 37/37/37
f 38/38/38 41/41/41 39/39/39
f 41/41/41 38/38/38 40/40/40
f 42/42/42 41/41/41 40/40/40
f 45/45/45 44/44/44 43/43/43
f 44/44/44 46/46/46 43/43/43
f 46/46/46 44/44/44 47/47/47
f 43/43/43 46/46/46 48/48/48
f 49/49/49 46/46/46 47/47/47
f 46/46/46 50/50/50 48/48/48
f 50/50/50 46/46/46 49/49/49
f 48/48/48 50/50/50 51/51/51
f 52/52/52 50/50/50 49/49/49
f 50/50/50 53/53/53 51/51/51
f 53/53/53 50/50/50 52/52/52
f 54/54/54 53/53/53 52/52/52
f 57/57/57 56/56/56 55/55/55
f 58/58/58 57/57/57 55/55/55
f 59/59/59 58/58/58 55/55/55
f 60/60/60 58/58/58 59/59/59
f 63/63/63 62/62/62 61/61/61
f 61/61/61 62/62/62 64/64/64
f 62/62/62 65/65/65 64/64/64
f 68/68/68 67/67/67 66/66/66
f 68/68/68 66/66/66 69/69/69
f 66/66/66 70/70/70 69/69/69
f 66/66/66 71/71/71 70/70/70
f 71/71/71 72/72/72 70/70/70
f 75/75/75 74/74/74 73/73/73
f 76/76/76 75/75/75 73/73/73
f 76/76/76 73/73/73 77/77/77
f 78/78/78 76/76/76 77/77/77
f 77/77/77 79/79/79 78/78/78
f 79/79/79 80/80/80 78/78/78
